<?xml version="1.0" encoding="UTF-8"?>
<!-- Generated by jsxcad -->
<!DOCTYPE svg PUBLIC "-//W3C//DTD SVG 1.1 Tiny//EN" "http://www.w3.org/Graphics/SVG/1.1/DTD/svg11-tiny.dtd">
<svg baseProfile="tiny" height="19.97434 mm" width="25 mm" viewBox="0 0 25 19.97434" version="1.1" stroke="black" stroke-width=".1" fill="none" xmlns="http://www.w3.org/2000/svg">
<path d="M12.49347 0.3064 L12.9896 0.20444 L13.48572 0.10249 L13.98962 0.05125 L14.49351 0 L15 0 L15.50649 0 L16.01038 0.05125 L16.51428 0.10249 L17.0104 0.20444 L17.50653 0.3064 L17.98979 0.45802 L18.47305 0.60965 L18.9385 0.80939 L19.40394 1.00912 L19.84679 1.25493 L20.28964 1.50073 L20.70535 1.79007 L21.12106 2.07941 L21.50536 2.40933 L21.88967 2.73924 L22.23863 3.10634 L22.58758 3.47345 L22.89761 3.87397 L23.20763 4.27449 L23.47555 4.70432 L23.65185 4.98717 L23.69766 5.06066 L23.74347 5.13415 L23.96652 5.58888 L24.18958 6.04361 L24.36549 6.51858 L24.54139 6.99354 L24.66835 7.48386 L24.7953 7.97418 L24.872 8.47484 L24.94869 8.97549 L24.97435 9.48133 L25 9.98717 L24.97435 10.49301 L24.94869 10.99885 L24.872 11.4995 L24.7953 12.00016 L24.66835 12.49048 L24.54139 12.9808 L24.36549 13.45576 L24.18958 13.93073 L23.96652 14.38546 L23.74347 14.84019 L23.68821 14.92884 L23.65185 14.98717 L23.47555 15.27002 L23.42974 15.34351 L23.20763 15.69985 L22.89761 16.10037 L22.58758 16.50089 L22.23863 16.868 L21.88967 17.2351 L21.50536 17.56501 L21.12106 17.89493 L20.70535 18.18427 L20.28964 18.47361 L19.84679 18.71941 L19.40394 18.96522 L18.9385 19.16495 L18.47305 19.36469 L17.98979 19.51632 L17.50653 19.66794 L17.0104 19.7699 L16.51428 19.87185 L16.01038 19.92309 L15.50649 19.97434 L15 19.97434 L14.49351 19.97434 L13.98962 19.92309 L13.48572 19.87185 L12.9896 19.7699 L12.49347 19.66794 L12.01021 19.51632 L11.52695 19.36469 L11.0615 19.16495 L10.59606 18.96522 L10.15321 18.71941 L9.71036 18.47361 L9.29465 18.18427 L8.87894 17.89493 L8.49464 17.56501 L8.11033 17.2351 L7.76137 16.868 L7.41242 16.50089 L7.10239 16.10037 L6.79237 15.69985 L6.52445 15.27002 L6.34815 14.98717 L6.33273 14.98717 L6.32863 14.98717 L6.30198 14.98717 L6.20168 14.98717 L6.15747 14.98717 L5.97352 14.98717 L5.21612 14.98717 L5 14.98717 L1.32612 14.98717 L0.66306 14.98717 L0 14.98717 L0 14.70263 L0 14.41809 L0 12.20221 L0 9.98717 L0 9.70173 L0 7.34445 L0 4.98717 L5 4.98717 L5.49181 4.98717 L6.09182 4.98717 L6.24071 4.98717 L6.31017 4.98717 L6.32863 4.98717 L6.33273 4.98717 L6.34815 4.98717 L6.52445 4.70432 L6.57026 4.63083 L6.79237 4.27449 L7.10239 3.87397 L7.41242 3.47345 L7.76137 3.10634 L8.11033 2.73924 L8.49464 2.40933 L8.87894 2.07941 L9.29465 1.79007 L9.71036 1.50073 L10.15321 1.25493 L10.59606 1.00912 L11.0615 0.80939 L11.52695 0.60965 L12.01021 0.45802 z"/>
</svg>