<?xml version="1.0" encoding="UTF-8"?>
<!-- Generated by jsxcad -->
<!DOCTYPE svg PUBLIC "-//W3C//DTD SVG 1.1 Tiny//EN" "http://www.w3.org/Graphics/SVG/1.1/DTD/svg11-tiny.dtd">
<svg baseProfile="tiny" height="10 mm" width="27 mm" viewBox="0 0 27 10" version="1.1" stroke="black" stroke-width=".1" fill="none" xmlns="http://www.w3.org/2000/svg">
<path d="M0 0 L5 0 L10 0 L22.02072 0 L26.56653 0 L26.57914 0 L26.6639 0 L26.74808 0 L26.83195 0 L26.91583 0 L27 0 L27 10 L26.87359 10 L26.74808 10 L26.623 10 L26.49792 10 L26.3724 10 L26.246 10 L26.11824 10 L25.98867 10 L25.85677 10 L25.72199 10 L25.58376 10 L25.44144 10 L25.29431 10 L25.14159 10 L24.98238 10 L24.81565 10 L24.64025 10 L24.45479 10 L24.25769 10 L24.04704 10 L23.82057 10 L23.57555 10 L23.30862 10 L23.05106 10 L10 10 L5 10 L0 10 L0 5 z"/>
</svg>