<?xml version="1.0" encoding="UTF-8"?>
<!-- Generated by jsxcad -->
<!DOCTYPE svg PUBLIC "-//W3C//DTD SVG 1.1 Tiny//EN" "http://www.w3.org/Graphics/SVG/1.1/DTD/svg11-tiny.dtd">
<svg baseProfile="tiny" height="10 mm" width="39.99368 mm" viewBox="0 0 39.99368 10" version="1.1" stroke="black" stroke-width=".1" fill="none" xmlns="http://www.w3.org/2000/svg">
<path d="M4.99368 0 L9.99368 0 L14.99368 0 L30.4681 0 L39.61327 0 L39.61556 0 L39.69119 0 L39.76671 0 L39.84224 0 L39.91787 0 L39.99368 0 L39.99368 10 L39.89251 10 L39.79172 10 L39.69119 10 L39.59078 10 L39.49037 10 L39.38984 10 L39.28905 10 L39.18788 10 L39.0862 10 L38.98386 10 L38.88074 10 L38.7767 10 L38.67158 10 L38.56524 10 L38.45752 10 L38.34826 10 L38.23726 10 L38.12437 10 L38.00937 10 L37.89205 10 L37.7722 10 L37.64958 10 L37.52392 10 L37.39495 10 L37.26237 10 L37.12584 10 L36.98501 10 L36.83948 10 L36.68883 10 L36.53256 10 L36.37017 10 L36.20106 10 L36.02457 10 L35.83998 10 L35.64646 10 L35.44309 10 L35.38395 10 L14.99368 10 L9.99368 10 L4.99368 10 L4.83154 10 L4.64146 10 L4.44415 10 L4.23784 10 L4.02031 10 L3.78874 10 L3.53947 10 L3.2676 10 L2.96646 10 L2.62661 10 L2.23425 10 L1.76835 10 L1.19506 10 L0.45611 10 L0 10 L0 5 L0 0 L0.18283 0 L0.55604 0 L0.92297 0 L1.28425 0 L1.64046 0 L1.83102 0 z"/>
</svg>