solid JSxCAD
facet normal 0 -1 0
outer loop
vertex -7.19015 -10 2.80985
vertex -10 -10 0
vertex -7.19015 -10 0
endloop
endfacet
facet normal 0 -1 0
outer loop
vertex -7.19015 -10 2.80985
vertex -7.19015 -10 20
vertex -10 -10 20
endloop
endfacet
facet normal 0 -1 0
outer loop
vertex -7.19015 -10 2.80985
vertex -10 -10 20
vertex -10 -10 0
endloop
endfacet
facet normal 0 -1 0
outer loop
vertex -2.29399 -10 7.70601
vertex -7.19015 -10 2.80985
vertex -7.19015 -10 0
endloop
endfacet
facet normal 0 -1 0
outer loop
vertex -2.29399 -10 7.70601
vertex -7.19015 -10 0
vertex -2.29399 -10 0
endloop
endfacet
facet normal 0 -1 0
outer loop
vertex -2.29399 -10 20
vertex -7.19015 -10 20
vertex -7.19015 -10 2.80985
endloop
endfacet
facet normal 0 -1 0
outer loop
vertex -2.29399 -10 20
vertex -7.19015 -10 2.80985
vertex -2.29399 -10 7.70601
endloop
endfacet
facet normal 0 -1 0
outer loop
vertex 7.19015 -10 17.19015
vertex 7.19015 -10 0
vertex 10 -10 0
endloop
endfacet
facet normal 0 -1 0
outer loop
vertex 7.19015 -10 17.19015
vertex 10 -10 0
vertex 10 -10 20
endloop
endfacet
facet normal 0 -1 0
outer loop
vertex 7.19015 -10 17.19015
vertex 10 -10 20
vertex 7.19015 -10 20
endloop
endfacet
facet normal 0 -1 0
outer loop
vertex -2.29399 -10 7.70601
vertex -2.29399 -10 0
vertex 7.19015 -10 0
endloop
endfacet
facet normal 0 -1 0
outer loop
vertex -2.29399 -10 7.70601
vertex 7.19015 -10 0
vertex 7.19015 -10 17.19015
endloop
endfacet
facet normal 0 -1 0
outer loop
vertex 7.19015 -10 20
vertex -2.29399 -10 20
vertex -2.29399 -10 7.70601
endloop
endfacet
facet normal 0 -1 0
outer loop
vertex 7.19015 -10 20
vertex -2.29399 -10 7.70601
vertex 7.19015 -10 17.19015
endloop
endfacet
facet normal 0 0 1
outer loop
vertex -8.26464 -8.26464 20
vertex -10 -5.46193 20
vertex -10 -10 20
endloop
endfacet
facet normal 0 0 1
outer loop
vertex -8.26464 -8.26464 20
vertex -10 -10 20
vertex -7.19015 -10 20
endloop
endfacet
facet normal 0 0 1
outer loop
vertex -10 -1.54691 20
vertex -10 -5.46193 20
vertex -8.26464 -8.26464 20
endloop
endfacet
facet normal 0 0 1
outer loop
vertex -10 -1.54691 20
vertex -8.26464 -8.26464 20
vertex -5.96886 -5.96886 20
endloop
endfacet
facet normal 0 0 1
outer loop
vertex -5.96886 -5.96886 20
vertex -8.26464 -8.26464 20
vertex -7.19015 -10 20
endloop
endfacet
facet normal 0 0 1
outer loop
vertex -5.96886 -5.96886 20
vertex -7.19015 -10 20
vertex -2.29399 -10 20
endloop
endfacet
facet normal 0 0 1
outer loop
vertex 7.19015 -10 20
vertex 10 -10 20
vertex 10 -5.46193 20
endloop
endfacet
facet normal 0 0 1
outer loop
vertex -10 0.06965 20
vertex -10 -1.54691 20
vertex -5.96886 -5.96886 20
endloop
endfacet
facet normal 0 0 1
outer loop
vertex -10 0.06965 20
vertex -5.96886 -5.96886 20
vertex -2.1608 -2.1608 20
endloop
endfacet
facet normal 0 0 1
outer loop
vertex 9.91635 -5.59704 20
vertex -2.1608 -2.1608 20
vertex -5.96886 -5.96886 20
endloop
endfacet
facet normal 0 0 1
outer loop
vertex 9.91635 -5.59704 20
vertex -5.96886 -5.96886 20
vertex -2.29399 -10 20
endloop
endfacet
facet normal 0 0 1
outer loop
vertex 9.91635 -5.59704 20
vertex -2.29399 -10 20
vertex 7.19015 -10 20
endloop
endfacet
facet normal 0 0 1
outer loop
vertex -10 0.50773 20
vertex -10 0.06965 20
vertex -7.94732 -0.51439 20
endloop
endfacet
facet normal 0 0 1
outer loop
vertex 10 0.06965 20
vertex 7.94732 -0.51439 20
vertex 2.16762 -3.39234 20
endloop
endfacet
facet normal 0 0 1
outer loop
vertex 10 0.06965 20
vertex 2.16762 -3.39234 20
vertex 9.91635 -5.59704 20
endloop
endfacet
facet normal 0 0 1
outer loop
vertex 10 0.06965 20
vertex 9.91635 -5.59704 20
vertex 10 -5.46193 20
endloop
endfacet
facet normal 0 0 1
outer loop
vertex 0 -2.7756 20
vertex 2.16762 -3.39234 20
vertex 7.94732 -0.51439 20
endloop
endfacet
facet normal 0 0 1
outer loop
vertex -2.05626 -2.19054 20
vertex 0 -2.7756 20
vertex 4.04249 -1.62541 20
endloop
endfacet
facet normal 0 0 1
outer loop
vertex -4.04249 -1.62541 20
vertex -2.1608 -2.1608 20
vertex -1.83039 -1.83039 20
endloop
endfacet
facet normal 0 0 1
outer loop
vertex -2.05626 -2.19054 20
vertex 0 -2 20
vertex -1.83039 -1.83039 20
endloop
endfacet
facet normal 0 0 1
outer loop
vertex -2.05626 -2.19054 20
vertex -1.83039 -1.83039 20
vertex -2.1608 -2.1608 20
endloop
endfacet
facet normal 0 0 1
outer loop
vertex 10 0.10092 20
vertex 9.93355 0.05074 20
vertex 10 0.06965 20
endloop
endfacet
facet normal 0 0 1
outer loop
vertex 10 0.10092 20
vertex 10 0.50773 20
vertex 7.94732 -0.51439 20
endloop
endfacet
facet normal 0 0 1
outer loop
vertex 10 0.10092 20
vertex 7.94732 -0.51439 20
vertex 9.93355 0.05074 20
endloop
endfacet
facet normal 0 0 -1
outer loop
vertex -8.26464 -8.26464 0
vertex -10 -10 0
vertex -10 -5.46193 0
endloop
endfacet
facet normal 0 0 -1
outer loop
vertex -7.19015 -10 0
vertex -10 -10 0
vertex -8.26464 -8.26464 0
endloop
endfacet
facet normal 0 0 -1
outer loop
vertex -5.96886 -5.96886 0
vertex -8.26464 -8.26464 0
vertex -10 -5.46193 0
endloop
endfacet
facet normal 0 0 -1
outer loop
vertex -5.96886 -5.96886 0
vertex -10 -5.46193 0
vertex -10 -1.54691 0
endloop
endfacet
facet normal 0 0 -1
outer loop
vertex -2.29399 -10 0
vertex -7.19015 -10 0
vertex -8.26464 -8.26464 0
endloop
endfacet
facet normal 0 0 -1
outer loop
vertex -2.29399 -10 0
vertex -8.26464 -8.26464 0
vertex -5.96886 -5.96886 0
endloop
endfacet
facet normal 0 0 -1
outer loop
vertex 10 -5.46193 0
vertex 10 -10 0
vertex 7.19015 -10 0
endloop
endfacet
facet normal 0 0 -1
outer loop
vertex -5.96886 -5.96886 0
vertex -10 -1.54691 0
vertex -10 0.06965 0
endloop
endfacet
facet normal 0 0 -1
outer loop
vertex -5.96886 -5.96886 0
vertex -10 0.06965 0
vertex -2.1608 -2.1608 0
endloop
endfacet
facet normal 0 0 -1
outer loop
vertex 9.91635 -5.59704 0
vertex 7.19015 -10 0
vertex -2.29399 -10 0
endloop
endfacet
facet normal 0 0 -1
outer loop
vertex 9.91635 -5.59704 0
vertex -2.29399 -10 0
vertex -5.96886 -5.96886 0
endloop
endfacet
facet normal 0 0 -1
outer loop
vertex 9.91635 -5.59704 0
vertex -5.96886 -5.96886 0
vertex -2.1608 -2.1608 0
endloop
endfacet
facet normal 0 0 -1
outer loop
vertex -7.94732 -0.51439 0
vertex -10 0.06965 0
vertex -10 0.50773 0
endloop
endfacet
facet normal 0 0 -1
outer loop
vertex 10 0.06965 0
vertex 10 -5.46193 0
vertex 9.91635 -5.59704 0
endloop
endfacet
facet normal 0 0 -1
outer loop
vertex 10 0.06965 0
vertex 9.91635 -5.59704 0
vertex 2.16762 -3.39234 0
endloop
endfacet
facet normal 0 0 -1
outer loop
vertex 10 0.06965 0
vertex 2.16762 -3.39234 0
vertex 7.94732 -0.51439 0
endloop
endfacet
facet normal 0 0 -1
outer loop
vertex 7.94732 -0.51439 0
vertex 2.16762 -3.39234 0
vertex 0 -2.7756 0
endloop
endfacet
facet normal 0 0 -1
outer loop
vertex 4.04249 -1.62541 0
vertex 0 -2.7756 0
vertex -2.05626 -2.19054 0
endloop
endfacet
facet normal 0 0 -1
outer loop
vertex -1.83039 -1.83039 0
vertex -2.1608 -2.1608 0
vertex -4.04249 -1.62541 0
endloop
endfacet
facet normal 0 0 -1
outer loop
vertex 0 -2 0
vertex -2.05626 -2.19054 0
vertex -2.1608 -2.1608 0
endloop
endfacet
facet normal 0 0 -1
outer loop
vertex 0 -2 0
vertex -2.1608 -2.1608 0
vertex -1.83039 -1.83039 0
endloop
endfacet
facet normal 0 0 -1
outer loop
vertex 9.93355 0.05074 0
vertex 10 0.10092 0
vertex 10 0.06965 0
endloop
endfacet
facet normal 0 0 -1
outer loop
vertex 9.93355 0.05074 0
vertex 7.94732 -0.51439 0
vertex 10 0.50773 0
endloop
endfacet
facet normal 0 0 -1
outer loop
vertex 9.93355 0.05074 0
vertex 10 0.50773 0
vertex 10 0.10092 0
endloop
endfacet
facet normal 1 0 0
outer loop
vertex 10 -5.46193 4.53807
vertex 10 -10 0
vertex 10 -5.46193 0
endloop
endfacet
facet normal 1 0 0
outer loop
vertex 10 -5.46193 4.53807
vertex 10 -5.46193 20
vertex 10 -10 20
endloop
endfacet
facet normal 1 0 0
outer loop
vertex 10 -5.46193 4.53807
vertex 10 -10 20
vertex 10 -10 0
endloop
endfacet
facet normal 1 0 0
outer loop
vertex 10 0.06965 10.06965
vertex 10 -5.46193 4.53807
vertex 10 -5.46193 0
endloop
endfacet
facet normal 1 0 0
outer loop
vertex 10 0.06965 10.06965
vertex 10 -5.46193 0
vertex 10 0.06965 0
endloop
endfacet
facet normal 1 0 0
outer loop
vertex 10 0.06965 20
vertex 10 -5.46193 20
vertex 10 -5.46193 4.53807
endloop
endfacet
facet normal 1 0 0
outer loop
vertex 10 0.06965 20
vertex 10 -5.46193 4.53807
vertex 10 0.06965 10.06965
endloop
endfacet
facet normal 1 0 0
outer loop
vertex 10 0.06965 0
vertex 10 0.10092 0
vertex 10 0.10092 10.10092
endloop
endfacet
facet normal 1 0 0
outer loop
vertex 10 0.06965 0
vertex 10 0.10092 10.10092
vertex 10 0.06965 10.06965
endloop
endfacet
facet normal 1 0 0
outer loop
vertex 10 0.10092 20
vertex 10 0.06965 20
vertex 10 0.06965 10.06965
endloop
endfacet
facet normal 1 0 0
outer loop
vertex 10 0.10092 20
vertex 10 0.06965 10.06965
vertex 10 0.10092 10.10092
endloop
endfacet
facet normal 1 0 0
outer loop
vertex 10 0.10092 0
vertex 10 0.50773 0
vertex 10 0.50773 10.50773
endloop
endfacet
facet normal 1 0 0
outer loop
vertex 10 0.10092 0
vertex 10 0.50773 10.50773
vertex 10 0.10092 10.10092
endloop
endfacet
facet normal 1 0 0
outer loop
vertex 10 0.10092 20
vertex 10 0.10092 10.10092
vertex 10 0.50773 10.50773
endloop
endfacet
facet normal 1 0 0
outer loop
vertex 10 0.10092 20
vertex 10 0.50773 10.50773
vertex 10 0.50773 20
endloop
endfacet
facet normal 0.2736630072612994 0.9618256382820651 0
outer loop
vertex -7.94732 -0.51439 0
vertex -4.04249 -1.62541 20
vertex -4.04249 -1.62541 0
endloop
endfacet
facet normal 0.2736630072612994 0.9618256382820651 0
outer loop
vertex -7.94732 -0.51439 20
vertex -4.04249 -1.62541 20
vertex -7.94732 -0.51439 0
endloop
endfacet
facet normal -0.2736630072612994 0.9618256382820651 0
outer loop
vertex 4.04249 -1.62541 0
vertex 7.94732 -0.51439 20
vertex 7.94732 -0.51439 0
endloop
endfacet
facet normal -0.2736630072612994 0.9618256382820651 0
outer loop
vertex 4.04249 -1.62541 20
vertex 7.94732 -0.51439 20
vertex 4.04249 -1.62541 0
endloop
endfacet
facet normal -0.09226790440883136 0.9957342184619362 0
outer loop
vertex 0 -2 0
vertex 4.04249 -1.62541 20
vertex 4.04249 -1.62541 0
endloop
endfacet
facet normal -0.09226790440883136 0.9957342184619362 0
outer loop
vertex 0 -2 20
vertex 4.04249 -1.62541 20
vertex 0 -2 0
endloop
endfacet
facet normal 0.09226790440883136 0.9957342184619362 0
outer loop
vertex -4.04249 -1.62541 0
vertex 0 -2 20
vertex 0 -2 0
endloop
endfacet
facet normal 0.09226790440883136 0.9957342184619362 0
outer loop
vertex -4.04249 -1.62541 20
vertex 0 -2 20
vertex -4.04249 -1.62541 0
endloop
endfacet
facet normal -0.4457407352020769 0.8951621065379789 0
outer loop
vertex 10 0.50773 11.29651
vertex 10 0.50773 0
vertex 7.94732 -0.51439 0
endloop
endfacet
facet normal -0.44574073520207697 0.8951621065379789 0
outer loop
vertex 10 0.50773 20
vertex 10 0.50773 11.29651
vertex 7.94732 -0.51439 0
endloop
endfacet
facet normal -0.44574073520207697 0.8951621065379789 0
outer loop
vertex 10 0.50773 20
vertex 7.94732 -0.51439 0
vertex 7.94732 -0.51439 20
endloop
endfacet
facet normal 0.44574073520207697 0.8951621065379789 0
outer loop
vertex -10 0.50773 8.70349
vertex -7.94732 -0.51439 20
vertex -7.94732 -0.51439 0
endloop
endfacet
facet normal 0.44574073520207697 0.8951621065379789 0
outer loop
vertex -10 0.50773 8.70349
vertex -7.94732 -0.51439 0
vertex -10 0.50773 0
endloop
endfacet
facet normal 0.4457407352020769 0.8951621065379789 0
outer loop
vertex -10 0.50773 20
vertex -7.94732 -0.51439 20
vertex -10 0.50773 8.70349
endloop
endfacet
facet normal -1 0 0
outer loop
vertex -10 0.50773 9.49227
vertex -10 0.50773 0
vertex -10 0.06965 0
endloop
endfacet
facet normal -1 0 0
outer loop
vertex -10 0.50773 9.49227
vertex -10 0.06965 0
vertex -10 0.06965 9.93035
endloop
endfacet
facet normal -1 0 0
outer loop
vertex -10 0.50773 20
vertex -10 0.50773 9.49227
vertex -10 0.06965 9.93035
endloop
endfacet
facet normal -1 0 0
outer loop
vertex -10 0.50773 20
vertex -10 0.06965 9.93035
vertex -10 0.06965 20
endloop
endfacet
facet normal -1 0 0
outer loop
vertex -10 -10 20
vertex -10 -5.46193 15.46193
vertex -10 -5.46193 0
endloop
endfacet
facet normal -1 0 0
outer loop
vertex -10 -10 20
vertex -10 -5.46193 0
vertex -10 -10 0
endloop
endfacet
facet normal -1 0 0
outer loop
vertex -10 -5.46193 15.46193
vertex -10 -10 20
vertex -10 -5.46193 20
endloop
endfacet
facet normal -1 0 0
outer loop
vertex -10 -1.54691 0
vertex -10 -5.46193 0
vertex -10 -5.46193 15.46193
endloop
endfacet
facet normal -1 0 0
outer loop
vertex -10 -1.54691 0
vertex -10 -5.46193 15.46193
vertex -10 -1.54691 11.54691
endloop
endfacet
facet normal -1 0 0
outer loop
vertex -10 -1.54691 20
vertex -10 -1.54691 11.54691
vertex -10 -5.46193 15.46193
endloop
endfacet
facet normal -1 0 0
outer loop
vertex -10 -1.54691 20
vertex -10 -5.46193 15.46193
vertex -10 -5.46193 20
endloop
endfacet
facet normal -1 0 0
outer loop
vertex -10 0.06965 0
vertex -10 -1.54691 0
vertex -10 -1.54691 11.54691
endloop
endfacet
facet normal -1 0 0
outer loop
vertex -10 0.06965 0
vertex -10 -1.54691 11.54691
vertex -10 0.06965 9.93035
endloop
endfacet
facet normal -1 0 0
outer loop
vertex -10 -1.54691 20
vertex -10 0.06965 20
vertex -10 0.06965 9.93035
endloop
endfacet
facet normal -1 0 0
outer loop
vertex -10 -1.54691 20
vertex -10 0.06965 9.93035
vertex -10 -1.54691 11.54691
endloop
endfacet
facet normal 0 0 1
outer loop
vertex 10 38.70478 20
vertex 11.58151 38.70478 20
vertex 10 39.49227 20
endloop
endfacet
facet normal 0 0 1
outer loop
vertex 10 38.55823 20
vertex 11.58151 38.70478 20
vertex 10 38.70478 20
endloop
endfacet
facet normal 0 0 1
outer loop
vertex 10 36.2582 20
vertex 14.8213 36.2582 20
vertex 11.58151 38.70478 20
endloop
endfacet
facet normal 0 0 1
outer loop
vertex 10 36.2582 20
vertex 11.58151 38.70478 20
vertex 10 38.55823 20
endloop
endfacet
facet normal 0 0 1
outer loop
vertex 10 35.81144 20
vertex 14.8213 36.2582 20
vertex 10 36.2582 20
endloop
endfacet
facet normal 0 0 1
outer loop
vertex 10 33.25796 20
vertex 17.55638 33.25796 20
vertex 14.8213 36.2582 20
endloop
endfacet
facet normal 0 0 1
outer loop
vertex 10 33.25796 20
vertex 14.8213 36.2582 20
vertex 10 35.81144 20
endloop
endfacet
facet normal 0 0 1
outer loop
vertex 10 32.55776 20
vertex 17.55638 33.25796 20
vertex 10 33.25796 20
endloop
endfacet
facet normal 0 0 1
outer loop
vertex 10 29.80624 20
vertex 19.69359 29.80624 20
vertex 17.55638 33.25796 20
endloop
endfacet
facet normal 0 0 1
outer loop
vertex 10 29.80624 20
vertex 17.55638 33.25796 20
vertex 10 32.55776 20
endloop
endfacet
facet normal 0 0 1
outer loop
vertex 10 28.908 20
vertex 19.69359 29.80624 20
vertex 10 29.80624 20
endloop
endfacet
facet normal 0 0 1
outer loop
vertex 10 26.02059 20
vertex 21.16016 26.02059 20
vertex 19.69359 29.80624 20
endloop
endfacet
facet normal 0 0 1
outer loop
vertex 10 26.02059 20
vertex 19.69359 29.80624 20
vertex 10 28.908 20
endloop
endfacet
facet normal 0 0 1
outer loop
vertex 10 23.13317 20
vertex 21.90615 22.0299 20
vertex 21.16016 26.02059 20
endloop
endfacet
facet normal 0 0 1
outer loop
vertex 10 23.13317 20
vertex 21.16016 26.02059 20
vertex 10 26.02059 20
endloop
endfacet
facet normal 0 0 1
outer loop
vertex 10 22.0299 20
vertex 21.90615 22.0299 20
vertex 10 23.13317 20
endloop
endfacet
facet normal 0 0 1
outer loop
vertex 10 20.92664 20
vertex 21.90615 22.0299 20
vertex 10 22.0299 20
endloop
endfacet
facet normal 0 0 1
outer loop
vertex 10 17.9701 20
vertex 21.90615 17.9701 20
vertex 21.90615 22.0299 20
endloop
endfacet
facet normal 0 0 1
outer loop
vertex 10 17.9701 20
vertex 21.90615 22.0299 20
vertex 10 20.92664 20
endloop
endfacet
facet normal 0 0 1
outer loop
vertex 10 16.86683 20
vertex 21.90615 17.9701 20
vertex 10 17.9701 20
endloop
endfacet
facet normal 0 0 1
outer loop
vertex 10 13.97941 20
vertex 21.16016 13.97941 20
vertex 21.90615 17.9701 20
endloop
endfacet
facet normal 0 0 1
outer loop
vertex 10 13.97941 20
vertex 21.90615 17.9701 20
vertex 10 16.86683 20
endloop
endfacet
facet normal 0 0 1
outer loop
vertex 10 12.94527 20
vertex 21.16016 13.97941 20
vertex 10 13.97941 20
endloop
endfacet
facet normal 0 0 1
outer loop
vertex 10 10.19376 20
vertex 19.69359 10.19376 20
vertex 21.16016 13.97941 20
endloop
endfacet
facet normal 0 0 1
outer loop
vertex 10 10.19376 20
vertex 21.16016 13.97941 20
vertex 10 12.94527 20
endloop
endfacet
facet normal 0 0 1
outer loop
vertex 10 9.29551 20
vertex 19.69359 10.19376 20
vertex 10 10.19376 20
endloop
endfacet
facet normal 0 0 1
outer loop
vertex 10 6.74204 20
vertex 17.55638 6.74204 20
vertex 19.69359 10.19376 20
endloop
endfacet
facet normal 0 0 1
outer loop
vertex 10 6.74204 20
vertex 19.69359 10.19376 20
vertex 10 9.29551 20
endloop
endfacet
facet normal 0 0 1
outer loop
vertex 10 4.18856 20
vertex 14.8213 3.7418 20
vertex 17.55638 6.74204 20
endloop
endfacet
facet normal 0 0 1
outer loop
vertex 10 4.18856 20
vertex 17.55638 6.74204 20
vertex 10 6.74204 20
endloop
endfacet
facet normal 0 0 1
outer loop
vertex 10 3.7418 20
vertex 14.8213 3.7418 20
vertex 10 4.18856 20
endloop
endfacet
facet normal 0 0 1
outer loop
vertex 10 3.29504 20
vertex 14.8213 3.7418 20
vertex 10 3.7418 20
endloop
endfacet
facet normal 0 0 1
outer loop
vertex 10 1.29522 20
vertex 11.58151 1.29522 20
vertex 14.8213 3.7418 20
endloop
endfacet
facet normal 0 0 1
outer loop
vertex 10 1.29522 20
vertex 14.8213 3.7418 20
vertex 10 3.29504 20
endloop
endfacet
facet normal 0 0 1
outer loop
vertex 10 1.14867 20
vertex 11.58151 1.29522 20
vertex 10 1.29522 20
endloop
endfacet
facet normal 0 0 1
outer loop
vertex 10 0.50773 20
vertex 11.58151 1.29522 20
vertex 10 1.14867 20
endloop
endfacet
facet normal 0 0 1
outer loop
vertex -4.04249 41.62541 20
vertex 4.04249 41.62541 20
vertex 0 42 20
endloop
endfacet
facet normal 0 0 1
outer loop
vertex -7.94732 40.51439 20
vertex 4.04249 41.62541 20
vertex -4.04249 41.62541 20
endloop
endfacet
facet normal 0 0 1
outer loop
vertex -7.94732 40.51439 20
vertex 7.94732 40.51439 20
vertex 4.04249 41.62541 20
endloop
endfacet
facet normal 0 0 1
outer loop
vertex -11.58151 38.70478 20
vertex 7.94732 40.51439 20
vertex -7.94732 40.51439 20
endloop
endfacet
facet normal 0 0 1
outer loop
vertex 10 38.70478 20
vertex 10 39.49227 20
vertex 7.94732 40.51439 20
endloop
endfacet
facet normal 0 0 1
outer loop
vertex 10 38.70478 20
vertex 7.94732 40.51439 20
vertex -11.58151 38.70478 20
endloop
endfacet
facet normal 0 0 1
outer loop
vertex 10 38.55823 20
vertex 10 38.70478 20
vertex -11.58151 38.70478 20
endloop
endfacet
facet normal 0 0 1
outer loop
vertex 10 38.55823 20
vertex -11.58151 38.70478 20
vertex -14.8213 36.2582 20
endloop
endfacet
facet normal 0 0 1
outer loop
vertex 10 36.2582 20
vertex 10 38.55823 20
vertex -14.8213 36.2582 20
endloop
endfacet
facet normal 0 0 1
outer loop
vertex 10 35.81144 20
vertex 10 36.2582 20
vertex -14.8213 36.2582 20
endloop
endfacet
facet normal 0 0 1
outer loop
vertex 10 35.81144 20
vertex -14.8213 36.2582 20
vertex -17.55638 33.25796 20
endloop
endfacet
facet normal 0 0 1
outer loop
vertex 10 33.25796 20
vertex 10 35.81144 20
vertex -17.55638 33.25796 20
endloop
endfacet
facet normal 0 0 1
outer loop
vertex 10 32.55776 20
vertex 10 33.25796 20
vertex -17.55638 33.25796 20
endloop
endfacet
facet normal 0 0 1
outer loop
vertex 10 32.55776 20
vertex -17.55638 33.25796 20
vertex -19.69359 29.80624 20
endloop
endfacet
facet normal 0 0 1
outer loop
vertex 10 29.80624 20
vertex 10 32.55776 20
vertex -19.69359 29.80624 20
endloop
endfacet
facet normal 0 0 1
outer loop
vertex 10 28.908 20
vertex 10 29.80624 20
vertex -19.69359 29.80624 20
endloop
endfacet
facet normal 0 0 1
outer loop
vertex 10 28.908 20
vertex -19.69359 29.80624 20
vertex -21.16016 26.02059 20
endloop
endfacet
facet normal 0 0 1
outer loop
vertex 10 26.02059 20
vertex 10 28.908 20
vertex -21.16016 26.02059 20
endloop
endfacet
facet normal 0 0 1
outer loop
vertex 10 23.13317 20
vertex 10 26.02059 20
vertex -21.16016 26.02059 20
endloop
endfacet
facet normal 0 0 1
outer loop
vertex 10 22.0299 20
vertex 10 23.13317 20
vertex -21.16016 26.02059 20
endloop
endfacet
facet normal 0 0 1
outer loop
vertex 10 22.0299 20
vertex -21.16016 26.02059 20
vertex -21.90615 22.0299 20
endloop
endfacet
facet normal 0 0 1
outer loop
vertex 10 20.92664 20
vertex 10 22.0299 20
vertex -21.90615 22.0299 20
endloop
endfacet
facet normal 0 0 1
outer loop
vertex 10 20.92664 20
vertex -21.90615 22.0299 20
vertex -21.90615 17.9701 20
endloop
endfacet
facet normal 0 0 1
outer loop
vertex 10 17.9701 20
vertex 10 20.92664 20
vertex -21.90615 17.9701 20
endloop
endfacet
facet normal 0 0 1
outer loop
vertex 10 16.86683 20
vertex 10 17.9701 20
vertex -21.90615 17.9701 20
endloop
endfacet
facet normal 0 0 1
outer loop
vertex 10 16.86683 20
vertex -21.90615 17.9701 20
vertex -21.16016 13.97941 20
endloop
endfacet
facet normal 0 0 1
outer loop
vertex 10 13.97941 20
vertex 10 16.86683 20
vertex -21.16016 13.97941 20
endloop
endfacet
facet normal 0 0 1
outer loop
vertex 10 12.94527 20
vertex 10 13.97941 20
vertex -21.16016 13.97941 20
endloop
endfacet
facet normal 0 0 1
outer loop
vertex 10 12.94527 20
vertex -21.16016 13.97941 20
vertex -19.69359 10.19376 20
endloop
endfacet
facet normal 0 0 1
outer loop
vertex 10 10.19376 20
vertex 10 12.94527 20
vertex -19.69359 10.19376 20
endloop
endfacet
facet normal 0 0 1
outer loop
vertex 10 9.29551 20
vertex 10 10.19376 20
vertex -19.69359 10.19376 20
endloop
endfacet
facet normal 0 0 1
outer loop
vertex 10 9.29551 20
vertex -19.69359 10.19376 20
vertex -17.55638 6.74204 20
endloop
endfacet
facet normal 0 0 1
outer loop
vertex 10 6.74204 20
vertex 10 9.29551 20
vertex -17.55638 6.74204 20
endloop
endfacet
facet normal 0 0 1
outer loop
vertex 10 4.18856 20
vertex 10 6.74204 20
vertex -17.55638 6.74204 20
endloop
endfacet
facet normal 0 0 1
outer loop
vertex 10 3.7418 20
vertex 10 4.18856 20
vertex -17.55638 6.74204 20
endloop
endfacet
facet normal 0 0 1
outer loop
vertex 10 3.7418 20
vertex -17.55638 6.74204 20
vertex -14.8213 3.7418 20
endloop
endfacet
facet normal 0 0 1
outer loop
vertex 10 3.29504 20
vertex 10 3.7418 20
vertex -14.8213 3.7418 20
endloop
endfacet
facet normal 0 0 1
outer loop
vertex 10 3.29504 20
vertex -14.8213 3.7418 20
vertex -11.58151 1.29522 20
endloop
endfacet
facet normal 0 0 1
outer loop
vertex 10 1.29522 20
vertex 10 3.29504 20
vertex -11.58151 1.29522 20
endloop
endfacet
facet normal 0 0 1
outer loop
vertex 10 1.14867 20
vertex 10 1.29522 20
vertex -11.58151 1.29522 20
endloop
endfacet
facet normal 0 0 1
outer loop
vertex 10 1.14867 20
vertex -11.58151 1.29522 20
vertex -7.94732 -0.51439 20
endloop
endfacet
facet normal 0 0 1
outer loop
vertex 7.94732 -0.51439 20
vertex 10 0.50773 20
vertex 10 1.14867 20
endloop
endfacet
facet normal 0 0 1
outer loop
vertex 7.94732 -0.51439 20
vertex 10 1.14867 20
vertex -7.94732 -0.51439 20
endloop
endfacet
facet normal 0 0 1
outer loop
vertex -4.04249 -1.62541 20
vertex 7.94732 -0.51439 20
vertex -7.94732 -0.51439 20
endloop
endfacet
facet normal 0 0 1
outer loop
vertex -4.04249 -1.62541 20
vertex 4.04249 -1.62541 20
vertex 7.94732 -0.51439 20
endloop
endfacet
facet normal 0 0 1
outer loop
vertex 4.04249 -1.62541 20
vertex -4.04249 -1.62541 20
vertex 0 -2 20
endloop
endfacet
facet normal 0 0 -1
outer loop
vertex 10 39.49227 0
vertex 11.58151 38.70478 0
vertex 10 38.70478 0
endloop
endfacet
facet normal 0 0 -1
outer loop
vertex 10 38.70478 0
vertex 11.58151 38.70478 0
vertex 10 38.55823 0
endloop
endfacet
facet normal 0 0 -1
outer loop
vertex 14.8213 36.2582 0
vertex 10 36.2582 0
vertex 10 38.55823 0
endloop
endfacet
facet normal 0 0 -1
outer loop
vertex 14.8213 36.2582 0
vertex 10 38.55823 0
vertex 11.58151 38.70478 0
endloop
endfacet
facet normal 0 0 -1
outer loop
vertex 10 36.2582 0
vertex 14.8213 36.2582 0
vertex 10 35.81144 0
endloop
endfacet
facet normal 0 0 -1
outer loop
vertex 17.55638 33.25796 0
vertex 10 33.25796 0
vertex 10 35.81144 0
endloop
endfacet
facet normal 0 0 -1
outer loop
vertex 17.55638 33.25796 0
vertex 10 35.81144 0
vertex 14.8213 36.2582 0
endloop
endfacet
facet normal 0 0 -1
outer loop
vertex 10 33.25796 0
vertex 17.55638 33.25796 0
vertex 10 32.55776 0
endloop
endfacet
facet normal 0 0 -1
outer loop
vertex 19.69359 29.80624 0
vertex 10 29.80624 0
vertex 10 32.55776 0
endloop
endfacet
facet normal 0 0 -1
outer loop
vertex 19.69359 29.80624 0
vertex 10 32.55776 0
vertex 17.55638 33.25796 0
endloop
endfacet
facet normal 0 0 -1
outer loop
vertex 10 29.80624 0
vertex 19.69359 29.80624 0
vertex 10 28.908 0
endloop
endfacet
facet normal 0 0 -1
outer loop
vertex 21.16016 26.02059 0
vertex 10 26.02059 0
vertex 10 28.908 0
endloop
endfacet
facet normal 0 0 -1
outer loop
vertex 21.16016 26.02059 0
vertex 10 28.908 0
vertex 19.69359 29.80624 0
endloop
endfacet
facet normal 0 0 -1
outer loop
vertex 21.90615 22.0299 0
vertex 10 23.13317 0
vertex 10 26.02059 0
endloop
endfacet
facet normal 0 0 -1
outer loop
vertex 21.90615 22.0299 0
vertex 10 26.02059 0
vertex 21.16016 26.02059 0
endloop
endfacet
facet normal 0 0 -1
outer loop
vertex 10 23.13317 0
vertex 21.90615 22.0299 0
vertex 10 22.0299 0
endloop
endfacet
facet normal 0 0 -1
outer loop
vertex 10 22.0299 0
vertex 21.90615 22.0299 0
vertex 10 20.92664 0
endloop
endfacet
facet normal 0 0 -1
outer loop
vertex 21.90615 17.9701 0
vertex 10 17.9701 0
vertex 10 20.92664 0
endloop
endfacet
facet normal 0 0 -1
outer loop
vertex 21.90615 17.9701 0
vertex 10 20.92664 0
vertex 21.90615 22.0299 0
endloop
endfacet
facet normal 0 0 -1
outer loop
vertex 10 17.9701 0
vertex 21.90615 17.9701 0
vertex 10 16.86683 0
endloop
endfacet
facet normal 0 0 -1
outer loop
vertex 21.16016 13.97941 0
vertex 10 13.97941 0
vertex 10 16.86683 0
endloop
endfacet
facet normal 0 0 -1
outer loop
vertex 21.16016 13.97941 0
vertex 10 16.86683 0
vertex 21.90615 17.9701 0
endloop
endfacet
facet normal 0 0 -1
outer loop
vertex 10 13.97941 0
vertex 21.16016 13.97941 0
vertex 10 12.94527 0
endloop
endfacet
facet normal 0 0 -1
outer loop
vertex 19.69359 10.19376 0
vertex 10 10.19376 0
vertex 10 12.94527 0
endloop
endfacet
facet normal 0 0 -1
outer loop
vertex 19.69359 10.19376 0
vertex 10 12.94527 0
vertex 21.16016 13.97941 0
endloop
endfacet
facet normal 0 0 -1
outer loop
vertex 10 10.19376 0
vertex 19.69359 10.19376 0
vertex 10 9.29551 0
endloop
endfacet
facet normal 0 0 -1
outer loop
vertex 17.55638 6.74204 0
vertex 10 6.74204 0
vertex 10 9.29551 0
endloop
endfacet
facet normal 0 0 -1
outer loop
vertex 17.55638 6.74204 0
vertex 10 9.29551 0
vertex 19.69359 10.19376 0
endloop
endfacet
facet normal 0 0 -1
outer loop
vertex 14.8213 3.7418 0
vertex 10 4.18856 0
vertex 10 6.74204 0
endloop
endfacet
facet normal 0 0 -1
outer loop
vertex 14.8213 3.7418 0
vertex 10 6.74204 0
vertex 17.55638 6.74204 0
endloop
endfacet
facet normal 0 0 -1
outer loop
vertex 10 4.18856 0
vertex 14.8213 3.7418 0
vertex 10 3.7418 0
endloop
endfacet
facet normal 0 0 -1
outer loop
vertex 10 3.7418 0
vertex 14.8213 3.7418 0
vertex 10 3.29504 0
endloop
endfacet
facet normal 0 0 -1
outer loop
vertex 11.58151 1.29522 0
vertex 10 1.29522 0
vertex 10 3.29504 0
endloop
endfacet
facet normal 0 0 -1
outer loop
vertex 11.58151 1.29522 0
vertex 10 3.29504 0
vertex 14.8213 3.7418 0
endloop
endfacet
facet normal 0 0 -1
outer loop
vertex 10 1.29522 0
vertex 11.58151 1.29522 0
vertex 10 1.14867 0
endloop
endfacet
facet normal 0 0 -1
outer loop
vertex 10 0.50773 0
vertex 10 1.14867 0
vertex 11.58151 1.29522 0
endloop
endfacet
facet normal 0 0 -1
outer loop
vertex 0 42 0
vertex 4.04249 41.62541 0
vertex -4.04249 41.62541 0
endloop
endfacet
facet normal 0 0 -1
outer loop
vertex -4.04249 41.62541 0
vertex 4.04249 41.62541 0
vertex -7.94732 40.51439 0
endloop
endfacet
facet normal 0 0 -1
outer loop
vertex 4.04249 41.62541 0
vertex 7.94732 40.51439 0
vertex -7.94732 40.51439 0
endloop
endfacet
facet normal 0 0 -1
outer loop
vertex -7.94732 40.51439 0
vertex 7.94732 40.51439 0
vertex -11.58151 38.70478 0
endloop
endfacet
facet normal 0 0 -1
outer loop
vertex 10 39.49227 0
vertex 10 38.70478 0
vertex -11.58151 38.70478 0
endloop
endfacet
facet normal 0 0 -1
outer loop
vertex 10 39.49227 0
vertex -11.58151 38.70478 0
vertex 7.94732 40.51439 0
endloop
endfacet
facet normal 0 0 -1
outer loop
vertex 10 38.70478 0
vertex 10 38.55823 0
vertex -14.8213 36.2582 0
endloop
endfacet
facet normal 0 0 -1
outer loop
vertex 10 38.70478 0
vertex -14.8213 36.2582 0
vertex -11.58151 38.70478 0
endloop
endfacet
facet normal 0 0 -1
outer loop
vertex 10 36.2582 0
vertex -14.8213 36.2582 0
vertex 10 38.55823 0
endloop
endfacet
facet normal 0 0 -1
outer loop
vertex 10 36.2582 0
vertex 10 35.81144 0
vertex -17.55638 33.25796 0
endloop
endfacet
facet normal 0 0 -1
outer loop
vertex 10 36.2582 0
vertex -17.55638 33.25796 0
vertex -14.8213 36.2582 0
endloop
endfacet
facet normal 0 0 -1
outer loop
vertex 10 33.25796 0
vertex -17.55638 33.25796 0
vertex 10 35.81144 0
endloop
endfacet
facet normal 0 0 -1
outer loop
vertex 10 33.25796 0
vertex 10 32.55776 0
vertex -19.69359 29.80624 0
endloop
endfacet
facet normal 0 0 -1
outer loop
vertex 10 33.25796 0
vertex -19.69359 29.80624 0
vertex -17.55638 33.25796 0
endloop
endfacet
facet normal 0 0 -1
outer loop
vertex 10 29.80624 0
vertex -19.69359 29.80624 0
vertex 10 32.55776 0
endloop
endfacet
facet normal 0 0 -1
outer loop
vertex 10 29.80624 0
vertex 10 28.908 0
vertex -21.16016 26.02059 0
endloop
endfacet
facet normal 0 0 -1
outer loop
vertex 10 29.80624 0
vertex -21.16016 26.02059 0
vertex -19.69359 29.80624 0
endloop
endfacet
facet normal 0 0 -1
outer loop
vertex 10 26.02059 0
vertex -21.16016 26.02059 0
vertex 10 28.908 0
endloop
endfacet
facet normal 0 0 -1
outer loop
vertex 10 23.13317 0
vertex -21.16016 26.02059 0
vertex 10 26.02059 0
endloop
endfacet
facet normal 0 0 -1
outer loop
vertex 10 23.13317 0
vertex 10 22.0299 0
vertex -21.90615 22.0299 0
endloop
endfacet
facet normal 0 0 -1
outer loop
vertex 10 23.13317 0
vertex -21.90615 22.0299 0
vertex -21.16016 26.02059 0
endloop
endfacet
facet normal 0 0 -1
outer loop
vertex 10 22.0299 0
vertex 10 20.92664 0
vertex -21.90615 17.9701 0
endloop
endfacet
facet normal 0 0 -1
outer loop
vertex 10 22.0299 0
vertex -21.90615 17.9701 0
vertex -21.90615 22.0299 0
endloop
endfacet
facet normal 0 0 -1
outer loop
vertex 10 17.9701 0
vertex -21.90615 17.9701 0
vertex 10 20.92664 0
endloop
endfacet
facet normal 0 0 -1
outer loop
vertex 10 17.9701 0
vertex 10 16.86683 0
vertex -21.16016 13.97941 0
endloop
endfacet
facet normal 0 0 -1
outer loop
vertex 10 17.9701 0
vertex -21.16016 13.97941 0
vertex -21.90615 17.9701 0
endloop
endfacet
facet normal 0 0 -1
outer loop
vertex 10 13.97941 0
vertex -21.16016 13.97941 0
vertex 10 16.86683 0
endloop
endfacet
facet normal 0 0 -1
outer loop
vertex 10 13.97941 0
vertex 10 12.94527 0
vertex -19.69359 10.19376 0
endloop
endfacet
facet normal 0 0 -1
outer loop
vertex 10 13.97941 0
vertex -19.69359 10.19376 0
vertex -21.16016 13.97941 0
endloop
endfacet
facet normal 0 0 -1
outer loop
vertex 10 10.19376 0
vertex -19.69359 10.19376 0
vertex 10 12.94527 0
endloop
endfacet
facet normal 0 0 -1
outer loop
vertex 10 10.19376 0
vertex 10 9.29551 0
vertex -17.55638 6.74204 0
endloop
endfacet
facet normal 0 0 -1
outer loop
vertex 10 10.19376 0
vertex -17.55638 6.74204 0
vertex -19.69359 10.19376 0
endloop
endfacet
facet normal 0 0 -1
outer loop
vertex 10 6.74204 0
vertex -17.55638 6.74204 0
vertex 10 9.29551 0
endloop
endfacet
facet normal 0 0 -1
outer loop
vertex 10 4.18856 0
vertex -17.55638 6.74204 0
vertex 10 6.74204 0
endloop
endfacet
facet normal 0 0 -1
outer loop
vertex 10 4.18856 0
vertex 10 3.7418 0
vertex -14.8213 3.7418 0
endloop
endfacet
facet normal 0 0 -1
outer loop
vertex 10 4.18856 0
vertex -14.8213 3.7418 0
vertex -17.55638 6.74204 0
endloop
endfacet
facet normal 0 0 -1
outer loop
vertex 10 3.7418 0
vertex 10 3.29504 0
vertex -11.58151 1.29522 0
endloop
endfacet
facet normal 0 0 -1
outer loop
vertex 10 3.7418 0
vertex -11.58151 1.29522 0
vertex -14.8213 3.7418 0
endloop
endfacet
facet normal 0 0 -1
outer loop
vertex 10 1.29522 0
vertex -11.58151 1.29522 0
vertex 10 3.29504 0
endloop
endfacet
facet normal 0 0 -1
outer loop
vertex 10 1.29522 0
vertex 10 1.14867 0
vertex -7.94732 -0.51439 0
endloop
endfacet
facet normal 0 0 -1
outer loop
vertex 10 1.29522 0
vertex -7.94732 -0.51439 0
vertex -11.58151 1.29522 0
endloop
endfacet
facet normal 0 0 -1
outer loop
vertex 10 0.50773 0
vertex 7.94732 -0.51439 0
vertex -7.94732 -0.51439 0
endloop
endfacet
facet normal 0 0 -1
outer loop
vertex 10 0.50773 0
vertex -7.94732 -0.51439 0
vertex 10 1.14867 0
endloop
endfacet
facet normal 0 0 -1
outer loop
vertex -7.94732 -0.51439 0
vertex 7.94732 -0.51439 0
vertex -4.04249 -1.62541 0
endloop
endfacet
facet normal 0 0 -1
outer loop
vertex 7.94732 -0.51439 0
vertex 4.04249 -1.62541 0
vertex -4.04249 -1.62541 0
endloop
endfacet
facet normal 0 0 -1
outer loop
vertex 0 -2 0
vertex -4.04249 -1.62541 0
vertex 4.04249 -1.62541 0
endloop
endfacet
facet normal 0.8502176363295635 0.5264313543798185 0
outer loop
vertex 17.55638 33.25796 0
vertex 17.55638 33.25796 20
vertex 19.69359 29.80624 0
endloop
endfacet
facet normal 0.8502176363295635 0.5264313543798185 0
outer loop
vertex 19.69359 29.80624 0
vertex 17.55638 33.25796 20
vertex 19.69359 29.80624 20
endloop
endfacet
facet normal 0.9829730662192399 -0.1837496968366097 0
outer loop
vertex 21.90615 17.9701 0
vertex 21.90615 17.9701 20
vertex 21.16016 13.97941 0
endloop
endfacet
facet normal 0.9829730662192399 -0.1837496968366097 0
outer loop
vertex 21.16016 13.97941 0
vertex 21.90615 17.9701 20
vertex 21.16016 13.97941 20
endloop
endfacet
facet normal -0.7390089352390634 -0.6736956238813085 0
outer loop
vertex -14.8213 3.7418 0
vertex -14.8213 3.7418 20
vertex -17.55638 6.74204 0
endloop
endfacet
facet normal -0.7390089352390634 -0.6736956238813085 0
outer loop
vertex -17.55638 6.74204 0
vertex -14.8213 3.7418 20
vertex -17.55638 6.74204 20
endloop
endfacet
facet normal -0.8502176363295635 -0.5264313543798184 0
outer loop
vertex -17.55638 6.74204 0
vertex -17.55638 6.74204 20
vertex -19.69359 10.19376 0
endloop
endfacet
facet normal -0.8502176363295635 -0.5264313543798184 0
outer loop
vertex -19.69359 10.19376 0
vertex -17.55638 6.74204 20
vertex -19.69359 10.19376 20
endloop
endfacet
facet normal 1 0 0
outer loop
vertex 21.90615 22.0299 0
vertex 21.90615 22.0299 20
vertex 21.90615 17.9701 0
endloop
endfacet
facet normal 1 0 0
outer loop
vertex 21.90615 17.9701 0
vertex 21.90615 22.0299 20
vertex 21.90615 17.9701 20
endloop
endfacet
facet normal 0.2736630072613002 0.9618256382820649 0
outer loop
vertex 4.04249 41.62541 0
vertex 4.04249 41.62541 20
vertex 7.94732 40.51439 0
endloop
endfacet
facet normal 0.2736630072613002 0.9618256382820649 0
outer loop
vertex 7.94732 40.51439 0
vertex 4.04249 41.62541 20
vertex 7.94732 40.51439 20
endloop
endfacet
facet normal 0.8502176363295635 -0.5264313543798184 0
outer loop
vertex 19.69359 10.19376 0
vertex 19.69359 10.19376 20
vertex 17.55638 6.74204 0
endloop
endfacet
facet normal 0.8502176363295635 -0.5264313543798184 0
outer loop
vertex 17.55638 6.74204 0
vertex 19.69359 10.19376 20
vertex 17.55638 6.74204 20
endloop
endfacet
facet normal -0.2736630072612994 -0.9618256382820651 0
outer loop
vertex -4.04249 -1.62541 0
vertex -4.04249 -1.62541 20
vertex -7.94732 -0.51439 0
endloop
endfacet
facet normal -0.2736630072612994 -0.9618256382820651 0
outer loop
vertex -7.94732 -0.51439 0
vertex -4.04249 -1.62541 20
vertex -7.94732 -0.51439 20
endloop
endfacet
facet normal 0.6026352888438277 0.7980167345614478 0
outer loop
vertex 11.58151 38.70478 0
vertex 11.58151 38.70478 20
vertex 14.8213 36.2582 0
endloop
endfacet
facet normal 0.6026352888438277 0.7980167345614478 0
outer loop
vertex 14.8213 36.2582 0
vertex 11.58151 38.70478 20
vertex 14.8213 36.2582 20
endloop
endfacet
facet normal -0.9829730662192399 0.18374969683660977 0
outer loop
vertex -21.90615 22.0299 0
vertex -21.90615 22.0299 20
vertex -21.16016 26.02059 0
endloop
endfacet
facet normal -0.9829730662192399 0.18374969683660977 0
outer loop
vertex -21.16016 26.02059 0
vertex -21.90615 22.0299 20
vertex -21.16016 26.02059 20
endloop
endfacet
facet normal -0.739008935239064 0.673695623881308 0
outer loop
vertex -17.55638 33.25796 0
vertex -17.55638 33.25796 20
vertex -14.8213 36.2582 0
endloop
endfacet
facet normal -0.739008935239064 0.673695623881308 0
outer loop
vertex -14.8213 36.2582 0
vertex -17.55638 33.25796 20
vertex -14.8213 36.2582 20
endloop
endfacet
facet normal -0.8502176363295635 0.5264313543798185 0
outer loop
vertex -19.69359 29.80624 0
vertex -19.69359 29.80624 20
vertex -17.55638 33.25796 0
endloop
endfacet
facet normal -0.8502176363295635 0.5264313543798185 0
outer loop
vertex -17.55638 33.25796 0
vertex -19.69359 29.80624 20
vertex -17.55638 33.25796 20
endloop
endfacet
facet normal -0.9829730662192399 -0.1837496968366097 0
outer loop
vertex -21.16016 13.97941 0
vertex -21.16016 13.97941 20
vertex -21.90615 17.9701 0
endloop
endfacet
facet normal -0.9829730662192399 -0.1837496968366097 0
outer loop
vertex -21.90615 17.9701 0
vertex -21.16016 13.97941 20
vertex -21.90615 17.9701 20
endloop
endfacet
facet normal -0.0922679044088308 0.9957342184619362 0
outer loop
vertex -4.04249 41.62541 0
vertex -4.04249 41.62541 20
vertex 0 42 0
endloop
endfacet
facet normal -0.0922679044088308 0.9957342184619362 0
outer loop
vertex 0 42 0
vertex -4.04249 41.62541 20
vertex 0 42 20
endloop
endfacet
facet normal -0.44573804013688834 -0.8951634485248634 0
outer loop
vertex -7.94732 -0.51439 0
vertex -7.94732 -0.51439 20
vertex -11.58151 1.29522 0
endloop
endfacet
facet normal -0.44573804013688834 -0.8951634485248634 0
outer loop
vertex -11.58151 1.29522 0
vertex -7.94732 -0.51439 20
vertex -11.58151 1.29522 20
endloop
endfacet
facet normal 0.2736630072612994 -0.9618256382820651 0
outer loop
vertex 7.94732 -0.51439 0
vertex 7.94732 -0.51439 20
vertex 4.04249 -1.62541 0
endloop
endfacet
facet normal 0.2736630072612994 -0.9618256382820651 0
outer loop
vertex 4.04249 -1.62541 0
vertex 7.94732 -0.51439 20
vertex 4.04249 -1.62541 20
endloop
endfacet
facet normal -0.6026352888438277 0.7980167345614478 0
outer loop
vertex -14.8213 36.2582 0
vertex -14.8213 36.2582 20
vertex -11.58151 38.70478 0
endloop
endfacet
facet normal -0.6026352888438277 0.7980167345614478 0
outer loop
vertex -11.58151 38.70478 0
vertex -14.8213 36.2582 20
vertex -11.58151 38.70478 20
endloop
endfacet
facet normal 0.09226790440883136 -0.9957342184619362 0
outer loop
vertex 4.04249 -1.62541 0
vertex 4.04249 -1.62541 20
vertex 0 -2 0
endloop
endfacet
facet normal 0.09226790440883136 -0.9957342184619362 0
outer loop
vertex 0 -2 0
vertex 4.04249 -1.62541 20
vertex 0 -2 20
endloop
endfacet
facet normal -0.09226790440883136 -0.9957342184619362 0
outer loop
vertex 0 -2 0
vertex 0 -2 20
vertex -4.04249 -1.62541 0
endloop
endfacet
facet normal -0.09226790440883136 -0.9957342184619362 0
outer loop
vertex -4.04249 -1.62541 0
vertex 0 -2 20
vertex -4.04249 -1.62541 20
endloop
endfacet
facet normal -0.2736630072613002 0.9618256382820649 0
outer loop
vertex -7.94732 40.51439 0
vertex -7.94732 40.51439 20
vertex -4.04249 41.62541 0
endloop
endfacet
facet normal -0.2736630072613002 0.9618256382820649 0
outer loop
vertex -4.04249 41.62541 0
vertex -7.94732 40.51439 20
vertex -4.04249 41.62541 20
endloop
endfacet
facet normal 0.6026352888438282 -0.7980167345614475 0
outer loop
vertex 14.8213 3.7418 0
vertex 14.8213 3.7418 20
vertex 11.58151 1.29522 0
endloop
endfacet
facet normal 0.6026352888438282 -0.7980167345614475 0
outer loop
vertex 11.58151 1.29522 0
vertex 14.8213 3.7418 20
vertex 11.58151 1.29522 20
endloop
endfacet
facet normal 0.0922679044088308 0.9957342184619362 0
outer loop
vertex 0 42 0
vertex 0 42 20
vertex 4.04249 41.62541 0
endloop
endfacet
facet normal 0.0922679044088308 0.9957342184619362 0
outer loop
vertex 4.04249 41.62541 0
vertex 0 42 20
vertex 4.04249 41.62541 20
endloop
endfacet
facet normal -1 0 0
outer loop
vertex -21.90615 17.9701 0
vertex -21.90615 17.9701 20
vertex -21.90615 22.0299 0
endloop
endfacet
facet normal -1 0 0
outer loop
vertex -21.90615 22.0299 0
vertex -21.90615 17.9701 20
vertex -21.90615 22.0299 20
endloop
endfacet
facet normal 0.9829730662192399 0.18374969683660977 0
outer loop
vertex 21.16016 26.02059 0
vertex 21.16016 26.02059 20
vertex 21.90615 22.0299 0
endloop
endfacet
facet normal 0.9829730662192399 0.18374969683660977 0
outer loop
vertex 21.90615 22.0299 0
vertex 21.16016 26.02059 20
vertex 21.90615 22.0299 20
endloop
endfacet
facet normal 0.739008935239064 0.673695623881308 0
outer loop
vertex 14.8213 36.2582 0
vertex 14.8213 36.2582 20
vertex 17.55638 33.25796 0
endloop
endfacet
facet normal 0.739008935239064 0.673695623881308 0
outer loop
vertex 17.55638 33.25796 0
vertex 14.8213 36.2582 20
vertex 17.55638 33.25796 20
endloop
endfacet
facet normal -0.6026352888438282 -0.7980167345614475 0
outer loop
vertex -11.58151 1.29522 0
vertex -11.58151 1.29522 20
vertex -14.8213 3.7418 0
endloop
endfacet
facet normal -0.6026352888438282 -0.7980167345614475 0
outer loop
vertex -14.8213 3.7418 0
vertex -11.58151 1.29522 20
vertex -14.8213 3.7418 20
endloop
endfacet
facet normal 0.445734542128657 -0.8951651903159308 0
outer loop
vertex 11.58151 1.29522 20
vertex 10 0.50773 11.29651
vertex 10 0.50773 0
endloop
endfacet
facet normal 0.44573454212865704 -0.8951651903159307 0
outer loop
vertex 11.58151 1.29522 20
vertex 10 0.50773 0
vertex 11.58151 1.29522 0
endloop
endfacet
facet normal 0.44573454212865704 -0.8951651903159307 0
outer loop
vertex 10 0.50773 11.29651
vertex 11.58151 1.29522 20
vertex 10 0.50773 20
endloop
endfacet
facet normal 0.4457407352020769 -0.8951621065379789 0
outer loop
vertex 10 0.50773 11.29651
vertex 7.94732 -0.51439 0
vertex 10 0.50773 0
endloop
endfacet
facet normal 0.44574073520207697 -0.8951621065379789 0
outer loop
vertex 10 0.50773 11.29651
vertex 10 0.50773 20
vertex 7.94732 -0.51439 20
endloop
endfacet
facet normal 0.44574073520207697 -0.8951621065379789 0
outer loop
vertex 10 0.50773 11.29651
vertex 7.94732 -0.51439 20
vertex 7.94732 -0.51439 0
endloop
endfacet
facet normal 0.932472115164791 -0.3612419610733238 0
outer loop
vertex 21.16016 13.97941 0
vertex 21.16016 13.97941 20
vertex 19.69359 10.19376 0
endloop
endfacet
facet normal 0.932472115164791 -0.3612419610733238 0
outer loop
vertex 19.69359 10.19376 0
vertex 21.16016 13.97941 20
vertex 19.69359 10.19376 20
endloop
endfacet
facet normal -0.44573804013688817 0.8951634485248634 0
outer loop
vertex -11.58151 38.70478 0
vertex -11.58151 38.70478 20
vertex -7.94732 40.51439 0
endloop
endfacet
facet normal -0.44573804013688817 0.8951634485248634 0
outer loop
vertex -7.94732 40.51439 0
vertex -11.58151 38.70478 20
vertex -7.94732 40.51439 20
endloop
endfacet
facet normal -0.932472115164791 0.3612419610733238 0
outer loop
vertex -21.16016 26.02059 0
vertex -21.16016 26.02059 20
vertex -19.69359 29.80624 0
endloop
endfacet
facet normal -0.932472115164791 0.3612419610733238 0
outer loop
vertex -19.69359 29.80624 0
vertex -21.16016 26.02059 20
vertex -19.69359 29.80624 20
endloop
endfacet
facet normal -0.932472115164791 -0.3612419610733238 0
outer loop
vertex -19.69359 10.19376 0
vertex -19.69359 10.19376 20
vertex -21.16016 13.97941 0
endloop
endfacet
facet normal -0.932472115164791 -0.3612419610733238 0
outer loop
vertex -21.16016 13.97941 0
vertex -19.69359 10.19376 20
vertex -21.16016 13.97941 20
endloop
endfacet
facet normal 0.932472115164791 0.3612419610733238 0
outer loop
vertex 19.69359 29.80624 0
vertex 19.69359 29.80624 20
vertex 21.16016 26.02059 0
endloop
endfacet
facet normal 0.932472115164791 0.3612419610733238 0
outer loop
vertex 21.16016 26.02059 0
vertex 19.69359 29.80624 20
vertex 21.16016 26.02059 20
endloop
endfacet
facet normal 0.7390089352390634 -0.6736956238813085 0
outer loop
vertex 17.55638 6.74204 0
vertex 17.55638 6.74204 20
vertex 14.8213 3.7418 0
endloop
endfacet
facet normal 0.7390089352390634 -0.6736956238813085 0
outer loop
vertex 14.8213 3.7418 0
vertex 17.55638 6.74204 20
vertex 14.8213 3.7418 20
endloop
endfacet
facet normal 0.4457345421286562 0.8951651903159311 0
outer loop
vertex 10 39.49227 8.70349
vertex 11.58151 38.70478 0
vertex 10 39.49227 0
endloop
endfacet
facet normal 0.44573454212865615 0.8951651903159311 0
outer loop
vertex 10 39.49227 8.70349
vertex 10 39.49227 20
vertex 11.58151 38.70478 20
endloop
endfacet
facet normal 0.4457345421286562 0.895165190315931 0
outer loop
vertex 10 39.49227 8.70349
vertex 11.58151 38.70478 20
vertex 11.58151 38.70478 0
endloop
endfacet
facet normal 0.44574073520207735 0.8951621065379788 0
outer loop
vertex 7.94732 40.51439 20
vertex 10 39.49227 8.70349
vertex 10 39.49227 0
endloop
endfacet
facet normal 0.4457407352020773 0.8951621065379788 0
outer loop
vertex 7.94732 40.51439 20
vertex 10 39.49227 0
vertex 7.94732 40.51439 0
endloop
endfacet
facet normal 0.44574073520207724 0.8951621065379788 0
outer loop
vertex 10 39.49227 8.70349
vertex 7.94732 40.51439 20
vertex 10 39.49227 20
endloop
endfacet
endsolid JSxCAD
