<?xml version="1.0" encoding="UTF-8"?>
<!-- Generated by jsxcad -->
<!DOCTYPE svg PUBLIC "-//W3C//DTD SVG 1.1 Tiny//EN" "http://www.w3.org/Graphics/SVG/1.1/DTD/svg11-tiny.dtd">
<svg baseProfile="tiny" height="10 mm" width="100 mm" viewBox="0 0 100 10" version="1.1" stroke="black" stroke-width=".1" fill="none" xmlns="http://www.w3.org/2000/svg">
<path d="M29.77858 10 L29.52411 10 L29.25386 10 L28.96598 10 L28.65834 10 L28.32845 10 L27.97337 10 L27.58967 10 L27.17323 10 L26.71912 10 L26.22138 10 L25.67272 10 L25.06413 10 L24.38437 10 L23.61918 10 L22.75027 10 L21.75369 10 L20.59751 10 L19.23823 10 L17.61493 10 L15.63966 10 L13.18052 10 L10.03031 10 L5.84382 10 L0 10 L0 0 L0.72888 0 L1.44734 0 L2.15577 0 L2.85449 0 L3.54386 0 L3.54791 0 L35 0 L40 0 L45 0 L79.31991 0 L99.84971 0 L99.8499 0 L99.87992 0 L99.90994 0 L99.93995 0 L99.96997 0 L100 0 L100 10 L99.95995 10 L99.91993 10 L99.87992 10 L99.83992 10 L99.79992 10 L99.75992 10 L99.71989 10 L99.67985 10 L99.63977 10 L99.59965 10 L99.55948 10 L99.51926 10 L99.47897 10 L99.4386 10 L99.39816 10 L99.35763 10 L99.317 10 L99.27626 10 L99.23541 10 L99.19443 10 L99.15333 10 L99.11208 10 L99.07068 10 L99.02912 10 L98.98739 10 L98.94548 10 L98.90338 10 L98.86109 10 L98.81859 10 L98.77587 10 L98.73292 10 L98.68974 10 L98.6463 10 L98.60261 10 L98.55864 10 L98.51439 10 L98.46984 10 L98.42499 10 L98.37982 10 L98.33432 10 L98.28848 10 L98.24227 10 L98.1957 10 L98.14874 10 L98.10138 10 L98.05361 10 L98.00541 10 L97.95677 10 L97.90766 10 L97.85808 10 L97.808 10 L97.75741 10 L97.70629 10 L97.65462 10 L97.60238 10 L97.54956 10 L97.49613 10 L97.44206 10 L97.38734 10 L97.33195 10 L97.27586 10 L97.21904 10 L97.16147 10 L97.10312 10 L97.04397 10 L96.98399 10 L96.92314 10 L96.8614 10 L96.79873 10 L96.7351 10 L96.67047 10 L96.60481 10 L96.53808 10 L96.47023 10 L96.40123 10 L96.33103 10 L96.25959 10 L96.18686 10 L96.11279 10 L96.03731 10 L95.96039 10 L95.88197 10 L95.80197 10 L95.76069 10 L45 10 L40 10 L35 10 L34.97525 10 L34.88431 10 L34.79282 10 L34.7007 10 L34.60788 10 L34.51428 10 L34.4198 10 L34.32438 10 L34.22791 10 L34.13031 10 L34.03146 10 L33.93128 10 L33.82964 10 L33.72643 10 L33.62153 10 L33.51479 10 L33.40609 10 L33.29527 10 L33.18216 10 L33.0666 10 L32.9484 10 L32.82735 10 L32.70325 10 L32.57585 10 L32.4449 10 L32.31012 10 L32.17122 10 L32.02785 10 L31.87965 10 L31.72623 10 L31.56714 10 L31.40191 10 L31.22998 10 L31.05077 10 L30.8636 10 L30.66771 10 L30.46229 10 L30.24636 10 L30.01887 10 z"/>
</svg>