solid JSxCAD
facet normal 0 0 1
outer loop
vertex 4.841 -18.42706 20
vertex 11.75571 -16.18034 20
vertex 19.02113 -6.18034 20
endloop
endfacet
facet normal 0 0 1
outer loop
vertex 4.841 -18.42706 20
vertex 19.02113 -6.18034 20
vertex 19.02113 6.18034 20
endloop
endfacet
facet normal 0 0 1
outer loop
vertex 4.841 -18.42706 20
vertex 19.02113 6.18034 20
vertex 18.18666 7.32889 20
endloop
endfacet
facet normal 0 0 1
outer loop
vertex -14.94681 -11.78816 20
vertex -11.75571 -16.18034 20
vertex 0 -20 20
endloop
endfacet
facet normal 0 0 1
outer loop
vertex -14.94681 -11.78816 20
vertex 0 -20 20
vertex 4.841 -18.42706 20
endloop
endfacet
facet normal 0 0 1
outer loop
vertex -14.94681 -11.78816 20
vertex 4.841 -18.42706 20
vertex 5.18929 -17.75489 20
endloop
endfacet
facet normal 0 0 1
outer loop
vertex -14.94681 -11.78816 20
vertex 5.18929 -17.75489 20
vertex -4.95305 -6.8951 20
endloop
endfacet
facet normal 0 0 1
outer loop
vertex -4.95305 -6.8951 20
vertex 5.18929 -17.75489 20
vertex 14.56279 0.33513 20
endloop
endfacet
facet normal 0 0 1
outer loop
vertex -4.95305 -6.8951 20
vertex 14.56279 0.33513 20
vertex 6.95117 -1.06664 20
endloop
endfacet
facet normal 0 0 1
outer loop
vertex 6.95117 -1.06664 20
vertex 14.56279 0.33513 20
vertex 16.17702 3.45045 20
endloop
endfacet
facet normal 0 0 1
outer loop
vertex -19.02113 6.18034 20
vertex -19.02113 -6.18034 20
vertex -14.94681 -11.78816 20
endloop
endfacet
facet normal 0 0 1
outer loop
vertex -19.02113 6.18034 20
vertex -14.94681 -11.78816 20
vertex -4.95305 -6.8951 20
endloop
endfacet
facet normal 0 0 1
outer loop
vertex -19.02113 6.18034 20
vertex -4.95305 -6.8951 20
vertex -18.20883 7.29838 20
endloop
endfacet
facet normal 0 0 1
outer loop
vertex -4.95305 -6.8951 20
vertex 6.95117 -1.06664 20
vertex -7.85062 -3.79256 20
endloop
endfacet
facet normal 0 0 1
outer loop
vertex -7.85062 -3.79256 20
vertex 0 -2.34678 20
vertex -1.00969 -2.16083 20
endloop
endfacet
facet normal 0 0 1
outer loop
vertex -7.85062 -3.79256 20
vertex -1.00969 -2.16083 20
vertex -8.71724 -2.86463 20
endloop
endfacet
facet normal 0 0 1
outer loop
vertex -8.71724 -2.86463 20
vertex -1.00969 -2.16083 20
vertex -2.99567 -1.79509 20
endloop
endfacet
facet normal 0 0 1
outer loop
vertex -8.71724 -2.86463 20
vertex -2.99567 -1.79509 20
vertex -10.34268 -1.12421 20
endloop
endfacet
facet normal 0 0 1
outer loop
vertex -11.11211 -0.30035 20
vertex -10.34268 -1.12421 20
vertex -2.99567 -1.79509 20
endloop
endfacet
facet normal 0 0 1
outer loop
vertex -18.08949 7.46263 20
vertex -18.20883 7.29838 20
vertex -16.74518 5.73119 20
endloop
endfacet
facet normal 0 0 1
outer loop
vertex 0 -2.34678 20
vertex 2.99567 -1.79509 20
vertex -1.00969 -2.16083 20
endloop
endfacet
facet normal 0 0 1
outer loop
vertex -1.00969 -2.16083 20
vertex 0 -2.06863 20
vertex -2.99567 -1.79509 20
endloop
endfacet
facet normal 0 0 1
outer loop
vertex -12.58657 1.27841 20
vertex -11.11211 -0.30035 20
vertex -5.95405 -1.25027 20
endloop
endfacet
facet normal 0 0 1
outer loop
vertex -13.99994 2.79176 20
vertex -12.58657 1.27841 20
vertex -9.70434 0.17955 20
endloop
endfacet
facet normal 0 0 1
outer loop
vertex -14.69198 3.53274 20
vertex -13.99994 2.79176 20
vertex -12.27455 1.74252 20
endloop
endfacet
facet normal 0 0 1
outer loop
vertex -15.37827 4.26759 20
vertex -14.69198 3.53274 20
vertex -13.88393 2.93435 20
endloop
endfacet
facet normal 0 0 1
outer loop
vertex 4.96519 -1.43238 20
vertex 6.95117 -1.06664 20
vertex 7.86177 -0.6208 20
endloop
endfacet
facet normal 0 0 1
outer loop
vertex -1.00132 -1.9772 20
vertex 0 -2.06863 20
vertex 1.00132 -1.9772 20
endloop
endfacet
facet normal 0 0 1
outer loop
vertex 13.29919 2.04143 20
vertex 16.17702 3.45045 20
vertex 18.12351 7.20703 20
endloop
endfacet
facet normal 0 0 1
outer loop
vertex 10.56345 0.70198 20
vertex 13.29919 2.04143 20
vertex 13.99994 2.79176 20
endloop
endfacet
facet normal 0 0 1
outer loop
vertex 13.13366 2.26496 20
vertex 13.99994 2.79176 20
vertex 15.37827 4.26759 20
endloop
endfacet
facet normal 0 0 1
outer loop
vertex 17.43148 6.46604 20
vertex 18.12351 7.20703 20
vertex 18.18666 7.32889 20
endloop
endfacet
facet normal 0 0 1
outer loop
vertex 17.43148 6.46604 20
vertex 18.18666 7.32889 20
vertex 18.07862 7.4776 20
endloop
endfacet
facet normal 0 0 1
outer loop
vertex 16.74518 5.73119 20
vertex 17.43148 6.46604 20
vertex 17.97334 7.31303 20
endloop
endfacet
facet normal 0 0 1
outer loop
vertex 12.27455 1.74252 20
vertex 13.13366 2.26496 20
vertex 13.88393 2.93435 20
endloop
endfacet
facet normal 0 0 1
outer loop
vertex -6.89357 -0.89207 20
vertex -5.95405 -1.25027 20
vertex -4.96519 -1.43238 20
endloop
endfacet
facet normal 0 0 1
outer loop
vertex 8.76482 -0.17865 20
vertex 6.89357 -0.89207 20
vertex 7.86177 -0.6208 20
endloop
endfacet
facet normal 0 0 1
outer loop
vertex -10.56345 0.70198 20
vertex -9.70434 0.17955 20
vertex -8.76482 -0.17865 20
endloop
endfacet
facet normal 0 0 1
outer loop
vertex -18.07862 7.4776 20
vertex -18.08949 7.46263 20
vertex -17.97334 7.31303 20
endloop
endfacet
facet normal 0 0 -1
outer loop
vertex 18.18666 7.32889 0
vertex 19.02113 6.18034 0
vertex 19.02113 -6.18034 0
endloop
endfacet
facet normal 0 0 -1
outer loop
vertex 18.18666 7.32889 0
vertex 19.02113 -6.18034 0
vertex 11.75571 -16.18034 0
endloop
endfacet
facet normal 0 0 -1
outer loop
vertex 18.18666 7.32889 0
vertex 11.75571 -16.18034 0
vertex 4.841 -18.42706 0
endloop
endfacet
facet normal 0 0 -1
outer loop
vertex 4.841 -18.42706 0
vertex 0 -20 0
vertex -11.75571 -16.18034 0
endloop
endfacet
facet normal 0 0 -1
outer loop
vertex 4.841 -18.42706 0
vertex -11.75571 -16.18034 0
vertex -14.94681 -11.78816 0
endloop
endfacet
facet normal 0 0 -1
outer loop
vertex 4.841 -18.42706 0
vertex -14.94681 -11.78816 0
vertex -4.95305 -6.8951 0
endloop
endfacet
facet normal 0 0 -1
outer loop
vertex 4.841 -18.42706 0
vertex -4.95305 -6.8951 0
vertex 5.18929 -17.75489 0
endloop
endfacet
facet normal 0 0 -1
outer loop
vertex 6.95117 -1.06664 0
vertex 14.56279 0.33513 0
vertex 5.18929 -17.75489 0
endloop
endfacet
facet normal 0 0 -1
outer loop
vertex 6.95117 -1.06664 0
vertex 5.18929 -17.75489 0
vertex -4.95305 -6.8951 0
endloop
endfacet
facet normal 0 0 -1
outer loop
vertex 16.17702 3.45045 0
vertex 14.56279 0.33513 0
vertex 6.95117 -1.06664 0
endloop
endfacet
facet normal 0 0 -1
outer loop
vertex -14.94681 -11.78816 0
vertex -19.02113 -6.18034 0
vertex -19.02113 6.18034 0
endloop
endfacet
facet normal 0 0 -1
outer loop
vertex -14.94681 -11.78816 0
vertex -19.02113 6.18034 0
vertex -18.20883 7.29838 0
endloop
endfacet
facet normal 0 0 -1
outer loop
vertex -14.94681 -11.78816 0
vertex -18.20883 7.29838 0
vertex -4.95305 -6.8951 0
endloop
endfacet
facet normal 0 0 -1
outer loop
vertex 6.95117 -1.06664 0
vertex -4.95305 -6.8951 0
vertex -7.85062 -3.79256 0
endloop
endfacet
facet normal 0 0 -1
outer loop
vertex 0 -2.34678 0
vertex -7.85062 -3.79256 0
vertex -8.71724 -2.86463 0
endloop
endfacet
facet normal 0 0 -1
outer loop
vertex 0 -2.34678 0
vertex -8.71724 -2.86463 0
vertex -1.00969 -2.16083 0
endloop
endfacet
facet normal 0 0 -1
outer loop
vertex -1.00969 -2.16083 0
vertex -8.71724 -2.86463 0
vertex -10.34268 -1.12421 0
endloop
endfacet
facet normal 0 0 -1
outer loop
vertex -1.00969 -2.16083 0
vertex -10.34268 -1.12421 0
vertex -2.99567 -1.79509 0
endloop
endfacet
facet normal 0 0 -1
outer loop
vertex -2.99567 -1.79509 0
vertex -10.34268 -1.12421 0
vertex -11.11211 -0.30035 0
endloop
endfacet
facet normal 0 0 -1
outer loop
vertex -16.74518 5.73119 0
vertex -18.20883 7.29838 0
vertex -18.08949 7.46263 0
endloop
endfacet
facet normal 0 0 -1
outer loop
vertex 0 -2.34678 0
vertex -1.00969 -2.16083 0
vertex 2.99567 -1.79509 0
endloop
endfacet
facet normal 0 0 -1
outer loop
vertex -1.00969 -2.16083 0
vertex -2.99567 -1.79509 0
vertex 0 -2.06863 0
endloop
endfacet
facet normal 0 0 -1
outer loop
vertex -5.95405 -1.25027 0
vertex -11.11211 -0.30035 0
vertex -12.58657 1.27841 0
endloop
endfacet
facet normal 0 0 -1
outer loop
vertex -9.70434 0.17955 0
vertex -12.58657 1.27841 0
vertex -13.99994 2.79176 0
endloop
endfacet
facet normal 0 0 -1
outer loop
vertex -12.27455 1.74252 0
vertex -13.99994 2.79176 0
vertex -14.69198 3.53274 0
endloop
endfacet
facet normal 0 0 -1
outer loop
vertex -13.88393 2.93435 0
vertex -14.69198 3.53274 0
vertex -15.37827 4.26759 0
endloop
endfacet
facet normal 0 0 -1
outer loop
vertex 7.86177 -0.6208 0
vertex 6.95117 -1.06664 0
vertex 4.96519 -1.43238 0
endloop
endfacet
facet normal 0 0 -1
outer loop
vertex 1.00132 -1.9772 0
vertex 0 -2.06863 0
vertex -1.00132 -1.9772 0
endloop
endfacet
facet normal 0 0 -1
outer loop
vertex 18.12351 7.20703 0
vertex 16.17702 3.45045 0
vertex 13.29919 2.04143 0
endloop
endfacet
facet normal 0 0 -1
outer loop
vertex 13.99994 2.79176 0
vertex 13.29919 2.04143 0
vertex 10.56345 0.70198 0
endloop
endfacet
facet normal 0 0 -1
outer loop
vertex 15.37827 4.26759 0
vertex 13.99994 2.79176 0
vertex 13.13366 2.26496 0
endloop
endfacet
facet normal 0 0 -1
outer loop
vertex 18.07862 7.4776 0
vertex 18.18666 7.32889 0
vertex 18.12351 7.20703 0
endloop
endfacet
facet normal 0 0 -1
outer loop
vertex 18.07862 7.4776 0
vertex 18.12351 7.20703 0
vertex 17.43148 6.46604 0
endloop
endfacet
facet normal 0 0 -1
outer loop
vertex 17.97334 7.31303 0
vertex 17.43148 6.46604 0
vertex 16.74518 5.73119 0
endloop
endfacet
facet normal 0 0 -1
outer loop
vertex 13.88393 2.93435 0
vertex 13.13366 2.26496 0
vertex 12.27455 1.74252 0
endloop
endfacet
facet normal 0 0 -1
outer loop
vertex -4.96519 -1.43238 0
vertex -5.95405 -1.25027 0
vertex -6.89357 -0.89207 0
endloop
endfacet
facet normal 0 0 -1
outer loop
vertex 8.76482 -0.17865 0
vertex 7.86177 -0.6208 0
vertex 6.89357 -0.89207 0
endloop
endfacet
facet normal 0 0 -1
outer loop
vertex -8.76482 -0.17865 0
vertex -9.70434 0.17955 0
vertex -10.56345 0.70198 0
endloop
endfacet
facet normal 0 0 -1
outer loop
vertex -18.07862 7.4776 0
vertex -17.97334 7.31303 0
vertex -18.08949 7.46263 0
endloop
endfacet
facet normal -0.30901686835065567 -0.9510565572429189 0
outer loop
vertex 0 -20 0
vertex 0 -20 20
vertex -11.75571 -16.18034 0
endloop
endfacet
facet normal -0.30901686835065567 -0.9510565572429189 0
outer loop
vertex -11.75571 -16.18034 0
vertex 0 -20 20
vertex -11.75571 -16.18034 20
endloop
endfacet
facet normal 0.809017197504126 -0.5877849727090426 0
outer loop
vertex 19.02113 -6.18034 0
vertex 19.02113 -6.18034 20
vertex 11.75571 -16.18034 0
endloop
endfacet
facet normal 0.809017197504126 -0.5877849727090426 0
outer loop
vertex 11.75571 -16.18034 0
vertex 19.02113 -6.18034 20
vertex 11.75571 -16.18034 20
endloop
endfacet
facet normal -1 0 0
outer loop
vertex -19.02113 -6.18034 0
vertex -19.02113 -6.18034 20
vertex -19.02113 6.18034 0
endloop
endfacet
facet normal -1 0 0
outer loop
vertex -19.02113 6.18034 0
vertex -19.02113 -6.18034 20
vertex -19.02113 6.18034 20
endloop
endfacet
facet normal 1 0 0
outer loop
vertex 19.02113 6.18034 0
vertex 19.02113 6.18034 20
vertex 19.02113 -6.18034 0
endloop
endfacet
facet normal 1 0 0
outer loop
vertex 19.02113 -6.18034 0
vertex 19.02113 6.18034 20
vertex 19.02113 -6.18034 20
endloop
endfacet
facet normal -0.8090174814319336 -0.5877845819154591 0
outer loop
vertex -11.75571 -16.18034 20
vertex -14.94681 -11.78816 11.21565
vertex -14.94681 -11.78816 0
endloop
endfacet
facet normal -0.8090174814319335 -0.5877845819154591 0
outer loop
vertex -11.75571 -16.18034 20
vertex -14.94681 -11.78816 0
vertex -11.75571 -16.18034 0
endloop
endfacet
facet normal -0.8090174814319335 -0.5877845819154591 0
outer loop
vertex -14.94681 -11.78816 11.21565
vertex -11.75571 -16.18034 20
vertex -14.94681 -11.78816 20
endloop
endfacet
facet normal -0.8090169751250205 -0.5877852787877239 0
outer loop
vertex -14.94681 -11.78816 11.21565
vertex -19.02113 -6.18034 0
vertex -14.94681 -11.78816 0
endloop
endfacet
facet normal -0.8090169751250204 -0.5877852787877237 0
outer loop
vertex -14.94681 -11.78816 11.21565
vertex -14.94681 -11.78816 20
vertex -19.02113 -6.18034 20
endloop
endfacet
facet normal -0.8090169751250202 -0.5877852787877238 0
outer loop
vertex -14.94681 -11.78816 11.21565
vertex -19.02113 -6.18034 20
vertex -19.02113 -6.18034 0
endloop
endfacet
facet normal 0.3090163135274184 -0.9510567375156564 0
outer loop
vertex 11.75571 -16.18034 20
vertex 4.841 -18.42706 8.236
vertex 4.841 -18.42706 0
endloop
endfacet
facet normal 0.3090163135274184 -0.9510567375156564 0
outer loop
vertex 11.75571 -16.18034 20
vertex 4.841 -18.42706 0
vertex 11.75571 -16.18034 0
endloop
endfacet
facet normal 0.30901631352741843 -0.9510567375156566 0
outer loop
vertex 4.841 -18.42706 8.236
vertex 11.75571 -16.18034 20
vertex 4.841 -18.42706 20
endloop
endfacet
facet normal 0.30901766083963284 -0.9510562997473924 0
outer loop
vertex 4.841 -18.42706 8.236
vertex 0 -20 0
vertex 4.841 -18.42706 0
endloop
endfacet
facet normal 0.30901766083963284 -0.9510562997473923 0
outer loop
vertex 4.841 -18.42706 8.236
vertex 4.841 -18.42706 20
vertex 0 -20 20
endloop
endfacet
facet normal 0.30901766083963284 -0.9510562997473924 0
outer loop
vertex 4.841 -18.42706 8.236
vertex 0 -20 20
vertex 0 -20 0
endloop
endfacet
facet normal 0.7308352118972171 0.6825539488210071 0
outer loop
vertex -16.74518 5.73119 0
vertex -15.37827 4.26759 20
vertex -15.37827 4.26759 0
endloop
endfacet
facet normal 0.7308352118972171 0.6825539488210071 0
outer loop
vertex -16.74518 5.73119 20
vertex -15.37827 4.26759 20
vertex -16.74518 5.73119 0
endloop
endfacet
facet normal -0.4397338868186126 0.8981281137918998 0
outer loop
vertex 8.76482 -0.17865 0
vertex 10.56345 0.70198 20
vertex 10.56345 0.70198 0
endloop
endfacet
facet normal -0.4397338868186126 0.8981281137918998 0
outer loop
vertex 8.76482 -0.17865 20
vertex 10.56345 0.70198 20
vertex 8.76482 -0.17865 0
endloop
endfacet
facet normal -0.1811159133178471 0.9834617562178216 0
outer loop
vertex 2.99567 -1.79509 0
vertex 4.96519 -1.43238 20
vertex 4.96519 -1.43238 0
endloop
endfacet
facet normal -0.1811159133178471 0.9834617562178216 0
outer loop
vertex 2.99567 -1.79509 20
vertex 4.96519 -1.43238 20
vertex 2.99567 -1.79509 0
endloop
endfacet
facet normal 0.1811159133178471 0.9834617562178216 0
outer loop
vertex -4.96519 -1.43238 0
vertex -2.99567 -1.79509 20
vertex -2.99567 -1.79509 0
endloop
endfacet
facet normal 0.1811159133178471 0.9834617562178216 0
outer loop
vertex -4.96519 -1.43238 20
vertex -2.99567 -1.79509 20
vertex -4.96519 -1.43238 0
endloop
endfacet
facet normal 0.7898746241471699 0.6132683573513042 0
outer loop
vertex -17.97334 7.31303 0
vertex -16.74518 5.73119 20
vertex -16.74518 5.73119 0
endloop
endfacet
facet normal 0.7898746241471699 0.6132683573513042 0
outer loop
vertex -17.97334 7.31303 20
vertex -16.74518 5.73119 20
vertex -17.97334 7.31303 0
endloop
endfacet
facet normal -0.09093463701945984 0.9958568631033975 0
outer loop
vertex 1.00132 -1.9772 0
vertex 2.99567 -1.79509 20
vertex 2.99567 -1.79509 0
endloop
endfacet
facet normal -0.09093463701945984 0.9958568631033975 0
outer loop
vertex 1.00132 -1.9772 20
vertex 2.99567 -1.79509 20
vertex 1.00132 -1.9772 0
endloop
endfacet
facet normal 0.09093463701945984 0.9958568631033975 0
outer loop
vertex -2.99567 -1.79509 0
vertex -1.00132 -1.9772 20
vertex -1.00132 -1.9772 0
endloop
endfacet
facet normal 0.09093463701945984 0.9958568631033975 0
outer loop
vertex -2.99567 -1.79509 20
vertex -1.00132 -1.9772 20
vertex -2.99567 -1.79509 0
endloop
endfacet
facet normal 0.3562407543934675 0.9343942020952256 0
outer loop
vertex -8.76482 -0.17865 0
vertex -6.89357 -0.89207 20
vertex -6.89357 -0.89207 0
endloop
endfacet
facet normal 0.3562407543934675 0.9343942020952256 0
outer loop
vertex -8.76482 -0.17865 20
vertex -6.89357 -0.89207 20
vertex -8.76482 -0.17865 0
endloop
endfacet
facet normal 0.5195828707504504 0.8544200608732925 0
outer loop
vertex -12.27455 1.74252 0
vertex -10.56345 0.70198 20
vertex -10.56345 0.70198 0
endloop
endfacet
facet normal 0.5195828707504504 0.8544200608732925 0
outer loop
vertex -12.27455 1.74252 20
vertex -10.56345 0.70198 20
vertex -12.27455 1.74252 0
endloop
endfacet
facet normal 0.5951297434667823 0.803629633874437 0
outer loop
vertex -13.88393 2.93435 0
vertex -12.27455 1.74252 20
vertex -12.27455 1.74252 0
endloop
endfacet
facet normal 0.5951297434667823 0.803629633874437 0
outer loop
vertex -13.88393 2.93435 20
vertex -12.27455 1.74252 20
vertex -13.88393 2.93435 0
endloop
endfacet
facet normal 0.6657400626341795 0.7461837367591434 0
outer loop
vertex -15.37827 4.26759 0
vertex -13.88393 2.93435 20
vertex -13.88393 2.93435 0
endloop
endfacet
facet normal 0.6657400626341795 0.7461837367591434 0
outer loop
vertex -15.37827 4.26759 20
vertex -13.88393 2.93435 20
vertex -15.37827 4.26759 0
endloop
endfacet
facet normal -0.269798281884555 0.962916864060518 0
outer loop
vertex 4.96519 -1.43238 0
vertex 6.89357 -0.89207 20
vertex 6.89357 -0.89207 0
endloop
endfacet
facet normal -0.269798281884555 0.962916864060518 0
outer loop
vertex 4.96519 -1.43238 20
vertex 6.89357 -0.89207 20
vertex 4.96519 -1.43238 0
endloop
endfacet
facet normal 0 1 0
outer loop
vertex -1.00132 -1.9772 0
vertex 1.00132 -1.9772 20
vertex 1.00132 -1.9772 0
endloop
endfacet
facet normal 0 1 0
outer loop
vertex -1.00132 -1.9772 20
vertex 1.00132 -1.9772 20
vertex -1.00132 -1.9772 0
endloop
endfacet
facet normal -0.7308352118972171 0.6825539488210071 0
outer loop
vertex 15.37827 4.26759 0
vertex 16.74518 5.73119 20
vertex 16.74518 5.73119 0
endloop
endfacet
facet normal -0.7308352118972171 0.6825539488210071 0
outer loop
vertex 15.37827 4.26759 20
vertex 16.74518 5.73119 20
vertex 15.37827 4.26759 0
endloop
endfacet
facet normal -0.5195828707504504 0.8544200608732925 0
outer loop
vertex 10.56345 0.70198 0
vertex 12.27455 1.74252 20
vertex 12.27455 1.74252 0
endloop
endfacet
facet normal -0.5195828707504504 0.8544200608732925 0
outer loop
vertex 10.56345 0.70198 20
vertex 12.27455 1.74252 20
vertex 10.56345 0.70198 0
endloop
endfacet
facet normal -0.6657400626341795 0.7461837367591434 0
outer loop
vertex 13.88393 2.93435 0
vertex 15.37827 4.26759 20
vertex 15.37827 4.26759 0
endloop
endfacet
facet normal -0.6657400626341795 0.7461837367591434 0
outer loop
vertex 13.88393 2.93435 20
vertex 15.37827 4.26759 20
vertex 13.88393 2.93435 0
endloop
endfacet
facet normal -0.7898746241471699 0.6132683573513042 0
outer loop
vertex 16.74518 5.73119 0
vertex 17.97334 7.31303 20
vertex 17.97334 7.31303 0
endloop
endfacet
facet normal -0.7898746241471699 0.6132683573513042 0
outer loop
vertex 16.74518 5.73119 20
vertex 17.97334 7.31303 20
vertex 16.74518 5.73119 0
endloop
endfacet
facet normal -0.5951297434667823 0.803629633874437 0
outer loop
vertex 12.27455 1.74252 0
vertex 13.88393 2.93435 20
vertex 13.88393 2.93435 0
endloop
endfacet
facet normal -0.5951297434667823 0.803629633874437 0
outer loop
vertex 12.27455 1.74252 20
vertex 13.88393 2.93435 20
vertex 12.27455 1.74252 0
endloop
endfacet
facet normal 0.269798281884555 0.962916864060518 0
outer loop
vertex -6.89357 -0.89207 0
vertex -4.96519 -1.43238 20
vertex -4.96519 -1.43238 0
endloop
endfacet
facet normal 0.269798281884555 0.962916864060518 0
outer loop
vertex -6.89357 -0.89207 20
vertex -4.96519 -1.43238 20
vertex -6.89357 -0.89207 0
endloop
endfacet
facet normal -0.3562407543934675 0.9343942020952256 0
outer loop
vertex 6.89357 -0.89207 0
vertex 8.76482 -0.17865 20
vertex 8.76482 -0.17865 0
endloop
endfacet
facet normal -0.3562407543934675 0.9343942020952256 0
outer loop
vertex 6.89357 -0.89207 20
vertex 8.76482 -0.17865 20
vertex 6.89357 -0.89207 0
endloop
endfacet
facet normal 0.4397338868186126 0.8981281137918998 0
outer loop
vertex -10.56345 0.70198 0
vertex -8.76482 -0.17865 20
vertex -8.76482 -0.17865 0
endloop
endfacet
facet normal 0.4397338868186126 0.8981281137918998 0
outer loop
vertex -10.56345 0.70198 20
vertex -8.76482 -0.17865 20
vertex -10.56345 0.70198 0
endloop
endfacet
facet normal -0.8423755008743665 0.538891005238221 0
outer loop
vertex 18.07862 7.4776 0
vertex 17.97334 7.31303 0
vertex 18.07862 7.4776 1.95102
endloop
endfacet
facet normal -0.8423755008743665 0.538891005238221 0
outer loop
vertex 18.07862 7.4776 1.95102
vertex 17.97334 7.31303 0
vertex 17.97334 7.31303 20
endloop
endfacet
facet normal -0.8423755008743664 0.538891005238221 0
outer loop
vertex 18.07862 7.4776 1.95102
vertex 17.97334 7.31303 20
vertex 18.07862 7.4776 20
endloop
endfacet
facet normal 0.8423755008743665 0.538891005238221 0
outer loop
vertex -18.07862 7.4776 18.04898
vertex -17.97334 7.31303 20
vertex -17.97334 7.31303 0
endloop
endfacet
facet normal 0.8423755008743664 0.538891005238221 0
outer loop
vertex -18.07862 7.4776 18.04898
vertex -17.97334 7.31303 0
vertex -18.07862 7.4776 0
endloop
endfacet
facet normal 0.8423755008743665 0.538891005238221 0
outer loop
vertex -18.07862 7.4776 20
vertex -17.97334 7.31303 20
vertex -18.07862 7.4776 18.04898
endloop
endfacet
facet normal -0.8091799684911538 0.587560872244447 0
outer loop
vertex -18.07862 7.4776 17.40548
vertex -18.07862 7.4776 0
vertex -18.08949 7.46263 0
endloop
endfacet
facet normal -0.8091799684911537 0.587560872244447 0
outer loop
vertex -18.07862 7.4776 17.40548
vertex -18.08949 7.46263 0
vertex -18.08949 7.46263 17.43541
endloop
endfacet
facet normal -0.8091799684911538 0.587560872244447 0
outer loop
vertex -18.07862 7.4776 20
vertex -18.07862 7.4776 17.40548
vertex -18.08949 7.46263 17.43541
endloop
endfacet
facet normal -0.8091799684911538 0.587560872244447 0
outer loop
vertex -18.07862 7.4776 20
vertex -18.08949 7.46263 17.43541
vertex -18.08949 7.46263 20
endloop
endfacet
facet normal 0.8091799684911538 0.587560872244447 0
outer loop
vertex 18.07862 7.4776 0
vertex 18.07862 7.4776 2.59452
vertex 18.08949 7.46263 2.56459
endloop
endfacet
facet normal 0.8091799684911539 0.587560872244447 0
outer loop
vertex 18.07862 7.4776 0
vertex 18.08949 7.46263 2.56459
vertex 18.08949 7.46263 0
endloop
endfacet
facet normal 0.8091799684911538 0.5875608722444469 0
outer loop
vertex 18.08949 7.46263 2.56459
vertex 18.07862 7.4776 2.59452
vertex 18.07862 7.4776 20
endloop
endfacet
facet normal 0.8091799684911539 0.587560872244447 0
outer loop
vertex 18.08949 7.46263 2.56459
vertex 18.07862 7.4776 20
vertex 18.08949 7.46263 20
endloop
endfacet
facet normal 0.808976802635016 0.5878405674997483 0
outer loop
vertex 18.18666 7.32889 0
vertex 18.18666 7.32889 2.2971
vertex 18.20883 7.29838 2.23607
endloop
endfacet
facet normal 0.8089768026350159 0.5878405674997483 0
outer loop
vertex 18.18666 7.32889 0
vertex 18.20883 7.29838 2.23607
vertex 18.20883 7.29838 0
endloop
endfacet
facet normal 0.808976802635016 0.5878405674997484 0
outer loop
vertex 18.20883 7.29838 2.23607
vertex 18.18666 7.32889 2.2971
vertex 18.18666 7.32889 20
endloop
endfacet
facet normal 0.808976802635016 0.5878405674997484 0
outer loop
vertex 18.20883 7.29838 2.23607
vertex 18.18666 7.32889 20
vertex 18.20883 7.29838 20
endloop
endfacet
facet normal 0.8090106593277558 0.5877939716380816 0
outer loop
vertex 18.08949 7.46263 2.56459
vertex 18.18666 7.32889 2.2971
vertex 18.18666 7.32889 0
endloop
endfacet
facet normal 0.8090106593277557 0.5877939716380817 0
outer loop
vertex 18.08949 7.46263 2.56459
vertex 18.18666 7.32889 0
vertex 18.08949 7.46263 0
endloop
endfacet
facet normal 0.8090106593277558 0.5877939716380817 0
outer loop
vertex 18.18666 7.32889 2.2971
vertex 18.08949 7.46263 2.56459
vertex 18.08949 7.46263 20
endloop
endfacet
facet normal 0.8090106593277557 0.5877939716380816 0
outer loop
vertex 18.18666 7.32889 2.2971
vertex 18.08949 7.46263 20
vertex 18.18666 7.32889 20
endloop
endfacet
facet normal 0.8090182358686892 0.5877835435191378 0
outer loop
vertex 18.20883 7.29838 2.23607
vertex 19.02113 6.18034 0
vertex 18.20883 7.29838 0
endloop
endfacet
facet normal 0.809018235868689 0.5877835435191376 0
outer loop
vertex 19.02113 6.18034 0
vertex 18.20883 7.29838 2.23607
vertex 18.20883 7.29838 20
endloop
endfacet
facet normal 0.8090182358686892 0.5877835435191378 0
outer loop
vertex 19.02113 6.18034 0
vertex 18.20883 7.29838 20
vertex 19.02113 6.18034 20
endloop
endfacet
facet normal -0.8090043703197907 0.5878026274213811 0
outer loop
vertex -18.08949 7.46263 17.43541
vertex -18.08949 7.46263 0
vertex -18.20883 7.29838 0
endloop
endfacet
facet normal -0.8090043703197907 0.5878026274213811 0
outer loop
vertex -18.08949 7.46263 17.43541
vertex -18.20883 7.29838 0
vertex -18.20883 7.29838 17.76393
endloop
endfacet
facet normal -0.8090043703197907 0.5878026274213811 0
outer loop
vertex -18.20883 7.29838 20
vertex -18.08949 7.46263 20
vertex -18.08949 7.46263 17.43541
endloop
endfacet
facet normal -0.8090043703197908 0.587802627421381 0
outer loop
vertex -18.20883 7.29838 20
vertex -18.08949 7.46263 17.43541
vertex -18.20883 7.29838 17.76393
endloop
endfacet
facet normal -0.8090182358686892 0.5877835435191378 0
outer loop
vertex -19.02113 6.18034 20
vertex -18.20883 7.29838 17.76393
vertex -18.20883 7.29838 0
endloop
endfacet
facet normal -0.8090182358686892 0.5877835435191378 0
outer loop
vertex -19.02113 6.18034 20
vertex -18.20883 7.29838 0
vertex -19.02113 6.18034 0
endloop
endfacet
facet normal -0.809018235868689 0.5877835435191376 0
outer loop
vertex -18.20883 7.29838 17.76393
vertex -19.02113 6.18034 20
vertex -18.20883 7.29838 20
endloop
endfacet
facet normal 0 0 1
outer loop
vertex -19.02113 31.00884 20
vertex -19.53347 30.12143 20
vertex -20.37294 28.30322 20
endloop
endfacet
facet normal 0 0 1
outer loop
vertex -19.02113 31.00884 20
vertex -20.37294 28.30322 20
vertex -21.04358 26.41621 20
endloop
endfacet
facet normal 0 0 1
outer loop
vertex -19.02113 31.00884 20
vertex -21.04358 26.41621 20
vertex -21.53985 24.47603 20
endloop
endfacet
facet normal 0 0 1
outer loop
vertex -19.02113 31.00884 20
vertex -21.53985 24.47603 20
vertex -21.85763 22.49876 20
endloop
endfacet
facet normal 0 0 1
outer loop
vertex -19.02113 31.00884 20
vertex -21.85763 22.49876 20
vertex -21.9943 20.50079 20
endloop
endfacet
facet normal 0 0 1
outer loop
vertex -19.02113 31.00884 20
vertex -21.9943 20.50079 20
vertex -21.94871 18.49867 20
endloop
endfacet
facet normal 0 0 1
outer loop
vertex -19.02113 31.00884 20
vertex -21.94871 18.49867 20
vertex -21.72125 16.50898 20
endloop
endfacet
facet normal 0 0 1
outer loop
vertex -19.02113 31.00884 20
vertex -21.72125 16.50898 20
vertex -21.3138 14.54823 20
endloop
endfacet
facet normal 0 0 1
outer loop
vertex -19.02113 31.00884 20
vertex -21.3138 14.54823 20
vertex -20.72974 12.63265 20
endloop
endfacet
facet normal 0 0 1
outer loop
vertex -19.02113 31.00884 20
vertex -20.72974 12.63265 20
vertex -19.9739 10.77812 20
endloop
endfacet
facet normal 0 0 1
outer loop
vertex -19.02113 31.00884 20
vertex -19.9739 10.77812 20
vertex -19.05256 9 20
endloop
endfacet
facet normal 0 0 1
outer loop
vertex -19.02113 31.00884 20
vertex -19.05256 9 20
vertex -19.02113 8.95087 20
endloop
endfacet
facet normal 0 0 1
outer loop
vertex 19.02113 8.95087 20
vertex 19.05256 9 20
vertex 19.9739 10.77812 20
endloop
endfacet
facet normal 0 0 1
outer loop
vertex 19.02113 8.95087 20
vertex 19.9739 10.77812 20
vertex 20.72974 12.63265 20
endloop
endfacet
facet normal 0 0 1
outer loop
vertex 19.02113 8.95087 20
vertex 20.72974 12.63265 20
vertex 21.3138 14.54823 20
endloop
endfacet
facet normal 0 0 1
outer loop
vertex 19.02113 8.95087 20
vertex 21.3138 14.54823 20
vertex 21.72125 16.50898 20
endloop
endfacet
facet normal 0 0 1
outer loop
vertex 19.02113 8.95087 20
vertex 21.72125 16.50898 20
vertex 21.94871 18.49867 20
endloop
endfacet
facet normal 0 0 1
outer loop
vertex 19.02113 8.95087 20
vertex 21.94871 18.49867 20
vertex 21.9943 20.50079 20
endloop
endfacet
facet normal 0 0 1
outer loop
vertex 19.02113 8.95087 20
vertex 21.9943 20.50079 20
vertex 21.85763 22.49876 20
endloop
endfacet
facet normal 0 0 1
outer loop
vertex 19.02113 8.95087 20
vertex 21.85763 22.49876 20
vertex 21.53985 24.47603 20
endloop
endfacet
facet normal 0 0 1
outer loop
vertex 19.02113 8.95087 20
vertex 21.53985 24.47603 20
vertex 21.04358 26.41621 20
endloop
endfacet
facet normal 0 0 1
outer loop
vertex 19.02113 8.95087 20
vertex 21.04358 26.41621 20
vertex 20.37294 28.30322 20
endloop
endfacet
facet normal 0 0 1
outer loop
vertex 19.02113 8.95087 20
vertex 20.37294 28.30322 20
vertex 19.53347 30.12143 20
endloop
endfacet
facet normal 0 0 1
outer loop
vertex 19.02113 8.95087 20
vertex 19.53347 30.12143 20
vertex 19.02113 31.00884 20
endloop
endfacet
facet normal 0 0 1
outer loop
vertex -3.98456 41.63616 20
vertex -5.93553 41.18418 20
vertex -7.83732 40.55666 20
endloop
endfacet
facet normal 0 0 1
outer loop
vertex -3.98456 41.63616 20
vertex -7.83732 40.55666 20
vertex -9.67416 39.75881 20
endloop
endfacet
facet normal 0 0 1
outer loop
vertex -3.98456 41.63616 20
vertex -9.67416 39.75881 20
vertex -11.43085 38.79723 20
endloop
endfacet
facet normal 0 0 1
outer loop
vertex -3.98456 41.63616 20
vertex -11.43085 38.79723 20
vertex -13.09281 37.67988 20
endloop
endfacet
facet normal 0 0 1
outer loop
vertex -3.98456 41.63616 20
vertex -13.09281 37.67988 20
vertex -14.64628 36.41604 20
endloop
endfacet
facet normal 0 0 1
outer loop
vertex -3.98456 41.63616 20
vertex -14.64628 36.41604 20
vertex -16.07839 35.01617 20
endloop
endfacet
facet normal 0 0 1
outer loop
vertex -3.98456 41.63616 20
vertex -16.07839 35.01617 20
vertex -17.37727 33.49187 20
endloop
endfacet
facet normal 0 0 1
outer loop
vertex -3.98456 41.63616 20
vertex -17.37727 33.49187 20
vertex -18.53215 31.85577 20
endloop
endfacet
facet normal 0 0 1
outer loop
vertex -3.98456 41.63616 20
vertex -18.53215 31.85577 20
vertex -19.02113 31.00884 20
endloop
endfacet
facet normal 0 0 1
outer loop
vertex -3.98456 41.63616 20
vertex -19.02113 31.00884 20
vertex -19.02113 8.95087 20
endloop
endfacet
facet normal 0 0 1
outer loop
vertex -3.98456 41.63616 20
vertex -19.02113 8.95087 20
vertex -17.97334 7.31303 20
endloop
endfacet
facet normal 0 0 1
outer loop
vertex -3.98456 41.63616 20
vertex -17.97334 7.31303 20
vertex -16.74518 5.73119 20
endloop
endfacet
facet normal 0 0 1
outer loop
vertex -3.98456 41.63616 20
vertex -16.74518 5.73119 20
vertex -15.37827 4.26759 20
endloop
endfacet
facet normal 0 0 1
outer loop
vertex -3.98456 41.63616 20
vertex -15.37827 4.26759 20
vertex -13.88393 2.93435 20
endloop
endfacet
facet normal 0 0 1
outer loop
vertex -3.98456 41.63616 20
vertex -13.88393 2.93435 20
vertex -12.27455 1.74252 20
endloop
endfacet
facet normal 0 0 1
outer loop
vertex -3.98456 41.63616 20
vertex -12.27455 1.74252 20
vertex -10.56345 0.70198 20
endloop
endfacet
facet normal 0 0 1
outer loop
vertex -3.98456 41.63616 20
vertex -10.56345 0.70198 20
vertex -8.76482 -0.17865 20
endloop
endfacet
facet normal 0 0 1
outer loop
vertex -3.98456 41.63616 20
vertex -8.76482 -0.17865 20
vertex -6.89357 -0.89207 20
endloop
endfacet
facet normal 0 0 1
outer loop
vertex -3.98456 41.63616 20
vertex -6.89357 -0.89207 20
vertex -4.96519 -1.43238 20
endloop
endfacet
facet normal 0 0 1
outer loop
vertex -3.98456 41.63616 20
vertex -4.96519 -1.43238 20
vertex -2.99567 -1.79509 20
endloop
endfacet
facet normal 0 0 1
outer loop
vertex -3.98456 41.63616 20
vertex -2.99567 -1.79509 20
vertex -1.00132 -1.9772 20
endloop
endfacet
facet normal 0 0 1
outer loop
vertex -3.98456 41.63616 20
vertex -1.00132 -1.9772 20
vertex 1.00132 -1.9772 20
endloop
endfacet
facet normal 0 0 1
outer loop
vertex -3.98456 41.63616 20
vertex 1.00132 -1.9772 20
vertex 2.99567 -1.79509 20
endloop
endfacet
facet normal 0 0 1
outer loop
vertex -3.98456 41.63616 20
vertex 2.99567 -1.79509 20
vertex 4.96519 -1.43238 20
endloop
endfacet
facet normal 0 0 1
outer loop
vertex -3.98456 41.63616 20
vertex 4.96519 -1.43238 20
vertex 6.89357 -0.89207 20
endloop
endfacet
facet normal 0 0 1
outer loop
vertex -3.98456 41.63616 20
vertex 6.89357 -0.89207 20
vertex 8.76482 -0.17865 20
endloop
endfacet
facet normal 0 0 1
outer loop
vertex -3.98456 41.63616 20
vertex 8.76482 -0.17865 20
vertex 10.56345 0.70198 20
endloop
endfacet
facet normal 0 0 1
outer loop
vertex -3.98456 41.63616 20
vertex 10.56345 0.70198 20
vertex 12.27455 1.74252 20
endloop
endfacet
facet normal 0 0 1
outer loop
vertex -3.98456 41.63616 20
vertex 12.27455 1.74252 20
vertex 13.88393 2.93435 20
endloop
endfacet
facet normal 0 0 1
outer loop
vertex -3.98456 41.63616 20
vertex 13.88393 2.93435 20
vertex 15.37827 4.26759 20
endloop
endfacet
facet normal 0 0 1
outer loop
vertex -3.98456 41.63616 20
vertex 15.37827 4.26759 20
vertex 16.74518 5.73119 20
endloop
endfacet
facet normal 0 0 1
outer loop
vertex -3.98456 41.63616 20
vertex 16.74518 5.73119 20
vertex 17.97334 7.31303 20
endloop
endfacet
facet normal 0 0 1
outer loop
vertex -3.98456 41.63616 20
vertex 17.97334 7.31303 20
vertex 19.02113 8.95087 20
endloop
endfacet
facet normal 0 0 1
outer loop
vertex -3.98456 41.63616 20
vertex 19.02113 8.95087 20
vertex 19.02113 31.00884 20
endloop
endfacet
facet normal 0 0 1
outer loop
vertex -3.98456 41.63616 20
vertex 19.02113 31.00884 20
vertex 18.53215 31.85577 20
endloop
endfacet
facet normal 0 0 1
outer loop
vertex -3.98456 41.63616 20
vertex 18.53215 31.85577 20
vertex 17.37727 33.49187 20
endloop
endfacet
facet normal 0 0 1
outer loop
vertex -3.98456 41.63616 20
vertex 17.37727 33.49187 20
vertex 16.07839 35.01617 20
endloop
endfacet
facet normal 0 0 1
outer loop
vertex -3.98456 41.63616 20
vertex 16.07839 35.01617 20
vertex 14.64628 36.41604 20
endloop
endfacet
facet normal 0 0 1
outer loop
vertex -3.98456 41.63616 20
vertex 14.64628 36.41604 20
vertex 13.09281 37.67988 20
endloop
endfacet
facet normal 0 0 1
outer loop
vertex -3.98456 41.63616 20
vertex 13.09281 37.67988 20
vertex 11.43085 38.79723 20
endloop
endfacet
facet normal 0 0 1
outer loop
vertex -3.98456 41.63616 20
vertex 11.43085 38.79723 20
vertex 9.67416 39.75881 20
endloop
endfacet
facet normal 0 0 1
outer loop
vertex -3.98456 41.63616 20
vertex 9.67416 39.75881 20
vertex 7.83732 40.55666 20
endloop
endfacet
facet normal 0 0 1
outer loop
vertex -3.98456 41.63616 20
vertex 7.83732 40.55666 20
vertex 5.93553 41.18418 20
endloop
endfacet
facet normal 0 0 1
outer loop
vertex -3.98456 41.63616 20
vertex 5.93553 41.18418 20
vertex 3.98456 41.63616 20
endloop
endfacet
facet normal 0 0 1
outer loop
vertex -3.98456 41.63616 20
vertex 3.98456 41.63616 20
vertex 2.00057 41.90885 20
endloop
endfacet
facet normal 0 0 1
outer loop
vertex -3.98456 41.63616 20
vertex 2.00057 41.90885 20
vertex 0 42 20
endloop
endfacet
facet normal 0 0 1
outer loop
vertex -3.98456 41.63616 20
vertex 0 42 20
vertex -2.00057 41.90885 20
endloop
endfacet
facet normal 0 0 -1
outer loop
vertex -19.02113 8.95087 0
vertex -19.05256 9 0
vertex -19.9739 10.77812 0
endloop
endfacet
facet normal 0 0 -1
outer loop
vertex -19.02113 8.95087 0
vertex -19.9739 10.77812 0
vertex -20.72974 12.63265 0
endloop
endfacet
facet normal 0 0 -1
outer loop
vertex -19.02113 8.95087 0
vertex -20.72974 12.63265 0
vertex -21.3138 14.54823 0
endloop
endfacet
facet normal 0 0 -1
outer loop
vertex -19.02113 8.95087 0
vertex -21.3138 14.54823 0
vertex -21.72125 16.50898 0
endloop
endfacet
facet normal 0 0 -1
outer loop
vertex -19.02113 8.95087 0
vertex -21.72125 16.50898 0
vertex -21.94871 18.49867 0
endloop
endfacet
facet normal 0 0 -1
outer loop
vertex -19.02113 8.95087 0
vertex -21.94871 18.49867 0
vertex -21.9943 20.50079 0
endloop
endfacet
facet normal 0 0 -1
outer loop
vertex -19.02113 8.95087 0
vertex -21.9943 20.50079 0
vertex -21.85763 22.49876 0
endloop
endfacet
facet normal 0 0 -1
outer loop
vertex -19.02113 8.95087 0
vertex -21.85763 22.49876 0
vertex -21.53985 24.47603 0
endloop
endfacet
facet normal 0 0 -1
outer loop
vertex -19.02113 8.95087 0
vertex -21.53985 24.47603 0
vertex -21.04358 26.41621 0
endloop
endfacet
facet normal 0 0 -1
outer loop
vertex -19.02113 8.95087 0
vertex -21.04358 26.41621 0
vertex -20.37294 28.30322 0
endloop
endfacet
facet normal 0 0 -1
outer loop
vertex -19.02113 8.95087 0
vertex -20.37294 28.30322 0
vertex -19.53347 30.12143 0
endloop
endfacet
facet normal 0 0 -1
outer loop
vertex -19.02113 8.95087 0
vertex -19.53347 30.12143 0
vertex -19.02113 31.00884 0
endloop
endfacet
facet normal 0 0 -1
outer loop
vertex 19.02113 31.00884 0
vertex 19.53347 30.12143 0
vertex 20.37294 28.30322 0
endloop
endfacet
facet normal 0 0 -1
outer loop
vertex 19.02113 31.00884 0
vertex 20.37294 28.30322 0
vertex 21.04358 26.41621 0
endloop
endfacet
facet normal 0 0 -1
outer loop
vertex 19.02113 31.00884 0
vertex 21.04358 26.41621 0
vertex 21.53985 24.47603 0
endloop
endfacet
facet normal 0 0 -1
outer loop
vertex 19.02113 31.00884 0
vertex 21.53985 24.47603 0
vertex 21.85763 22.49876 0
endloop
endfacet
facet normal 0 0 -1
outer loop
vertex 19.02113 31.00884 0
vertex 21.85763 22.49876 0
vertex 21.9943 20.50079 0
endloop
endfacet
facet normal 0 0 -1
outer loop
vertex 19.02113 31.00884 0
vertex 21.9943 20.50079 0
vertex 21.94871 18.49867 0
endloop
endfacet
facet normal 0 0 -1
outer loop
vertex 19.02113 31.00884 0
vertex 21.94871 18.49867 0
vertex 21.72125 16.50898 0
endloop
endfacet
facet normal 0 0 -1
outer loop
vertex 19.02113 31.00884 0
vertex 21.72125 16.50898 0
vertex 21.3138 14.54823 0
endloop
endfacet
facet normal 0 0 -1
outer loop
vertex 19.02113 31.00884 0
vertex 21.3138 14.54823 0
vertex 20.72974 12.63265 0
endloop
endfacet
facet normal 0 0 -1
outer loop
vertex 19.02113 31.00884 0
vertex 20.72974 12.63265 0
vertex 19.9739 10.77812 0
endloop
endfacet
facet normal 0 0 -1
outer loop
vertex 19.02113 31.00884 0
vertex 19.9739 10.77812 0
vertex 19.05256 9 0
endloop
endfacet
facet normal 0 0 -1
outer loop
vertex 19.02113 31.00884 0
vertex 19.05256 9 0
vertex 19.02113 8.95087 0
endloop
endfacet
facet normal 0 0 -1
outer loop
vertex 5.93553 41.18418 0
vertex 7.83732 40.55666 0
vertex 9.67416 39.75881 0
endloop
endfacet
facet normal 0 0 -1
outer loop
vertex 5.93553 41.18418 0
vertex 9.67416 39.75881 0
vertex 11.43085 38.79723 0
endloop
endfacet
facet normal 0 0 -1
outer loop
vertex 5.93553 41.18418 0
vertex 11.43085 38.79723 0
vertex 13.09281 37.67988 0
endloop
endfacet
facet normal 0 0 -1
outer loop
vertex 5.93553 41.18418 0
vertex 13.09281 37.67988 0
vertex 14.64628 36.41604 0
endloop
endfacet
facet normal 0 0 -1
outer loop
vertex 5.93553 41.18418 0
vertex 14.64628 36.41604 0
vertex 16.07839 35.01617 0
endloop
endfacet
facet normal 0 0 -1
outer loop
vertex 5.93553 41.18418 0
vertex 16.07839 35.01617 0
vertex 17.37727 33.49187 0
endloop
endfacet
facet normal 0 0 -1
outer loop
vertex 5.93553 41.18418 0
vertex 17.37727 33.49187 0
vertex 18.53215 31.85577 0
endloop
endfacet
facet normal 0 0 -1
outer loop
vertex 5.93553 41.18418 0
vertex 18.53215 31.85577 0
vertex 19.02113 31.00884 0
endloop
endfacet
facet normal 0 0 -1
outer loop
vertex 5.93553 41.18418 0
vertex 19.02113 31.00884 0
vertex 19.02113 8.95087 0
endloop
endfacet
facet normal 0 0 -1
outer loop
vertex 5.93553 41.18418 0
vertex 19.02113 8.95087 0
vertex 17.97334 7.31303 0
endloop
endfacet
facet normal 0 0 -1
outer loop
vertex 5.93553 41.18418 0
vertex 17.97334 7.31303 0
vertex 16.74518 5.73119 0
endloop
endfacet
facet normal 0 0 -1
outer loop
vertex 5.93553 41.18418 0
vertex 16.74518 5.73119 0
vertex 15.37827 4.26759 0
endloop
endfacet
facet normal 0 0 -1
outer loop
vertex 5.93553 41.18418 0
vertex 15.37827 4.26759 0
vertex 13.88393 2.93435 0
endloop
endfacet
facet normal 0 0 -1
outer loop
vertex 5.93553 41.18418 0
vertex 13.88393 2.93435 0
vertex 12.27455 1.74252 0
endloop
endfacet
facet normal 0 0 -1
outer loop
vertex 5.93553 41.18418 0
vertex 12.27455 1.74252 0
vertex 10.56345 0.70198 0
endloop
endfacet
facet normal 0 0 -1
outer loop
vertex 5.93553 41.18418 0
vertex 10.56345 0.70198 0
vertex 8.76482 -0.17865 0
endloop
endfacet
facet normal 0 0 -1
outer loop
vertex 5.93553 41.18418 0
vertex 8.76482 -0.17865 0
vertex 6.89357 -0.89207 0
endloop
endfacet
facet normal 0 0 -1
outer loop
vertex 5.93553 41.18418 0
vertex 6.89357 -0.89207 0
vertex 4.96519 -1.43238 0
endloop
endfacet
facet normal 0 0 -1
outer loop
vertex 5.93553 41.18418 0
vertex 4.96519 -1.43238 0
vertex 2.99567 -1.79509 0
endloop
endfacet
facet normal 0 0 -1
outer loop
vertex 5.93553 41.18418 0
vertex 2.99567 -1.79509 0
vertex 1.00132 -1.9772 0
endloop
endfacet
facet normal 0 0 -1
outer loop
vertex 5.93553 41.18418 0
vertex 1.00132 -1.9772 0
vertex -1.00132 -1.9772 0
endloop
endfacet
facet normal 0 0 -1
outer loop
vertex 5.93553 41.18418 0
vertex -1.00132 -1.9772 0
vertex -2.99567 -1.79509 0
endloop
endfacet
facet normal 0 0 -1
outer loop
vertex 5.93553 41.18418 0
vertex -2.99567 -1.79509 0
vertex -4.96519 -1.43238 0
endloop
endfacet
facet normal 0 0 -1
outer loop
vertex 5.93553 41.18418 0
vertex -4.96519 -1.43238 0
vertex -6.89357 -0.89207 0
endloop
endfacet
facet normal 0 0 -1
outer loop
vertex 5.93553 41.18418 0
vertex -6.89357 -0.89207 0
vertex -8.76482 -0.17865 0
endloop
endfacet
facet normal 0 0 -1
outer loop
vertex 5.93553 41.18418 0
vertex -8.76482 -0.17865 0
vertex -10.56345 0.70198 0
endloop
endfacet
facet normal 0 0 -1
outer loop
vertex 5.93553 41.18418 0
vertex -10.56345 0.70198 0
vertex -12.27455 1.74252 0
endloop
endfacet
facet normal 0 0 -1
outer loop
vertex 5.93553 41.18418 0
vertex -12.27455 1.74252 0
vertex -13.88393 2.93435 0
endloop
endfacet
facet normal 0 0 -1
outer loop
vertex 5.93553 41.18418 0
vertex -13.88393 2.93435 0
vertex -15.37827 4.26759 0
endloop
endfacet
facet normal 0 0 -1
outer loop
vertex 5.93553 41.18418 0
vertex -15.37827 4.26759 0
vertex -16.74518 5.73119 0
endloop
endfacet
facet normal 0 0 -1
outer loop
vertex 5.93553 41.18418 0
vertex -16.74518 5.73119 0
vertex -17.97334 7.31303 0
endloop
endfacet
facet normal 0 0 -1
outer loop
vertex 5.93553 41.18418 0
vertex -17.97334 7.31303 0
vertex -19.02113 8.95087 0
endloop
endfacet
facet normal 0 0 -1
outer loop
vertex 5.93553 41.18418 0
vertex -19.02113 8.95087 0
vertex -19.02113 31.00884 0
endloop
endfacet
facet normal 0 0 -1
outer loop
vertex 5.93553 41.18418 0
vertex -19.02113 31.00884 0
vertex -18.53215 31.85577 0
endloop
endfacet
facet normal 0 0 -1
outer loop
vertex 5.93553 41.18418 0
vertex -18.53215 31.85577 0
vertex -17.37727 33.49187 0
endloop
endfacet
facet normal 0 0 -1
outer loop
vertex 5.93553 41.18418 0
vertex -17.37727 33.49187 0
vertex -16.07839 35.01617 0
endloop
endfacet
facet normal 0 0 -1
outer loop
vertex 5.93553 41.18418 0
vertex -16.07839 35.01617 0
vertex -14.64628 36.41604 0
endloop
endfacet
facet normal 0 0 -1
outer loop
vertex 5.93553 41.18418 0
vertex -14.64628 36.41604 0
vertex -13.09281 37.67988 0
endloop
endfacet
facet normal 0 0 -1
outer loop
vertex 5.93553 41.18418 0
vertex -13.09281 37.67988 0
vertex -11.43085 38.79723 0
endloop
endfacet
facet normal 0 0 -1
outer loop
vertex 5.93553 41.18418 0
vertex -11.43085 38.79723 0
vertex -9.67416 39.75881 0
endloop
endfacet
facet normal 0 0 -1
outer loop
vertex 5.93553 41.18418 0
vertex -9.67416 39.75881 0
vertex -7.83732 40.55666 0
endloop
endfacet
facet normal 0 0 -1
outer loop
vertex 5.93553 41.18418 0
vertex -7.83732 40.55666 0
vertex -5.93553 41.18418 0
endloop
endfacet
facet normal 0 0 -1
outer loop
vertex 5.93553 41.18418 0
vertex -5.93553 41.18418 0
vertex -3.98456 41.63616 0
endloop
endfacet
facet normal 0 0 -1
outer loop
vertex 5.93553 41.18418 0
vertex -3.98456 41.63616 0
vertex -2.00057 41.90885 0
endloop
endfacet
facet normal 0 0 -1
outer loop
vertex 5.93553 41.18418 0
vertex -2.00057 41.90885 0
vertex 0 42 0
endloop
endfacet
facet normal 0 0 -1
outer loop
vertex 5.93553 41.18418 0
vertex 0 42 0
vertex 2.00057 41.90885 0
endloop
endfacet
facet normal 0 0 -1
outer loop
vertex 5.93553 41.18418 0
vertex 2.00057 41.90885 0
vertex 3.98456 41.63616 0
endloop
endfacet
facet normal 0.8878867524740385 -0.46006207709515184 0
outer loop
vertex 19.9739 10.77812 0
vertex 19.9739 10.77812 20
vertex 19.05256 9 0
endloop
endfacet
facet normal 0.8878867524740385 -0.46006207709515184 0
outer loop
vertex 19.05256 9 0
vertex 19.9739 10.77812 20
vertex 19.05256 9 20
endloop
endfacet
facet normal 0.1361651059046277 0.9906861581419121 0
outer loop
vertex 2.00057 41.90885 0
vertex 2.00057 41.90885 20
vertex 3.98456 41.63616 0
endloop
endfacet
facet normal 0.1361651059046277 0.9906861581419121 0
outer loop
vertex 3.98456 41.63616 0
vertex 2.00057 41.90885 20
vertex 3.98456 41.63616 20
endloop
endfacet
facet normal 0.3133456176915018 0.9496391545600525 0
outer loop
vertex 5.93553 41.18418 0
vertex 5.93553 41.18418 20
vertex 7.83732 40.55666 0
endloop
endfacet
facet normal 0.3133456176915018 0.9496391545600525 0
outer loop
vertex 7.83732 40.55666 0
vertex 5.93553 41.18418 20
vertex 7.83732 40.55666 20
endloop
endfacet
facet normal -0.6310874674162181 0.7757116786991052 0
outer loop
vertex -14.64628 36.41604 0
vertex -14.64628 36.41604 20
vertex -13.09281 37.67988 0
endloop
endfacet
facet normal -0.6310874674162181 0.7757116786991052 0
outer loop
vertex -13.09281 37.67988 0
vertex -14.64628 36.41604 20
vertex -13.09281 37.67988 20
endloop
endfacet
facet normal 0.4397338868186126 -0.8981281137918998 0
outer loop
vertex 10.56345 0.70198 0
vertex 10.56345 0.70198 20
vertex 8.76482 -0.17865 0
endloop
endfacet
facet normal 0.4397338868186126 -0.8981281137918998 0
outer loop
vertex 8.76482 -0.17865 0
vertex 10.56345 0.70198 20
vertex 8.76482 -0.17865 20
endloop
endfacet
facet normal -0.7308352118972171 -0.6825539488210071 0
outer loop
vertex -15.37827 4.26759 0
vertex -15.37827 4.26759 20
vertex -16.74518 5.73119 0
endloop
endfacet
facet normal -0.7308352118972171 -0.6825539488210071 0
outer loop
vertex -16.74518 5.73119 0
vertex -15.37827 4.26759 20
vertex -16.74518 5.73119 20
endloop
endfacet
facet normal 0.1811159133178471 -0.9834617562178216 0
outer loop
vertex 4.96519 -1.43238 0
vertex 4.96519 -1.43238 20
vertex 2.99567 -1.79509 0
endloop
endfacet
facet normal 0.1811159133178471 -0.9834617562178216 0
outer loop
vertex 2.99567 -1.79509 0
vertex 4.96519 -1.43238 20
vertex 2.99567 -1.79509 20
endloop
endfacet
facet normal -0.1811159133178471 -0.9834617562178216 0
outer loop
vertex -2.99567 -1.79509 0
vertex -2.99567 -1.79509 20
vertex -4.96519 -1.43238 0
endloop
endfacet
facet normal -0.1811159133178471 -0.9834617562178216 0
outer loop
vertex -4.96519 -1.43238 0
vertex -2.99567 -1.79509 20
vertex -4.96519 -1.43238 20
endloop
endfacet
facet normal -0.7898746241471699 -0.6132683573513042 0
outer loop
vertex -16.74518 5.73119 0
vertex -16.74518 5.73119 20
vertex -17.97334 7.31303 0
endloop
endfacet
facet normal -0.7898746241471699 -0.6132683573513042 0
outer loop
vertex -17.97334 7.31303 0
vertex -16.74518 5.73119 20
vertex -17.97334 7.31303 20
endloop
endfacet
facet normal 0.09093463701945984 -0.9958568631033975 0
outer loop
vertex 2.99567 -1.79509 0
vertex 2.99567 -1.79509 20
vertex 1.00132 -1.9772 0
endloop
endfacet
facet normal 0.09093463701945984 -0.9958568631033975 0
outer loop
vertex 1.00132 -1.9772 0
vertex 2.99567 -1.79509 20
vertex 1.00132 -1.9772 20
endloop
endfacet
facet normal -0.9873300220312167 0.1586802684514907 0
outer loop
vertex -21.85763 22.49876 0
vertex -21.85763 22.49876 20
vertex -21.53985 24.47603 0
endloop
endfacet
facet normal -0.9873300220312167 0.1586802684514907 0
outer loop
vertex -21.53985 24.47603 0
vertex -21.85763 22.49876 20
vertex -21.53985 24.47603 20
endloop
endfacet
facet normal -0.09093463701945984 -0.9958568631033975 0
outer loop
vertex -1.00132 -1.9772 0
vertex -1.00132 -1.9772 20
vertex -2.99567 -1.79509 0
endloop
endfacet
facet normal -0.09093463701945984 -0.9958568631033975 0
outer loop
vertex -2.99567 -1.79509 0
vertex -1.00132 -1.9772 20
vertex -2.99567 -1.79509 20
endloop
endfacet
facet normal -0.3562407543934675 -0.9343942020952256 0
outer loop
vertex -6.89357 -0.89207 0
vertex -6.89357 -0.89207 20
vertex -8.76482 -0.17865 0
endloop
endfacet
facet normal -0.3562407543934675 -0.9343942020952256 0
outer loop
vertex -8.76482 -0.17865 0
vertex -6.89357 -0.89207 20
vertex -8.76482 -0.17865 20
endloop
endfacet
facet normal -0.5195828707504504 -0.8544200608732925 0
outer loop
vertex -10.56345 0.70198 0
vertex -10.56345 0.70198 20
vertex -12.27455 1.74252 0
endloop
endfacet
facet normal -0.5195828707504504 -0.8544200608732925 0
outer loop
vertex -12.27455 1.74252 0
vertex -10.56345 0.70198 20
vertex -12.27455 1.74252 20
endloop
endfacet
facet normal -0.5951297434667823 -0.803629633874437 0
outer loop
vertex -12.27455 1.74252 0
vertex -12.27455 1.74252 20
vertex -13.88393 2.93435 0
endloop
endfacet
facet normal -0.5951297434667823 -0.803629633874437 0
outer loop
vertex -13.88393 2.93435 0
vertex -12.27455 1.74252 20
vertex -13.88393 2.93435 20
endloop
endfacet
facet normal -0.9079031093392368 0.41918008546702945 0
outer loop
vertex -20.37294 28.30322 0
vertex -20.37294 28.30322 20
vertex -19.53347 30.12143 0
endloop
endfacet
facet normal -0.9079031093392368 0.41918008546702945 0
outer loop
vertex -19.53347 30.12143 0
vertex -20.37294 28.30322 20
vertex -19.53347 30.12143 20
endloop
endfacet
facet normal -0.39840016423849034 0.9172117035530803 0
outer loop
vertex -9.67416 39.75881 0
vertex -9.67416 39.75881 20
vertex -7.83732 40.55666 0
endloop
endfacet
facet normal -0.39840016423849034 0.9172117035530803 0
outer loop
vertex -7.83732 40.55666 0
vertex -9.67416 39.75881 20
vertex -7.83732 40.55666 20
endloop
endfacet
facet normal -0.8878867524740385 -0.46006207709515184 0
outer loop
vertex -19.05256 9 0
vertex -19.05256 9 20
vertex -19.9739 10.77812 0
endloop
endfacet
facet normal -0.8878867524740385 -0.46006207709515184 0
outer loop
vertex -19.9739 10.77812 0
vertex -19.05256 9 20
vertex -19.9739 10.77812 20
endloop
endfacet
facet normal -0.9565266861886532 -0.2916448158444678 0
outer loop
vertex -20.72974 12.63265 0
vertex -20.72974 12.63265 20
vertex -21.3138 14.54823 0
endloop
endfacet
facet normal -0.9565266861886532 -0.2916448158444678 0
outer loop
vertex -21.3138 14.54823 0
vertex -20.72974 12.63265 20
vertex -21.3138 14.54823 20
endloop
endfacet
facet normal -0.7611440759899992 0.6485828363326696 0
outer loop
vertex -17.37727 33.49187 0
vertex -17.37727 33.49187 20
vertex -16.07839 35.01617 0
endloop
endfacet
facet normal -0.7611440759899992 0.6485828363326696 0
outer loop
vertex -16.07839 35.01617 0
vertex -17.37727 33.49187 20
vertex -16.07839 35.01617 20
endloop
endfacet
facet normal -0.22569200508165263 0.9741987060360034 0
outer loop
vertex -5.93553 41.18418 0
vertex -5.93553 41.18418 20
vertex -3.98456 41.63616 0
endloop
endfacet
facet normal -0.22569200508165263 0.9741987060360034 0
outer loop
vertex -3.98456 41.63616 0
vertex -5.93553 41.18418 20
vertex -3.98456 41.63616 20
endloop
endfacet
facet normal -0.045514797297733195 0.998963664617961 0
outer loop
vertex -2.00057 41.90885 0
vertex -2.00057 41.90885 20
vertex 0 42 0
endloop
endfacet
facet normal -0.045514797297733195 0.998963664617961 0
outer loop
vertex 0 42 0
vertex -2.00057 41.90885 20
vertex 0 42 20
endloop
endfacet
facet normal -0.9935289059465016 -0.1135795450279131 0
outer loop
vertex -21.72125 16.50898 0
vertex -21.72125 16.50898 20
vertex -21.94871 18.49867 0
endloop
endfacet
facet normal -0.9935289059465016 -0.1135795450279131 0
outer loop
vertex -21.94871 18.49867 0
vertex -21.72125 16.50898 20
vertex -21.94871 18.49867 20
endloop
endfacet
facet normal -0.1361651059046277 0.9906861581419121 0
outer loop
vertex -3.98456 41.63616 0
vertex -3.98456 41.63616 20
vertex -2.00057 41.90885 0
endloop
endfacet
facet normal -0.1361651059046277 0.9906861581419121 0
outer loop
vertex -2.00057 41.90885 0
vertex -3.98456 41.63616 20
vertex -2.00057 41.90885 20
endloop
endfacet
facet normal -0.3133456176915018 0.9496391545600525 0
outer loop
vertex -7.83732 40.55666 0
vertex -7.83732 40.55666 20
vertex -5.93553 41.18418 0
endloop
endfacet
facet normal -0.3133456176915018 0.9496391545600525 0
outer loop
vertex -5.93553 41.18418 0
vertex -7.83732 40.55666 20
vertex -5.93553 41.18418 20
endloop
endfacet
facet normal 0.045514797297733195 0.998963664617961 0
outer loop
vertex 0 42 0
vertex 0 42 20
vertex 2.00057 41.90885 0
endloop
endfacet
facet normal 0.045514797297733195 0.998963664617961 0
outer loop
vertex 2.00057 41.90885 0
vertex 0 42 20
vertex 2.00057 41.90885 20
endloop
endfacet
facet normal -0.9422614759728536 0.3348780537710099 0
outer loop
vertex -21.04358 26.41621 0
vertex -21.04358 26.41621 20
vertex -20.37294 28.30322 0
endloop
endfacet
facet normal -0.9422614759728536 0.3348780537710099 0
outer loop
vertex -20.37294 28.30322 0
vertex -21.04358 26.41621 20
vertex -20.37294 28.30322 20
endloop
endfacet
facet normal -0.9688093121491974 0.2478074185592498 0
outer loop
vertex -21.53985 24.47603 0
vertex -21.53985 24.47603 20
vertex -21.04358 26.41621 0
endloop
endfacet
facet normal -0.9688093121491974 0.2478074185592498 0
outer loop
vertex -21.04358 26.41621 0
vertex -21.53985 24.47603 20
vertex -21.04358 26.41621 20
endloop
endfacet
facet normal -0.5579374712033695 0.829882990684343 0
outer loop
vertex -13.09281 37.67988 0
vertex -13.09281 37.67988 20
vertex -11.43085 38.79723 0
endloop
endfacet
facet normal -0.5579374712033695 0.829882990684343 0
outer loop
vertex -11.43085 38.79723 0
vertex -13.09281 37.67988 20
vertex -11.43085 38.79723 20
endloop
endfacet
facet normal 0.9873300220312167 0.1586802684514907 0
outer loop
vertex 21.53985 24.47603 0
vertex 21.53985 24.47603 20
vertex 21.85763 22.49876 0
endloop
endfacet
facet normal 0.9873300220312167 0.1586802684514907 0
outer loop
vertex 21.85763 22.49876 0
vertex 21.53985 24.47603 20
vertex 21.85763 22.49876 20
endloop
endfacet
facet normal -0.6990115979272047 0.7151103313218569 0
outer loop
vertex -16.07839 35.01617 0
vertex -16.07839 35.01617 20
vertex -14.64628 36.41604 0
endloop
endfacet
facet normal -0.6990115979272047 0.7151103313218569 0
outer loop
vertex -14.64628 36.41604 0
vertex -16.07839 35.01617 20
vertex -14.64628 36.41604 20
endloop
endfacet
facet normal -0.8169711845005857 0.576678492485813 0
outer loop
vertex -18.53215 31.85577 0
vertex -18.53215 31.85577 20
vertex -17.37727 33.49187 0
endloop
endfacet
facet normal -0.8169711845005857 0.576678492485813 0
outer loop
vertex -17.37727 33.49187 0
vertex -18.53215 31.85577 20
vertex -17.37727 33.49187 20
endloop
endfacet
facet normal 0.8169711845005857 0.576678492485813 0
outer loop
vertex 17.37727 33.49187 0
vertex 17.37727 33.49187 20
vertex 18.53215 31.85577 0
endloop
endfacet
facet normal 0.8169711845005857 0.576678492485813 0
outer loop
vertex 18.53215 31.85577 0
vertex 17.37727 33.49187 20
vertex 18.53215 31.85577 20
endloop
endfacet
facet normal -0.9260416242962554 -0.37742139588363666 0
outer loop
vertex -19.9739 10.77812 0
vertex -19.9739 10.77812 20
vertex -20.72974 12.63265 0
endloop
endfacet
facet normal -0.9260416242962554 -0.37742139588363666 0
outer loop
vertex -20.72974 12.63265 0
vertex -19.9739 10.77812 20
vertex -20.72974 12.63265 20
endloop
endfacet
facet normal -0.6657400626341795 -0.7461837367591434 0
outer loop
vertex -13.88393 2.93435 0
vertex -13.88393 2.93435 20
vertex -15.37827 4.26759 0
endloop
endfacet
facet normal -0.6657400626341795 -0.7461837367591434 0
outer loop
vertex -15.37827 4.26759 0
vertex -13.88393 2.93435 20
vertex -15.37827 4.26759 20
endloop
endfacet
facet normal 0.269798281884555 -0.962916864060518 0
outer loop
vertex 6.89357 -0.89207 0
vertex 6.89357 -0.89207 20
vertex 4.96519 -1.43238 0
endloop
endfacet
facet normal 0.269798281884555 -0.962916864060518 0
outer loop
vertex 4.96519 -1.43238 0
vertex 6.89357 -0.89207 20
vertex 4.96519 -1.43238 20
endloop
endfacet
facet normal 0 -1 0
outer loop
vertex 1.00132 -1.9772 0
vertex 1.00132 -1.9772 20
vertex -1.00132 -1.9772 0
endloop
endfacet
facet normal 0 -1 0
outer loop
vertex -1.00132 -1.9772 0
vertex 1.00132 -1.9772 20
vertex -1.00132 -1.9772 20
endloop
endfacet
facet normal 0.39840016423849034 0.9172117035530803 0
outer loop
vertex 7.83732 40.55666 0
vertex 7.83732 40.55666 20
vertex 9.67416 39.75881 0
endloop
endfacet
facet normal 0.39840016423849034 0.9172117035530803 0
outer loop
vertex 9.67416 39.75881 0
vertex 7.83732 40.55666 20
vertex 9.67416 39.75881 20
endloop
endfacet
facet normal 0.9565266861886532 -0.2916448158444678 0
outer loop
vertex 21.3138 14.54823 0
vertex 21.3138 14.54823 20
vertex 20.72974 12.63265 0
endloop
endfacet
facet normal 0.9565266861886532 -0.2916448158444678 0
outer loop
vertex 20.72974 12.63265 0
vertex 21.3138 14.54823 20
vertex 20.72974 12.63265 20
endloop
endfacet
facet normal 0.7308352118972171 -0.6825539488210071 0
outer loop
vertex 16.74518 5.73119 0
vertex 16.74518 5.73119 20
vertex 15.37827 4.26759 0
endloop
endfacet
facet normal 0.7308352118972171 -0.6825539488210071 0
outer loop
vertex 15.37827 4.26759 0
vertex 16.74518 5.73119 20
vertex 15.37827 4.26759 20
endloop
endfacet
facet normal 0.5195828707504504 -0.8544200608732925 0
outer loop
vertex 12.27455 1.74252 0
vertex 12.27455 1.74252 20
vertex 10.56345 0.70198 0
endloop
endfacet
facet normal 0.5195828707504504 -0.8544200608732925 0
outer loop
vertex 10.56345 0.70198 0
vertex 12.27455 1.74252 20
vertex 10.56345 0.70198 20
endloop
endfacet
facet normal 0.9079031093392368 0.41918008546702945 0
outer loop
vertex 19.53347 30.12143 0
vertex 19.53347 30.12143 20
vertex 20.37294 28.30322 0
endloop
endfacet
facet normal 0.9079031093392368 0.41918008546702945 0
outer loop
vertex 20.37294 28.30322 0
vertex 19.53347 30.12143 20
vertex 20.37294 28.30322 20
endloop
endfacet
facet normal 0.7611440759899992 0.6485828363326696 0
outer loop
vertex 16.07839 35.01617 0
vertex 16.07839 35.01617 20
vertex 17.37727 33.49187 0
endloop
endfacet
facet normal 0.7611440759899992 0.6485828363326696 0
outer loop
vertex 17.37727 33.49187 0
vertex 16.07839 35.01617 20
vertex 17.37727 33.49187 20
endloop
endfacet
facet normal 0.9935289059465016 -0.1135795450279131 0
outer loop
vertex 21.94871 18.49867 0
vertex 21.94871 18.49867 20
vertex 21.72125 16.50898 0
endloop
endfacet
facet normal 0.9935289059465016 -0.1135795450279131 0
outer loop
vertex 21.72125 16.50898 0
vertex 21.94871 18.49867 20
vertex 21.72125 16.50898 20
endloop
endfacet
facet normal 0.9260416242962554 -0.37742139588363666 0
outer loop
vertex 20.72974 12.63265 0
vertex 20.72974 12.63265 20
vertex 19.9739 10.77812 0
endloop
endfacet
facet normal 0.9260416242962554 -0.37742139588363666 0
outer loop
vertex 19.9739 10.77812 0
vertex 20.72974 12.63265 20
vertex 19.9739 10.77812 20
endloop
endfacet
facet normal 0.6657400626341795 -0.7461837367591434 0
outer loop
vertex 15.37827 4.26759 0
vertex 15.37827 4.26759 20
vertex 13.88393 2.93435 0
endloop
endfacet
facet normal 0.6657400626341795 -0.7461837367591434 0
outer loop
vertex 13.88393 2.93435 0
vertex 15.37827 4.26759 20
vertex 13.88393 2.93435 20
endloop
endfacet
facet normal 0.6310874674162181 0.7757116786991052 0
outer loop
vertex 13.09281 37.67988 0
vertex 13.09281 37.67988 20
vertex 14.64628 36.41604 0
endloop
endfacet
facet normal 0.6310874674162181 0.7757116786991052 0
outer loop
vertex 14.64628 36.41604 0
vertex 13.09281 37.67988 20
vertex 14.64628 36.41604 20
endloop
endfacet
facet normal 0.9422614759728536 0.3348780537710099 0
outer loop
vertex 20.37294 28.30322 0
vertex 20.37294 28.30322 20
vertex 21.04358 26.41621 0
endloop
endfacet
facet normal 0.9422614759728536 0.3348780537710099 0
outer loop
vertex 21.04358 26.41621 0
vertex 20.37294 28.30322 20
vertex 21.04358 26.41621 20
endloop
endfacet
facet normal 0.9976685955328949 0.06824495210212332 0
outer loop
vertex 21.85763 22.49876 0
vertex 21.85763 22.49876 20
vertex 21.9943 20.50079 0
endloop
endfacet
facet normal 0.9976685955328949 0.06824495210212332 0
outer loop
vertex 21.9943 20.50079 0
vertex 21.85763 22.49876 20
vertex 21.9943 20.50079 20
endloop
endfacet
facet normal 0.8423741435082343 -0.5388931270194199 0
outer loop
vertex 19.05256 9 20
vertex 19.02113 8.95087 19.41757
vertex 19.02113 8.95087 0
endloop
endfacet
facet normal 0.8423741435082343 -0.53889312701942 0
outer loop
vertex 19.05256 9 20
vertex 19.02113 8.95087 0
vertex 19.05256 9 0
endloop
endfacet
facet normal 0.8423741435082343 -0.5388931270194199 0
outer loop
vertex 19.02113 8.95087 19.41757
vertex 19.05256 9 20
vertex 19.02113 8.95087 20
endloop
endfacet
facet normal 0.8423712375373689 -0.5388976694788741 0
outer loop
vertex 19.02113 8.95087 19.41757
vertex 17.97334 7.31303 0
vertex 19.02113 8.95087 0
endloop
endfacet
facet normal 0.8423712375373688 -0.538897669478874 0
outer loop
vertex 19.02113 8.95087 19.41757
vertex 19.02113 8.95087 20
vertex 17.97334 7.31303 20
endloop
endfacet
facet normal 0.8423712375373688 -0.5388976694788741 0
outer loop
vertex 19.02113 8.95087 19.41757
vertex 17.97334 7.31303 20
vertex 17.97334 7.31303 0
endloop
endfacet
facet normal 0.9790839420030029 -0.20345671409875 0
outer loop
vertex 21.72125 16.50898 0
vertex 21.72125 16.50898 20
vertex 21.3138 14.54823 0
endloop
endfacet
facet normal 0.9790839420030029 -0.20345671409875 0
outer loop
vertex 21.3138 14.54823 0
vertex 21.72125 16.50898 20
vertex 21.3138 14.54823 20
endloop
endfacet
facet normal 0.6990115979272047 0.7151103313218569 0
outer loop
vertex 14.64628 36.41604 0
vertex 14.64628 36.41604 20
vertex 16.07839 35.01617 0
endloop
endfacet
facet normal 0.6990115979272047 0.7151103313218569 0
outer loop
vertex 16.07839 35.01617 0
vertex 14.64628 36.41604 20
vertex 16.07839 35.01617 20
endloop
endfacet
facet normal 0.5579374712033695 0.829882990684343 0
outer loop
vertex 11.43085 38.79723 0
vertex 11.43085 38.79723 20
vertex 13.09281 37.67988 0
endloop
endfacet
facet normal 0.5579374712033695 0.829882990684343 0
outer loop
vertex 13.09281 37.67988 0
vertex 11.43085 38.79723 20
vertex 13.09281 37.67988 20
endloop
endfacet
facet normal 0.7898746241471699 -0.6132683573513042 0
outer loop
vertex 17.97334 7.31303 0
vertex 17.97334 7.31303 20
vertex 16.74518 5.73119 0
endloop
endfacet
facet normal 0.7898746241471699 -0.6132683573513042 0
outer loop
vertex 16.74518 5.73119 0
vertex 17.97334 7.31303 20
vertex 16.74518 5.73119 20
endloop
endfacet
facet normal 0.9688093121491974 0.2478074185592498 0
outer loop
vertex 21.04358 26.41621 0
vertex 21.04358 26.41621 20
vertex 21.53985 24.47603 0
endloop
endfacet
facet normal 0.9688093121491974 0.2478074185592498 0
outer loop
vertex 21.53985 24.47603 0
vertex 21.04358 26.41621 20
vertex 21.53985 24.47603 20
endloop
endfacet
facet normal 0.5951297434667823 -0.803629633874437 0
outer loop
vertex 13.88393 2.93435 0
vertex 13.88393 2.93435 20
vertex 12.27455 1.74252 0
endloop
endfacet
facet normal 0.5951297434667823 -0.803629633874437 0
outer loop
vertex 12.27455 1.74252 0
vertex 13.88393 2.93435 20
vertex 12.27455 1.74252 20
endloop
endfacet
facet normal 0.9997408446787711 -0.022764961695056193 0
outer loop
vertex 21.9943 20.50079 0
vertex 21.9943 20.50079 20
vertex 21.94871 18.49867 0
endloop
endfacet
facet normal 0.9997408446787711 -0.022764961695056193 0
outer loop
vertex 21.94871 18.49867 0
vertex 21.9943 20.50079 20
vertex 21.94871 18.49867 20
endloop
endfacet
facet normal -0.269798281884555 -0.962916864060518 0
outer loop
vertex -4.96519 -1.43238 0
vertex -4.96519 -1.43238 20
vertex -6.89357 -0.89207 0
endloop
endfacet
facet normal -0.269798281884555 -0.962916864060518 0
outer loop
vertex -6.89357 -0.89207 0
vertex -4.96519 -1.43238 20
vertex -6.89357 -0.89207 20
endloop
endfacet
facet normal -0.9976685955328949 0.06824495210212332 0
outer loop
vertex -21.9943 20.50079 0
vertex -21.9943 20.50079 20
vertex -21.85763 22.49876 0
endloop
endfacet
facet normal -0.9976685955328949 0.06824495210212332 0
outer loop
vertex -21.85763 22.49876 0
vertex -21.9943 20.50079 20
vertex -21.85763 22.49876 20
endloop
endfacet
facet normal 0.3562407543934675 -0.9343942020952256 0
outer loop
vertex 8.76482 -0.17865 0
vertex 8.76482 -0.17865 20
vertex 6.89357 -0.89207 0
endloop
endfacet
facet normal 0.3562407543934675 -0.9343942020952256 0
outer loop
vertex 6.89357 -0.89207 0
vertex 8.76482 -0.17865 20
vertex 6.89357 -0.89207 20
endloop
endfacet
facet normal -0.9790839420030029 -0.20345671409875 0
outer loop
vertex -21.3138 14.54823 0
vertex -21.3138 14.54823 20
vertex -21.72125 16.50898 0
endloop
endfacet
facet normal -0.9790839420030029 -0.20345671409875 0
outer loop
vertex -21.72125 16.50898 0
vertex -21.3138 14.54823 20
vertex -21.72125 16.50898 20
endloop
endfacet
facet normal -0.48015446486306823 0.8771839544086864 0
outer loop
vertex -11.43085 38.79723 0
vertex -11.43085 38.79723 20
vertex -9.67416 39.75881 0
endloop
endfacet
facet normal -0.48015446486306823 0.8771839544086864 0
outer loop
vertex -9.67416 39.75881 0
vertex -11.43085 38.79723 20
vertex -9.67416 39.75881 20
endloop
endfacet
facet normal -0.9997408446787711 -0.022764961695056193 0
outer loop
vertex -21.94871 18.49867 0
vertex -21.94871 18.49867 20
vertex -21.9943 20.50079 0
endloop
endfacet
facet normal -0.9997408446787711 -0.022764961695056193 0
outer loop
vertex -21.9943 20.50079 0
vertex -21.94871 18.49867 20
vertex -21.9943 20.50079 20
endloop
endfacet
facet normal -0.4397338868186126 -0.8981281137918998 0
outer loop
vertex -8.76482 -0.17865 0
vertex -8.76482 -0.17865 20
vertex -10.56345 0.70198 0
endloop
endfacet
facet normal -0.4397338868186126 -0.8981281137918998 0
outer loop
vertex -10.56345 0.70198 0
vertex -8.76482 -0.17865 20
vertex -10.56345 0.70198 20
endloop
endfacet
facet normal 0.48015446486306823 0.8771839544086864 0
outer loop
vertex 9.67416 39.75881 0
vertex 9.67416 39.75881 20
vertex 11.43085 38.79723 0
endloop
endfacet
facet normal 0.48015446486306823 0.8771839544086864 0
outer loop
vertex 11.43085 38.79723 0
vertex 9.67416 39.75881 20
vertex 11.43085 38.79723 20
endloop
endfacet
facet normal 0.22569200508165263 0.9741987060360034 0
outer loop
vertex 3.98456 41.63616 0
vertex 3.98456 41.63616 20
vertex 5.93553 41.18418 0
endloop
endfacet
facet normal 0.22569200508165263 0.9741987060360034 0
outer loop
vertex 5.93553 41.18418 0
vertex 3.98456 41.63616 20
vertex 5.93553 41.18418 20
endloop
endfacet
facet normal -0.8423741435082343 -0.5388931270194199 0
outer loop
vertex -19.02113 8.95087 0.58243
vertex -19.05256 9 0
vertex -19.02113 8.95087 0
endloop
endfacet
facet normal -0.8423741435082343 -0.5388931270194199 0
outer loop
vertex -19.02113 8.95087 0.58243
vertex -19.02113 8.95087 20
vertex -19.05256 9 20
endloop
endfacet
facet normal -0.8423741435082343 -0.53889312701942 0
outer loop
vertex -19.02113 8.95087 0.58243
vertex -19.05256 9 20
vertex -19.05256 9 0
endloop
endfacet
facet normal -0.8423712375373701 -0.5388976694788722 0
outer loop
vertex -17.97334 7.31303 20
vertex -19.02113 8.95087 0.58243
vertex -19.02113 8.95087 0
endloop
endfacet
facet normal -0.8423712375373688 -0.538897669478874 0
outer loop
vertex -17.97334 7.31303 20
vertex -19.02113 8.95087 0
vertex -17.97334 7.31303 0
endloop
endfacet
facet normal -0.8423712375373689 -0.5388976694788741 0
outer loop
vertex -19.02113 8.95087 0.58243
vertex -17.97334 7.31303 20
vertex -19.02113 8.95087 20
endloop
endfacet
facet normal -0.8660281092862202 0.4999953139041751 0
outer loop
vertex -19.53347 30.12143 20
vertex -19.02113 31.00884 9.76663
vertex -19.02113 31.00884 0
endloop
endfacet
facet normal -0.8660281092862202 0.4999953139041751 0
outer loop
vertex -19.53347 30.12143 20
vertex -19.02113 31.00884 0
vertex -19.53347 30.12143 0
endloop
endfacet
facet normal -0.8660281092862202 0.4999953139041751 0
outer loop
vertex -19.02113 31.00884 9.76663
vertex -19.53347 30.12143 20
vertex -19.02113 31.00884 20
endloop
endfacet
facet normal -0.8660233065681857 0.5000036324675113 0
outer loop
vertex -19.02113 31.00884 9.76663
vertex -18.53215 31.85577 0
vertex -19.02113 31.00884 0
endloop
endfacet
facet normal -0.8660233065681856 0.5000036324675114 0
outer loop
vertex -19.02113 31.00884 9.76663
vertex -19.02113 31.00884 20
vertex -18.53215 31.85577 20
endloop
endfacet
facet normal -0.8660233065681857 0.5000036324675114 0
outer loop
vertex -19.02113 31.00884 9.76663
vertex -18.53215 31.85577 20
vertex -18.53215 31.85577 0
endloop
endfacet
facet normal 0.8660281092862202 0.4999953139041751 0
outer loop
vertex 19.02113 31.00884 10.23337
vertex 19.53347 30.12143 0
vertex 19.02113 31.00884 0
endloop
endfacet
facet normal 0.8660281092862202 0.4999953139041751 0
outer loop
vertex 19.02113 31.00884 10.23337
vertex 19.02113 31.00884 20
vertex 19.53347 30.12143 20
endloop
endfacet
facet normal 0.8660281092862202 0.4999953139041751 0
outer loop
vertex 19.02113 31.00884 10.23337
vertex 19.53347 30.12143 20
vertex 19.53347 30.12143 0
endloop
endfacet
facet normal 0.8660233065681856 0.5000036324675114 0
outer loop
vertex 18.53215 31.85577 20
vertex 19.02113 31.00884 10.23337
vertex 19.02113 31.00884 0
endloop
endfacet
facet normal 0.8660233065681857 0.5000036324675114 0
outer loop
vertex 18.53215 31.85577 20
vertex 19.02113 31.00884 0
vertex 18.53215 31.85577 0
endloop
endfacet
facet normal 0.8660233065681857 0.5000036324675113 0
outer loop
vertex 19.02113 31.00884 10.23337
vertex 18.53215 31.85577 20
vertex 19.02113 31.00884 20
endloop
endfacet
endsolid JSxCAD
