solid JSxCAD
facet normal 0 -1 0
outer loop
vertex 0.49181 15 5.49181
vertex -5 15 0
vertex 0.49181 15 0
endloop
endfacet
facet normal 0 -1 0
outer loop
vertex 0.49181 15 5.49181
vertex 0.49181 15 10
vertex -5 15 10
endloop
endfacet
facet normal 0 -1 0
outer loop
vertex 0.49181 15 5.49181
vertex -5 15 10
vertex -5 15 0
endloop
endfacet
facet normal 0 -1 0
outer loop
vertex 0.97352 15 5.97352
vertex 0.49181 15 5.49181
vertex 0.49181 15 0
endloop
endfacet
facet normal 0 -1 0
outer loop
vertex 0.97352 15 5.97352
vertex 0.49181 15 0
vertex 0.97352 15 0
endloop
endfacet
facet normal 0 -1 0
outer loop
vertex 0.97352 15 10
vertex 0.49181 15 10
vertex 0.49181 15 5.49181
endloop
endfacet
facet normal 0 -1 0
outer loop
vertex 0.97352 15 10
vertex 0.49181 15 5.49181
vertex 0.97352 15 5.97352
endloop
endfacet
facet normal 0 -1 0
outer loop
vertex 0.97352 15 5.97352
vertex 0.97352 15 0
vertex 1.24071 15 0
endloop
endfacet
facet normal 0 -1 0
outer loop
vertex 0.97352 15 5.97352
vertex 1.24071 15 0
vertex 1.24071 15 6.24071
endloop
endfacet
facet normal 0 -1 0
outer loop
vertex 1.24071 15 10
vertex 0.97352 15 10
vertex 0.97352 15 5.97352
endloop
endfacet
facet normal 0 -1 0
outer loop
vertex 1.24071 15 10
vertex 0.97352 15 5.97352
vertex 1.24071 15 6.24071
endloop
endfacet
facet normal 0 -1 0
outer loop
vertex 1.24071 15 0
vertex 1.32863 15 0
vertex 1.32863 15 6.32863
endloop
endfacet
facet normal 0 -1 0
outer loop
vertex 1.24071 15 0
vertex 1.32863 15 6.32863
vertex 1.24071 15 6.24071
endloop
endfacet
facet normal 0 -1 0
outer loop
vertex 1.32863 15 6.32863
vertex 1.32863 15 10
vertex 1.24071 15 10
endloop
endfacet
facet normal 0 -1 0
outer loop
vertex 1.32863 15 6.32863
vertex 1.24071 15 10
vertex 1.24071 15 6.24071
endloop
endfacet
facet normal 0 -1 0
outer loop
vertex 1.34815 15 0
vertex 1.34815 15 6.34815
vertex 1.32863 15 6.32863
endloop
endfacet
facet normal 0 -1 0
outer loop
vertex 1.34815 15 0
vertex 1.32863 15 6.32863
vertex 1.32863 15 0
endloop
endfacet
facet normal 0 -1 0
outer loop
vertex 1.34815 15 6.34815
vertex 1.34815 15 10
vertex 1.32863 15 10
endloop
endfacet
facet normal 0 -1 0
outer loop
vertex 1.34815 15 6.34815
vertex 1.32863 15 10
vertex 1.32863 15 6.32863
endloop
endfacet
facet normal -1 0 0
outer loop
vertex -5 15 10
vertex -5 19.71456 5.28544
vertex -5 19.71456 0
endloop
endfacet
facet normal -1 0 0
outer loop
vertex -5 15 10
vertex -5 19.71456 0
vertex -5 15 0
endloop
endfacet
facet normal -1 0 0
outer loop
vertex -5 19.71456 5.28544
vertex -5 15 10
vertex -5 19.71456 10
endloop
endfacet
facet normal -1 0 0
outer loop
vertex -5 24.43092 0.56908
vertex -5 25 0
vertex -5 24.43092 0
endloop
endfacet
facet normal -1 0 0
outer loop
vertex -5 24.43092 10
vertex -5 25 10
vertex -5 25 0
endloop
endfacet
facet normal -1 0 0
outer loop
vertex -5 24.43092 10
vertex -5 25 0
vertex -5 24.43092 0.56908
endloop
endfacet
facet normal -1 0 0
outer loop
vertex -5 24.43092 0.56908
vertex -5 24.43092 0
vertex -5 19.71456 0
endloop
endfacet
facet normal -1 0 0
outer loop
vertex -5 24.43092 0.56908
vertex -5 19.71456 0
vertex -5 19.71456 5.28544
endloop
endfacet
facet normal -1 0 0
outer loop
vertex -5 19.71456 10
vertex -5 24.43092 10
vertex -5 24.43092 0.56908
endloop
endfacet
facet normal -1 0 0
outer loop
vertex -5 19.71456 10
vertex -5 24.43092 0.56908
vertex -5 19.71456 5.28544
endloop
endfacet
facet normal 0 1 0
outer loop
vertex -5 25 10
vertex -3.67388 25 8.67388
vertex -3.67388 25 0
endloop
endfacet
facet normal 0 1 0
outer loop
vertex -5 25 10
vertex -3.67388 25 0
vertex -5 25 0
endloop
endfacet
facet normal 0 1 0
outer loop
vertex -3.67388 25 8.67388
vertex -5 25 10
vertex -3.67388 25 10
endloop
endfacet
facet normal 0 1 0
outer loop
vertex 0.97352 25 4.02648
vertex 0.97352 25 0
vertex -3.67388 25 0
endloop
endfacet
facet normal 0 1 0
outer loop
vertex 0.97352 25 4.02648
vertex -3.67388 25 0
vertex -3.67388 25 8.67388
endloop
endfacet
facet normal 0 1 0
outer loop
vertex -3.67388 25 10
vertex 0.97352 25 10
vertex 0.97352 25 4.02648
endloop
endfacet
facet normal 0 1 0
outer loop
vertex -3.67388 25 10
vertex 0.97352 25 4.02648
vertex -3.67388 25 8.67388
endloop
endfacet
facet normal 0 1 0
outer loop
vertex 1.24071 25 0
vertex 0.97352 25 0
vertex 0.97352 25 4.02648
endloop
endfacet
facet normal 0 1 0
outer loop
vertex 1.24071 25 0
vertex 0.97352 25 4.02648
vertex 1.24071 25 3.75929
endloop
endfacet
facet normal 0 1 0
outer loop
vertex 1.24071 25 3.75929
vertex 0.97352 25 4.02648
vertex 0.97352 25 10
endloop
endfacet
facet normal 0 1 0
outer loop
vertex 1.24071 25 3.75929
vertex 0.97352 25 10
vertex 1.24071 25 10
endloop
endfacet
facet normal 0 1 0
outer loop
vertex 1.32863 25 0
vertex 1.24071 25 0
vertex 1.24071 25 3.75929
endloop
endfacet
facet normal 0 1 0
outer loop
vertex 1.32863 25 0
vertex 1.24071 25 3.75929
vertex 1.32863 25 3.67137
endloop
endfacet
facet normal 0 1 0
outer loop
vertex 1.32863 25 3.67137
vertex 1.24071 25 3.75929
vertex 1.24071 25 10
endloop
endfacet
facet normal 0 1 0
outer loop
vertex 1.32863 25 3.67137
vertex 1.24071 25 10
vertex 1.32863 25 10
endloop
endfacet
facet normal 0 1 0
outer loop
vertex 1.34815 25 3.65185
vertex 1.34815 25 0
vertex 1.32863 25 0
endloop
endfacet
facet normal 0 1 0
outer loop
vertex 1.34815 25 3.65185
vertex 1.32863 25 0
vertex 1.32863 25 3.67137
endloop
endfacet
facet normal 0 1 0
outer loop
vertex 1.34815 25 10
vertex 1.34815 25 3.65185
vertex 1.32863 25 3.67137
endloop
endfacet
facet normal 0 1 0
outer loop
vertex 1.34815 25 10
vertex 1.32863 25 3.67137
vertex 1.32863 25 10
endloop
endfacet
facet normal 0 0 1
outer loop
vertex -5 19.71456 10
vertex -5 15 10
vertex 0.49181 15 10
endloop
endfacet
facet normal 0 0 1
outer loop
vertex -5 24.43092 10
vertex -3.67388 25 10
vertex -5 25 10
endloop
endfacet
facet normal 0 0 1
outer loop
vertex -5 19.71456 10
vertex -4.47725 19.2658 10
vertex 0.97352 25 10
endloop
endfacet
facet normal 0 0 1
outer loop
vertex -5 19.71456 10
vertex 0.97352 25 10
vertex -3.67388 25 10
endloop
endfacet
facet normal 0 0 1
outer loop
vertex -5 19.71456 10
vertex -3.67388 25 10
vertex -5 24.43092 10
endloop
endfacet
facet normal 0 0 1
outer loop
vertex 0.97352 15 10
vertex -3.77934 20 10
vertex -4.47725 19.2658 10
endloop
endfacet
facet normal 0 0 1
outer loop
vertex 0.97352 15 10
vertex -4.47725 19.2658 10
vertex 0.49181 15 10
endloop
endfacet
facet normal 0 0 1
outer loop
vertex -2.62958 20 10
vertex -3.14562 20.66667 10
vertex -3.77934 20 10
endloop
endfacet
facet normal 0 0 1
outer loop
vertex -2.62958 20 10
vertex -3.77934 20 10
vertex -3.14562 19.33333 10
endloop
endfacet
facet normal 0 0 1
outer loop
vertex 1.24071 25 10
vertex 0.97352 25 10
vertex -3.14562 20.66667 10
endloop
endfacet
facet normal 0 0 1
outer loop
vertex 1.24071 25 10
vertex -3.14562 20.66667 10
vertex -2.62958 20 10
endloop
endfacet
facet normal 0 0 1
outer loop
vertex -1.708 18.80941 10
vertex -2.62958 20 10
vertex -3.14562 19.33333 10
endloop
endfacet
facet normal 0 0 1
outer loop
vertex -1.708 18.80941 10
vertex -3.14562 19.33333 10
vertex -2.02782 18.15741 10
endloop
endfacet
facet normal 0 0 1
outer loop
vertex 1.24071 25 10
vertex -2.62958 20 10
vertex -1.708 18.80941 10
endloop
endfacet
facet normal 0 0 1
outer loop
vertex 1.24071 25 10
vertex -1.708 18.80941 10
vertex 1.32863 25 10
endloop
endfacet
facet normal 0 0 1
outer loop
vertex -1.708 18.80941 10
vertex -2.02782 18.15741 10
vertex 0.97352 15 10
endloop
endfacet
facet normal 0 0 1
outer loop
vertex -1.708 18.80941 10
vertex 0.97352 15 10
vertex 1.24071 15 10
endloop
endfacet
facet normal 0 0 1
outer loop
vertex -1.12399 20 10
vertex -1.708 18.80941 10
vertex 0.51957 15.93163 10
endloop
endfacet
facet normal 0 0 1
outer loop
vertex -1.12399 20 10
vertex 0.51957 15.93163 10
vertex 0.35968 16.97533 10
endloop
endfacet
facet normal 0 0 1
outer loop
vertex 0.35968 16.97533 10
vertex 0.51957 15.93163 10
vertex 1.24071 15 10
endloop
endfacet
facet normal 0 0 1
outer loop
vertex 0.35968 16.97533 10
vertex 1.24071 15 10
vertex 1.32863 15 10
endloop
endfacet
facet normal 0 0 1
outer loop
vertex -1.12399 20 10
vertex 0.35968 16.97533 10
vertex -0.34649 21.58502 10
endloop
endfacet
facet normal 0 0 1
outer loop
vertex 0.81042 23.94356 10
vertex -0.34649 21.58502 10
vertex -0.26357 21.0437 10
endloop
endfacet
facet normal 0 0 1
outer loop
vertex 0.45861 22.99363 10
vertex -0.26357 21.0437 10
vertex -0.18279 20.51641 10
endloop
endfacet
facet normal 0 0 1
outer loop
vertex 1.25653 24.85302 10
vertex 1.34815 25 10
vertex 1.32863 25 10
endloop
endfacet
facet normal 0 0 1
outer loop
vertex 0.07709 21.52013 10
vertex -0.18279 20.51641 10
vertex -0.02579 19.49155 10
endloop
endfacet
facet normal 0 0 1
outer loop
vertex 0.05131 18.98832 10
vertex 0 20 10
vertex -0.02579 19.49155 10
endloop
endfacet
facet normal 0 0 1
outer loop
vertex 0.2047 17.98701 10
vertex 0.35968 16.97533 10
vertex 0.58622 16.51352 10
endloop
endfacet
facet normal 0 0 1
outer loop
vertex 0.2047 22.01299 10
vertex 0.07709 21.52013 10
vertex 0.05131 21.01168 10
endloop
endfacet
facet normal 0 0 1
outer loop
vertex 0.45861 17.00637 10
vertex 0.58622 16.51352 10
vertex 0.81042 16.05644 10
endloop
endfacet
facet normal 0 0 1
outer loop
vertex 1.25653 15.14698 10
vertex 1.32863 15 10
vertex 1.34815 15 10
endloop
endfacet
facet normal 0 0 -1
outer loop
vertex 0.49181 15 0
vertex -5 15 0
vertex -5 19.71456 0
endloop
endfacet
facet normal 0 0 -1
outer loop
vertex -5 24.43092 0
vertex -5 25 0
vertex -3.67388 25 0
endloop
endfacet
facet normal 0 0 -1
outer loop
vertex -5 24.43092 0
vertex -3.67388 25 0
vertex 0.97352 25 0
endloop
endfacet
facet normal 0 0 -1
outer loop
vertex -5 24.43092 0
vertex 0.97352 25 0
vertex -4.47725 19.2658 0
endloop
endfacet
facet normal 0 0 -1
outer loop
vertex -5 24.43092 0
vertex -4.47725 19.2658 0
vertex -5 19.71456 0
endloop
endfacet
facet normal 0 0 -1
outer loop
vertex 0.97352 15 0
vertex 0.49181 15 0
vertex -4.47725 19.2658 0
endloop
endfacet
facet normal 0 0 -1
outer loop
vertex 0.97352 15 0
vertex -4.47725 19.2658 0
vertex -3.77934 20 0
endloop
endfacet
facet normal 0 0 -1
outer loop
vertex -3.14562 19.33333 0
vertex -3.77934 20 0
vertex -3.14562 20.66667 0
endloop
endfacet
facet normal 0 0 -1
outer loop
vertex -3.14562 19.33333 0
vertex -3.14562 20.66667 0
vertex -2.62958 20 0
endloop
endfacet
facet normal 0 0 -1
outer loop
vertex -2.62958 20 0
vertex -3.14562 20.66667 0
vertex 0.97352 25 0
endloop
endfacet
facet normal 0 0 -1
outer loop
vertex -2.62958 20 0
vertex 0.97352 25 0
vertex 1.24071 25 0
endloop
endfacet
facet normal 0 0 -1
outer loop
vertex -2.62958 20 0
vertex -1.708 18.80941 0
vertex -2.02782 18.15741 0
endloop
endfacet
facet normal 0 0 -1
outer loop
vertex -2.62958 20 0
vertex -2.02782 18.15741 0
vertex -3.14562 19.33333 0
endloop
endfacet
facet normal 0 0 -1
outer loop
vertex -2.62958 20 0
vertex 1.24071 25 0
vertex 1.32863 25 0
endloop
endfacet
facet normal 0 0 -1
outer loop
vertex -2.62958 20 0
vertex 1.32863 25 0
vertex -1.708 18.80941 0
endloop
endfacet
facet normal 0 0 -1
outer loop
vertex -1.708 18.80941 0
vertex 1.24071 15 0
vertex 0.97352 15 0
endloop
endfacet
facet normal 0 0 -1
outer loop
vertex -1.708 18.80941 0
vertex 0.97352 15 0
vertex -2.02782 18.15741 0
endloop
endfacet
facet normal 0 0 -1
outer loop
vertex -1.708 18.80941 0
vertex -1.12399 20 0
vertex 0.35968 16.97533 0
endloop
endfacet
facet normal 0 0 -1
outer loop
vertex -1.708 18.80941 0
vertex 0.35968 16.97533 0
vertex 0.51957 15.93163 0
endloop
endfacet
facet normal 0 0 -1
outer loop
vertex 0.51957 15.93163 0
vertex 0.35968 16.97533 0
vertex 1.32863 15 0
endloop
endfacet
facet normal 0 0 -1
outer loop
vertex 0.51957 15.93163 0
vertex 1.32863 15 0
vertex 1.24071 15 0
endloop
endfacet
facet normal 0 0 -1
outer loop
vertex -1.12399 20 0
vertex -0.34649 21.58502 0
vertex 0.35968 16.97533 0
endloop
endfacet
facet normal 0 0 -1
outer loop
vertex 0.81042 23.94356 0
vertex -0.26357 21.0437 0
vertex -0.34649 21.58502 0
endloop
endfacet
facet normal 0 0 -1
outer loop
vertex -0.18279 20.51641 0
vertex -0.26357 21.0437 0
vertex 0.45861 22.99363 0
endloop
endfacet
facet normal 0 0 -1
outer loop
vertex 1.25653 24.85302 0
vertex 1.32863 25 0
vertex 1.34815 25 0
endloop
endfacet
facet normal 0 0 -1
outer loop
vertex -0.02579 19.49155 0
vertex -0.18279 20.51641 0
vertex 0.07709 21.52013 0
endloop
endfacet
facet normal 0 0 -1
outer loop
vertex 0.05131 18.98832 0
vertex -0.02579 19.49155 0
vertex 0 20 0
endloop
endfacet
facet normal 0 0 -1
outer loop
vertex 0.58622 16.51352 0
vertex 0.35968 16.97533 0
vertex 0.2047 17.98701 0
endloop
endfacet
facet normal 0 0 -1
outer loop
vertex 0.05131 21.01168 0
vertex 0.07709 21.52013 0
vertex 0.2047 22.01299 0
endloop
endfacet
facet normal 0 0 -1
outer loop
vertex 0.81042 16.05644 0
vertex 0.58622 16.51352 0
vertex 0.45861 17.00637 0
endloop
endfacet
facet normal 0 0 -1
outer loop
vertex 1.34815 15 0
vertex 1.32863 15 0
vertex 1.25653 15.14698 0
endloop
endfacet
facet normal 0.8978050968886254 -0.4403930153860367 0
outer loop
vertex 1.25653 24.85302 0
vertex 0.81042 23.94356 10
vertex 0.81042 23.94356 0
endloop
endfacet
facet normal 0.8978050968886254 -0.4403930153860367 0
outer loop
vertex 1.25653 24.85302 10
vertex 0.81042 23.94356 10
vertex 1.25653 24.85302 0
endloop
endfacet
facet normal 0.8978050968886254 0.4403930153860367 0
outer loop
vertex 0.81042 16.05644 0
vertex 1.25653 15.14698 10
vertex 1.25653 15.14698 0
endloop
endfacet
facet normal 0.8978050968886254 0.4403930153860367 0
outer loop
vertex 0.81042 16.05644 10
vertex 1.25653 15.14698 10
vertex 0.81042 16.05644 0
endloop
endfacet
facet normal 0.9884690704933199 0.15142290671517344 0
outer loop
vertex 0.05131 18.98832 0
vertex 0.2047 17.98701 10
vertex 0.2047 17.98701 0
endloop
endfacet
facet normal 0.9884690704933199 0.15142290671517344 0
outer loop
vertex 0.05131 18.98832 10
vertex 0.2047 17.98701 10
vertex 0.05131 18.98832 0
endloop
endfacet
facet normal 0.9377538811078932 -0.3473005304733688 0
outer loop
vertex 0.81042 23.94356 0
vertex 0.45861 22.99363 10
vertex 0.45861 22.99363 0
endloop
endfacet
facet normal 0.9377538811078932 -0.3473005304733688 0
outer loop
vertex 0.81042 23.94356 10
vertex 0.45861 22.99363 10
vertex 0.81042 23.94356 0
endloop
endfacet
facet normal 0.9680759900255812 -0.2506568920576308 0
outer loop
vertex 0.45861 22.99363 0
vertex 0.2047 22.01299 10
vertex 0.2047 22.01299 0
endloop
endfacet
facet normal 0.9680759900255812 -0.2506568920576308 0
outer loop
vertex 0.45861 22.99363 10
vertex 0.2047 22.01299 10
vertex 0.45861 22.99363 0
endloop
endfacet
facet normal 0.9987163375223298 -0.05065251391573504 0
outer loop
vertex 0.05131 21.01168 0
vertex 0 20 10
vertex 0 20 0
endloop
endfacet
facet normal 0.9987163375223298 -0.05065251391573504 0
outer loop
vertex 0.05131 21.01168 10
vertex 0 20 10
vertex 0.05131 21.01168 0
endloop
endfacet
facet normal 0.9987163375223298 0.05065251391573504 0
outer loop
vertex 0 20 0
vertex 0.05131 18.98832 10
vertex 0.05131 18.98832 0
endloop
endfacet
facet normal 0.9987163375223298 0.05065251391573504 0
outer loop
vertex 0 20 10
vertex 0.05131 18.98832 10
vertex 0 20 0
endloop
endfacet
facet normal 0.9680759900255812 0.2506568920576308 0
outer loop
vertex 0.2047 17.98701 0
vertex 0.45861 17.00637 10
vertex 0.45861 17.00637 0
endloop
endfacet
facet normal 0.9680759900255812 0.2506568920576308 0
outer loop
vertex 0.2047 17.98701 10
vertex 0.45861 17.00637 10
vertex 0.2047 17.98701 0
endloop
endfacet
facet normal 0.9884690704933199 -0.15142290671517344 0
outer loop
vertex 0.2047 22.01299 0
vertex 0.05131 21.01168 10
vertex 0.05131 21.01168 0
endloop
endfacet
facet normal 0.9884690704933199 -0.15142290671517344 0
outer loop
vertex 0.2047 22.01299 10
vertex 0.05131 21.01168 10
vertex 0.2047 22.01299 0
endloop
endfacet
facet normal 0.9377538811078932 0.3473005304733688 0
outer loop
vertex 0.45861 17.00637 0
vertex 0.81042 16.05644 10
vertex 0.81042 16.05644 0
endloop
endfacet
facet normal 0.9377538811078932 0.3473005304733688 0
outer loop
vertex 0.45861 17.00637 10
vertex 0.81042 16.05644 10
vertex 0.45861 17.00637 0
endloop
endfacet
facet normal 0.8486269810585733 -0.5289917267967542 0
outer loop
vertex 1.34815 25 8.29025
vertex 1.25653 24.85302 10
vertex 1.25653 24.85302 0
endloop
endfacet
facet normal 0.8486269810585735 -0.5289917267967542 0
outer loop
vertex 1.34815 25 8.29025
vertex 1.25653 24.85302 0
vertex 1.34815 25 0
endloop
endfacet
facet normal 0.8486269810585733 -0.5289917267967542 0
outer loop
vertex 1.34815 25 10
vertex 1.25653 24.85302 10
vertex 1.34815 25 8.29025
endloop
endfacet
facet normal 0.8486269810585734 0.5289917267967542 0
outer loop
vertex 1.34815 15 1.70975
vertex 1.34815 15 0
vertex 1.25653 15.14698 0
endloop
endfacet
facet normal 0.8486269810585735 0.5289917267967542 0
outer loop
vertex 1.34815 15 10
vertex 1.34815 15 1.70975
vertex 1.25653 15.14698 0
endloop
endfacet
facet normal 0.8486269810585733 0.5289917267967542 0
outer loop
vertex 1.34815 15 10
vertex 1.25653 15.14698 0
vertex 1.25653 15.14698 10
endloop
endfacet
facet normal 0 0 1
outer loop
vertex 1.34815 15 10
vertex 1.79237 14.28732 10
vertex 2.41242 13.48628 10
endloop
endfacet
facet normal 0 0 1
outer loop
vertex 1.34815 15 10
vertex 2.41242 13.48628 10
vertex 3.11033 12.75207 10
endloop
endfacet
facet normal 0 0 1
outer loop
vertex 1.34815 15 10
vertex 3.11033 12.75207 10
vertex 3.87894 12.09224 10
endloop
endfacet
facet normal 0 0 1
outer loop
vertex 1.34815 15 10
vertex 3.87894 12.09224 10
vertex 4.71036 11.51356 10
endloop
endfacet
facet normal 0 0 1
outer loop
vertex 1.34815 15 10
vertex 4.71036 11.51356 10
vertex 5.59606 11.02195 10
endloop
endfacet
facet normal 0 0 1
outer loop
vertex 1.34815 15 10
vertex 5.59606 11.02195 10
vertex 6.52695 10.62248 10
endloop
endfacet
facet normal 0 0 1
outer loop
vertex 1.34815 15 10
vertex 6.52695 10.62248 10
vertex 7.49347 10.31923 10
endloop
endfacet
facet normal 0 0 1
outer loop
vertex 1.34815 15 10
vertex 7.49347 10.31923 10
vertex 8.48572 10.11532 10
endloop
endfacet
facet normal 0 0 1
outer loop
vertex 1.34815 15 10
vertex 8.48572 10.11532 10
vertex 9.49351 10.01283 10
endloop
endfacet
facet normal 0 0 1
outer loop
vertex 1.34815 15 10
vertex 9.49351 10.01283 10
vertex 10.50649 10.01283 10
endloop
endfacet
facet normal 0 0 1
outer loop
vertex 1.34815 15 10
vertex 10.50649 10.01283 10
vertex 11.51428 10.11532 10
endloop
endfacet
facet normal 0 0 1
outer loop
vertex 1.34815 15 10
vertex 11.51428 10.11532 10
vertex 12.50653 10.31923 10
endloop
endfacet
facet normal 0 0 1
outer loop
vertex 1.34815 15 10
vertex 12.50653 10.31923 10
vertex 13.47305 10.62248 10
endloop
endfacet
facet normal 0 0 1
outer loop
vertex 1.34815 15 10
vertex 13.47305 10.62248 10
vertex 14.40394 11.02195 10
endloop
endfacet
facet normal 0 0 1
outer loop
vertex 1.34815 15 10
vertex 14.40394 11.02195 10
vertex 15.28964 11.51356 10
endloop
endfacet
facet normal 0 0 1
outer loop
vertex 1.34815 15 10
vertex 15.28964 11.51356 10
vertex 16.12106 12.09224 10
endloop
endfacet
facet normal 0 0 1
outer loop
vertex 1.34815 15 10
vertex 16.12106 12.09224 10
vertex 16.88967 12.75207 10
endloop
endfacet
facet normal 0 0 1
outer loop
vertex 1.34815 15 10
vertex 16.88967 12.75207 10
vertex 17.58758 13.48628 10
endloop
endfacet
facet normal 0 0 1
outer loop
vertex 1.34815 15 10
vertex 17.58758 13.48628 10
vertex 18.20763 14.28732 10
endloop
endfacet
facet normal 0 0 1
outer loop
vertex 1.34815 15 10
vertex 18.20763 14.28732 10
vertex 18.65185 15 10
endloop
endfacet
facet normal 0 0 1
outer loop
vertex 18.65185 25 10
vertex 18.20763 25.71268 10
vertex 17.58758 26.51372 10
endloop
endfacet
facet normal 0 0 1
outer loop
vertex 18.65185 25 10
vertex 17.58758 26.51372 10
vertex 16.88967 27.24793 10
endloop
endfacet
facet normal 0 0 1
outer loop
vertex 18.65185 25 10
vertex 16.88967 27.24793 10
vertex 16.12106 27.90776 10
endloop
endfacet
facet normal 0 0 1
outer loop
vertex 18.65185 25 10
vertex 16.12106 27.90776 10
vertex 15.28964 28.48644 10
endloop
endfacet
facet normal 0 0 1
outer loop
vertex 18.65185 25 10
vertex 15.28964 28.48644 10
vertex 14.40394 28.97805 10
endloop
endfacet
facet normal 0 0 1
outer loop
vertex 18.65185 25 10
vertex 14.40394 28.97805 10
vertex 13.47305 29.37752 10
endloop
endfacet
facet normal 0 0 1
outer loop
vertex 18.65185 25 10
vertex 13.47305 29.37752 10
vertex 12.50653 29.68077 10
endloop
endfacet
facet normal 0 0 1
outer loop
vertex 18.65185 25 10
vertex 12.50653 29.68077 10
vertex 11.51428 29.88468 10
endloop
endfacet
facet normal 0 0 1
outer loop
vertex 18.65185 25 10
vertex 11.51428 29.88468 10
vertex 10.50649 29.98717 10
endloop
endfacet
facet normal 0 0 1
outer loop
vertex 18.65185 25 10
vertex 10.50649 29.98717 10
vertex 9.49351 29.98717 10
endloop
endfacet
facet normal 0 0 1
outer loop
vertex 18.65185 25 10
vertex 9.49351 29.98717 10
vertex 8.48572 29.88468 10
endloop
endfacet
facet normal 0 0 1
outer loop
vertex 18.65185 25 10
vertex 8.48572 29.88468 10
vertex 7.49347 29.68077 10
endloop
endfacet
facet normal 0 0 1
outer loop
vertex 18.65185 25 10
vertex 7.49347 29.68077 10
vertex 6.52695 29.37752 10
endloop
endfacet
facet normal 0 0 1
outer loop
vertex 18.65185 25 10
vertex 6.52695 29.37752 10
vertex 5.59606 28.97805 10
endloop
endfacet
facet normal 0 0 1
outer loop
vertex 18.65185 25 10
vertex 5.59606 28.97805 10
vertex 4.71036 28.48644 10
endloop
endfacet
facet normal 0 0 1
outer loop
vertex 18.65185 25 10
vertex 4.71036 28.48644 10
vertex 3.87894 27.90776 10
endloop
endfacet
facet normal 0 0 1
outer loop
vertex 18.65185 25 10
vertex 3.87894 27.90776 10
vertex 3.11033 27.24793 10
endloop
endfacet
facet normal 0 0 1
outer loop
vertex 18.65185 25 10
vertex 3.11033 27.24793 10
vertex 2.41242 26.51372 10
endloop
endfacet
facet normal 0 0 1
outer loop
vertex 18.65185 25 10
vertex 2.41242 26.51372 10
vertex 1.79237 25.71268 10
endloop
endfacet
facet normal 0 0 1
outer loop
vertex 18.65185 25 10
vertex 1.79237 25.71268 10
vertex 1.34815 25 10
endloop
endfacet
facet normal 0 0 1
outer loop
vertex 19.7953 22.01299 10
vertex 19.54139 22.99363 10
vertex 19.18958 23.94356 10
endloop
endfacet
facet normal 0 0 1
outer loop
vertex 19.7953 22.01299 10
vertex 19.18958 23.94356 10
vertex 18.74347 24.85302 10
endloop
endfacet
facet normal 0 0 1
outer loop
vertex 19.7953 22.01299 10
vertex 18.74347 24.85302 10
vertex 18.65185 25 10
endloop
endfacet
facet normal 0 0 1
outer loop
vertex 19.7953 22.01299 10
vertex 18.65185 25 10
vertex 1.34815 25 10
endloop
endfacet
facet normal 0 0 1
outer loop
vertex 19.7953 22.01299 10
vertex 1.34815 25 10
vertex 1.25653 24.85302 10
endloop
endfacet
facet normal 0 0 1
outer loop
vertex 19.7953 22.01299 10
vertex 1.25653 24.85302 10
vertex 0.81042 23.94356 10
endloop
endfacet
facet normal 0 0 1
outer loop
vertex 19.7953 22.01299 10
vertex 0.81042 23.94356 10
vertex 0.45861 22.99363 10
endloop
endfacet
facet normal 0 0 1
outer loop
vertex 19.7953 22.01299 10
vertex 0.45861 22.99363 10
vertex 0.2047 22.01299 10
endloop
endfacet
facet normal 0 0 1
outer loop
vertex 19.7953 22.01299 10
vertex 0.2047 22.01299 10
vertex 0.05131 21.01168 10
endloop
endfacet
facet normal 0 0 1
outer loop
vertex 19.7953 22.01299 10
vertex 0.05131 21.01168 10
vertex 0 20 10
endloop
endfacet
facet normal 0 0 1
outer loop
vertex 19.7953 22.01299 10
vertex 0 20 10
vertex 0.05131 18.98832 10
endloop
endfacet
facet normal 0 0 1
outer loop
vertex 19.7953 22.01299 10
vertex 0.05131 18.98832 10
vertex 0.2047 17.98701 10
endloop
endfacet
facet normal 0 0 1
outer loop
vertex 19.7953 22.01299 10
vertex 0.2047 17.98701 10
vertex 0.45861 17.00637 10
endloop
endfacet
facet normal 0 0 1
outer loop
vertex 19.7953 22.01299 10
vertex 0.45861 17.00637 10
vertex 0.81042 16.05644 10
endloop
endfacet
facet normal 0 0 1
outer loop
vertex 19.7953 22.01299 10
vertex 0.81042 16.05644 10
vertex 1.25653 15.14698 10
endloop
endfacet
facet normal 0 0 1
outer loop
vertex 19.7953 22.01299 10
vertex 1.25653 15.14698 10
vertex 1.34815 15 10
endloop
endfacet
facet normal 0 0 1
outer loop
vertex 19.7953 22.01299 10
vertex 1.34815 15 10
vertex 18.65185 15 10
endloop
endfacet
facet normal 0 0 1
outer loop
vertex 19.7953 22.01299 10
vertex 18.65185 15 10
vertex 18.74347 15.14698 10
endloop
endfacet
facet normal 0 0 1
outer loop
vertex 19.7953 22.01299 10
vertex 18.74347 15.14698 10
vertex 19.18958 16.05644 10
endloop
endfacet
facet normal 0 0 1
outer loop
vertex 19.7953 22.01299 10
vertex 19.18958 16.05644 10
vertex 19.54139 17.00637 10
endloop
endfacet
facet normal 0 0 1
outer loop
vertex 19.7953 22.01299 10
vertex 19.54139 17.00637 10
vertex 19.7953 17.98701 10
endloop
endfacet
facet normal 0 0 1
outer loop
vertex 19.7953 22.01299 10
vertex 19.7953 17.98701 10
vertex 19.94869 18.98832 10
endloop
endfacet
facet normal 0 0 1
outer loop
vertex 19.7953 22.01299 10
vertex 19.94869 18.98832 10
vertex 20 20 10
endloop
endfacet
facet normal 0 0 1
outer loop
vertex 19.7953 22.01299 10
vertex 20 20 10
vertex 19.94869 21.01168 10
endloop
endfacet
facet normal 0 0 -1
outer loop
vertex 18.65185 15 0
vertex 18.20763 14.28732 0
vertex 17.58758 13.48628 0
endloop
endfacet
facet normal 0 0 -1
outer loop
vertex 18.65185 15 0
vertex 17.58758 13.48628 0
vertex 16.88967 12.75207 0
endloop
endfacet
facet normal 0 0 -1
outer loop
vertex 18.65185 15 0
vertex 16.88967 12.75207 0
vertex 16.12106 12.09224 0
endloop
endfacet
facet normal 0 0 -1
outer loop
vertex 18.65185 15 0
vertex 16.12106 12.09224 0
vertex 15.28964 11.51356 0
endloop
endfacet
facet normal 0 0 -1
outer loop
vertex 18.65185 15 0
vertex 15.28964 11.51356 0
vertex 14.40394 11.02195 0
endloop
endfacet
facet normal 0 0 -1
outer loop
vertex 18.65185 15 0
vertex 14.40394 11.02195 0
vertex 13.47305 10.62248 0
endloop
endfacet
facet normal 0 0 -1
outer loop
vertex 18.65185 15 0
vertex 13.47305 10.62248 0
vertex 12.50653 10.31923 0
endloop
endfacet
facet normal 0 0 -1
outer loop
vertex 18.65185 15 0
vertex 12.50653 10.31923 0
vertex 11.51428 10.11532 0
endloop
endfacet
facet normal 0 0 -1
outer loop
vertex 18.65185 15 0
vertex 11.51428 10.11532 0
vertex 10.50649 10.01283 0
endloop
endfacet
facet normal 0 0 -1
outer loop
vertex 18.65185 15 0
vertex 10.50649 10.01283 0
vertex 9.49351 10.01283 0
endloop
endfacet
facet normal 0 0 -1
outer loop
vertex 18.65185 15 0
vertex 9.49351 10.01283 0
vertex 8.48572 10.11532 0
endloop
endfacet
facet normal 0 0 -1
outer loop
vertex 18.65185 15 0
vertex 8.48572 10.11532 0
vertex 7.49347 10.31923 0
endloop
endfacet
facet normal 0 0 -1
outer loop
vertex 18.65185 15 0
vertex 7.49347 10.31923 0
vertex 6.52695 10.62248 0
endloop
endfacet
facet normal 0 0 -1
outer loop
vertex 18.65185 15 0
vertex 6.52695 10.62248 0
vertex 5.59606 11.02195 0
endloop
endfacet
facet normal 0 0 -1
outer loop
vertex 18.65185 15 0
vertex 5.59606 11.02195 0
vertex 4.71036 11.51356 0
endloop
endfacet
facet normal 0 0 -1
outer loop
vertex 18.65185 15 0
vertex 4.71036 11.51356 0
vertex 3.87894 12.09224 0
endloop
endfacet
facet normal 0 0 -1
outer loop
vertex 18.65185 15 0
vertex 3.87894 12.09224 0
vertex 3.11033 12.75207 0
endloop
endfacet
facet normal 0 0 -1
outer loop
vertex 18.65185 15 0
vertex 3.11033 12.75207 0
vertex 2.41242 13.48628 0
endloop
endfacet
facet normal 0 0 -1
outer loop
vertex 18.65185 15 0
vertex 2.41242 13.48628 0
vertex 1.79237 14.28732 0
endloop
endfacet
facet normal 0 0 -1
outer loop
vertex 18.65185 15 0
vertex 1.79237 14.28732 0
vertex 1.34815 15 0
endloop
endfacet
facet normal 0 0 -1
outer loop
vertex 1.34815 25 0
vertex 1.79237 25.71268 0
vertex 2.41242 26.51372 0
endloop
endfacet
facet normal 0 0 -1
outer loop
vertex 1.34815 25 0
vertex 2.41242 26.51372 0
vertex 3.11033 27.24793 0
endloop
endfacet
facet normal 0 0 -1
outer loop
vertex 1.34815 25 0
vertex 3.11033 27.24793 0
vertex 3.87894 27.90776 0
endloop
endfacet
facet normal 0 0 -1
outer loop
vertex 1.34815 25 0
vertex 3.87894 27.90776 0
vertex 4.71036 28.48644 0
endloop
endfacet
facet normal 0 0 -1
outer loop
vertex 1.34815 25 0
vertex 4.71036 28.48644 0
vertex 5.59606 28.97805 0
endloop
endfacet
facet normal 0 0 -1
outer loop
vertex 1.34815 25 0
vertex 5.59606 28.97805 0
vertex 6.52695 29.37752 0
endloop
endfacet
facet normal 0 0 -1
outer loop
vertex 1.34815 25 0
vertex 6.52695 29.37752 0
vertex 7.49347 29.68077 0
endloop
endfacet
facet normal 0 0 -1
outer loop
vertex 1.34815 25 0
vertex 7.49347 29.68077 0
vertex 8.48572 29.88468 0
endloop
endfacet
facet normal 0 0 -1
outer loop
vertex 1.34815 25 0
vertex 8.48572 29.88468 0
vertex 9.49351 29.98717 0
endloop
endfacet
facet normal 0 0 -1
outer loop
vertex 1.34815 25 0
vertex 9.49351 29.98717 0
vertex 10.50649 29.98717 0
endloop
endfacet
facet normal 0 0 -1
outer loop
vertex 1.34815 25 0
vertex 10.50649 29.98717 0
vertex 11.51428 29.88468 0
endloop
endfacet
facet normal 0 0 -1
outer loop
vertex 1.34815 25 0
vertex 11.51428 29.88468 0
vertex 12.50653 29.68077 0
endloop
endfacet
facet normal 0 0 -1
outer loop
vertex 1.34815 25 0
vertex 12.50653 29.68077 0
vertex 13.47305 29.37752 0
endloop
endfacet
facet normal 0 0 -1
outer loop
vertex 1.34815 25 0
vertex 13.47305 29.37752 0
vertex 14.40394 28.97805 0
endloop
endfacet
facet normal 0 0 -1
outer loop
vertex 1.34815 25 0
vertex 14.40394 28.97805 0
vertex 15.28964 28.48644 0
endloop
endfacet
facet normal 0 0 -1
outer loop
vertex 1.34815 25 0
vertex 15.28964 28.48644 0
vertex 16.12106 27.90776 0
endloop
endfacet
facet normal 0 0 -1
outer loop
vertex 1.34815 25 0
vertex 16.12106 27.90776 0
vertex 16.88967 27.24793 0
endloop
endfacet
facet normal 0 0 -1
outer loop
vertex 1.34815 25 0
vertex 16.88967 27.24793 0
vertex 17.58758 26.51372 0
endloop
endfacet
facet normal 0 0 -1
outer loop
vertex 1.34815 25 0
vertex 17.58758 26.51372 0
vertex 18.20763 25.71268 0
endloop
endfacet
facet normal 0 0 -1
outer loop
vertex 1.34815 25 0
vertex 18.20763 25.71268 0
vertex 18.65185 25 0
endloop
endfacet
facet normal 0 0 -1
outer loop
vertex 19.54139 17.00637 0
vertex 19.18958 16.05644 0
vertex 18.74347 15.14698 0
endloop
endfacet
facet normal 0 0 -1
outer loop
vertex 19.54139 17.00637 0
vertex 18.74347 15.14698 0
vertex 18.65185 15 0
endloop
endfacet
facet normal 0 0 -1
outer loop
vertex 19.54139 17.00637 0
vertex 18.65185 15 0
vertex 1.34815 15 0
endloop
endfacet
facet normal 0 0 -1
outer loop
vertex 19.54139 17.00637 0
vertex 1.34815 15 0
vertex 1.25653 15.14698 0
endloop
endfacet
facet normal 0 0 -1
outer loop
vertex 19.54139 17.00637 0
vertex 1.25653 15.14698 0
vertex 0.81042 16.05644 0
endloop
endfacet
facet normal 0 0 -1
outer loop
vertex 19.54139 17.00637 0
vertex 0.81042 16.05644 0
vertex 0.45861 17.00637 0
endloop
endfacet
facet normal 0 0 -1
outer loop
vertex 19.54139 17.00637 0
vertex 0.45861 17.00637 0
vertex 0.2047 17.98701 0
endloop
endfacet
facet normal 0 0 -1
outer loop
vertex 19.54139 17.00637 0
vertex 0.2047 17.98701 0
vertex 0.05131 18.98832 0
endloop
endfacet
facet normal 0 0 -1
outer loop
vertex 19.54139 17.00637 0
vertex 0.05131 18.98832 0
vertex 0 20 0
endloop
endfacet
facet normal 0 0 -1
outer loop
vertex 19.54139 17.00637 0
vertex 0 20 0
vertex 0.05131 21.01168 0
endloop
endfacet
facet normal 0 0 -1
outer loop
vertex 19.54139 17.00637 0
vertex 0.05131 21.01168 0
vertex 0.2047 22.01299 0
endloop
endfacet
facet normal 0 0 -1
outer loop
vertex 19.54139 17.00637 0
vertex 0.2047 22.01299 0
vertex 0.45861 22.99363 0
endloop
endfacet
facet normal 0 0 -1
outer loop
vertex 19.54139 17.00637 0
vertex 0.45861 22.99363 0
vertex 0.81042 23.94356 0
endloop
endfacet
facet normal 0 0 -1
outer loop
vertex 19.54139 17.00637 0
vertex 0.81042 23.94356 0
vertex 1.25653 24.85302 0
endloop
endfacet
facet normal 0 0 -1
outer loop
vertex 19.54139 17.00637 0
vertex 1.25653 24.85302 0
vertex 1.34815 25 0
endloop
endfacet
facet normal 0 0 -1
outer loop
vertex 19.54139 17.00637 0
vertex 1.34815 25 0
vertex 18.65185 25 0
endloop
endfacet
facet normal 0 0 -1
outer loop
vertex 19.54139 17.00637 0
vertex 18.65185 25 0
vertex 18.74347 24.85302 0
endloop
endfacet
facet normal 0 0 -1
outer loop
vertex 19.54139 17.00637 0
vertex 18.74347 24.85302 0
vertex 19.18958 23.94356 0
endloop
endfacet
facet normal 0 0 -1
outer loop
vertex 19.54139 17.00637 0
vertex 19.18958 23.94356 0
vertex 19.54139 22.99363 0
endloop
endfacet
facet normal 0 0 -1
outer loop
vertex 19.54139 17.00637 0
vertex 19.54139 22.99363 0
vertex 19.7953 22.01299 0
endloop
endfacet
facet normal 0 0 -1
outer loop
vertex 19.54139 17.00637 0
vertex 19.7953 22.01299 0
vertex 19.94869 21.01168 0
endloop
endfacet
facet normal 0 0 -1
outer loop
vertex 19.54139 17.00637 0
vertex 19.94869 21.01168 0
vertex 20 20 0
endloop
endfacet
facet normal 0 0 -1
outer loop
vertex 19.54139 17.00637 0
vertex 20 20 0
vertex 19.94869 18.98832 0
endloop
endfacet
facet normal 0 0 -1
outer loop
vertex 19.54139 17.00637 0
vertex 19.94869 18.98832 0
vertex 19.7953 17.98701 0
endloop
endfacet
facet normal 0 -1 0
outer loop
vertex 10.50649 10.01283 0
vertex 10.50649 10.01283 10
vertex 9.49351 10.01283 0
endloop
endfacet
facet normal 0 -1 0
outer loop
vertex 9.49351 10.01283 0
vertex 10.50649 10.01283 10
vertex 9.49351 10.01283 10
endloop
endfacet
facet normal 0.897805096888625 -0.4403930153860374 0
outer loop
vertex 19.18958 16.05644 0
vertex 19.18958 16.05644 10
vertex 18.74347 15.14698 0
endloop
endfacet
facet normal 0.897805096888625 -0.4403930153860374 0
outer loop
vertex 18.74347 15.14698 0
vertex 19.18958 16.05644 10
vertex 18.74347 15.14698 10
endloop
endfacet
facet normal -0.20129609662326392 -0.9795304392841692 0
outer loop
vertex 8.48572 10.11532 0
vertex 8.48572 10.11532 10
vertex 7.49347 10.31923 0
endloop
endfacet
facet normal -0.20129609662326392 -0.9795304392841692 0
outer loop
vertex 7.49347 10.31923 0
vertex 8.48572 10.11532 10
vertex 7.49347 10.31923 10
endloop
endfacet
facet normal 0.485306788964283 -0.8743439372381883 0
outer loop
vertex 15.28964 11.51356 0
vertex 15.28964 11.51356 10
vertex 14.40394 11.02195 0
endloop
endfacet
facet normal 0.485306788964283 -0.8743439372381883 0
outer loop
vertex 14.40394 11.02195 0
vertex 15.28964 11.51356 10
vertex 14.40394 11.02195 10
endloop
endfacet
facet normal 0.6513724588664771 -0.7587581431722756 0
outer loop
vertex 16.88967 12.75207 0
vertex 16.88967 12.75207 10
vertex 16.12106 12.09224 0
endloop
endfacet
facet normal 0.6513724588664771 -0.7587581431722756 0
outer loop
vertex 16.12106 12.09224 0
vertex 16.88967 12.75207 10
vertex 16.12106 12.09224 10
endloop
endfacet
facet normal -0.6513724588664765 -0.7587581431722763 0
outer loop
vertex 3.87894 12.09224 0
vertex 3.87894 12.09224 10
vertex 3.11033 12.75207 0
endloop
endfacet
facet normal -0.6513724588664765 -0.7587581431722763 0
outer loop
vertex 3.11033 12.75207 0
vertex 3.87894 12.09224 10
vertex 3.11033 12.75207 10
endloop
endfacet
facet normal -0.485306788964283 -0.8743439372381883 0
outer loop
vertex 5.59606 11.02195 0
vertex 5.59606 11.02195 10
vertex 4.71036 11.51356 0
endloop
endfacet
facet normal -0.485306788964283 -0.8743439372381883 0
outer loop
vertex 4.71036 11.51356 0
vertex 5.59606 11.02195 10
vertex 4.71036 11.51356 10
endloop
endfacet
facet normal -0.3943505526725248 0.9189600870586678 0
outer loop
vertex 5.59606 28.97805 0
vertex 5.59606 28.97805 10
vertex 6.52695 29.37752 0
endloop
endfacet
facet normal -0.3943505526725248 0.9189600870586678 0
outer loop
vertex 6.52695 29.37752 0
vertex 5.59606 28.97805 10
vertex 6.52695 29.37752 10
endloop
endfacet
facet normal 0.7247970499683987 -0.6889624346487309 0
outer loop
vertex 17.58758 13.48628 0
vertex 17.58758 13.48628 10
vertex 16.88967 12.75207 0
endloop
endfacet
facet normal 0.7247970499683987 -0.6889624346487309 0
outer loop
vertex 16.88967 12.75207 0
vertex 17.58758 13.48628 10
vertex 16.88967 12.75207 10
endloop
endfacet
facet normal -0.7247970499683988 0.6889624346487305 0
outer loop
vertex 2.41242 26.51372 0
vertex 2.41242 26.51372 10
vertex 3.11033 27.24793 0
endloop
endfacet
facet normal -0.7247970499683988 0.6889624346487305 0
outer loop
vertex 3.11033 27.24793 0
vertex 2.41242 26.51372 10
vertex 3.11033 27.24793 10
endloop
endfacet
facet normal -0.7247970499683988 -0.6889624346487305 0
outer loop
vertex 3.11033 12.75207 0
vertex 3.11033 12.75207 10
vertex 2.41242 13.48628 0
endloop
endfacet
facet normal -0.7247970499683988 -0.6889624346487305 0
outer loop
vertex 2.41242 13.48628 0
vertex 3.11033 12.75207 10
vertex 2.41242 13.48628 10
endloop
endfacet
facet normal -0.6513724588664765 0.7587581431722763 0
outer loop
vertex 3.11033 27.24793 0
vertex 3.11033 27.24793 10
vertex 3.87894 27.90776 0
endloop
endfacet
facet normal -0.6513724588664765 0.7587581431722763 0
outer loop
vertex 3.87894 27.90776 0
vertex 3.11033 27.24793 10
vertex 3.87894 27.90776 10
endloop
endfacet
facet normal 0.5712646246981289 0.8207659401854503 0
outer loop
vertex 15.28964 28.48644 0
vertex 15.28964 28.48644 10
vertex 16.12106 27.90776 0
endloop
endfacet
facet normal 0.5712646246981289 0.8207659401854503 0
outer loop
vertex 16.12106 27.90776 0
vertex 15.28964 28.48644 10
vertex 16.12106 27.90776 10
endloop
endfacet
facet normal -0.79077626903439 0.6121052951347914 0
outer loop
vertex 1.79237 25.71268 0
vertex 1.79237 25.71268 10
vertex 2.41242 26.51372 0
endloop
endfacet
facet normal -0.79077626903439 0.6121052951347914 0
outer loop
vertex 2.41242 26.51372 0
vertex 1.79237 25.71268 10
vertex 2.41242 26.51372 10
endloop
endfacet
facet normal -0.8978050968886254 0.4403930153860367 0
outer loop
vertex 0.81042 23.94356 0
vertex 0.81042 23.94356 10
vertex 1.25653 24.85302 0
endloop
endfacet
facet normal -0.8978050968886254 0.4403930153860367 0
outer loop
vertex 1.25653 24.85302 0
vertex 0.81042 23.94356 10
vertex 1.25653 24.85302 10
endloop
endfacet
facet normal -0.8978050968886254 -0.4403930153860367 0
outer loop
vertex 1.25653 15.14698 0
vertex 1.25653 15.14698 10
vertex 0.81042 16.05644 0
endloop
endfacet
facet normal -0.8978050968886254 -0.4403930153860367 0
outer loop
vertex 0.81042 16.05644 0
vertex 1.25653 15.14698 10
vertex 0.81042 16.05644 10
endloop
endfacet
facet normal 0.7247970499683987 0.6889624346487309 0
outer loop
vertex 16.88967 27.24793 0
vertex 16.88967 27.24793 10
vertex 17.58758 26.51372 0
endloop
endfacet
facet normal 0.7247970499683987 0.6889624346487309 0
outer loop
vertex 17.58758 26.51372 0
vertex 16.88967 27.24793 10
vertex 17.58758 26.51372 10
endloop
endfacet
facet normal 0 1 0
outer loop
vertex 9.49351 29.98717 0
vertex 9.49351 29.98717 10
vertex 10.50649 29.98717 0
endloop
endfacet
facet normal 0 1 0
outer loop
vertex 10.50649 29.98717 0
vertex 9.49351 29.98717 10
vertex 10.50649 29.98717 10
endloop
endfacet
facet normal 0.20129609662326559 0.9795304392841688 0
outer loop
vertex 11.51428 29.88468 0
vertex 11.51428 29.88468 10
vertex 12.50653 29.68077 0
endloop
endfacet
facet normal 0.20129609662326559 0.9795304392841688 0
outer loop
vertex 12.50653 29.68077 0
vertex 11.51428 29.88468 10
vertex 12.50653 29.68077 10
endloop
endfacet
facet normal 0.9680759900255809 0.25065689205763186 0
outer loop
vertex 19.54139 22.99363 0
vertex 19.54139 22.99363 10
vertex 19.7953 22.01299 0
endloop
endfacet
facet normal 0.9680759900255809 0.25065689205763186 0
outer loop
vertex 19.7953 22.01299 0
vertex 19.54139 22.99363 10
vertex 19.7953 22.01299 10
endloop
endfacet
facet normal -0.29936527420340453 0.9541385814446035 0
outer loop
vertex 6.52695 29.37752 0
vertex 6.52695 29.37752 10
vertex 7.49347 29.68077 0
endloop
endfacet
facet normal -0.29936527420340453 0.9541385814446035 0
outer loop
vertex 7.49347 29.68077 0
vertex 6.52695 29.37752 10
vertex 7.49347 29.68077 10
endloop
endfacet
facet normal 0.9884690704933202 0.15142290671517164 0
outer loop
vertex 19.7953 22.01299 0
vertex 19.7953 22.01299 10
vertex 19.94869 21.01168 0
endloop
endfacet
facet normal 0.9884690704933202 0.15142290671517164 0
outer loop
vertex 19.94869 21.01168 0
vertex 19.7953 22.01299 10
vertex 19.94869 21.01168 10
endloop
endfacet
facet normal -0.9884690704933199 -0.15142290671517344 0
outer loop
vertex 0.2047 17.98701 0
vertex 0.2047 17.98701 10
vertex 0.05131 18.98832 0
endloop
endfacet
facet normal -0.9884690704933199 -0.15142290671517344 0
outer loop
vertex 0.05131 18.98832 0
vertex 0.2047 17.98701 10
vertex 0.05131 18.98832 10
endloop
endfacet
facet normal 0.6513724588664771 0.7587581431722756 0
outer loop
vertex 16.12106 27.90776 0
vertex 16.12106 27.90776 10
vertex 16.88967 27.24793 0
endloop
endfacet
facet normal 0.6513724588664771 0.7587581431722756 0
outer loop
vertex 16.88967 27.24793 0
vertex 16.12106 27.90776 10
vertex 16.88967 27.24793 10
endloop
endfacet
facet normal -0.9377538811078932 0.3473005304733688 0
outer loop
vertex 0.45861 22.99363 0
vertex 0.45861 22.99363 10
vertex 0.81042 23.94356 0
endloop
endfacet
facet normal -0.9377538811078932 0.3473005304733688 0
outer loop
vertex 0.81042 23.94356 0
vertex 0.45861 22.99363 10
vertex 0.81042 23.94356 10
endloop
endfacet
facet normal 0.9377538811078929 0.3473005304733691 0
outer loop
vertex 19.18958 23.94356 0
vertex 19.18958 23.94356 10
vertex 19.54139 22.99363 0
endloop
endfacet
facet normal 0.9377538811078929 0.3473005304733691 0
outer loop
vertex 19.54139 22.99363 0
vertex 19.18958 23.94356 10
vertex 19.54139 22.99363 10
endloop
endfacet
facet normal -0.4853067889642817 0.874343937238189 0
outer loop
vertex 4.71036 28.48644 0
vertex 4.71036 28.48644 10
vertex 5.59606 28.97805 0
endloop
endfacet
facet normal -0.4853067889642817 0.874343937238189 0
outer loop
vertex 5.59606 28.97805 0
vertex 4.71036 28.48644 10
vertex 5.59606 28.97805 10
endloop
endfacet
facet normal -0.7907762690343894 -0.6121052951347923 0
outer loop
vertex 2.41242 13.48628 0
vertex 2.41242 13.48628 10
vertex 1.79237 14.28732 0
endloop
endfacet
facet normal -0.7907762690343894 -0.6121052951347923 0
outer loop
vertex 1.79237 14.28732 0
vertex 2.41242 13.48628 10
vertex 1.79237 14.28732 10
endloop
endfacet
facet normal 0.1011759173939785 0.994868550985248 0
outer loop
vertex 10.50649 29.98717 0
vertex 10.50649 29.98717 10
vertex 11.51428 29.88468 0
endloop
endfacet
facet normal 0.1011759173939785 0.994868550985248 0
outer loop
vertex 11.51428 29.88468 0
vertex 10.50649 29.98717 10
vertex 11.51428 29.88468 10
endloop
endfacet
facet normal -0.9680759900255812 0.2506568920576308 0
outer loop
vertex 0.2047 22.01299 0
vertex 0.2047 22.01299 10
vertex 0.45861 22.99363 0
endloop
endfacet
facet normal -0.9680759900255812 0.2506568920576308 0
outer loop
vertex 0.45861 22.99363 0
vertex 0.2047 22.01299 10
vertex 0.45861 22.99363 10
endloop
endfacet
facet normal 0.7907762690343881 -0.612105295134794 0
outer loop
vertex 18.20763 14.28732 0
vertex 18.20763 14.28732 10
vertex 17.58758 13.48628 0
endloop
endfacet
facet normal 0.7907762690343881 -0.612105295134794 0
outer loop
vertex 17.58758 13.48628 0
vertex 18.20763 14.28732 10
vertex 17.58758 13.48628 10
endloop
endfacet
facet normal -0.5712646246981289 0.8207659401854503 0
outer loop
vertex 3.87894 27.90776 0
vertex 3.87894 27.90776 10
vertex 4.71036 28.48644 0
endloop
endfacet
facet normal -0.5712646246981289 0.8207659401854503 0
outer loop
vertex 4.71036 28.48644 0
vertex 3.87894 27.90776 10
vertex 4.71036 28.48644 10
endloop
endfacet
facet normal 0.5712646246981277 -0.820765940185451 0
outer loop
vertex 16.12106 12.09224 0
vertex 16.12106 12.09224 10
vertex 15.28964 11.51356 0
endloop
endfacet
facet normal 0.5712646246981277 -0.820765940185451 0
outer loop
vertex 15.28964 11.51356 0
vertex 16.12106 12.09224 10
vertex 15.28964 11.51356 10
endloop
endfacet
facet normal 0.4853067889642817 0.874343937238189 0
outer loop
vertex 14.40394 28.97805 0
vertex 14.40394 28.97805 10
vertex 15.28964 28.48644 0
endloop
endfacet
facet normal 0.4853067889642817 0.874343937238189 0
outer loop
vertex 15.28964 28.48644 0
vertex 14.40394 28.97805 10
vertex 15.28964 28.48644 10
endloop
endfacet
facet normal 0.20129609662326392 -0.9795304392841692 0
outer loop
vertex 12.50653 10.31923 0
vertex 12.50653 10.31923 10
vertex 11.51428 10.11532 0
endloop
endfacet
facet normal 0.20129609662326392 -0.9795304392841692 0
outer loop
vertex 11.51428 10.11532 0
vertex 12.50653 10.31923 10
vertex 11.51428 10.11532 10
endloop
endfacet
facet normal -0.3943505526725248 -0.9189600870586678 0
outer loop
vertex 6.52695 10.62248 0
vertex 6.52695 10.62248 10
vertex 5.59606 11.02195 0
endloop
endfacet
facet normal -0.3943505526725248 -0.9189600870586678 0
outer loop
vertex 5.59606 11.02195 0
vertex 6.52695 10.62248 10
vertex 5.59606 11.02195 10
endloop
endfacet
facet normal 0.10117591739398024 -0.9948685509852477 0
outer loop
vertex 11.51428 10.11532 0
vertex 11.51428 10.11532 10
vertex 10.50649 10.01283 0
endloop
endfacet
facet normal 0.10117591739398024 -0.9948685509852477 0
outer loop
vertex 10.50649 10.01283 0
vertex 11.51428 10.11532 10
vertex 10.50649 10.01283 10
endloop
endfacet
facet normal -0.8486425686715837 0.5289667197834815 0
outer loop
vertex 1.34815 25 8.29025
vertex 1.79237 25.71268 0
vertex 1.34815 25 0
endloop
endfacet
facet normal -0.8486425686715837 0.5289667197834815 0
outer loop
vertex 1.34815 25 8.29025
vertex 1.34815 25 10
vertex 1.79237 25.71268 10
endloop
endfacet
facet normal -0.8486425686715838 0.5289667197834815 0
outer loop
vertex 1.34815 25 8.29025
vertex 1.79237 25.71268 10
vertex 1.79237 25.71268 0
endloop
endfacet
facet normal -0.8486269810585734 0.5289917267967542 0
outer loop
vertex 1.25653 24.85302 10
vertex 1.34815 25 8.29025
vertex 1.34815 25 0
endloop
endfacet
facet normal -0.8486269810585733 0.5289917267967542 0
outer loop
vertex 1.25653 24.85302 10
vertex 1.34815 25 0
vertex 1.25653 24.85302 0
endloop
endfacet
facet normal -0.8486269810585733 0.5289917267967542 0
outer loop
vertex 1.34815 25 8.29025
vertex 1.25653 24.85302 10
vertex 1.34815 25 10
endloop
endfacet
facet normal 0.848642568671585 0.5289667197834795 0
outer loop
vertex 18.20763 25.71268 10
vertex 18.65185 25 1.70975
vertex 18.65185 25 0
endloop
endfacet
facet normal 0.8486425686715849 0.5289667197834795 0
outer loop
vertex 18.20763 25.71268 10
vertex 18.65185 25 0
vertex 18.20763 25.71268 0
endloop
endfacet
facet normal 0.8486425686715849 0.5289667197834795 0
outer loop
vertex 18.65185 25 1.70975
vertex 18.20763 25.71268 10
vertex 18.65185 25 10
endloop
endfacet
facet normal 0.8486269810585761 0.5289917267967496 0
outer loop
vertex 18.65185 25 1.70975
vertex 18.74347 24.85302 0
vertex 18.65185 25 0
endloop
endfacet
facet normal 0.8486269810585763 0.5289917267967497 0
outer loop
vertex 18.65185 25 1.70975
vertex 18.65185 25 10
vertex 18.74347 24.85302 10
endloop
endfacet
facet normal 0.8486269810585761 0.5289917267967496 0
outer loop
vertex 18.65185 25 1.70975
vertex 18.74347 24.85302 10
vertex 18.74347 24.85302 0
endloop
endfacet
facet normal 0.8486425686715856 -0.5289667197834786 0
outer loop
vertex 18.65185 15 8.29025
vertex 18.20763 14.28732 0
vertex 18.65185 15 0
endloop
endfacet
facet normal 0.8486425686715855 -0.5289667197834786 0
outer loop
vertex 18.65185 15 8.29025
vertex 18.65185 15 10
vertex 18.20763 14.28732 10
endloop
endfacet
facet normal 0.8486425686715856 -0.5289667197834786 0
outer loop
vertex 18.65185 15 8.29025
vertex 18.20763 14.28732 10
vertex 18.20763 14.28732 0
endloop
endfacet
facet normal 0.8486269810585763 -0.5289917267967496 0
outer loop
vertex 18.74347 15.14698 10
vertex 18.65185 15 8.29025
vertex 18.65185 15 0
endloop
endfacet
facet normal 0.8486269810585761 -0.5289917267967496 0
outer loop
vertex 18.74347 15.14698 10
vertex 18.65185 15 0
vertex 18.74347 15.14698 0
endloop
endfacet
facet normal 0.8486269810585761 -0.5289917267967496 0
outer loop
vertex 18.65185 15 8.29025
vertex 18.74347 15.14698 10
vertex 18.65185 15 10
endloop
endfacet
facet normal 0.9884690704933202 -0.15142290671517164 0
outer loop
vertex 19.94869 18.98832 0
vertex 19.94869 18.98832 10
vertex 19.7953 17.98701 0
endloop
endfacet
facet normal 0.9884690704933202 -0.15142290671517164 0
outer loop
vertex 19.7953 17.98701 0
vertex 19.94869 18.98832 10
vertex 19.7953 17.98701 10
endloop
endfacet
facet normal -0.9987163375223298 0.05065251391573504 0
outer loop
vertex 0 20 0
vertex 0 20 10
vertex 0.05131 21.01168 0
endloop
endfacet
facet normal -0.9987163375223298 0.05065251391573504 0
outer loop
vertex 0.05131 21.01168 0
vertex 0 20 10
vertex 0.05131 21.01168 10
endloop
endfacet
facet normal 0.2993652742034059 -0.9541385814446032 0
outer loop
vertex 13.47305 10.62248 0
vertex 13.47305 10.62248 10
vertex 12.50653 10.31923 0
endloop
endfacet
facet normal 0.2993652742034059 -0.9541385814446032 0
outer loop
vertex 12.50653 10.31923 0
vertex 13.47305 10.62248 10
vertex 12.50653 10.31923 10
endloop
endfacet
facet normal -0.1011759173939785 0.994868550985248 0
outer loop
vertex 8.48572 29.88468 0
vertex 8.48572 29.88468 10
vertex 9.49351 29.98717 0
endloop
endfacet
facet normal -0.1011759173939785 0.994868550985248 0
outer loop
vertex 9.49351 29.98717 0
vertex 8.48572 29.88468 10
vertex 9.49351 29.98717 10
endloop
endfacet
facet normal 0.7907762690343888 0.6121052951347931 0
outer loop
vertex 17.58758 26.51372 0
vertex 17.58758 26.51372 10
vertex 18.20763 25.71268 0
endloop
endfacet
facet normal 0.7907762690343888 0.6121052951347931 0
outer loop
vertex 18.20763 25.71268 0
vertex 17.58758 26.51372 10
vertex 18.20763 25.71268 10
endloop
endfacet
facet normal 0.2993652742034043 0.9541385814446037 0
outer loop
vertex 12.50653 29.68077 0
vertex 12.50653 29.68077 10
vertex 13.47305 29.37752 0
endloop
endfacet
facet normal 0.2993652742034043 0.9541385814446037 0
outer loop
vertex 13.47305 29.37752 0
vertex 12.50653 29.68077 10
vertex 13.47305 29.37752 10
endloop
endfacet
facet normal 0.39435055267252506 0.9189600870586676 0
outer loop
vertex 13.47305 29.37752 0
vertex 13.47305 29.37752 10
vertex 14.40394 28.97805 0
endloop
endfacet
facet normal 0.39435055267252506 0.9189600870586676 0
outer loop
vertex 14.40394 28.97805 0
vertex 13.47305 29.37752 10
vertex 14.40394 28.97805 10
endloop
endfacet
facet normal 0.897805096888625 0.4403930153860374 0
outer loop
vertex 18.74347 24.85302 0
vertex 18.74347 24.85302 10
vertex 19.18958 23.94356 0
endloop
endfacet
facet normal 0.897805096888625 0.4403930153860374 0
outer loop
vertex 19.18958 23.94356 0
vertex 18.74347 24.85302 10
vertex 19.18958 23.94356 10
endloop
endfacet
facet normal -0.9987163375223298 -0.05065251391573504 0
outer loop
vertex 0.05131 18.98832 0
vertex 0.05131 18.98832 10
vertex 0 20 0
endloop
endfacet
facet normal -0.9987163375223298 -0.05065251391573504 0
outer loop
vertex 0 20 0
vertex 0.05131 18.98832 10
vertex 0 20 10
endloop
endfacet
facet normal 0.9987163375223298 0.05065251391573588 0
outer loop
vertex 19.94869 21.01168 0
vertex 19.94869 21.01168 10
vertex 20 20 0
endloop
endfacet
facet normal 0.9987163375223298 0.05065251391573588 0
outer loop
vertex 20 20 0
vertex 19.94869 21.01168 10
vertex 20 20 10
endloop
endfacet
facet normal 0.9987163375223298 -0.05065251391573588 0
outer loop
vertex 20 20 0
vertex 20 20 10
vertex 19.94869 18.98832 0
endloop
endfacet
facet normal 0.9987163375223298 -0.05065251391573588 0
outer loop
vertex 19.94869 18.98832 0
vertex 20 20 10
vertex 19.94869 18.98832 10
endloop
endfacet
facet normal -0.9680759900255812 -0.2506568920576308 0
outer loop
vertex 0.45861 17.00637 0
vertex 0.45861 17.00637 10
vertex 0.2047 17.98701 0
endloop
endfacet
facet normal -0.9680759900255812 -0.2506568920576308 0
outer loop
vertex 0.2047 17.98701 0
vertex 0.45861 17.00637 10
vertex 0.2047 17.98701 10
endloop
endfacet
facet normal -0.20129609662326559 0.9795304392841688 0
outer loop
vertex 7.49347 29.68077 0
vertex 7.49347 29.68077 10
vertex 8.48572 29.88468 0
endloop
endfacet
facet normal -0.20129609662326559 0.9795304392841688 0
outer loop
vertex 8.48572 29.88468 0
vertex 7.49347 29.68077 10
vertex 8.48572 29.88468 10
endloop
endfacet
facet normal -0.9884690704933199 0.15142290671517344 0
outer loop
vertex 0.05131 21.01168 0
vertex 0.05131 21.01168 10
vertex 0.2047 22.01299 0
endloop
endfacet
facet normal -0.9884690704933199 0.15142290671517344 0
outer loop
vertex 0.2047 22.01299 0
vertex 0.05131 21.01168 10
vertex 0.2047 22.01299 10
endloop
endfacet
facet normal -0.5712646246981277 -0.820765940185451 0
outer loop
vertex 4.71036 11.51356 0
vertex 4.71036 11.51356 10
vertex 3.87894 12.09224 0
endloop
endfacet
facet normal -0.5712646246981277 -0.820765940185451 0
outer loop
vertex 3.87894 12.09224 0
vertex 4.71036 11.51356 10
vertex 3.87894 12.09224 10
endloop
endfacet
facet normal -0.9377538811078932 -0.3473005304733688 0
outer loop
vertex 0.81042 16.05644 0
vertex 0.81042 16.05644 10
vertex 0.45861 17.00637 0
endloop
endfacet
facet normal -0.9377538811078932 -0.3473005304733688 0
outer loop
vertex 0.45861 17.00637 0
vertex 0.81042 16.05644 10
vertex 0.45861 17.00637 10
endloop
endfacet
facet normal -0.29936527420340614 -0.9541385814446032 0
outer loop
vertex 7.49347 10.31923 0
vertex 7.49347 10.31923 10
vertex 6.52695 10.62248 0
endloop
endfacet
facet normal -0.29936527420340614 -0.9541385814446032 0
outer loop
vertex 6.52695 10.62248 0
vertex 7.49347 10.31923 10
vertex 6.52695 10.62248 10
endloop
endfacet
facet normal 0.39435055267252506 -0.9189600870586676 0
outer loop
vertex 14.40394 11.02195 0
vertex 14.40394 11.02195 10
vertex 13.47305 10.62248 0
endloop
endfacet
facet normal 0.39435055267252506 -0.9189600870586676 0
outer loop
vertex 13.47305 10.62248 0
vertex 14.40394 11.02195 10
vertex 13.47305 10.62248 10
endloop
endfacet
facet normal 0.9377538811078929 -0.3473005304733691 0
outer loop
vertex 19.54139 17.00637 0
vertex 19.54139 17.00637 10
vertex 19.18958 16.05644 0
endloop
endfacet
facet normal 0.9377538811078929 -0.3473005304733691 0
outer loop
vertex 19.18958 16.05644 0
vertex 19.54139 17.00637 10
vertex 19.18958 16.05644 10
endloop
endfacet
facet normal -0.10117591739398024 -0.9948685509852477 0
outer loop
vertex 9.49351 10.01283 0
vertex 9.49351 10.01283 10
vertex 8.48572 10.11532 0
endloop
endfacet
facet normal -0.10117591739398024 -0.9948685509852477 0
outer loop
vertex 8.48572 10.11532 0
vertex 9.49351 10.01283 10
vertex 8.48572 10.11532 10
endloop
endfacet
facet normal 0.9680759900255809 -0.25065689205763186 0
outer loop
vertex 19.7953 17.98701 0
vertex 19.7953 17.98701 10
vertex 19.54139 17.00637 0
endloop
endfacet
facet normal 0.9680759900255809 -0.25065689205763186 0
outer loop
vertex 19.54139 17.00637 0
vertex 19.7953 17.98701 10
vertex 19.54139 17.00637 10
endloop
endfacet
facet normal -0.8486425686715844 -0.5289667197834805 0
outer loop
vertex 1.79237 14.28732 10
vertex 1.34815 15 1.70975
vertex 1.34815 15 0
endloop
endfacet
facet normal -0.8486425686715845 -0.5289667197834806 0
outer loop
vertex 1.79237 14.28732 10
vertex 1.34815 15 0
vertex 1.79237 14.28732 0
endloop
endfacet
facet normal -0.8486425686715844 -0.5289667197834805 0
outer loop
vertex 1.34815 15 1.70975
vertex 1.79237 14.28732 10
vertex 1.34815 15 10
endloop
endfacet
facet normal -0.8486269810585734 -0.5289917267967542 0
outer loop
vertex 1.34815 15 1.70975
vertex 1.25653 15.14698 0
vertex 1.34815 15 0
endloop
endfacet
facet normal -0.8486269810585735 -0.5289917267967542 0
outer loop
vertex 1.34815 15 1.70975
vertex 1.34815 15 10
vertex 1.25653 15.14698 10
endloop
endfacet
facet normal -0.8486269810585733 -0.5289917267967542 0
outer loop
vertex 1.34815 15 1.70975
vertex 1.25653 15.14698 10
vertex 1.25653 15.14698 0
endloop
endfacet
endsolid JSxCAD
