solid JSxCAD
facet normal 0 0 1
outer loop
vertex -5 -0.28544 10
vertex -5 -5 10
vertex 0.49181 -5 10
endloop
endfacet
facet normal 0 0 1
outer loop
vertex -5 4.43092 10
vertex -3.67388 5 10
vertex -5 5 10
endloop
endfacet
facet normal 0 0 1
outer loop
vertex -5 -0.28544 10
vertex -4.47725 -0.7342 10
vertex 0.97352 5 10
endloop
endfacet
facet normal 0 0 1
outer loop
vertex -5 -0.28544 10
vertex 0.97352 5 10
vertex -3.67388 5 10
endloop
endfacet
facet normal 0 0 1
outer loop
vertex -5 -0.28544 10
vertex -3.67388 5 10
vertex -5 4.43092 10
endloop
endfacet
facet normal 0 0 1
outer loop
vertex 0.49181 -5 10
vertex 1.24071 -5 10
vertex -3.14562 0.66667 10
endloop
endfacet
facet normal 0 0 1
outer loop
vertex 0.49181 -5 10
vertex -3.14562 0.66667 10
vertex -4.47725 -0.7342 10
endloop
endfacet
facet normal 0 0 1
outer loop
vertex 1.32863 5 10
vertex 0.97352 5 10
vertex -3.14562 0.66667 10
endloop
endfacet
facet normal 0 0 1
outer loop
vertex 1.32863 5 10
vertex -3.14562 0.66667 10
vertex -1.708 -1.19059 10
endloop
endfacet
facet normal 0 0 1
outer loop
vertex -0.34649 1.58502 10
vertex -1.708 -1.19059 10
vertex 0.51957 -4.06837 10
endloop
endfacet
facet normal 0 0 1
outer loop
vertex 0.35968 -3.02467 10
vertex 0.51957 -4.06837 10
vertex 1.24071 -5 10
endloop
endfacet
facet normal 0 0 1
outer loop
vertex 0.35968 -3.02467 10
vertex 1.24071 -5 10
vertex 1.32863 -5 10
endloop
endfacet
facet normal 0 0 1
outer loop
vertex 1.25653 4.85302 10
vertex 1.34815 5 10
vertex 1.32863 5 10
endloop
endfacet
facet normal 0 0 1
outer loop
vertex 0.81042 3.94356 10
vertex -0.34649 1.58502 10
vertex -0.26357 1.0437 10
endloop
endfacet
facet normal 0 0 1
outer loop
vertex 0.45861 2.99363 10
vertex -0.26357 1.0437 10
vertex -0.18279 0.51641 10
endloop
endfacet
facet normal 0 0 1
outer loop
vertex 0.07709 1.52013 10
vertex -0.18279 0.51641 10
vertex -0.02579 -0.50845 10
endloop
endfacet
facet normal 0 0 1
outer loop
vertex 0.2047 -2.01299 10
vertex 0.35968 -3.02467 10
vertex 0.58622 -3.48648 10
endloop
endfacet
facet normal 0 0 1
outer loop
vertex 0.05131 -1.01168 10
vertex 0 0 10
vertex -0.02579 -0.50845 10
endloop
endfacet
facet normal 0 0 1
outer loop
vertex 1.25653 -4.85302 10
vertex 1.32863 -5 10
vertex 1.34815 -5 10
endloop
endfacet
facet normal 0 0 1
outer loop
vertex 0.45861 -2.99363 10
vertex 0.58622 -3.48648 10
vertex 0.81042 -3.94356 10
endloop
endfacet
facet normal 0 0 1
outer loop
vertex 0.2047 2.01299 10
vertex 0.07709 1.52013 10
vertex 0.05131 1.01168 10
endloop
endfacet
facet normal 0 0 -1
outer loop
vertex 0.49181 -5 0
vertex -5 -5 0
vertex -5 -0.28544 0
endloop
endfacet
facet normal 0 0 -1
outer loop
vertex -5 4.43092 0
vertex -5 5 0
vertex -3.67388 5 0
endloop
endfacet
facet normal 0 0 -1
outer loop
vertex -5 4.43092 0
vertex -3.67388 5 0
vertex 0.97352 5 0
endloop
endfacet
facet normal 0 0 -1
outer loop
vertex -5 4.43092 0
vertex 0.97352 5 0
vertex -4.47725 -0.7342 0
endloop
endfacet
facet normal 0 0 -1
outer loop
vertex -5 4.43092 0
vertex -4.47725 -0.7342 0
vertex -5 -0.28544 0
endloop
endfacet
facet normal 0 0 -1
outer loop
vertex 1.24071 -5 0
vertex 0.49181 -5 0
vertex -4.47725 -0.7342 0
endloop
endfacet
facet normal 0 0 -1
outer loop
vertex 1.24071 -5 0
vertex -4.47725 -0.7342 0
vertex -3.14562 0.66667 0
endloop
endfacet
facet normal 0 0 -1
outer loop
vertex -1.708 -1.19059 0
vertex -3.14562 0.66667 0
vertex 0.97352 5 0
endloop
endfacet
facet normal 0 0 -1
outer loop
vertex -1.708 -1.19059 0
vertex 0.97352 5 0
vertex 1.32863 5 0
endloop
endfacet
facet normal 0 0 -1
outer loop
vertex 0.51957 -4.06837 0
vertex -1.708 -1.19059 0
vertex -0.34649 1.58502 0
endloop
endfacet
facet normal 0 0 -1
outer loop
vertex 0.51957 -4.06837 0
vertex 0.35968 -3.02467 0
vertex 1.32863 -5 0
endloop
endfacet
facet normal 0 0 -1
outer loop
vertex 0.51957 -4.06837 0
vertex 1.32863 -5 0
vertex 1.24071 -5 0
endloop
endfacet
facet normal 0 0 -1
outer loop
vertex 1.25653 4.85302 0
vertex 1.32863 5 0
vertex 1.34815 5 0
endloop
endfacet
facet normal 0 0 -1
outer loop
vertex 0.81042 3.94356 0
vertex -0.26357 1.0437 0
vertex -0.34649 1.58502 0
endloop
endfacet
facet normal 0 0 -1
outer loop
vertex -0.18279 0.51641 0
vertex -0.26357 1.0437 0
vertex 0.45861 2.99363 0
endloop
endfacet
facet normal 0 0 -1
outer loop
vertex -0.02579 -0.50845 0
vertex -0.18279 0.51641 0
vertex 0.07709 1.52013 0
endloop
endfacet
facet normal 0 0 -1
outer loop
vertex 0.58622 -3.48648 0
vertex 0.35968 -3.02467 0
vertex 0.2047 -2.01299 0
endloop
endfacet
facet normal 0 0 -1
outer loop
vertex 0.05131 -1.01168 0
vertex -0.02579 -0.50845 0
vertex 0 0 0
endloop
endfacet
facet normal 0 0 -1
outer loop
vertex 1.34815 -5 0
vertex 1.32863 -5 0
vertex 1.25653 -4.85302 0
endloop
endfacet
facet normal 0 0 -1
outer loop
vertex 0.81042 -3.94356 0
vertex 0.58622 -3.48648 0
vertex 0.45861 -2.99363 0
endloop
endfacet
facet normal 0 0 -1
outer loop
vertex 0.05131 1.01168 0
vertex 0.07709 1.52013 0
vertex 0.2047 2.01299 0
endloop
endfacet
facet normal 0 -1 0
outer loop
vertex 0.49181 -5 5.49181
vertex -5 -5 0
vertex 0.49181 -5 0
endloop
endfacet
facet normal 0 -1 0
outer loop
vertex 0.49181 -5 5.49181
vertex 0.49181 -5 10
vertex -5 -5 10
endloop
endfacet
facet normal 0 -1 0
outer loop
vertex 0.49181 -5 5.49181
vertex -5 -5 10
vertex -5 -5 0
endloop
endfacet
facet normal 0 -1 0
outer loop
vertex 1.24071 -5 6.24071
vertex 0.49181 -5 5.49181
vertex 0.49181 -5 0
endloop
endfacet
facet normal 0 -1 0
outer loop
vertex 1.24071 -5 6.24071
vertex 0.49181 -5 0
vertex 1.24071 -5 0
endloop
endfacet
facet normal 0 -1 0
outer loop
vertex 1.24071 -5 6.24071
vertex 1.24071 -5 10
vertex 0.49181 -5 10
endloop
endfacet
facet normal 0 -1 0
outer loop
vertex 1.24071 -5 6.24071
vertex 0.49181 -5 10
vertex 0.49181 -5 5.49181
endloop
endfacet
facet normal 0 -1 0
outer loop
vertex 1.24071 -5 0
vertex 1.32863 -5 0
vertex 1.32863 -5 6.32863
endloop
endfacet
facet normal 0 -1 0
outer loop
vertex 1.24071 -5 0
vertex 1.32863 -5 6.32863
vertex 1.24071 -5 6.24071
endloop
endfacet
facet normal 0 -1 0
outer loop
vertex 1.32863 -5 6.32863
vertex 1.32863 -5 10
vertex 1.24071 -5 10
endloop
endfacet
facet normal 0 -1 0
outer loop
vertex 1.32863 -5 6.32863
vertex 1.24071 -5 10
vertex 1.24071 -5 6.24071
endloop
endfacet
facet normal 0 -1 0
outer loop
vertex 1.34815 -5 0
vertex 1.34815 -5 6.34815
vertex 1.32863 -5 6.32863
endloop
endfacet
facet normal 0 -1 0
outer loop
vertex 1.34815 -5 0
vertex 1.32863 -5 6.32863
vertex 1.32863 -5 0
endloop
endfacet
facet normal 0 -1 0
outer loop
vertex 1.34815 -5 6.34815
vertex 1.34815 -5 10
vertex 1.32863 -5 10
endloop
endfacet
facet normal 0 -1 0
outer loop
vertex 1.34815 -5 6.34815
vertex 1.32863 -5 10
vertex 1.32863 -5 6.32863
endloop
endfacet
facet normal -1 0 0
outer loop
vertex -5 -5 10
vertex -5 -0.28544 5.28544
vertex -5 -0.28544 0
endloop
endfacet
facet normal -1 0 0
outer loop
vertex -5 -5 10
vertex -5 -0.28544 0
vertex -5 -5 0
endloop
endfacet
facet normal -1 0 0
outer loop
vertex -5 -0.28544 5.28544
vertex -5 -5 10
vertex -5 -0.28544 10
endloop
endfacet
facet normal -1 0 0
outer loop
vertex -5 4.43092 0.56908
vertex -5 5 0
vertex -5 4.43092 0
endloop
endfacet
facet normal -1 0 0
outer loop
vertex -5 4.43092 10
vertex -5 5 10
vertex -5 5 0
endloop
endfacet
facet normal -1 0 0
outer loop
vertex -5 4.43092 10
vertex -5 5 0
vertex -5 4.43092 0.56908
endloop
endfacet
facet normal -1 0 0
outer loop
vertex -5 4.43092 0.56908
vertex -5 4.43092 0
vertex -5 -0.28544 0
endloop
endfacet
facet normal -1 0 0
outer loop
vertex -5 4.43092 0.56908
vertex -5 -0.28544 0
vertex -5 -0.28544 5.28544
endloop
endfacet
facet normal -1 0 0
outer loop
vertex -5 -0.28544 10
vertex -5 4.43092 10
vertex -5 4.43092 0.56908
endloop
endfacet
facet normal -1 0 0
outer loop
vertex -5 -0.28544 10
vertex -5 4.43092 0.56908
vertex -5 -0.28544 5.28544
endloop
endfacet
facet normal 0 1 0
outer loop
vertex -5 5 10
vertex -3.67388 5 8.67388
vertex -3.67388 5 0
endloop
endfacet
facet normal 0 1 0
outer loop
vertex -5 5 10
vertex -3.67388 5 0
vertex -5 5 0
endloop
endfacet
facet normal 0 1 0
outer loop
vertex -3.67388 5 8.67388
vertex -5 5 10
vertex -3.67388 5 10
endloop
endfacet
facet normal 0 1 0
outer loop
vertex 0.97352 5 4.02648
vertex 0.97352 5 0
vertex -3.67388 5 0
endloop
endfacet
facet normal 0 1 0
outer loop
vertex 0.97352 5 4.02648
vertex -3.67388 5 0
vertex -3.67388 5 8.67388
endloop
endfacet
facet normal 0 1 0
outer loop
vertex -3.67388 5 10
vertex 0.97352 5 10
vertex 0.97352 5 4.02648
endloop
endfacet
facet normal 0 1 0
outer loop
vertex -3.67388 5 10
vertex 0.97352 5 4.02648
vertex -3.67388 5 8.67388
endloop
endfacet
facet normal 0 1 0
outer loop
vertex 1.32863 5 3.67137
vertex 1.32863 5 0
vertex 0.97352 5 0
endloop
endfacet
facet normal 0 1 0
outer loop
vertex 1.32863 5 3.67137
vertex 0.97352 5 0
vertex 0.97352 5 4.02648
endloop
endfacet
facet normal 0 1 0
outer loop
vertex 1.32863 5 10
vertex 1.32863 5 3.67137
vertex 0.97352 5 4.02648
endloop
endfacet
facet normal 0 1 0
outer loop
vertex 1.32863 5 10
vertex 0.97352 5 4.02648
vertex 0.97352 5 10
endloop
endfacet
facet normal 0 1 0
outer loop
vertex 1.34815 5 3.65185
vertex 1.34815 5 0
vertex 1.32863 5 0
endloop
endfacet
facet normal 0 1 0
outer loop
vertex 1.34815 5 3.65185
vertex 1.32863 5 0
vertex 1.32863 5 3.67137
endloop
endfacet
facet normal 0 1 0
outer loop
vertex 1.34815 5 10
vertex 1.34815 5 3.65185
vertex 1.32863 5 3.67137
endloop
endfacet
facet normal 0 1 0
outer loop
vertex 1.34815 5 10
vertex 1.32863 5 3.67137
vertex 1.32863 5 10
endloop
endfacet
facet normal 0.8978050968886255 -0.44039301538603653 0
outer loop
vertex 1.25653 4.85302 0
vertex 0.81042 3.94356 10
vertex 0.81042 3.94356 0
endloop
endfacet
facet normal 0.8978050968886255 -0.44039301538603653 0
outer loop
vertex 1.25653 4.85302 10
vertex 0.81042 3.94356 10
vertex 1.25653 4.85302 0
endloop
endfacet
facet normal 0.9884690704933199 0.15142290671517347 0
outer loop
vertex 0.05131 -1.01168 0
vertex 0.2047 -2.01299 10
vertex 0.2047 -2.01299 0
endloop
endfacet
facet normal 0.9884690704933199 0.15142290671517347 0
outer loop
vertex 0.05131 -1.01168 10
vertex 0.2047 -2.01299 10
vertex 0.05131 -1.01168 0
endloop
endfacet
facet normal 0.8978050968886255 0.44039301538603653 0
outer loop
vertex 0.81042 -3.94356 0
vertex 1.25653 -4.85302 10
vertex 1.25653 -4.85302 0
endloop
endfacet
facet normal 0.8978050968886255 0.44039301538603653 0
outer loop
vertex 0.81042 -3.94356 10
vertex 1.25653 -4.85302 10
vertex 0.81042 -3.94356 0
endloop
endfacet
facet normal 0.937753881107893 -0.3473005304733694 0
outer loop
vertex 0.81042 3.94356 0
vertex 0.45861 2.99363 10
vertex 0.45861 2.99363 0
endloop
endfacet
facet normal 0.937753881107893 -0.3473005304733694 0
outer loop
vertex 0.81042 3.94356 10
vertex 0.45861 2.99363 10
vertex 0.81042 3.94356 0
endloop
endfacet
facet normal 0.9680759900255812 -0.25065689205763103 0
outer loop
vertex 0.45861 2.99363 0
vertex 0.2047 2.01299 10
vertex 0.2047 2.01299 0
endloop
endfacet
facet normal 0.9680759900255812 -0.25065689205763103 0
outer loop
vertex 0.45861 2.99363 10
vertex 0.2047 2.01299 10
vertex 0.45861 2.99363 0
endloop
endfacet
facet normal 0.9987163375223298 -0.050652513915734956 0
outer loop
vertex 0.05131 1.01168 0
vertex 0 0 10
vertex 0 0 0
endloop
endfacet
facet normal 0.9987163375223298 -0.050652513915734956 0
outer loop
vertex 0.05131 1.01168 10
vertex 0 0 10
vertex 0.05131 1.01168 0
endloop
endfacet
facet normal 0.9680759900255812 0.25065689205763103 0
outer loop
vertex 0.2047 -2.01299 0
vertex 0.45861 -2.99363 10
vertex 0.45861 -2.99363 0
endloop
endfacet
facet normal 0.9680759900255812 0.25065689205763103 0
outer loop
vertex 0.2047 -2.01299 10
vertex 0.45861 -2.99363 10
vertex 0.2047 -2.01299 0
endloop
endfacet
facet normal 0.9987163375223298 0.050652513915734956 0
outer loop
vertex 0 0 0
vertex 0.05131 -1.01168 10
vertex 0.05131 -1.01168 0
endloop
endfacet
facet normal 0.9987163375223298 0.050652513915734956 0
outer loop
vertex 0 0 10
vertex 0.05131 -1.01168 10
vertex 0 0 0
endloop
endfacet
facet normal 0.937753881107893 0.3473005304733694 0
outer loop
vertex 0.45861 -2.99363 0
vertex 0.81042 -3.94356 10
vertex 0.81042 -3.94356 0
endloop
endfacet
facet normal 0.937753881107893 0.3473005304733694 0
outer loop
vertex 0.45861 -2.99363 10
vertex 0.81042 -3.94356 10
vertex 0.45861 -2.99363 0
endloop
endfacet
facet normal 0.9884690704933199 -0.15142290671517347 0
outer loop
vertex 0.2047 2.01299 0
vertex 0.05131 1.01168 10
vertex 0.05131 1.01168 0
endloop
endfacet
facet normal 0.9884690704933199 -0.15142290671517347 0
outer loop
vertex 0.2047 2.01299 10
vertex 0.05131 1.01168 10
vertex 0.2047 2.01299 0
endloop
endfacet
facet normal 0.8486269810585747 -0.5289917267967519 0
outer loop
vertex 1.34815 5 8.29025
vertex 1.25653 4.85302 10
vertex 1.25653 4.85302 0
endloop
endfacet
facet normal 0.8486269810585748 -0.5289917267967518 0
outer loop
vertex 1.34815 5 8.29025
vertex 1.25653 4.85302 0
vertex 1.34815 5 0
endloop
endfacet
facet normal 0.8486269810585747 -0.5289917267967518 0
outer loop
vertex 1.34815 5 10
vertex 1.25653 4.85302 10
vertex 1.34815 5 8.29025
endloop
endfacet
facet normal 0.8486269810585748 0.5289917267967519 0
outer loop
vertex 1.34815 -5 1.70975
vertex 1.34815 -5 0
vertex 1.25653 -4.85302 0
endloop
endfacet
facet normal 0.8486269810585748 0.5289917267967518 0
outer loop
vertex 1.34815 -5 10
vertex 1.34815 -5 1.70975
vertex 1.25653 -4.85302 0
endloop
endfacet
facet normal 0.8486269810585747 0.5289917267967519 0
outer loop
vertex 1.34815 -5 10
vertex 1.25653 -4.85302 0
vertex 1.25653 -4.85302 10
endloop
endfacet
facet normal 0 0 1
outer loop
vertex 1.34815 -5 10
vertex 1.79237 -5.71268 10
vertex 2.41242 -6.51372 10
endloop
endfacet
facet normal 0 0 1
outer loop
vertex 1.34815 -5 10
vertex 2.41242 -6.51372 10
vertex 3.11033 -7.24793 10
endloop
endfacet
facet normal 0 0 1
outer loop
vertex 1.34815 -5 10
vertex 3.11033 -7.24793 10
vertex 3.87894 -7.90776 10
endloop
endfacet
facet normal 0 0 1
outer loop
vertex 1.34815 -5 10
vertex 3.87894 -7.90776 10
vertex 4.71036 -8.48644 10
endloop
endfacet
facet normal 0 0 1
outer loop
vertex 1.34815 -5 10
vertex 4.71036 -8.48644 10
vertex 5.59606 -8.97805 10
endloop
endfacet
facet normal 0 0 1
outer loop
vertex 1.34815 -5 10
vertex 5.59606 -8.97805 10
vertex 6.52695 -9.37752 10
endloop
endfacet
facet normal 0 0 1
outer loop
vertex 1.34815 -5 10
vertex 6.52695 -9.37752 10
vertex 7.49347 -9.68077 10
endloop
endfacet
facet normal 0 0 1
outer loop
vertex 1.34815 -5 10
vertex 7.49347 -9.68077 10
vertex 8.48572 -9.88468 10
endloop
endfacet
facet normal 0 0 1
outer loop
vertex 1.34815 -5 10
vertex 8.48572 -9.88468 10
vertex 9.49351 -9.98717 10
endloop
endfacet
facet normal 0 0 1
outer loop
vertex 1.34815 -5 10
vertex 9.49351 -9.98717 10
vertex 10.50649 -9.98717 10
endloop
endfacet
facet normal 0 0 1
outer loop
vertex 1.34815 -5 10
vertex 10.50649 -9.98717 10
vertex 11.51428 -9.88468 10
endloop
endfacet
facet normal 0 0 1
outer loop
vertex 1.34815 -5 10
vertex 11.51428 -9.88468 10
vertex 12.50653 -9.68077 10
endloop
endfacet
facet normal 0 0 1
outer loop
vertex 1.34815 -5 10
vertex 12.50653 -9.68077 10
vertex 13.47305 -9.37752 10
endloop
endfacet
facet normal 0 0 1
outer loop
vertex 1.34815 -5 10
vertex 13.47305 -9.37752 10
vertex 14.40394 -8.97805 10
endloop
endfacet
facet normal 0 0 1
outer loop
vertex 1.34815 -5 10
vertex 14.40394 -8.97805 10
vertex 15.28964 -8.48644 10
endloop
endfacet
facet normal 0 0 1
outer loop
vertex 1.34815 -5 10
vertex 15.28964 -8.48644 10
vertex 16.12106 -7.90776 10
endloop
endfacet
facet normal 0 0 1
outer loop
vertex 1.34815 -5 10
vertex 16.12106 -7.90776 10
vertex 16.88967 -7.24793 10
endloop
endfacet
facet normal 0 0 1
outer loop
vertex 1.34815 -5 10
vertex 16.88967 -7.24793 10
vertex 17.58758 -6.51372 10
endloop
endfacet
facet normal 0 0 1
outer loop
vertex 1.34815 -5 10
vertex 17.58758 -6.51372 10
vertex 18.20763 -5.71268 10
endloop
endfacet
facet normal 0 0 1
outer loop
vertex 1.34815 -5 10
vertex 18.20763 -5.71268 10
vertex 18.65185 -5 10
endloop
endfacet
facet normal 0 0 1
outer loop
vertex 18.65185 5 10
vertex 18.20763 5.71268 10
vertex 17.58758 6.51372 10
endloop
endfacet
facet normal 0 0 1
outer loop
vertex 18.65185 5 10
vertex 17.58758 6.51372 10
vertex 16.88967 7.24793 10
endloop
endfacet
facet normal 0 0 1
outer loop
vertex 18.65185 5 10
vertex 16.88967 7.24793 10
vertex 16.12106 7.90776 10
endloop
endfacet
facet normal 0 0 1
outer loop
vertex 18.65185 5 10
vertex 16.12106 7.90776 10
vertex 15.28964 8.48644 10
endloop
endfacet
facet normal 0 0 1
outer loop
vertex 18.65185 5 10
vertex 15.28964 8.48644 10
vertex 14.40394 8.97805 10
endloop
endfacet
facet normal 0 0 1
outer loop
vertex 18.65185 5 10
vertex 14.40394 8.97805 10
vertex 13.47305 9.37752 10
endloop
endfacet
facet normal 0 0 1
outer loop
vertex 18.65185 5 10
vertex 13.47305 9.37752 10
vertex 12.50653 9.68077 10
endloop
endfacet
facet normal 0 0 1
outer loop
vertex 18.65185 5 10
vertex 12.50653 9.68077 10
vertex 11.51428 9.88468 10
endloop
endfacet
facet normal 0 0 1
outer loop
vertex 18.65185 5 10
vertex 11.51428 9.88468 10
vertex 10.50649 9.98717 10
endloop
endfacet
facet normal 0 0 1
outer loop
vertex 18.65185 5 10
vertex 10.50649 9.98717 10
vertex 9.49351 9.98717 10
endloop
endfacet
facet normal 0 0 1
outer loop
vertex 18.65185 5 10
vertex 9.49351 9.98717 10
vertex 8.48572 9.88468 10
endloop
endfacet
facet normal 0 0 1
outer loop
vertex 18.65185 5 10
vertex 8.48572 9.88468 10
vertex 7.49347 9.68077 10
endloop
endfacet
facet normal 0 0 1
outer loop
vertex 18.65185 5 10
vertex 7.49347 9.68077 10
vertex 6.52695 9.37752 10
endloop
endfacet
facet normal 0 0 1
outer loop
vertex 18.65185 5 10
vertex 6.52695 9.37752 10
vertex 5.59606 8.97805 10
endloop
endfacet
facet normal 0 0 1
outer loop
vertex 18.65185 5 10
vertex 5.59606 8.97805 10
vertex 4.71036 8.48644 10
endloop
endfacet
facet normal 0 0 1
outer loop
vertex 18.65185 5 10
vertex 4.71036 8.48644 10
vertex 3.87894 7.90776 10
endloop
endfacet
facet normal 0 0 1
outer loop
vertex 18.65185 5 10
vertex 3.87894 7.90776 10
vertex 3.11033 7.24793 10
endloop
endfacet
facet normal 0 0 1
outer loop
vertex 18.65185 5 10
vertex 3.11033 7.24793 10
vertex 2.41242 6.51372 10
endloop
endfacet
facet normal 0 0 1
outer loop
vertex 18.65185 5 10
vertex 2.41242 6.51372 10
vertex 1.79237 5.71268 10
endloop
endfacet
facet normal 0 0 1
outer loop
vertex 18.65185 5 10
vertex 1.79237 5.71268 10
vertex 1.34815 5 10
endloop
endfacet
facet normal 0 0 1
outer loop
vertex 19.7953 2.01299 10
vertex 19.54139 2.99363 10
vertex 19.18958 3.94356 10
endloop
endfacet
facet normal 0 0 1
outer loop
vertex 19.7953 2.01299 10
vertex 19.18958 3.94356 10
vertex 18.74347 4.85302 10
endloop
endfacet
facet normal 0 0 1
outer loop
vertex 19.7953 2.01299 10
vertex 18.74347 4.85302 10
vertex 18.65185 5 10
endloop
endfacet
facet normal 0 0 1
outer loop
vertex 19.7953 2.01299 10
vertex 18.65185 5 10
vertex 1.34815 5 10
endloop
endfacet
facet normal 0 0 1
outer loop
vertex 19.7953 2.01299 10
vertex 1.34815 5 10
vertex 1.25653 4.85302 10
endloop
endfacet
facet normal 0 0 1
outer loop
vertex 19.7953 2.01299 10
vertex 1.25653 4.85302 10
vertex 0.81042 3.94356 10
endloop
endfacet
facet normal 0 0 1
outer loop
vertex 19.7953 2.01299 10
vertex 0.81042 3.94356 10
vertex 0.45861 2.99363 10
endloop
endfacet
facet normal 0 0 1
outer loop
vertex 19.7953 2.01299 10
vertex 0.45861 2.99363 10
vertex 0.2047 2.01299 10
endloop
endfacet
facet normal 0 0 1
outer loop
vertex 19.7953 2.01299 10
vertex 0.2047 2.01299 10
vertex 0.05131 1.01168 10
endloop
endfacet
facet normal 0 0 1
outer loop
vertex 19.7953 2.01299 10
vertex 0.05131 1.01168 10
vertex 0 0 10
endloop
endfacet
facet normal 0 0 1
outer loop
vertex 19.7953 2.01299 10
vertex 0 0 10
vertex 0.05131 -1.01168 10
endloop
endfacet
facet normal 0 0 1
outer loop
vertex 19.7953 2.01299 10
vertex 0.05131 -1.01168 10
vertex 0.2047 -2.01299 10
endloop
endfacet
facet normal 0 0 1
outer loop
vertex 19.7953 2.01299 10
vertex 0.2047 -2.01299 10
vertex 0.45861 -2.99363 10
endloop
endfacet
facet normal 0 0 1
outer loop
vertex 19.7953 2.01299 10
vertex 0.45861 -2.99363 10
vertex 0.81042 -3.94356 10
endloop
endfacet
facet normal 0 0 1
outer loop
vertex 19.7953 2.01299 10
vertex 0.81042 -3.94356 10
vertex 1.25653 -4.85302 10
endloop
endfacet
facet normal 0 0 1
outer loop
vertex 19.7953 2.01299 10
vertex 1.25653 -4.85302 10
vertex 1.34815 -5 10
endloop
endfacet
facet normal 0 0 1
outer loop
vertex 19.7953 2.01299 10
vertex 1.34815 -5 10
vertex 18.65185 -5 10
endloop
endfacet
facet normal 0 0 1
outer loop
vertex 19.7953 2.01299 10
vertex 18.65185 -5 10
vertex 18.74347 -4.85302 10
endloop
endfacet
facet normal 0 0 1
outer loop
vertex 19.7953 2.01299 10
vertex 18.74347 -4.85302 10
vertex 19.18958 -3.94356 10
endloop
endfacet
facet normal 0 0 1
outer loop
vertex 19.7953 2.01299 10
vertex 19.18958 -3.94356 10
vertex 19.54139 -2.99363 10
endloop
endfacet
facet normal 0 0 1
outer loop
vertex 19.7953 2.01299 10
vertex 19.54139 -2.99363 10
vertex 19.7953 -2.01299 10
endloop
endfacet
facet normal 0 0 1
outer loop
vertex 19.7953 2.01299 10
vertex 19.7953 -2.01299 10
vertex 19.94869 -1.01168 10
endloop
endfacet
facet normal 0 0 1
outer loop
vertex 19.7953 2.01299 10
vertex 19.94869 -1.01168 10
vertex 20 0 10
endloop
endfacet
facet normal 0 0 1
outer loop
vertex 19.7953 2.01299 10
vertex 20 0 10
vertex 19.94869 1.01168 10
endloop
endfacet
facet normal 0 0 -1
outer loop
vertex 18.65185 -5 0
vertex 18.20763 -5.71268 0
vertex 17.58758 -6.51372 0
endloop
endfacet
facet normal 0 0 -1
outer loop
vertex 18.65185 -5 0
vertex 17.58758 -6.51372 0
vertex 16.88967 -7.24793 0
endloop
endfacet
facet normal 0 0 -1
outer loop
vertex 18.65185 -5 0
vertex 16.88967 -7.24793 0
vertex 16.12106 -7.90776 0
endloop
endfacet
facet normal 0 0 -1
outer loop
vertex 18.65185 -5 0
vertex 16.12106 -7.90776 0
vertex 15.28964 -8.48644 0
endloop
endfacet
facet normal 0 0 -1
outer loop
vertex 18.65185 -5 0
vertex 15.28964 -8.48644 0
vertex 14.40394 -8.97805 0
endloop
endfacet
facet normal 0 0 -1
outer loop
vertex 18.65185 -5 0
vertex 14.40394 -8.97805 0
vertex 13.47305 -9.37752 0
endloop
endfacet
facet normal 0 0 -1
outer loop
vertex 18.65185 -5 0
vertex 13.47305 -9.37752 0
vertex 12.50653 -9.68077 0
endloop
endfacet
facet normal 0 0 -1
outer loop
vertex 18.65185 -5 0
vertex 12.50653 -9.68077 0
vertex 11.51428 -9.88468 0
endloop
endfacet
facet normal 0 0 -1
outer loop
vertex 18.65185 -5 0
vertex 11.51428 -9.88468 0
vertex 10.50649 -9.98717 0
endloop
endfacet
facet normal 0 0 -1
outer loop
vertex 18.65185 -5 0
vertex 10.50649 -9.98717 0
vertex 9.49351 -9.98717 0
endloop
endfacet
facet normal 0 0 -1
outer loop
vertex 18.65185 -5 0
vertex 9.49351 -9.98717 0
vertex 8.48572 -9.88468 0
endloop
endfacet
facet normal 0 0 -1
outer loop
vertex 18.65185 -5 0
vertex 8.48572 -9.88468 0
vertex 7.49347 -9.68077 0
endloop
endfacet
facet normal 0 0 -1
outer loop
vertex 18.65185 -5 0
vertex 7.49347 -9.68077 0
vertex 6.52695 -9.37752 0
endloop
endfacet
facet normal 0 0 -1
outer loop
vertex 18.65185 -5 0
vertex 6.52695 -9.37752 0
vertex 5.59606 -8.97805 0
endloop
endfacet
facet normal 0 0 -1
outer loop
vertex 18.65185 -5 0
vertex 5.59606 -8.97805 0
vertex 4.71036 -8.48644 0
endloop
endfacet
facet normal 0 0 -1
outer loop
vertex 18.65185 -5 0
vertex 4.71036 -8.48644 0
vertex 3.87894 -7.90776 0
endloop
endfacet
facet normal 0 0 -1
outer loop
vertex 18.65185 -5 0
vertex 3.87894 -7.90776 0
vertex 3.11033 -7.24793 0
endloop
endfacet
facet normal 0 0 -1
outer loop
vertex 18.65185 -5 0
vertex 3.11033 -7.24793 0
vertex 2.41242 -6.51372 0
endloop
endfacet
facet normal 0 0 -1
outer loop
vertex 18.65185 -5 0
vertex 2.41242 -6.51372 0
vertex 1.79237 -5.71268 0
endloop
endfacet
facet normal 0 0 -1
outer loop
vertex 18.65185 -5 0
vertex 1.79237 -5.71268 0
vertex 1.34815 -5 0
endloop
endfacet
facet normal 0 0 -1
outer loop
vertex 1.34815 5 0
vertex 1.79237 5.71268 0
vertex 2.41242 6.51372 0
endloop
endfacet
facet normal 0 0 -1
outer loop
vertex 1.34815 5 0
vertex 2.41242 6.51372 0
vertex 3.11033 7.24793 0
endloop
endfacet
facet normal 0 0 -1
outer loop
vertex 1.34815 5 0
vertex 3.11033 7.24793 0
vertex 3.87894 7.90776 0
endloop
endfacet
facet normal 0 0 -1
outer loop
vertex 1.34815 5 0
vertex 3.87894 7.90776 0
vertex 4.71036 8.48644 0
endloop
endfacet
facet normal 0 0 -1
outer loop
vertex 1.34815 5 0
vertex 4.71036 8.48644 0
vertex 5.59606 8.97805 0
endloop
endfacet
facet normal 0 0 -1
outer loop
vertex 1.34815 5 0
vertex 5.59606 8.97805 0
vertex 6.52695 9.37752 0
endloop
endfacet
facet normal 0 0 -1
outer loop
vertex 1.34815 5 0
vertex 6.52695 9.37752 0
vertex 7.49347 9.68077 0
endloop
endfacet
facet normal 0 0 -1
outer loop
vertex 1.34815 5 0
vertex 7.49347 9.68077 0
vertex 8.48572 9.88468 0
endloop
endfacet
facet normal 0 0 -1
outer loop
vertex 1.34815 5 0
vertex 8.48572 9.88468 0
vertex 9.49351 9.98717 0
endloop
endfacet
facet normal 0 0 -1
outer loop
vertex 1.34815 5 0
vertex 9.49351 9.98717 0
vertex 10.50649 9.98717 0
endloop
endfacet
facet normal 0 0 -1
outer loop
vertex 1.34815 5 0
vertex 10.50649 9.98717 0
vertex 11.51428 9.88468 0
endloop
endfacet
facet normal 0 0 -1
outer loop
vertex 1.34815 5 0
vertex 11.51428 9.88468 0
vertex 12.50653 9.68077 0
endloop
endfacet
facet normal 0 0 -1
outer loop
vertex 1.34815 5 0
vertex 12.50653 9.68077 0
vertex 13.47305 9.37752 0
endloop
endfacet
facet normal 0 0 -1
outer loop
vertex 1.34815 5 0
vertex 13.47305 9.37752 0
vertex 14.40394 8.97805 0
endloop
endfacet
facet normal 0 0 -1
outer loop
vertex 1.34815 5 0
vertex 14.40394 8.97805 0
vertex 15.28964 8.48644 0
endloop
endfacet
facet normal 0 0 -1
outer loop
vertex 1.34815 5 0
vertex 15.28964 8.48644 0
vertex 16.12106 7.90776 0
endloop
endfacet
facet normal 0 0 -1
outer loop
vertex 1.34815 5 0
vertex 16.12106 7.90776 0
vertex 16.88967 7.24793 0
endloop
endfacet
facet normal 0 0 -1
outer loop
vertex 1.34815 5 0
vertex 16.88967 7.24793 0
vertex 17.58758 6.51372 0
endloop
endfacet
facet normal 0 0 -1
outer loop
vertex 1.34815 5 0
vertex 17.58758 6.51372 0
vertex 18.20763 5.71268 0
endloop
endfacet
facet normal 0 0 -1
outer loop
vertex 1.34815 5 0
vertex 18.20763 5.71268 0
vertex 18.65185 5 0
endloop
endfacet
facet normal 0 0 -1
outer loop
vertex 19.54139 -2.99363 0
vertex 19.18958 -3.94356 0
vertex 18.74347 -4.85302 0
endloop
endfacet
facet normal 0 0 -1
outer loop
vertex 19.54139 -2.99363 0
vertex 18.74347 -4.85302 0
vertex 18.65185 -5 0
endloop
endfacet
facet normal 0 0 -1
outer loop
vertex 19.54139 -2.99363 0
vertex 18.65185 -5 0
vertex 1.34815 -5 0
endloop
endfacet
facet normal 0 0 -1
outer loop
vertex 19.54139 -2.99363 0
vertex 1.34815 -5 0
vertex 1.25653 -4.85302 0
endloop
endfacet
facet normal 0 0 -1
outer loop
vertex 19.54139 -2.99363 0
vertex 1.25653 -4.85302 0
vertex 0.81042 -3.94356 0
endloop
endfacet
facet normal 0 0 -1
outer loop
vertex 19.54139 -2.99363 0
vertex 0.81042 -3.94356 0
vertex 0.45861 -2.99363 0
endloop
endfacet
facet normal 0 0 -1
outer loop
vertex 19.54139 -2.99363 0
vertex 0.45861 -2.99363 0
vertex 0.2047 -2.01299 0
endloop
endfacet
facet normal 0 0 -1
outer loop
vertex 19.54139 -2.99363 0
vertex 0.2047 -2.01299 0
vertex 0.05131 -1.01168 0
endloop
endfacet
facet normal 0 0 -1
outer loop
vertex 19.54139 -2.99363 0
vertex 0.05131 -1.01168 0
vertex 0 0 0
endloop
endfacet
facet normal 0 0 -1
outer loop
vertex 19.54139 -2.99363 0
vertex 0 0 0
vertex 0.05131 1.01168 0
endloop
endfacet
facet normal 0 0 -1
outer loop
vertex 19.54139 -2.99363 0
vertex 0.05131 1.01168 0
vertex 0.2047 2.01299 0
endloop
endfacet
facet normal 0 0 -1
outer loop
vertex 19.54139 -2.99363 0
vertex 0.2047 2.01299 0
vertex 0.45861 2.99363 0
endloop
endfacet
facet normal 0 0 -1
outer loop
vertex 19.54139 -2.99363 0
vertex 0.45861 2.99363 0
vertex 0.81042 3.94356 0
endloop
endfacet
facet normal 0 0 -1
outer loop
vertex 19.54139 -2.99363 0
vertex 0.81042 3.94356 0
vertex 1.25653 4.85302 0
endloop
endfacet
facet normal 0 0 -1
outer loop
vertex 19.54139 -2.99363 0
vertex 1.25653 4.85302 0
vertex 1.34815 5 0
endloop
endfacet
facet normal 0 0 -1
outer loop
vertex 19.54139 -2.99363 0
vertex 1.34815 5 0
vertex 18.65185 5 0
endloop
endfacet
facet normal 0 0 -1
outer loop
vertex 19.54139 -2.99363 0
vertex 18.65185 5 0
vertex 18.74347 4.85302 0
endloop
endfacet
facet normal 0 0 -1
outer loop
vertex 19.54139 -2.99363 0
vertex 18.74347 4.85302 0
vertex 19.18958 3.94356 0
endloop
endfacet
facet normal 0 0 -1
outer loop
vertex 19.54139 -2.99363 0
vertex 19.18958 3.94356 0
vertex 19.54139 2.99363 0
endloop
endfacet
facet normal 0 0 -1
outer loop
vertex 19.54139 -2.99363 0
vertex 19.54139 2.99363 0
vertex 19.7953 2.01299 0
endloop
endfacet
facet normal 0 0 -1
outer loop
vertex 19.54139 -2.99363 0
vertex 19.7953 2.01299 0
vertex 19.94869 1.01168 0
endloop
endfacet
facet normal 0 0 -1
outer loop
vertex 19.54139 -2.99363 0
vertex 19.94869 1.01168 0
vertex 20 0 0
endloop
endfacet
facet normal 0 0 -1
outer loop
vertex 19.54139 -2.99363 0
vertex 20 0 0
vertex 19.94869 -1.01168 0
endloop
endfacet
facet normal 0 0 -1
outer loop
vertex 19.54139 -2.99363 0
vertex 19.94869 -1.01168 0
vertex 19.7953 -2.01299 0
endloop
endfacet
facet normal 0 -1 0
outer loop
vertex 10.50649 -9.98717 0
vertex 10.50649 -9.98717 10
vertex 9.49351 -9.98717 0
endloop
endfacet
facet normal 0 -1 0
outer loop
vertex 9.49351 -9.98717 0
vertex 10.50649 -9.98717 10
vertex 9.49351 -9.98717 10
endloop
endfacet
facet normal 0.8978050968886252 -0.44039301538603737 0
outer loop
vertex 19.18958 -3.94356 0
vertex 19.18958 -3.94356 10
vertex 18.74347 -4.85302 0
endloop
endfacet
facet normal 0.8978050968886252 -0.44039301538603737 0
outer loop
vertex 18.74347 -4.85302 0
vertex 19.18958 -3.94356 10
vertex 18.74347 -4.85302 10
endloop
endfacet
facet normal 0.6513724588664771 -0.7587581431722756 0
outer loop
vertex 16.88967 -7.24793 0
vertex 16.88967 -7.24793 10
vertex 16.12106 -7.90776 0
endloop
endfacet
facet normal 0.6513724588664771 -0.7587581431722756 0
outer loop
vertex 16.12106 -7.90776 0
vertex 16.88967 -7.24793 10
vertex 16.12106 -7.90776 10
endloop
endfacet
facet normal -0.20129609662326392 -0.9795304392841692 0
outer loop
vertex 8.48572 -9.88468 0
vertex 8.48572 -9.88468 10
vertex 7.49347 -9.68077 0
endloop
endfacet
facet normal -0.20129609662326392 -0.9795304392841692 0
outer loop
vertex 7.49347 -9.68077 0
vertex 8.48572 -9.88468 10
vertex 7.49347 -9.68077 10
endloop
endfacet
facet normal 0.485306788964283 -0.8743439372381883 0
outer loop
vertex 15.28964 -8.48644 0
vertex 15.28964 -8.48644 10
vertex 14.40394 -8.97805 0
endloop
endfacet
facet normal 0.485306788964283 -0.8743439372381883 0
outer loop
vertex 14.40394 -8.97805 0
vertex 15.28964 -8.48644 10
vertex 14.40394 -8.97805 10
endloop
endfacet
facet normal -0.6513724588664765 -0.7587581431722763 0
outer loop
vertex 3.87894 -7.90776 0
vertex 3.87894 -7.90776 10
vertex 3.11033 -7.24793 0
endloop
endfacet
facet normal -0.6513724588664765 -0.7587581431722763 0
outer loop
vertex 3.11033 -7.24793 0
vertex 3.87894 -7.90776 10
vertex 3.11033 -7.24793 10
endloop
endfacet
facet normal -0.485306788964283 -0.8743439372381883 0
outer loop
vertex 5.59606 -8.97805 0
vertex 5.59606 -8.97805 10
vertex 4.71036 -8.48644 0
endloop
endfacet
facet normal -0.485306788964283 -0.8743439372381883 0
outer loop
vertex 4.71036 -8.48644 0
vertex 5.59606 -8.97805 10
vertex 4.71036 -8.48644 10
endloop
endfacet
facet normal -0.3943505526725248 0.9189600870586678 0
outer loop
vertex 5.59606 8.97805 0
vertex 5.59606 8.97805 10
vertex 6.52695 9.37752 0
endloop
endfacet
facet normal -0.3943505526725248 0.9189600870586678 0
outer loop
vertex 6.52695 9.37752 0
vertex 5.59606 8.97805 10
vertex 6.52695 9.37752 10
endloop
endfacet
facet normal -0.7247970499683984 0.688962434648731 0
outer loop
vertex 2.41242 6.51372 0
vertex 2.41242 6.51372 10
vertex 3.11033 7.24793 0
endloop
endfacet
facet normal -0.7247970499683984 0.688962434648731 0
outer loop
vertex 3.11033 7.24793 0
vertex 2.41242 6.51372 10
vertex 3.11033 7.24793 10
endloop
endfacet
facet normal 0.7247970499683982 -0.6889624346487312 0
outer loop
vertex 17.58758 -6.51372 0
vertex 17.58758 -6.51372 10
vertex 16.88967 -7.24793 0
endloop
endfacet
facet normal 0.7247970499683982 -0.6889624346487312 0
outer loop
vertex 16.88967 -7.24793 0
vertex 17.58758 -6.51372 10
vertex 16.88967 -7.24793 10
endloop
endfacet
facet normal -0.79077626903439 -0.6121052951347914 0
outer loop
vertex 2.41242 -6.51372 0
vertex 2.41242 -6.51372 10
vertex 1.79237 -5.71268 0
endloop
endfacet
facet normal -0.79077626903439 -0.6121052951347914 0
outer loop
vertex 1.79237 -5.71268 0
vertex 2.41242 -6.51372 10
vertex 1.79237 -5.71268 10
endloop
endfacet
facet normal -0.8978050968886255 0.44039301538603653 0
outer loop
vertex 0.81042 3.94356 0
vertex 0.81042 3.94356 10
vertex 1.25653 4.85302 0
endloop
endfacet
facet normal -0.8978050968886255 0.44039301538603653 0
outer loop
vertex 1.25653 4.85302 0
vertex 0.81042 3.94356 10
vertex 1.25653 4.85302 10
endloop
endfacet
facet normal -0.6513724588664765 0.7587581431722763 0
outer loop
vertex 3.11033 7.24793 0
vertex 3.11033 7.24793 10
vertex 3.87894 7.90776 0
endloop
endfacet
facet normal -0.6513724588664765 0.7587581431722763 0
outer loop
vertex 3.87894 7.90776 0
vertex 3.11033 7.24793 10
vertex 3.87894 7.90776 10
endloop
endfacet
facet normal 0.7247970499683982 0.6889624346487312 0
outer loop
vertex 16.88967 7.24793 0
vertex 16.88967 7.24793 10
vertex 17.58758 6.51372 0
endloop
endfacet
facet normal 0.7247970499683982 0.6889624346487312 0
outer loop
vertex 17.58758 6.51372 0
vertex 16.88967 7.24793 10
vertex 17.58758 6.51372 10
endloop
endfacet
facet normal -0.9884690704933199 -0.15142290671517347 0
outer loop
vertex 0.2047 -2.01299 0
vertex 0.2047 -2.01299 10
vertex 0.05131 -1.01168 0
endloop
endfacet
facet normal -0.9884690704933199 -0.15142290671517347 0
outer loop
vertex 0.05131 -1.01168 0
vertex 0.2047 -2.01299 10
vertex 0.05131 -1.01168 10
endloop
endfacet
facet normal 0 1 0
outer loop
vertex 9.49351 9.98717 0
vertex 9.49351 9.98717 10
vertex 10.50649 9.98717 0
endloop
endfacet
facet normal 0 1 0
outer loop
vertex 10.50649 9.98717 0
vertex 9.49351 9.98717 10
vertex 10.50649 9.98717 10
endloop
endfacet
facet normal 0.9377538811078928 0.34730053047336973 0
outer loop
vertex 19.18958 3.94356 0
vertex 19.18958 3.94356 10
vertex 19.54139 2.99363 0
endloop
endfacet
facet normal 0.9377538811078928 0.34730053047336973 0
outer loop
vertex 19.54139 2.99363 0
vertex 19.18958 3.94356 10
vertex 19.54139 2.99363 10
endloop
endfacet
facet normal -0.7247970499683984 -0.688962434648731 0
outer loop
vertex 3.11033 -7.24793 0
vertex 3.11033 -7.24793 10
vertex 2.41242 -6.51372 0
endloop
endfacet
facet normal -0.7247970499683984 -0.688962434648731 0
outer loop
vertex 2.41242 -6.51372 0
vertex 3.11033 -7.24793 10
vertex 2.41242 -6.51372 10
endloop
endfacet
facet normal -0.8978050968886255 -0.44039301538603653 0
outer loop
vertex 1.25653 -4.85302 0
vertex 1.25653 -4.85302 10
vertex 0.81042 -3.94356 0
endloop
endfacet
facet normal -0.8978050968886255 -0.44039301538603653 0
outer loop
vertex 0.81042 -3.94356 0
vertex 1.25653 -4.85302 10
vertex 0.81042 -3.94356 10
endloop
endfacet
facet normal -0.848642568671584 0.528966719783481 0
outer loop
vertex 1.34815 5 8.29025
vertex 1.79237 5.71268 0
vertex 1.34815 5 0
endloop
endfacet
facet normal -0.848642568671584 0.5289667197834811 0
outer loop
vertex 1.34815 5 8.29025
vertex 1.34815 5 10
vertex 1.79237 5.71268 10
endloop
endfacet
facet normal -0.8486425686715839 0.528966719783481 0
outer loop
vertex 1.34815 5 8.29025
vertex 1.79237 5.71268 10
vertex 1.79237 5.71268 0
endloop
endfacet
facet normal -0.8486269810585748 0.5289917267967519 0
outer loop
vertex 1.25653 4.85302 10
vertex 1.34815 5 8.29025
vertex 1.34815 5 0
endloop
endfacet
facet normal -0.8486269810585747 0.5289917267967519 0
outer loop
vertex 1.25653 4.85302 10
vertex 1.34815 5 0
vertex 1.25653 4.85302 0
endloop
endfacet
facet normal -0.8486269810585747 0.5289917267967518 0
outer loop
vertex 1.34815 5 8.29025
vertex 1.25653 4.85302 10
vertex 1.34815 5 10
endloop
endfacet
facet normal 0.20129609662326392 0.9795304392841692 0
outer loop
vertex 11.51428 9.88468 0
vertex 11.51428 9.88468 10
vertex 12.50653 9.68077 0
endloop
endfacet
facet normal 0.20129609662326392 0.9795304392841692 0
outer loop
vertex 12.50653 9.68077 0
vertex 11.51428 9.88468 10
vertex 12.50653 9.68077 10
endloop
endfacet
facet normal 0.9884690704933202 0.15142290671517167 0
outer loop
vertex 19.7953 2.01299 0
vertex 19.7953 2.01299 10
vertex 19.94869 1.01168 0
endloop
endfacet
facet normal 0.9884690704933202 0.15142290671517167 0
outer loop
vertex 19.94869 1.01168 0
vertex 19.7953 2.01299 10
vertex 19.94869 1.01168 10
endloop
endfacet
facet normal -0.29936527420340614 0.9541385814446032 0
outer loop
vertex 6.52695 9.37752 0
vertex 6.52695 9.37752 10
vertex 7.49347 9.68077 0
endloop
endfacet
facet normal -0.29936527420340614 0.9541385814446032 0
outer loop
vertex 7.49347 9.68077 0
vertex 6.52695 9.37752 10
vertex 7.49347 9.68077 10
endloop
endfacet
facet normal 0.5712646246981277 0.820765940185451 0
outer loop
vertex 15.28964 8.48644 0
vertex 15.28964 8.48644 10
vertex 16.12106 7.90776 0
endloop
endfacet
facet normal 0.5712646246981277 0.820765940185451 0
outer loop
vertex 16.12106 7.90776 0
vertex 15.28964 8.48644 10
vertex 16.12106 7.90776 10
endloop
endfacet
facet normal 0.9680759900255809 0.2506568920576321 0
outer loop
vertex 19.54139 2.99363 0
vertex 19.54139 2.99363 10
vertex 19.7953 2.01299 0
endloop
endfacet
facet normal 0.9680759900255809 0.2506568920576321 0
outer loop
vertex 19.7953 2.01299 0
vertex 19.54139 2.99363 10
vertex 19.7953 2.01299 10
endloop
endfacet
facet normal -0.937753881107893 0.3473005304733694 0
outer loop
vertex 0.45861 2.99363 0
vertex 0.45861 2.99363 10
vertex 0.81042 3.94356 0
endloop
endfacet
facet normal -0.937753881107893 0.3473005304733694 0
outer loop
vertex 0.81042 3.94356 0
vertex 0.45861 2.99363 10
vertex 0.81042 3.94356 10
endloop
endfacet
facet normal 0.6513724588664771 0.7587581431722756 0
outer loop
vertex 16.12106 7.90776 0
vertex 16.12106 7.90776 10
vertex 16.88967 7.24793 0
endloop
endfacet
facet normal 0.6513724588664771 0.7587581431722756 0
outer loop
vertex 16.88967 7.24793 0
vertex 16.12106 7.90776 10
vertex 16.88967 7.24793 10
endloop
endfacet
facet normal -0.9680759900255812 0.25065689205763103 0
outer loop
vertex 0.2047 2.01299 0
vertex 0.2047 2.01299 10
vertex 0.45861 2.99363 0
endloop
endfacet
facet normal -0.9680759900255812 0.25065689205763103 0
outer loop
vertex 0.45861 2.99363 0
vertex 0.2047 2.01299 10
vertex 0.45861 2.99363 10
endloop
endfacet
facet normal -0.485306788964283 0.8743439372381883 0
outer loop
vertex 4.71036 8.48644 0
vertex 4.71036 8.48644 10
vertex 5.59606 8.97805 0
endloop
endfacet
facet normal -0.485306788964283 0.8743439372381883 0
outer loop
vertex 5.59606 8.97805 0
vertex 4.71036 8.48644 10
vertex 5.59606 8.97805 10
endloop
endfacet
facet normal 0.848642568671585 0.5289667197834792 0
outer loop
vertex 18.20763 5.71268 10
vertex 18.65185 5 1.70975
vertex 18.65185 5 0
endloop
endfacet
facet normal 0.8486425686715853 0.5289667197834791 0
outer loop
vertex 18.20763 5.71268 10
vertex 18.65185 5 0
vertex 18.20763 5.71268 0
endloop
endfacet
facet normal 0.8486425686715853 0.5289667197834791 0
outer loop
vertex 18.65185 5 1.70975
vertex 18.20763 5.71268 10
vertex 18.65185 5 10
endloop
endfacet
facet normal 0.8486269810585776 0.5289917267967472 0
outer loop
vertex 18.65185 5 1.70975
vertex 18.74347 4.85302 0
vertex 18.65185 5 0
endloop
endfacet
facet normal 0.8486269810585777 0.5289917267967472 0
outer loop
vertex 18.65185 5 1.70975
vertex 18.65185 5 10
vertex 18.74347 4.85302 10
endloop
endfacet
facet normal 0.8486269810585777 0.5289917267967472 0
outer loop
vertex 18.65185 5 1.70975
vertex 18.74347 4.85302 10
vertex 18.74347 4.85302 0
endloop
endfacet
facet normal -0.79077626903439 0.6121052951347914 0
outer loop
vertex 1.79237 5.71268 0
vertex 1.79237 5.71268 10
vertex 2.41242 6.51372 0
endloop
endfacet
facet normal -0.79077626903439 0.6121052951347914 0
outer loop
vertex 2.41242 6.51372 0
vertex 1.79237 5.71268 10
vertex 2.41242 6.51372 10
endloop
endfacet
facet normal 0.10117591739398024 0.9948685509852477 0
outer loop
vertex 10.50649 9.98717 0
vertex 10.50649 9.98717 10
vertex 11.51428 9.88468 0
endloop
endfacet
facet normal 0.10117591739398024 0.9948685509852477 0
outer loop
vertex 11.51428 9.88468 0
vertex 10.50649 9.98717 10
vertex 11.51428 9.88468 10
endloop
endfacet
facet normal 0.485306788964283 0.8743439372381883 0
outer loop
vertex 14.40394 8.97805 0
vertex 14.40394 8.97805 10
vertex 15.28964 8.48644 0
endloop
endfacet
facet normal 0.485306788964283 0.8743439372381883 0
outer loop
vertex 15.28964 8.48644 0
vertex 14.40394 8.97805 10
vertex 15.28964 8.48644 10
endloop
endfacet
facet normal 0.7907762690343888 -0.6121052951347931 0
outer loop
vertex 18.20763 -5.71268 0
vertex 18.20763 -5.71268 10
vertex 17.58758 -6.51372 0
endloop
endfacet
facet normal 0.7907762690343888 -0.6121052951347931 0
outer loop
vertex 17.58758 -6.51372 0
vertex 18.20763 -5.71268 10
vertex 17.58758 -6.51372 10
endloop
endfacet
facet normal 0.20129609662326392 -0.9795304392841692 0
outer loop
vertex 12.50653 -9.68077 0
vertex 12.50653 -9.68077 10
vertex 11.51428 -9.88468 0
endloop
endfacet
facet normal 0.20129609662326392 -0.9795304392841692 0
outer loop
vertex 11.51428 -9.88468 0
vertex 12.50653 -9.68077 10
vertex 11.51428 -9.88468 10
endloop
endfacet
facet normal 0.5712646246981277 -0.820765940185451 0
outer loop
vertex 16.12106 -7.90776 0
vertex 16.12106 -7.90776 10
vertex 15.28964 -8.48644 0
endloop
endfacet
facet normal 0.5712646246981277 -0.820765940185451 0
outer loop
vertex 15.28964 -8.48644 0
vertex 16.12106 -7.90776 10
vertex 15.28964 -8.48644 10
endloop
endfacet
facet normal -0.3943505526725248 -0.9189600870586678 0
outer loop
vertex 6.52695 -9.37752 0
vertex 6.52695 -9.37752 10
vertex 5.59606 -8.97805 0
endloop
endfacet
facet normal -0.3943505526725248 -0.9189600870586678 0
outer loop
vertex 5.59606 -8.97805 0
vertex 6.52695 -9.37752 10
vertex 5.59606 -8.97805 10
endloop
endfacet
facet normal -0.5712646246981277 0.820765940185451 0
outer loop
vertex 3.87894 7.90776 0
vertex 3.87894 7.90776 10
vertex 4.71036 8.48644 0
endloop
endfacet
facet normal -0.5712646246981277 0.820765940185451 0
outer loop
vertex 4.71036 8.48644 0
vertex 3.87894 7.90776 10
vertex 4.71036 8.48644 10
endloop
endfacet
facet normal 0.8486425686715853 -0.5289667197834791 0
outer loop
vertex 18.65185 -5 8.29025
vertex 18.20763 -5.71268 0
vertex 18.65185 -5 0
endloop
endfacet
facet normal 0.8486425686715853 -0.5289667197834791 0
outer loop
vertex 18.65185 -5 8.29025
vertex 18.65185 -5 10
vertex 18.20763 -5.71268 10
endloop
endfacet
facet normal 0.8486425686715853 -0.5289667197834791 0
outer loop
vertex 18.65185 -5 8.29025
vertex 18.20763 -5.71268 10
vertex 18.20763 -5.71268 0
endloop
endfacet
facet normal 0.8486269810585778 -0.5289917267967472 0
outer loop
vertex 18.74347 -4.85302 10
vertex 18.65185 -5 8.29025
vertex 18.65185 -5 0
endloop
endfacet
facet normal 0.8486269810585777 -0.5289917267967473 0
outer loop
vertex 18.74347 -4.85302 10
vertex 18.65185 -5 0
vertex 18.74347 -4.85302 0
endloop
endfacet
facet normal 0.8486269810585776 -0.5289917267967472 0
outer loop
vertex 18.65185 -5 8.29025
vertex 18.74347 -4.85302 10
vertex 18.65185 -5 10
endloop
endfacet
facet normal 0.10117591739398024 -0.9948685509852477 0
outer loop
vertex 11.51428 -9.88468 0
vertex 11.51428 -9.88468 10
vertex 10.50649 -9.98717 0
endloop
endfacet
facet normal 0.10117591739398024 -0.9948685509852477 0
outer loop
vertex 10.50649 -9.98717 0
vertex 11.51428 -9.88468 10
vertex 10.50649 -9.98717 10
endloop
endfacet
facet normal 0.9884690704933202 -0.15142290671517167 0
outer loop
vertex 19.94869 -1.01168 0
vertex 19.94869 -1.01168 10
vertex 19.7953 -2.01299 0
endloop
endfacet
facet normal 0.9884690704933202 -0.15142290671517167 0
outer loop
vertex 19.7953 -2.01299 0
vertex 19.94869 -1.01168 10
vertex 19.7953 -2.01299 10
endloop
endfacet
facet normal 0.2993652742034059 -0.9541385814446032 0
outer loop
vertex 13.47305 -9.37752 0
vertex 13.47305 -9.37752 10
vertex 12.50653 -9.68077 0
endloop
endfacet
facet normal 0.2993652742034059 -0.9541385814446032 0
outer loop
vertex 12.50653 -9.68077 0
vertex 13.47305 -9.37752 10
vertex 12.50653 -9.68077 10
endloop
endfacet
facet normal -0.9987163375223298 0.050652513915734956 0
outer loop
vertex 0 0 0
vertex 0 0 10
vertex 0.05131 1.01168 0
endloop
endfacet
facet normal -0.9987163375223298 0.050652513915734956 0
outer loop
vertex 0.05131 1.01168 0
vertex 0 0 10
vertex 0.05131 1.01168 10
endloop
endfacet
facet normal -0.9680759900255812 -0.25065689205763103 0
outer loop
vertex 0.45861 -2.99363 0
vertex 0.45861 -2.99363 10
vertex 0.2047 -2.01299 0
endloop
endfacet
facet normal -0.9680759900255812 -0.25065689205763103 0
outer loop
vertex 0.2047 -2.01299 0
vertex 0.45861 -2.99363 10
vertex 0.2047 -2.01299 10
endloop
endfacet
facet normal -0.10117591739398024 0.9948685509852477 0
outer loop
vertex 8.48572 9.88468 0
vertex 8.48572 9.88468 10
vertex 9.49351 9.98717 0
endloop
endfacet
facet normal -0.10117591739398024 0.9948685509852477 0
outer loop
vertex 9.49351 9.98717 0
vertex 8.48572 9.88468 10
vertex 9.49351 9.98717 10
endloop
endfacet
facet normal 0.39435055267252506 0.9189600870586676 0
outer loop
vertex 13.47305 9.37752 0
vertex 13.47305 9.37752 10
vertex 14.40394 8.97805 0
endloop
endfacet
facet normal 0.39435055267252506 0.9189600870586676 0
outer loop
vertex 14.40394 8.97805 0
vertex 13.47305 9.37752 10
vertex 14.40394 8.97805 10
endloop
endfacet
facet normal 0.2993652742034059 0.9541385814446032 0
outer loop
vertex 12.50653 9.68077 0
vertex 12.50653 9.68077 10
vertex 13.47305 9.37752 0
endloop
endfacet
facet normal 0.2993652742034059 0.9541385814446032 0
outer loop
vertex 13.47305 9.37752 0
vertex 12.50653 9.68077 10
vertex 13.47305 9.37752 10
endloop
endfacet
facet normal 0.8978050968886252 0.44039301538603737 0
outer loop
vertex 18.74347 4.85302 0
vertex 18.74347 4.85302 10
vertex 19.18958 3.94356 0
endloop
endfacet
facet normal 0.8978050968886252 0.44039301538603737 0
outer loop
vertex 19.18958 3.94356 0
vertex 18.74347 4.85302 10
vertex 19.18958 3.94356 10
endloop
endfacet
facet normal 0.9987163375223298 0.0506525139157358 0
outer loop
vertex 19.94869 1.01168 0
vertex 19.94869 1.01168 10
vertex 20 0 0
endloop
endfacet
facet normal 0.9987163375223298 0.0506525139157358 0
outer loop
vertex 20 0 0
vertex 19.94869 1.01168 10
vertex 20 0 10
endloop
endfacet
facet normal -0.9987163375223298 -0.050652513915734956 0
outer loop
vertex 0.05131 -1.01168 0
vertex 0.05131 -1.01168 10
vertex 0 0 0
endloop
endfacet
facet normal -0.9987163375223298 -0.050652513915734956 0
outer loop
vertex 0 0 0
vertex 0.05131 -1.01168 10
vertex 0 0 10
endloop
endfacet
facet normal 0.7907762690343888 0.6121052951347931 0
outer loop
vertex 17.58758 6.51372 0
vertex 17.58758 6.51372 10
vertex 18.20763 5.71268 0
endloop
endfacet
facet normal 0.7907762690343888 0.6121052951347931 0
outer loop
vertex 18.20763 5.71268 0
vertex 17.58758 6.51372 10
vertex 18.20763 5.71268 10
endloop
endfacet
facet normal -0.848642568671584 -0.5289667197834811 0
outer loop
vertex 1.79237 -5.71268 10
vertex 1.34815 -5 1.70975
vertex 1.34815 -5 0
endloop
endfacet
facet normal -0.8486425686715839 -0.528966719783481 0
outer loop
vertex 1.79237 -5.71268 10
vertex 1.34815 -5 0
vertex 1.79237 -5.71268 0
endloop
endfacet
facet normal -0.848642568671584 -0.528966719783481 0
outer loop
vertex 1.34815 -5 1.70975
vertex 1.79237 -5.71268 10
vertex 1.34815 -5 10
endloop
endfacet
facet normal -0.8486269810585748 -0.5289917267967519 0
outer loop
vertex 1.34815 -5 1.70975
vertex 1.25653 -4.85302 0
vertex 1.34815 -5 0
endloop
endfacet
facet normal -0.8486269810585748 -0.5289917267967518 0
outer loop
vertex 1.34815 -5 1.70975
vertex 1.34815 -5 10
vertex 1.25653 -4.85302 10
endloop
endfacet
facet normal -0.8486269810585747 -0.5289917267967518 0
outer loop
vertex 1.34815 -5 1.70975
vertex 1.25653 -4.85302 10
vertex 1.25653 -4.85302 0
endloop
endfacet
facet normal 0.9987163375223298 -0.0506525139157358 0
outer loop
vertex 20 0 0
vertex 20 0 10
vertex 19.94869 -1.01168 0
endloop
endfacet
facet normal 0.9987163375223298 -0.0506525139157358 0
outer loop
vertex 19.94869 -1.01168 0
vertex 20 0 10
vertex 19.94869 -1.01168 10
endloop
endfacet
facet normal -0.20129609662326392 0.9795304392841692 0
outer loop
vertex 7.49347 9.68077 0
vertex 7.49347 9.68077 10
vertex 8.48572 9.88468 0
endloop
endfacet
facet normal -0.20129609662326392 0.9795304392841692 0
outer loop
vertex 8.48572 9.88468 0
vertex 7.49347 9.68077 10
vertex 8.48572 9.88468 10
endloop
endfacet
facet normal 0.9377538811078928 -0.34730053047336973 0
outer loop
vertex 19.54139 -2.99363 0
vertex 19.54139 -2.99363 10
vertex 19.18958 -3.94356 0
endloop
endfacet
facet normal 0.9377538811078928 -0.34730053047336973 0
outer loop
vertex 19.18958 -3.94356 0
vertex 19.54139 -2.99363 10
vertex 19.18958 -3.94356 10
endloop
endfacet
facet normal -0.5712646246981277 -0.820765940185451 0
outer loop
vertex 4.71036 -8.48644 0
vertex 4.71036 -8.48644 10
vertex 3.87894 -7.90776 0
endloop
endfacet
facet normal -0.5712646246981277 -0.820765940185451 0
outer loop
vertex 3.87894 -7.90776 0
vertex 4.71036 -8.48644 10
vertex 3.87894 -7.90776 10
endloop
endfacet
facet normal -0.29936527420340614 -0.9541385814446032 0
outer loop
vertex 7.49347 -9.68077 0
vertex 7.49347 -9.68077 10
vertex 6.52695 -9.37752 0
endloop
endfacet
facet normal -0.29936527420340614 -0.9541385814446032 0
outer loop
vertex 6.52695 -9.37752 0
vertex 7.49347 -9.68077 10
vertex 6.52695 -9.37752 10
endloop
endfacet
facet normal -0.937753881107893 -0.3473005304733694 0
outer loop
vertex 0.81042 -3.94356 0
vertex 0.81042 -3.94356 10
vertex 0.45861 -2.99363 0
endloop
endfacet
facet normal -0.937753881107893 -0.3473005304733694 0
outer loop
vertex 0.45861 -2.99363 0
vertex 0.81042 -3.94356 10
vertex 0.45861 -2.99363 10
endloop
endfacet
facet normal -0.9884690704933199 0.15142290671517347 0
outer loop
vertex 0.05131 1.01168 0
vertex 0.05131 1.01168 10
vertex 0.2047 2.01299 0
endloop
endfacet
facet normal -0.9884690704933199 0.15142290671517347 0
outer loop
vertex 0.2047 2.01299 0
vertex 0.05131 1.01168 10
vertex 0.2047 2.01299 10
endloop
endfacet
facet normal 0.9680759900255809 -0.2506568920576321 0
outer loop
vertex 19.7953 -2.01299 0
vertex 19.7953 -2.01299 10
vertex 19.54139 -2.99363 0
endloop
endfacet
facet normal 0.9680759900255809 -0.2506568920576321 0
outer loop
vertex 19.54139 -2.99363 0
vertex 19.7953 -2.01299 10
vertex 19.54139 -2.99363 10
endloop
endfacet
facet normal 0.39435055267252506 -0.9189600870586676 0
outer loop
vertex 14.40394 -8.97805 0
vertex 14.40394 -8.97805 10
vertex 13.47305 -9.37752 0
endloop
endfacet
facet normal 0.39435055267252506 -0.9189600870586676 0
outer loop
vertex 13.47305 -9.37752 0
vertex 14.40394 -8.97805 10
vertex 13.47305 -9.37752 10
endloop
endfacet
facet normal -0.10117591739398024 -0.9948685509852477 0
outer loop
vertex 9.49351 -9.98717 0
vertex 9.49351 -9.98717 10
vertex 8.48572 -9.88468 0
endloop
endfacet
facet normal -0.10117591739398024 -0.9948685509852477 0
outer loop
vertex 8.48572 -9.88468 0
vertex 9.49351 -9.98717 10
vertex 8.48572 -9.88468 10
endloop
endfacet
endsolid JSxCAD
