<svg viewBox="-250 -250 500 500" width="500" height="500" xmlns="http://www.w3.org/2000/svg"><path d="M-87.65425304088252,-15.19074517152156L-73.13585251668495,30.4444855170755L-66.86208852992456,20.036447217962063zM-87.65425304088252,-15.19074517152156L-124.05689103731062,-54.07021437821099L-73.13585251668495,30.4444855170755z" style="fill:rgb(234,114,195)"/><path d="M-73.13585251668495,30.4444855170755L-132.98092414885394,-34.77034660377506L-80.61361556853534,49.47467224318825z" style="fill:rgb(242,132,181)"/><path d="M-80.61361556853534,49.47467224318825L-137.76047298262256,-15.419459282394497L-84.14487808821686,68.68226842209825z" style="fill:rgb(246,149,166)"/><path d="M-124.05689103731062,-54.07021437821099L-132.98092414885394,-34.77034660377506L-73.13585251668495,30.4444855170755z" style="fill:rgb(242,132,181)"/><path d="M-116.87982400755256,-64.70618224910137L-124.05689103731062,-54.07021437821099L-87.65425304088252,-15.19074517152156z" style="fill:rgb(234,114,195)"/><path d="M-169.5250022006206,-42.69712295408085L-151.97951108149277,-54.82514041747387L-178.2452432809477,-47.430968152082876zM-169.5250022006206,-42.69712295408085L-178.2452432809477,-47.430968152082876L-180.44886391732976,-35.14616945866975zM-129.03164357683335,-61.28530000864128L-151.97951108149277,-54.82514041747387L-169.5250022006206,-42.69712295408085z" style="fill:rgb(83,212,212)"/><path d="M-84.14487808821686,68.68226842209825L-138.02418956623816,3.395065361887179L-83.423226097898,87.48483934045188z" style="fill:rgb(246,166,149)"/><path d="M-157.71095493929263,-36.283674180652994L-169.5250022006206,-42.69712295408085L-180.44886391732976,-35.14616945866975zM-129.03164357683335,-61.28530000864128L-169.5250022006206,-42.69712295408085L-157.71095493929263,-36.283674180652994z" style="fill:rgb(83,212,212)"/><path d="M-120.7994510639437,105.00286823944316L-135.1796977171501,128.79788681179716L-108.480185334933,122.56734376229812z" style="fill:rgb(127,37,217)"/><path d="M-119.47702073532031,-63.975063500276484L-129.03164357683335,-61.28530000864128L-157.71095493929263,-36.283674180652994zM-116.87982400755256,-64.70618224910137L-119.47702073532031,-63.975063500276484L-124.05689103731062,-54.07021437821099z" style="fill:rgb(83,212,212)"/><path d="M-132.98092414885394,-34.77034660377506L-137.76047298262256,-15.419459282394497L-80.61361556853534,49.47467224318825z" style="fill:rgb(246,149,166)"/><path d="M-157.71095493929263,-36.283674180652994L-180.44886391732976,-35.14616945866975L-184.42173647489727,-12.998174879807314zM-119.47702073532031,-63.975063500276484L-157.71095493929263,-36.283674180652994L-137.38359987852783,-25.24867902980577z" style="fill:rgb(83,212,212)"/><path d="M-102.22366963444418,74.26543775704798L-108.480185334933,122.56734376229812L-75.43828902192594,114.85679598877483z" style="fill:rgb(127,37,217)"/><path d="M-102.89845424728178,68.39697791303898L-72.79778718597723,114.24058350134136L-78.24133222276181,105.24820612521991z" style="fill:rgb(234,195,114)"/><path d="M-83.423226097898,87.48483934045188L-133.4960395917703,21.031445147056L-78.24133222276181,105.24820612521991z" style="fill:rgb(242,181,132)"/><path d="M-75.43828902192594,114.85679598877483L-75.24988597937399,114.81285001367601L-102.11518831103994,74.08594906714742zM-102.22366963444418,74.26543775704798L-120.7994510639437,105.00286823944316L-108.480185334933,122.56734376229812zM-75.24988597937399,114.81285001367601L-72.79778718597723,114.24058350134136L-100.70035392401783,71.74474232063262z" style="fill:rgb(127,37,217)"/><path d="M-70.3381730617267,14.92293929563579L-56.12528268480909,-121.08286635299524L-76.95061581042106,-106.68771704591424zM-107.10262130761303,24.4152462082255L-76.95061581042106,-106.68771704591424L-95.55495117520249,-90.4690715096125z" style="fill:rgb(83,212,212)"/><path d="M-137.76047298262256,-15.419459282394497L-138.02418956623816,3.395065361887179L-84.14487808821686,68.68226842209825z" style="fill:rgb(246,166,149)"/><path d="M-45.80155183811509,8.587821475830392L-33.60706451717486,-133.33049088852925L-56.12528268480909,-121.08286635299524zM-19.09790742639847,1.6931511706792977L-9.939429398488,-143.1416886823996L-33.60706451717486,-133.33049088852925zM-110.03050200513277,25.171166990070194L-95.55495117520249,-90.4690715096125L-111.42333298111086,-72.79230384040086z" style="fill:rgb(83,212,212)"/><path d="M-120.7994510639437,105.00286823944316L-195.21362409384415,47.16475607662721L-135.1796977171501,128.79788681179716z" style="fill:rgb(127,37,217)"/><path d="M-132.98092414885394,-34.77034660377506L-137.38359987852783,-25.24867902980577L-135.57520193288275,-24.26693294625962zM8.92529009286861,-5.542184509577314L14.314683182527203,-150.2599284472823L-9.939429398488,-143.1416886823996zM-124.03674282676465,28.787470710668064L-111.42333298111086,-72.79230384040086L-124.05689103731062,-54.07021437821099z" style="fill:rgb(83,212,212)"/><path d="M-75.43828902192594,114.85679598877483L-102.11518831103994,74.08594906714742L-102.22366963444418,74.26543775704798zM-75.24988597937399,114.81285001367601L-100.70035392401783,71.74474232063262L-102.11518831103994,74.08594906714742z" style="fill:rgb(127,37,217)"/><path d="M-137.76047298262256,-15.419459282394497L-137.38359987852783,-25.24867902980577L-137.63019673254325,-24.715399016254846zM16.608197759141536,-7.525856078045709L38.56688653799793,-154.46102672592605L14.314683182527203,-150.2599284472823zM-137.76047298262256,-15.419459282394497L-135.57520193288275,-24.26693294625962L-137.38359987852783,-25.24867902980577zM-167.34740829388716,39.553886297042666L-157.71095493929263,-36.283674180652994L-184.42173647489727,-12.998174879807314zM-133.4960395917703,21.031445147056L-124.05689103731062,-54.07021437821099L-132.98092414885394,-34.77034660377506z" style="fill:rgb(83,212,212)"/><path d="M-138.02418956623816,3.395065361887179L-133.4960395917703,21.031445147056L-83.423226097898,87.48483934045188z" style="fill:rgb(242,181,132)"/><path d="M-167.34740829388716,39.553886297042666L-137.38359987852783,-25.24867902980577L-157.71095493929263,-36.283674180652994z" style="fill:rgb(83,212,212)"/><path d="M179.75882712328107,-15.657067058143292L147.33504602486818,-111.8634788573305L185.4938890261544,2.479531302579231z" style="fill:rgb(246,166,149)"/><path d="M-132.98092414885394,-34.77034660377506L-137.76047298262256,-15.419459282394497L-138.02418956623816,3.395065361887179zM-137.63019673254325,-24.715399016254846L-142.52408219905016,-14.13136585262392L-138.02418956623816,3.395065361887179zM65.17014900770486,-20.06413092281312L62.198009462369335,-155.5570339510622L38.56688653799793,-154.46102672592605z" style="fill:rgb(83,212,212)"/><path d="M-128.2000189672317,29.86238419847752L-102.89845424728178,68.39697791303898L-78.24133222276181,105.24820612521991z" style="fill:rgb(234,195,114)"/><path d="M-131.0403829674897,30.59578038635719L-120.7994510639437,105.00286823944316L-102.22366963444418,74.26543775704798z" style="fill:rgb(127,37,217)"/><path d="M-167.34740829388716,39.553886297042666L-184.42173647489727,-12.998174879807314L-192.63721309420637,32.80172337758517zM-138.02418956623816,3.395065361887179L-133.4960395917703,21.031445147056L-132.98092414885394,-34.77034660377506zM-142.52408219905016,-14.13136585262392L-147.77425209258595,-2.7769241420286894L-133.4960395917703,21.031445147056z" style="fill:rgb(83,212,212)"/><path d="M-54.364628539709244,134.95919722041845L-109.67714238390283,50.02838459647641L-68.52400304830367,121.30078798340352z" style="fill:rgb(31,48,157)"/><path d="M-128.2000189672317,29.86238419847752L-78.24133222276181,105.24820612521991L-133.4960395917703,21.031445147056z" style="fill:rgb(234,195,114)"/><path d="M91.41322548076919,-26.83991431404464L84.55563480295766,-153.40459930132457L62.198009462369335,-155.5570339510622z" style="fill:rgb(83,212,212)"/><path d="M-120.7994510639437,105.00286823944316L-166.5551381590914,39.76535955211726L-195.21362409384415,47.16475607662721z" style="fill:rgb(127,37,217)"/><path d="M-107.10262130761303,24.4152462082255L-104.17029347500096,23.658125106155744L-76.95061581042106,-106.68771704591424z" style="fill:rgb(83,212,212)"/><path d="M185.4938890261544,2.479531302579231L152.93437135481582,-94.02566552399476L186.45056184084365,22.516879256746453z" style="fill:rgb(246,149,166)"/><path d="M-104.17029347500096,23.658125106155744L-87.32651127181896,19.30923062234436L-76.95061581042106,-106.68771704591424zM-110.03050200513277,25.171166990070194L-107.10262130761303,24.4152462082255L-95.55495117520249,-90.4690715096125zM-133.4960395917703,21.031445147056L-124.03674282676465,28.787470710668064L-124.05689103731062,-54.07021437821099zM-124.03674282676465,28.787470710668064L-123.08361737207296,28.541392612808853L-111.42333298111086,-72.79230384040086z" style="fill:rgb(83,212,212)"/><path d="M-130.8378055275236,30.543486196784755L-102.22366963444418,74.26543775704798L-102.11518831103994,74.08594906714742z" style="fill:rgb(127,37,217)"/><path d="M-123.08361737207296,28.541392612808853L-110.03050200513277,25.171166990070194L-111.42333298111086,-72.79230384040086z" style="fill:rgb(83,212,212)"/><path d="M-130.8378055275236,30.543486196784755L-102.11518831103994,74.08594906714742L-100.70035392401783,71.74474232063262zM-131.0403829674897,30.59578038635719L-166.5551381590914,39.76535955211726L-120.7994510639437,105.00286823944316z" style="fill:rgb(127,37,217)"/><path d="M-87.32651127181896,19.30923062234436L-70.3381730617267,14.92293929563579L-76.95061581042106,-106.68771704591424zM-70.3381730617267,14.92293929563579L-64.32744229027924,13.371052204014411L-56.12528268480909,-121.08286635299524zM-64.32744229027924,13.371052204014411L-45.80155183811509,8.587821475830392L-56.12528268480909,-121.08286635299524zM-45.80155183811509,8.587821475830392L-38.79402524022413,6.7785574840113645L-33.60706451717486,-133.33049088852925zM115.09241444032371,-32.95364151174243L104.95534282355631,-147.9182248746504L84.55563480295766,-153.40459930132457zM-38.79402524022413,6.7785574840113645L-19.09790742639847,1.6931511706792977L-33.60706451717486,-133.33049088852925zM-192.63721309420637,32.80172337758517L-195.21362409384415,47.16475607662721L-166.5551381590914,39.76535955211726zM-131.0403829674897,30.59578038635719L-133.4960395917703,21.031445147056L-147.77425209258595,-2.7769241420286894zM-19.09790742639847,1.6931511706792977L-11.520910919484672,-0.2631749415373054L-9.939429398488,-143.1416886823996zM-131.0403829674897,30.59578038635719L-147.77425209258595,-2.7769241420286894L-167.34740829388716,39.553886297042666z" style="fill:rgb(83,212,212)"/><path d="M-36.0576592012577,145.56475315997858L-90.67935843121398,60.02355416022462L-54.364628539709244,134.95919722041845z" style="fill:rgb(46,40,173)"/><path d="M-11.520910919484672,-0.2631749415373054L8.92529009286861,-5.542184509577314L-9.939429398488,-143.1416886823996z" style="fill:rgb(83,212,212)"/><path d="M-130.8378055275236,30.543486196784755L-131.0403829674897,30.59578038635719L-102.22366963444418,74.26543775704798z" style="fill:rgb(127,37,217)"/><path d="M185.4938890261544,2.479531302579231L147.33504602486818,-111.8634788573305L152.93437135481582,-94.02566552399476z" style="fill:rgb(246,166,149)"/><path d="M-130.8378055275236,30.543486196784755L-100.70035392401783,71.74474232063262L-128.2000189672317,29.86238419847752z" style="fill:rgb(127,37,217)"/><path d="M186.45056184084365,22.516879256746453L153.33922753019834,-73.99465440021014L182.3313816950318,43.76769029870383z" style="fill:rgb(242,132,181)"/><path d="M-68.52400304830367,121.30078798340352L-109.67714238390283,50.02838459647641L-124.03480963689042,36.80772489646491z" style="fill:rgb(31,48,157)"/><path d="M8.92529009286861,-5.542184509577314L16.608197759141536,-7.525856078045709L14.314683182527203,-150.2599284472823z" style="fill:rgb(83,212,212)"/><path d="M162.7212179651602,16.37029346637363L173.05428953639878,65.41590645031195L177.1239116663732,55.91941250322992z" style="fill:rgb(234,114,195)"/><path d="M135.2946291830762,-38.16970730750701L122.6896141836132,-139.0879254470811L104.95534282355631,-147.9182248746504zM16.608197759141536,-7.525856078045709L24.320346090236082,-9.517057552484847L38.56688653799793,-154.46102672592605zM-131.0403829674897,30.59578038635719L-167.34740829388716,39.553886297042666L-166.5551381590914,39.76535955211726zM24.320346090236082,-9.517057552484847L44.643278899784534,-14.764303297641728L38.56688653799793,-154.46102672592605zM-130.8378055275236,30.543486196784755L-133.4960395917703,21.031445147056L-131.12074581540006,30.282860249714368zM-130.8378055275236,30.543486196784755L-128.2000189672317,29.86238419847752L-133.4960395917703,21.031445147056zM-133.4960395917703,21.031445147056L-128.2000189672317,29.86238419847752L-124.03674282676465,28.787470710668064zM44.643278899784534,-14.764303297641728L65.17014900770486,-20.06413092281312L38.56688653799793,-154.46102672592605zM-130.8378055275236,30.543486196784755L-131.12074581540006,30.282860249714368L-131.0403829674897,30.59578038635719z" style="fill:rgb(83,212,212)"/><path d="M-14.12201016265968,152.53031480399468L-67.55012478224072,66.1988853307796L-36.0576592012577,145.56475315997858z" style="fill:rgb(64,34,187)"/><path d="M122.6896141836132,-139.0879254470811L148.2239244908791,-52.44058957318992L137.04575652559123,-127.00066916377997z" style="fill:rgb(83,212,212)"/><path d="M148.2239244908791,-52.44058957318992L177.1239116663732,55.91941250322992L182.3313816950318,43.76769029870383z" style="fill:rgb(234,114,195)"/><path d="M-128.2000189672317,29.86238419847752L-124.03480963689042,36.80772489646491L-124.03674282676465,28.787470710668064zM-124.03674282676465,28.787470710668064L-124.03480963689042,36.80772489646491L-123.08361737207296,28.541392612808853z" style="fill:rgb(83,212,212)"/><path d="M186.45056184084365,22.516879256746453L152.93437135481582,-94.02566552399476L153.33922753019834,-73.99465440021014z" style="fill:rgb(246,149,166)"/><path d="M65.17014900770486,-20.06413092281312L71.59789985407829,-21.723760232612L62.198009462369335,-155.5570339510622zM71.59789985407829,-21.723760232612L91.41322548076919,-26.83991431404464L62.198009462369335,-155.5570339510622z" style="fill:rgb(83,212,212)"/><path d="M-54.364628539709244,134.95919722041845L-90.67935843121398,60.02355416022462L-109.67714238390283,50.02838459647641z" style="fill:rgb(46,40,173)"/><path d="M137.04575652559123,-127.00066916377997L153.33922753019834,-73.99465440021014L147.33504602486818,-111.8634788573305zM-123.08361737207296,28.541392612808853L-109.67714238390283,50.02838459647641L-110.03050200513277,25.171166990070194zM-110.03050200513277,25.171166990070194L-109.67714238390283,50.02838459647641L-107.10262130761303,24.4152462082255zM-123.08361737207296,28.541392612808853L-124.03480963689042,36.80772489646491L-109.67714238390283,50.02838459647641zM91.41322548076919,-26.83991431404464L96.4863167981045,-28.1497318474211L84.55563480295766,-153.40459930132457z" style="fill:rgb(83,212,212)"/><path d="M10.692850692060917,155.39276878826772L-41.06396479690406,68.09356449000222L-14.12201016265968,152.53031480399468z" style="fill:rgb(84,32,200)"/><path d="M-107.10262130761303,24.4152462082255L-109.67714238390283,50.02838459647641L-104.17029347500096,23.658125106155744zM96.4863167981045,-28.1497318474211L115.09241444032371,-32.95364151174243L84.55563480295766,-153.40459930132457z" style="fill:rgb(83,212,212)"/><path d="M148.2239244908791,-52.44058957318992L162.7212179651602,16.37029346637363L177.1239116663732,55.91941250322992z" style="fill:rgb(234,114,195)"/><path d="M173.05428953639878,65.41590645031195L137.5021751722306,-30.184198744981213L158.79460593490765,86.55278902702348z" style="fill:rgb(223,97,206)"/><path d="M147.33504602486818,-111.8634788573305L153.33922753019834,-73.99465440021014L152.93437135481582,-94.02566552399476zM-104.17029347500096,23.658125106155744L-90.67935843121398,60.02355416022462L-87.32651127181896,19.30923062234436z" style="fill:rgb(83,212,212)"/><path d="M182.3313816950318,43.76769029870383L153.33922753019834,-73.99465440021014L148.2239244908791,-52.44058957318992z" style="fill:rgb(242,132,181)"/><path d="M115.09241444032371,-32.95364151174243L118.36498388321456,-33.798611459203656L104.95534282355631,-147.9182248746504z" style="fill:rgb(83,212,212)"/><path d="M162.7212179651602,16.37029346637363L137.5021751722306,-30.184198744981213L173.05428953639878,65.41590645031195z" style="fill:rgb(234,114,195)"/><path d="M118.36498388321456,-33.798611459203656L135.2946291830762,-38.16970730750701L104.95534282355631,-147.9182248746504z" style="fill:rgb(83,212,212)"/><path d="M-36.0576592012577,145.56475315997858L-67.55012478224072,66.1988853307796L-90.67935843121398,60.02355416022462z" style="fill:rgb(64,34,187)"/><path d="M37.424893156484906,153.8660262381557L-12.248137299375806,65.43789033795112L10.692850692060917,155.39276878826772z" style="fill:rgb(105,33,210)"/><path d="M137.04575652559123,-127.00066916377997L148.2239244908791,-52.44058957318992L153.33922753019834,-73.99465440021014z" style="fill:rgb(83,212,212)"/><path d="M158.79460593490765,86.55278902702348L121.37721767719432,-8.163609660146168L140.00802228306597,106.23011336618303z" style="fill:rgb(208,81,214)"/><path d="M-104.17029347500096,23.658125106155744L-109.67714238390283,50.02838459647641L-90.67935843121398,60.02355416022462zM136.37798165376984,-38.449404457133554L148.2239244908791,-52.44058957318992L122.6896141836132,-139.0879254470811zM-87.32651127181896,19.30923062234436L-67.55012478224072,66.1988853307796L-70.3381730617267,14.92293929563579zM135.2946291830762,-38.16970730750701L136.37798165376984,-38.449404457133554L122.6896141836132,-139.0879254470811zM-70.3381730617267,14.92293929563579L-67.55012478224072,66.1988853307796L-64.32744229027924,13.371052204014411z" style="fill:rgb(83,212,212)"/><path d="M64.94392315137105,147.884595960771L17.664318471542142,58.200519884179634L37.424893156484906,153.8660262381557z" style="fill:rgb(127,37,217)"/><path d="M140.00802228306597,106.23011336618303L100.36975584084274,12.620841983569624L117.42663039733584,123.52829969814488z" style="fill:rgb(190,67,220)"/><path d="M92.02279594717011,137.62931030468232L47.313109755710464,46.61531408029702L64.94392315137105,147.884595960771z" style="fill:rgb(149,44,221)"/><path d="M117.42663039733584,123.52829969814488L75.31360607936186,31.179542332370264L92.02279594717011,137.62931030468232z" style="fill:rgb(170,54,222)"/><path d="M-64.32744229027924,13.371052204014411L-41.06396479690406,68.09356449000222L-45.80155183811509,8.587821475830392z" style="fill:rgb(83,212,212)"/><path d="M-14.12201016265968,152.53031480399468L-41.06396479690406,68.09356449000222L-67.55012478224072,66.1988853307796z" style="fill:rgb(84,32,200)"/><path d="M-45.80155183811509,8.587821475830392L-41.06396479690406,68.09356449000222L-38.79402524022413,6.7785574840113645zM-87.32651127181896,19.30923062234436L-90.67935843121398,60.02355416022462L-67.55012478224072,66.1988853307796z" style="fill:rgb(83,212,212)"/><path d="M162.7212179651602,16.37029346637363L148.2239244908791,-52.44058957318992L142.2091773278341,-39.95502481185756z" style="fill:rgb(234,114,195)"/><path d="M-38.79402524022413,6.7785574840113645L-12.248137299375806,65.43789033795112L-19.09790742639847,1.6931511706792977zM-19.09790742639847,1.6931511706792977L-12.248137299375806,65.43789033795112L-11.520910919484672,-0.2631749415373054z" style="fill:rgb(83,212,212)"/><path d="M158.79460593490765,86.55278902702348L137.5021751722306,-30.184198744981213L121.37721767719432,-8.163609660146168z" style="fill:rgb(223,97,206)"/><path d="M162.7212179651602,16.37029346637363L142.2091773278341,-39.95502481185756L137.5021751722306,-30.184198744981213z" style="fill:rgb(234,114,195)"/><path d="M10.692850692060917,155.39276878826772L-12.248137299375806,65.43789033795112L-41.06396479690406,68.09356449000222z" style="fill:rgb(105,33,210)"/><path d="M-64.32744229027924,13.371052204014411L-67.55012478224072,66.1988853307796L-41.06396479690406,68.09356449000222zM-11.520910919484672,-0.2631749415373054L17.664318471542142,58.200519884179634L8.92529009286861,-5.542184509577314zM8.92529009286861,-5.542184509577314L17.664318471542142,58.200519884179634L16.608197759141536,-7.525856078045709zM16.608197759141536,-7.525856078045709L17.664318471542142,58.200519884179634L24.320346090236082,-9.517057552484847zM24.320346090236082,-9.517057552484847L47.313109755710464,46.61531408029702L44.643278899784534,-14.764303297641728z" style="fill:rgb(83,212,212)"/><path d="M140.00802228306597,106.23011336618303L121.37721767719432,-8.163609660146168L100.36975584084274,12.620841983569624z" style="fill:rgb(208,81,214)"/><path d="M37.424893156484906,153.8660262381557L17.664318471542142,58.200519884179634L-12.248137299375806,65.43789033795112z" style="fill:rgb(127,37,217)"/><path d="M136.37798165376984,-38.449404457133554L142.2091773278341,-39.95502481185756L148.2239244908791,-52.44058957318992zM44.643278899784534,-14.764303297641728L75.31360607936186,31.179542332370264L65.17014900770486,-20.06413092281312zM-38.79402524022413,6.7785574840113645L-41.06396479690406,68.09356449000222L-12.248137299375806,65.43789033795112zM65.17014900770486,-20.06413092281312L75.31360607936186,31.179542332370264L71.59789985407829,-21.723760232612zM118.36498388321456,-33.798611459203656L137.5021751722306,-30.184198744981213L135.2946291830762,-38.16970730750701zM71.59789985407829,-21.723760232612L100.36975584084274,12.620841983569624L91.41322548076919,-26.83991431404464zM96.4863167981045,-28.1497318474211L121.37721767719432,-8.163609660146168L115.09241444032371,-32.95364151174243z" style="fill:rgb(83,212,212)"/><path d="M117.42663039733584,123.52829969814488L100.36975584084274,12.620841983569624L75.31360607936186,31.179542332370264z" style="fill:rgb(190,67,220)"/><path d="M135.2946291830762,-38.16970730750701L137.5021751722306,-30.184198744981213L136.37798165376984,-38.449404457133554z" style="fill:rgb(83,212,212)"/><path d="M64.94392315137105,147.884595960771L47.313109755710464,46.61531408029702L17.664318471542142,58.200519884179634z" style="fill:rgb(149,44,221)"/><path d="M136.37798165376984,-38.449404457133554L137.5021751722306,-30.184198744981213L142.2091773278341,-39.95502481185756zM91.41322548076919,-26.83991431404464L100.36975584084274,12.620841983569624L96.4863167981045,-28.1497318474211zM115.09241444032371,-32.95364151174243L121.37721767719432,-8.163609660146168L118.36498388321456,-33.798611459203656z" style="fill:rgb(83,212,212)"/><path d="M92.02279594717011,137.62931030468232L75.31360607936186,31.179542332370264L47.313109755710464,46.61531408029702z" style="fill:rgb(170,54,222)"/><path d="M-11.520910919484672,-0.2631749415373054L-12.248137299375806,65.43789033795112L17.664318471542142,58.200519884179634zM118.36498388321456,-33.798611459203656L121.37721767719432,-8.163609660146168L137.5021751722306,-30.184198744981213zM96.4863167981045,-28.1497318474211L100.36975584084274,12.620841983569624L121.37721767719432,-8.163609660146168zM24.320346090236082,-9.517057552484847L17.664318471542142,58.200519884179634L47.313109755710464,46.61531408029702zM44.643278899784534,-14.764303297641728L47.313109755710464,46.61531408029702L75.31360607936186,31.179542332370264zM71.59789985407829,-21.723760232612L75.31360607936186,31.179542332370264L100.36975584084274,12.620841983569624z" style="fill:rgb(83,212,212)"/></svg>