<?xml version="1.0" encoding="UTF-8"?>
<!-- Generated by jsxcad -->
<!DOCTYPE svg PUBLIC "-//W3C//DTD SVG 1.1 Tiny//EN" "http://www.w3.org/Graphics/SVG/1.1/DTD/svg11-tiny.dtd">
<svg baseProfile="tiny" height="52 mm" width="43.9886 mm" viewBox="0 0 43.9886 52" version="1.1" stroke="black" stroke-width=".1" fill="none" xmlns="http://www.w3.org/2000/svg">
<path d="M21.85931 0 L21.9943 0 L31.20185 0 L31.59808 0 L31.9943 0 L31.9943 0.82799 L31.9943 1.52935 L31.9943 9.11181 L31.9943 9.49484 L31.9943 9.51809 L31.9943 9.97831 L31.9943 9.97913 L31.9943 10 L31.9943 10.35934 L31.9943 10.42338 L31.9943 10.42611 L32.27603 10.56405 L32.55775 10.70198 L33.4133 11.22225 L34.26885 11.74252 L35.07354 12.33844 L35.87823 12.93435 L36.6254 13.60097 L37.37257 14.26759 L38.05603 14.99939 L38.73948 15.73119 L39.35356 16.52211 L39.96764 17.31303 L40.50725 18.15652 L41.04686 19 L41.50753 19.88906 L41.9682 20.77812 L42.34612 21.70538 L42.72404 22.63265 L43.01607 23.59044 L43.3081 24.54823 L43.51183 25.52861 L43.71555 26.50898 L43.82928 27.50383 L43.94301 28.49867 L43.96581 29.49973 L43.9886 30.50079 L43.92027 31.49978 L43.85193 32.49876 L43.69304 33.4874 L43.53415 34.47603 L43.28601 35.44612 L43.03788 36.41621 L42.70256 37.35972 L42.36724 38.30322 L41.94751 39.21233 L41.52777 40.12143 L41.02711 40.9886 L40.52645 41.85577 L39.94901 42.67382 L39.37157 43.49187 L38.72213 44.25402 L38.07269 45.01617 L37.35664 45.71611 L36.64058 46.41604 L35.86385 47.04796 L35.08711 47.67988 L34.25613 48.23856 L33.42515 48.79723 L32.54681 49.27802 L31.9943 49.58045 L31.83138 49.66963 L31.66846 49.75881 L30.75004 50.15774 L29.83162 50.55666 L28.88072 50.87042 L27.92983 51.18418 L26.95434 51.41017 L25.97886 51.63616 L24.98686 51.7725 L23.99487 51.90885 L22.99458 51.95443 L21.9943 52 L20.99402 51.95443 L19.99373 51.90885 L19.00174 51.7725 L18.00974 51.63616 L17.03426 51.41017 L16.05877 51.18418 L15.10788 50.87042 L14.15698 50.55666 L13.23856 50.15774 L12.32014 49.75881 L12.12012 49.64932 L11.9943 49.58045 L11.44179 49.27802 L11.27888 49.18884 L10.56345 48.79723 L9.73247 48.23856 L8.90149 47.67988 L8.12475 47.04796 L7.34802 46.41604 L6.63196 45.71611 L5.91591 45.01617 L5.26647 44.25402 L4.61703 43.49187 L4.03959 42.67382 L3.46215 41.85577 L2.96149 40.9886 L2.46083 40.12143 L2.04109 39.21233 L1.62136 38.30322 L1.28604 37.35972 L0.95072 36.41621 L0.70259 35.44612 L0.45445 34.47603 L0.29556 33.4874 L0.13667 32.49876 L0.06833 31.49978 L0 30.50079 L0.02279 29.49973 L0.04559 28.49867 L0.15932 27.50383 L0.27305 26.50898 L0.47677 25.52861 L0.6805 24.54823 L0.97253 23.59044 L1.26456 22.63265 L1.64248 21.70538 L2.0204 20.77812 L2.48107 19.88906 L2.94174 19 L3.48135 18.15652 L4.02096 17.31303 L4.63504 16.52211 L5.24912 15.73119 L5.93257 14.99939 L6.61603 14.26759 L7.3632 13.60097 L8.11037 12.93435 L8.91506 12.33844 L9.71975 11.74252 L10.5753 11.22225 L11.43085 10.70198 L11.84109 10.50112 L11.9943 10.42611 L11.9943 10.36166 L11.9943 10.35934 L11.9943 10.29417 L11.9943 10.29227 L11.9943 10 L11.9943 9.49484 L11.9943 9.46357 L11.9943 8.8445 L11.9943 8.80973 L11.9943 8.50887 L11.9943 6.60783 L11.9943 5.8116 L11.9943 4.09602 L11.9943 0 L15.96766 0 L19.94103 0 z"/>
</svg>