<?xml version="1.0" encoding="UTF-8"?>
<!-- Generated by jsxcad -->
<!DOCTYPE svg PUBLIC "-//W3C//DTD SVG 1.1 Tiny//EN" "http://www.w3.org/Graphics/SVG/1.1/DTD/svg11-tiny.dtd">
<svg baseProfile="tiny" height="10 mm" width="25 mm" viewBox="0 0 25 10" version="1.1" stroke="black" stroke-width=".1" fill="none" xmlns="http://www.w3.org/2000/svg">
<path d="M0 0 L5 0 L10 0 L24.42091 0 L24.94652 0 L24.94688 0 L24.94795 0 L24.94901 0 L24.95007 0 L24.95112 0 L24.95218 0 L24.95323 0 L24.95428 0 L24.95533 0 L24.95637 0 L24.95742 0 L24.95846 0 L24.9595 0 L24.96053 0 L24.96157 0 L24.9626 0 L24.96363 0 L24.96466 0 L24.96569 0 L24.96672 0 L24.96774 0 L24.96877 0 L24.96979 0 L24.97081 0 L24.97183 0 L24.97284 0 L24.97386 0 L24.97487 0 L24.97589 0 L24.9769 0 L24.97791 0 L24.97892 0 L24.97993 0 L24.98094 0 L24.98195 0 L24.98296 0 L24.98396 0 L24.98497 0 L24.98597 0 L24.98698 0 L24.98798 0 L24.98898 0 L24.98999 0 L24.99099 0 L24.99199 0 L24.99299 0 L24.99399 0 L24.99499 0 L24.996 0 L24.997 0 L24.998 0 L24.999 0 L25 0 L25 10 L24.9985 10 L24.997 10 L24.9955 10 L24.99399 10 L24.99249 10 L24.99099 10 L24.98949 10 L24.98799 10 L24.98649 10 L24.98498 10 L24.98348 10 L24.98197 10 L24.98047 10 L24.97896 10 L24.97746 10 L24.97595 10 L24.97444 10 L24.97293 10 L24.97142 10 L24.96991 10 L24.9684 10 L24.96688 10 L24.96537 10 L24.96385 10 L24.96233 10 L24.96081 10 L24.95929 10 L24.95777 10 L24.95624 10 L24.95471 10 L24.95318 10 L24.95165 10 L24.95012 10 L24.94858 10 L24.94704 10 L24.9455 10 L24.94395 10 L24.94241 10 L24.94086 10 L24.9393 10 L24.93775 10 L24.93619 10 L24.93463 10 L24.93306 10 L24.9315 10 L24.92993 10 L24.92835 10 L24.92677 10 L24.92519 10 L24.92361 10 L24.92202 10 L24.92042 10 L24.91883 10 L24.91722 10 L24.91562 10 L24.91401 10 L24.91239 10 L24.91078 10 L24.90915 10 L24.90752 10 L24.90589 10 L24.90425 10 L24.90261 10 L24.90096 10 L24.89931 10 L24.89765 10 L24.89599 10 L24.89432 10 L24.89265 10 L24.89096 10 L24.88928 10 L24.88759 10 L24.88589 10 L24.88418 10 L24.88247 10 L24.88075 10 L24.87903 10 L24.8773 10 L24.87556 10 L24.87382 10 L24.87207 10 L24.87031 10 L24.86854 10 L24.86677 10 L24.86499 10 L24.8632 10 L24.8614 10 L24.85959 10 L24.85778 10 L24.85596 10 L24.85413 10 L24.85229 10 L24.85044 10 L24.84859 10 L24.84672 10 L24.84485 10 L24.84296 10 L24.84107 10 L24.83916 10 L24.83725 10 L24.83533 10 L24.83339 10 L24.83145 10 L24.82949 10 L24.82753 10 L24.82555 10 L24.82356 10 L24.82156 10 L24.81955 10 L24.81753 10 L24.81549 10 L24.81344 10 L24.81138 10 L24.80931 10 L24.80722 10 L24.80513 10 L24.80301 10 L24.80089 10 L24.79875 10 L24.7966 10 L24.79443 10 L24.79224 10 L24.79005 10 L24.78783 10 L24.78561 10 L24.78336 10 L24.7811 10 L24.77883 10 L24.77654 10 L24.77423 10 L24.7719 10 L24.76956 10 L24.7672 10 L24.76482 10 L24.76242 10 L24.76 10 L24.75757 10 L24.75511 10 L24.75264 10 L24.75014 10 L24.74763 10 L24.74509 10 L24.74254 10 L24.73996 10 L24.73736 10 L24.73473 10 L24.73209 10 L24.72942 10 L24.72672 10 L24.72401 10 L24.72126 10 L24.7185 10 L24.7157 10 L24.71288 10 L24.71004 10 L24.70716 10 L24.70426 10 L24.70133 10 L24.69838 10 L24.69539 10 L24.69237 10 L24.68932 10 L24.68624 10 L24.68313 10 L24.67999 10 L24.67681 10 L24.6736 10 L24.67035 10 L24.66707 10 L24.66375 10 L24.6604 10 L24.65701 10 L24.65358 10 L24.65011 10 L24.6466 10 L24.64305 10 L24.63945 10 L24.63582 10 L24.63214 10 L24.62841 10 L24.62464 10 L24.62082 10 L24.61696 10 L24.61304 10 L24.60908 10 L24.60506 10 L24.60099 10 L24.59687 10 L24.59269 10 L24.58846 10 L24.58417 10 L24.57982 10 L24.5754 10 L24.57093 10 L24.56639 10 L24.56179 10 L24.55712 10 L24.55238 10 L24.54757 10 L24.54269 10 L24.53773 10 L24.5327 10 L24.52758 10 L24.52239 10 L24.51712 10 L24.51176 10 L24.50631 10 L24.50078 10 L24.49515 10 L24.49325 10 L10 10 L5 10 L0 10 L0 5 z"/>
</svg>