<?xml version="1.0" encoding="UTF-8"?>
<!-- Generated by jsxcad -->
<!DOCTYPE svg PUBLIC "-//W3C//DTD SVG 1.1 Tiny//EN" "http://www.w3.org/Graphics/SVG/1.1/DTD/svg11-tiny.dtd">
<svg baseProfile="tiny" height="10 mm" width="26 mm" viewBox="0 0 26 10" version="1.1" stroke="black" stroke-width=".1" fill="none" xmlns="http://www.w3.org/2000/svg">
<path d="M0 0 L5 0 L10 0 L25.38191 0 L25.95194 0 L25.95273 0 L25.95369 0 L25.95464 0 L25.9556 0 L25.95655 0 L25.9575 0 L25.95845 0 L25.95939 0 L25.96034 0 L25.96128 0 L25.96223 0 L25.96317 0 L25.96411 0 L25.96504 0 L25.96598 0 L25.96692 0 L25.96785 0 L25.96878 0 L25.96971 0 L25.97064 0 L25.97157 0 L25.9725 0 L25.97342 0 L25.97435 0 L25.97527 0 L25.9762 0 L25.97712 0 L25.97804 0 L25.97896 0 L25.97988 0 L25.9808 0 L25.98172 0 L25.98264 0 L25.98356 0 L25.98447 0 L25.98539 0 L25.9863 0 L25.98722 0 L25.98813 0 L25.98905 0 L25.98996 0 L25.99088 0 L25.99179 0 L25.9927 0 L25.99361 0 L25.99453 0 L25.99544 0 L25.99635 0 L25.99726 0 L25.99818 0 L25.99909 0 L26 0 L26 10 L25.99863 10 L25.99726 10 L25.9959 10 L25.99453 10 L25.99316 10 L25.99179 10 L25.99042 10 L25.98905 10 L25.98769 10 L25.98632 10 L25.98495 10 L25.98358 10 L25.98221 10 L25.98083 10 L25.97946 10 L25.97809 10 L25.97672 10 L25.97534 10 L25.97397 10 L25.97259 10 L25.97122 10 L25.96984 10 L25.96846 10 L25.96708 10 L25.9657 10 L25.96432 10 L25.96293 10 L25.96155 10 L25.96016 10 L25.95877 10 L25.95738 10 L25.95599 10 L25.9546 10 L25.9532 10 L25.95181 10 L25.95041 10 L25.94901 10 L25.94761 10 L25.9462 10 L25.94479 10 L25.94339 10 L25.94198 10 L25.94056 10 L25.93915 10 L25.93773 10 L25.93631 10 L25.93488 10 L25.93346 10 L25.93203 10 L25.9306 10 L25.92917 10 L25.92773 10 L25.92629 10 L25.92485 10 L25.9234 10 L25.92195 10 L25.9205 10 L25.91904 10 L25.91758 10 L25.91612 10 L25.91465 10 L25.91318 10 L25.91171 10 L25.91023 10 L25.90875 10 L25.90727 10 L25.90578 10 L25.90428 10 L25.90279 10 L25.90129 10 L25.89978 10 L25.89827 10 L25.89675 10 L25.89524 10 L25.89371 10 L25.89218 10 L25.89065 10 L25.88911 10 L25.88757 10 L25.88602 10 L25.88447 10 L25.88291 10 L25.88134 10 L25.87977 10 L25.8782 10 L25.87662 10 L25.87503 10 L25.87344 10 L25.87184 10 L25.87024 10 L25.86863 10 L25.86701 10 L25.86539 10 L25.86376 10 L25.86212 10 L25.86048 10 L25.85883 10 L25.85717 10 L25.85551 10 L25.85384 10 L25.85216 10 L25.85048 10 L25.84879 10 L25.84709 10 L25.84538 10 L25.84366 10 L25.84194 10 L25.84021 10 L25.83847 10 L25.83672 10 L25.83497 10 L25.8332 10 L25.83143 10 L25.82964 10 L25.82785 10 L25.82605 10 L25.82424 10 L25.82242 10 L25.82059 10 L25.81876 10 L25.81691 10 L25.81505 10 L25.81318 10 L25.8113 10 L25.80941 10 L25.80751 10 L25.8056 10 L25.80368 10 L25.80174 10 L25.7998 10 L25.79784 10 L25.79587 10 L25.79389 10 L25.7919 10 L25.7899 10 L25.78788 10 L25.78585 10 L25.78381 10 L25.78175 10 L25.77968 10 L25.7776 10 L25.7755 10 L25.77339 10 L25.77126 10 L25.76912 10 L25.76697 10 L25.7648 10 L25.76261 10 L25.76041 10 L25.7582 10 L25.75596 10 L25.75372 10 L25.75145 10 L25.74917 10 L25.74687 10 L25.74455 10 L25.74222 10 L25.73987 10 L25.7375 10 L25.73511 10 L25.7327 10 L25.73027 10 L25.72782 10 L25.72536 10 L25.72287 10 L25.72036 10 L25.71783 10 L25.71528 10 L25.71271 10 L25.71012 10 L25.7075 10 L25.70486 10 L25.7022 10 L25.69951 10 L25.6968 10 L25.69406 10 L25.6913 10 L25.68851 10 L25.6857 10 L25.68286 10 L25.67999 10 L25.6771 10 L25.67418 10 L25.67123 10 L25.66825 10 L25.66524 10 L25.6622 10 L25.65913 10 L25.65602 10 L25.65289 10 L25.64972 10 L25.64652 10 L25.64329 10 L25.64002 10 L25.63671 10 L25.63337 10 L25.62999 10 L25.62658 10 L25.62312 10 L25.61963 10 L25.6161 10 L25.61252 10 L25.60891 10 L25.60525 10 L25.60154 10 L25.5978 10 L25.594 10 L25.59017 10 L25.58628 10 L25.58234 10 L25.57836 10 L25.57432 10 L25.57024 10 L25.5661 10 L25.5619 10 L25.55765 10 L25.55334 10 L25.54898 10 L25.54456 10 L25.54007 10 L25.53552 10 L25.53091 10 L25.52623 10 L25.52149 10 L25.51996 10 L10 10 L5 10 L0 10 L0 5 z"/>
</svg>