<?xml version="1.0" encoding="UTF-8"?>
<!-- Generated by jsxcad -->
<!DOCTYPE svg PUBLIC "-//W3C//DTD SVG 1.1 Tiny//EN" "http://www.w3.org/Graphics/SVG/1.1/DTD/svg11-tiny.dtd">
<svg baseProfile="tiny" height="10 mm" width="25 mm" viewBox="0 0 25 10" version="1.1" stroke="black" stroke-width=".1" fill="none" xmlns="http://www.w3.org/2000/svg">
<path d="M0 0 L5 0 L10 0 L20.5485 0 L24.46709 0 L24.48692 0 L24.5906 0 L24.69321 0 L24.7953 0 L24.89739 0 L25 0 L25 10 L24.84582 10 L24.69321 10 L24.54139 10 L24.38957 10 L24.23697 10 L24.08279 10 L23.92619 10 L23.76629 10 L23.60213 10 L23.43267 10 L23.25672 10 L23.07295 10 L22.87979 10 L22.67545 10 L22.45776 10 L22.22415 10 L21.97144 10 L21.69573 10 L21.39209 10 L21.05423 10 L20.80184 10 L10 10 L5 10 L0 10 L0 5 z"/>
</svg>