<?xml version="1.0" encoding="UTF-8"?>
<!-- Generated by jsxcad -->
<!DOCTYPE svg PUBLIC "-//W3C//DTD SVG 1.1 Tiny//EN" "http://www.w3.org/Graphics/SVG/1.1/DTD/svg11-tiny.dtd">
<svg baseProfile="tiny" height="62 mm" width="43.9886 mm" viewBox="0 0 43.9886 62" version="1.1" stroke="black" stroke-width=".1" fill="none" xmlns="http://www.w3.org/2000/svg">
<path d="M20.99402 61.95443 L19.99373 61.90885 L19.00174 61.7725 L18.00974 61.63616 L17.03426 61.41017 L16.05877 61.18418 L15.10788 60.87042 L14.15698 60.55666 L13.23856 60.15774 L12.32014 59.75881 L11.44179 59.27802 L10.56345 58.79723 L9.73247 58.23856 L8.90149 57.67988 L8.12475 57.04796 L7.34802 56.41604 L6.63196 55.71611 L5.91591 55.01617 L5.26647 54.25402 L4.61703 53.49187 L4.03959 52.67382 L3.46215 51.85577 L2.98432 51.02815 L2.97317 51.00884 L2.96149 50.9886 L2.717 50.56513 L2.46083 50.12143 L2.04109 49.21233 L1.62136 48.30322 L1.28604 47.35972 L0.95072 46.41621 L0.70259 45.44612 L0.45445 44.47603 L0.29556 43.4874 L0.13667 42.49876 L0.06833 41.49978 L0 40.50079 L0.02279 39.49973 L0.04559 38.49867 L0.15932 37.50383 L0.27305 36.50898 L0.47677 35.52861 L0.6805 34.54823 L0.97253 33.59044 L1.26456 32.63265 L1.64248 31.70538 L2.0204 30.77812 L2.48107 29.88906 L2.94174 29 L2.95793 28.9747 L2.97317 28.95087 L3.48135 28.15652 L3.49537 28.13461 L3.91568 27.4776 L3.91106 27.47123 L3.90481 27.46263 L3.85392 27.39259 L3.78547 27.29838 L3.37932 26.73936 L2.97317 26.18034 L2.97317 20 L2.97317 13.81966 L6.60588 8.81966 L7.04749 8.21184 L8.64304 6.01575 L10.23859 3.81966 L16.11645 1.90983 L21.9943 0 L26.1094 1.33708 L26.8353 1.57294 L27.87215 1.90983 L30.29265 2.6963 L33.75001 3.81966 L37.38272 8.81966 L41.01543 13.81966 L41.01543 20 L41.01543 26.18034 L40.60928 26.73936 L40.20313 27.29838 L40.19344 27.31171 L40.18096 27.32889 L40.13868 27.38708 L40.08379 27.46263 L40.07915 27.46902 L40.07292 27.4776 L40.49323 28.13461 L40.50725 28.15652 L41.01543 28.95087 L41.03114 28.97544 L41.04686 29 L41.50753 29.88906 L41.9682 30.77812 L42.34612 31.70538 L42.72404 32.63265 L43.01607 33.59044 L43.3081 34.54823 L43.51183 35.52861 L43.71555 36.50898 L43.82928 37.50383 L43.94301 38.49867 L43.96581 39.49973 L43.9886 40.50079 L43.92027 41.49978 L43.85193 42.49876 L43.69304 43.4874 L43.53415 44.47603 L43.28601 45.44612 L43.03788 46.41621 L42.70256 47.35972 L42.36724 48.30322 L41.94751 49.21233 L41.52777 50.12143 L41.02711 50.9886 L41.01543 51.00884 L40.77094 51.4323 L40.52645 51.85577 L39.94901 52.67382 L39.37157 53.49187 L38.72213 54.25402 L38.07269 55.01617 L37.35664 55.71611 L36.64058 56.41604 L35.86385 57.04796 L35.08711 57.67988 L34.25613 58.23856 L33.42515 58.79723 L32.54681 59.27802 L31.66846 59.75881 L30.75004 60.15774 L29.83162 60.55666 L28.88072 60.87042 L27.92983 61.18418 L26.95434 61.41017 L25.97886 61.63616 L24.98686 61.7725 L23.99487 61.90885 L22.99458 61.95443 L21.9943 62 z"/>
</svg>