<?xml version="1.0" encoding="UTF-8"?>
<!-- Generated by jsxcad -->
<!DOCTYPE svg PUBLIC "-//W3C//DTD SVG 1.1 Tiny//EN" "http://www.w3.org/Graphics/SVG/1.1/DTD/svg11-tiny.dtd">
<svg baseProfile="tiny" height="10 mm" width="200 mm" viewBox="0 0 200 10" version="1.1" stroke="black" stroke-width=".1" fill="none" xmlns="http://www.w3.org/2000/svg">
<path d="M79.96567 10 L79.85583 10 L79.74335 10 L79.62808 10 L79.50991 10 L79.3887 10 L79.26428 10 L79.13652 10 L79.00523 10 L78.87024 10 L78.73136 10 L78.58838 10 L78.44109 10 L78.28924 10 L78.1326 10 L77.97089 10 L77.80381 10 L77.63107 10 L77.45231 10 L77.26718 10 L77.07529 10 L76.8762 10 L76.66946 10 L76.45457 10 L76.23097 10 L75.99808 10 L75.75523 10 L75.50173 10 L75.23677 10 L74.95951 10 L74.669 10 L74.36417 10 L74.04388 10 L73.70683 10 L73.35158 10 L72.97652 10 L72.57985 10 L72.15954 10 L71.7133 10 L71.23853 10 L70.73229 10 L70.19119 10 L69.61136 10 L68.98833 10 L68.31691 10 L67.59105 10 L66.80365 10 L65.94631 10 L65.00905 10 L63.97986 10 L62.84424 10 L61.58443 10 L60.17853 10 L58.59913 10 L56.81154 10 L54.77114 10 L52.41959 10 L49.67908 10 L46.44354 10 L42.56446 10 L37.8273 10 L31.91026 10 L24.30765 10 L14.17663 10 L0 10 L0 0 L0.85649 0 L1.70572 0 L2.54781 0 L3.38291 0 L4.21078 0 L85 0 L90 0 L95 0 L160.58807 0 L199.92494 0 L199.93994 0 L199.95496 0 L199.96997 0 L199.98498 0 L200 0 L200 10 L199.97998 10 L199.95996 10 L199.93994 10 L199.91993 10 L199.89991 10 L199.8799 10 L199.85988 10 L199.83986 10 L199.81983 10 L199.7998 10 L199.77977 10 L199.75972 10 L199.73967 10 L199.71961 10 L199.69954 10 L199.67946 10 L199.65937 10 L199.63926 10 L199.61914 10 L199.599 10 L199.57885 10 L199.55868 10 L199.5385 10 L199.51829 10 L199.49806 10 L199.47781 10 L199.45754 10 L199.43725 10 L199.41693 10 L199.39659 10 L199.37622 10 L199.35582 10 L199.33539 10 L199.31493 10 L199.29444 10 L199.27392 10 L199.25337 10 L199.23278 10 L199.21216 10 L199.1915 10 L199.1708 10 L199.15007 10 L199.12929 10 L199.10847 10 L199.08761 10 L199.06671 10 L199.04576 10 L199.02477 10 L199.00373 10 L198.98264 10 L198.9615 10 L198.94031 10 L198.91907 10 L198.89778 10 L198.87643 10 L198.85502 10 L198.83356 10 L198.81204 10 L198.79046 10 L198.76882 10 L198.74712 10 L198.72535 10 L198.70352 10 L198.68162 10 L198.65965 10 L198.63762 10 L198.61551 10 L198.59333 10 L198.57108 10 L198.54875 10 L198.52635 10 L198.50387 10 L198.4813 10 L198.45866 10 L198.43593 10 L198.41312 10 L198.39023 10 L198.36724 10 L198.34417 10 L198.321 10 L198.29774 10 L198.27439 10 L198.25094 10 L198.22739 10 L198.20375 10 L198.18 10 L198.15615 10 L198.13219 10 L198.10812 10 L198.08395 10 L198.05966 10 L198.03526 10 L198.01075 10 L197.98612 10 L197.96137 10 L197.9365 10 L197.9115 10 L197.88638 10 L197.86113 10 L197.83575 10 L197.81023 10 L197.78459 10 L197.7588 10 L197.73288 10 L197.70681 10 L197.6806 10 L197.65424 10 L197.62773 10 L197.60107 10 L197.57425 10 L197.54728 10 L197.52015 10 L197.49285 10 L197.46538 10 L197.43775 10 L197.40995 10 L197.38197 10 L197.35381 10 L197.32547 10 L197.29694 10 L197.26823 10 L197.23933 10 L197.21023 10 L197.18094 10 L197.15144 10 L197.12174 10 L197.09183 10 L197.06171 10 L197.03137 10 L197.00081 10 L196.97003 10 L196.93902 10 L196.90778 10 L196.8763 10 L196.84458 10 L196.81262 10 L196.7804 10 L196.74794 10 L196.71521 10 L196.68222 10 L196.64897 10 L196.61544 10 L196.58163 10 L196.54754 10 L196.51316 10 L196.47848 10 L196.44351 10 L196.40823 10 L196.37264 10 L196.33673 10 L196.3005 10 L196.26394 10 L196.22704 10 L196.1898 10 L196.15222 10 L196.11427 10 L196.07597 10 L196.03729 10 L195.99824 10 L195.9588 10 L195.91897 10 L195.87876 10 L95 10 L90 10 L85 10 L84.95469 10 L84.90697 10 L84.85917 10 L84.81127 10 L84.76327 10 L84.71516 10 L84.66693 10 L84.61856 10 L84.57006 10 L84.5214 10 L84.47259 10 L84.4236 10 L84.37443 10 L84.32507 10 L84.27551 10 L84.22573 10 L84.17572 10 L84.12548 10 L84.075 10 L84.02425 10 L83.97323 10 L83.92192 10 L83.87032 10 L83.81841 10 L83.76617 10 L83.7136 10 L83.66067 10 L83.60738 10 L83.55371 10 L83.49965 10 L83.44517 10 L83.39027 10 L83.33493 10 L83.27913 10 L83.22285 10 L83.16607 10 L83.10879 10 L83.05097 10 L82.9926 10 L82.93366 10 L82.87412 10 L82.81397 10 L82.75319 10 L82.69175 10 L82.62962 10 L82.56679 10 L82.50322 10 L82.4389 10 L82.37378 10 L82.30785 10 L82.24108 10 L82.17343 10 L82.10487 10 L82.03536 10 L81.96488 10 L81.89339 10 L81.82085 10 L81.74722 10 L81.67245 10 L81.59651 10 L81.51936 10 L81.44093 10 L81.3612 10 L81.28009 10 L81.19757 10 L81.11357 10 L81.02804 10 L80.94091 10 L80.85211 10 L80.76159 10 L80.66927 10 L80.57507 10 L80.47891 10 L80.38071 10 L80.28038 10 L80.17783 10 L80.07296 10 z"/>
</svg>