<?xml version="1.0" encoding="UTF-8"?>
<!-- Generated by jsxcad -->
<!DOCTYPE svg PUBLIC "-//W3C//DTD SVG 1.1 Tiny//EN" "http://www.w3.org/Graphics/SVG/1.1/DTD/svg11-tiny.dtd">
<svg baseProfile="tiny" height="10 mm" width="79.99687 mm" viewBox="0 0 79.99687 10" version="1.1" stroke="black" stroke-width=".1" fill="none" xmlns="http://www.w3.org/2000/svg">
<path d="M19.85903 10 L19.52679 10 L19.16581 10 L18.77141 10 L18.33782 10 L17.85787 10 L17.32256 10 L16.72041 10 L16.03654 10 L15.25132 10 L14.33829 10 L13.26094 10 L11.96739 10 L10.38138 10 L8.38601 10 L5.79253 10 L2.27509 10 L0 10 L0 5 L0 0 L0.33301 0 L0.99698 0 L1.65028 0 L2.29336 0 L2.92666 0 L3.24666 0 L24.99687 0 L29.99687 0 L34.99687 0 L63.04758 0 L79.80871 0 L79.80899 0 L79.84656 0 L79.88413 0 L79.92169 0 L79.95927 0 L79.99687 0 L79.99687 10 L79.94673 10 L79.89663 10 L79.84656 10 L79.79652 10 L79.74647 10 L79.6964 10 L79.6463 10 L79.59616 10 L79.54595 10 L79.49567 10 L79.44529 10 L79.3948 10 L79.34418 10 L79.29342 10 L79.2425 10 L79.1914 10 L79.1401 10 L79.0886 10 L79.03687 10 L78.98489 10 L78.93264 10 L78.88012 10 L78.82729 10 L78.77413 10 L78.72064 10 L78.66679 10 L78.61255 10 L78.55791 10 L78.50285 10 L78.44733 10 L78.39135 10 L78.33487 10 L78.27787 10 L78.22033 10 L78.16222 10 L78.1035 10 L78.04417 10 L77.98418 10 L77.9235 10 L77.86211 10 L77.79997 10 L77.73705 10 L77.67331 10 L77.60872 10 L77.54324 10 L77.47683 10 L77.40945 10 L77.34105 10 L77.27159 10 L77.20103 10 L77.12931 10 L77.05638 10 L76.98219 10 L76.90668 10 L76.82979 10 L76.75146 10 L76.67163 10 L76.59021 10 L76.50715 10 L76.42236 10 L76.33575 10 L76.24725 10 L76.15676 10 L76.06419 10 L75.96942 10 L75.87236 10 L75.77289 10 L75.69573 10 L34.99687 10 L29.99687 10 L24.99687 10 L24.8979 10 L24.78628 10 L24.67353 10 L24.55952 10 L24.44406 10 L24.327 10 L24.20814 10 L24.0873 10 L23.96426 10 L23.8388 10 L23.71067 10 L23.57961 10 L23.44533 10 L23.30751 10 L23.16581 10 L23.01986 10 L22.86922 10 L22.71344 10 L22.552 10 L22.38431 10 L22.20974 10 L22.02755 10 L21.83691 10 L21.63688 10 L21.4264 10 L21.20423 10 L20.96894 10 L20.71888 10 L20.45212 10 L20.1664 10 z"/>
</svg>