solid JSxCAD
facet normal 0 0 1
outer loop
vertex 1.34815 5 10
vertex 1.79237 4.28732 10
vertex 2.41242 3.48628 10
endloop
endfacet
facet normal 0 0 1
outer loop
vertex 1.34815 5 10
vertex 2.41242 3.48628 10
vertex 3.11033 2.75207 10
endloop
endfacet
facet normal 0 0 1
outer loop
vertex 1.34815 5 10
vertex 3.11033 2.75207 10
vertex 3.87894 2.09224 10
endloop
endfacet
facet normal 0 0 1
outer loop
vertex 1.34815 5 10
vertex 3.87894 2.09224 10
vertex 4.71036 1.51356 10
endloop
endfacet
facet normal 0 0 1
outer loop
vertex 1.34815 5 10
vertex 4.71036 1.51356 10
vertex 5.59606 1.02195 10
endloop
endfacet
facet normal 0 0 1
outer loop
vertex 1.34815 5 10
vertex 5.59606 1.02195 10
vertex 6.52695 0.62248 10
endloop
endfacet
facet normal 0 0 1
outer loop
vertex 1.34815 5 10
vertex 6.52695 0.62248 10
vertex 7.49347 0.31923 10
endloop
endfacet
facet normal 0 0 1
outer loop
vertex 1.34815 5 10
vertex 7.49347 0.31923 10
vertex 8.48572 0.11532 10
endloop
endfacet
facet normal 0 0 1
outer loop
vertex 1.34815 5 10
vertex 8.48572 0.11532 10
vertex 9.49351 0.01283 10
endloop
endfacet
facet normal 0 0 1
outer loop
vertex 1.34815 5 10
vertex 9.49351 0.01283 10
vertex 10.50649 0.01283 10
endloop
endfacet
facet normal 0 0 1
outer loop
vertex 1.34815 5 10
vertex 10.50649 0.01283 10
vertex 11.51428 0.11532 10
endloop
endfacet
facet normal 0 0 1
outer loop
vertex 1.34815 5 10
vertex 11.51428 0.11532 10
vertex 12.50653 0.31923 10
endloop
endfacet
facet normal 0 0 1
outer loop
vertex 1.34815 5 10
vertex 12.50653 0.31923 10
vertex 13.47305 0.62248 10
endloop
endfacet
facet normal 0 0 1
outer loop
vertex 1.34815 5 10
vertex 13.47305 0.62248 10
vertex 14.40394 1.02195 10
endloop
endfacet
facet normal 0 0 1
outer loop
vertex 1.34815 5 10
vertex 14.40394 1.02195 10
vertex 15.28964 1.51356 10
endloop
endfacet
facet normal 0 0 1
outer loop
vertex 1.34815 5 10
vertex 15.28964 1.51356 10
vertex 16.12106 2.09224 10
endloop
endfacet
facet normal 0 0 1
outer loop
vertex 1.34815 5 10
vertex 16.12106 2.09224 10
vertex 16.88967 2.75207 10
endloop
endfacet
facet normal 0 0 1
outer loop
vertex 1.34815 5 10
vertex 16.88967 2.75207 10
vertex 17.58758 3.48628 10
endloop
endfacet
facet normal 0 0 1
outer loop
vertex 1.34815 5 10
vertex 17.58758 3.48628 10
vertex 18.20763 4.28732 10
endloop
endfacet
facet normal 0 0 1
outer loop
vertex 1.34815 5 10
vertex 18.20763 4.28732 10
vertex 18.65185 5 10
endloop
endfacet
facet normal 0 0 1
outer loop
vertex 18.65185 15 10
vertex 18.20763 15.71268 10
vertex 17.58758 16.51372 10
endloop
endfacet
facet normal 0 0 1
outer loop
vertex 18.65185 15 10
vertex 17.58758 16.51372 10
vertex 16.88967 17.24793 10
endloop
endfacet
facet normal 0 0 1
outer loop
vertex 18.65185 15 10
vertex 16.88967 17.24793 10
vertex 16.12106 17.90776 10
endloop
endfacet
facet normal 0 0 1
outer loop
vertex 18.65185 15 10
vertex 16.12106 17.90776 10
vertex 15.28964 18.48644 10
endloop
endfacet
facet normal 0 0 1
outer loop
vertex 18.65185 15 10
vertex 15.28964 18.48644 10
vertex 14.40394 18.97805 10
endloop
endfacet
facet normal 0 0 1
outer loop
vertex 18.65185 15 10
vertex 14.40394 18.97805 10
vertex 13.47305 19.37752 10
endloop
endfacet
facet normal 0 0 1
outer loop
vertex 18.65185 15 10
vertex 13.47305 19.37752 10
vertex 12.50653 19.68077 10
endloop
endfacet
facet normal 0 0 1
outer loop
vertex 18.65185 15 10
vertex 12.50653 19.68077 10
vertex 11.51428 19.88468 10
endloop
endfacet
facet normal 0 0 1
outer loop
vertex 18.65185 15 10
vertex 11.51428 19.88468 10
vertex 10.50649 19.98717 10
endloop
endfacet
facet normal 0 0 1
outer loop
vertex 18.65185 15 10
vertex 10.50649 19.98717 10
vertex 9.49351 19.98717 10
endloop
endfacet
facet normal 0 0 1
outer loop
vertex 18.65185 15 10
vertex 9.49351 19.98717 10
vertex 8.48572 19.88468 10
endloop
endfacet
facet normal 0 0 1
outer loop
vertex 18.65185 15 10
vertex 8.48572 19.88468 10
vertex 7.49347 19.68077 10
endloop
endfacet
facet normal 0 0 1
outer loop
vertex 18.65185 15 10
vertex 7.49347 19.68077 10
vertex 6.52695 19.37752 10
endloop
endfacet
facet normal 0 0 1
outer loop
vertex 18.65185 15 10
vertex 6.52695 19.37752 10
vertex 5.59606 18.97805 10
endloop
endfacet
facet normal 0 0 1
outer loop
vertex 18.65185 15 10
vertex 5.59606 18.97805 10
vertex 4.71036 18.48644 10
endloop
endfacet
facet normal 0 0 1
outer loop
vertex 18.65185 15 10
vertex 4.71036 18.48644 10
vertex 3.87894 17.90776 10
endloop
endfacet
facet normal 0 0 1
outer loop
vertex 18.65185 15 10
vertex 3.87894 17.90776 10
vertex 3.11033 17.24793 10
endloop
endfacet
facet normal 0 0 1
outer loop
vertex 18.65185 15 10
vertex 3.11033 17.24793 10
vertex 2.41242 16.51372 10
endloop
endfacet
facet normal 0 0 1
outer loop
vertex 18.65185 15 10
vertex 2.41242 16.51372 10
vertex 1.79237 15.71268 10
endloop
endfacet
facet normal 0 0 1
outer loop
vertex 18.65185 15 10
vertex 1.79237 15.71268 10
vertex 1.34815 15 10
endloop
endfacet
facet normal 0 0 1
outer loop
vertex 19.7953 12.01299 10
vertex 19.54139 12.99363 10
vertex 19.18958 13.94356 10
endloop
endfacet
facet normal 0 0 1
outer loop
vertex 19.7953 12.01299 10
vertex 19.18958 13.94356 10
vertex 18.74347 14.85302 10
endloop
endfacet
facet normal 0 0 1
outer loop
vertex 19.7953 12.01299 10
vertex 18.74347 14.85302 10
vertex 18.65185 15 10
endloop
endfacet
facet normal 0 0 1
outer loop
vertex 19.7953 12.01299 10
vertex 18.65185 15 10
vertex 1.34815 15 10
endloop
endfacet
facet normal 0 0 1
outer loop
vertex 19.7953 12.01299 10
vertex 1.34815 15 10
vertex 1.25653 14.85302 10
endloop
endfacet
facet normal 0 0 1
outer loop
vertex 19.7953 12.01299 10
vertex 1.25653 14.85302 10
vertex 0.81042 13.94356 10
endloop
endfacet
facet normal 0 0 1
outer loop
vertex 19.7953 12.01299 10
vertex 0.81042 13.94356 10
vertex 0.45861 12.99363 10
endloop
endfacet
facet normal 0 0 1
outer loop
vertex 19.7953 12.01299 10
vertex 0.45861 12.99363 10
vertex 0.2047 12.01299 10
endloop
endfacet
facet normal 0 0 1
outer loop
vertex 19.7953 12.01299 10
vertex 0.2047 12.01299 10
vertex 0.05131 11.01168 10
endloop
endfacet
facet normal 0 0 1
outer loop
vertex 19.7953 12.01299 10
vertex 0.05131 11.01168 10
vertex 0 10 10
endloop
endfacet
facet normal 0 0 1
outer loop
vertex 19.7953 12.01299 10
vertex 0 10 10
vertex 0.05131 8.98832 10
endloop
endfacet
facet normal 0 0 1
outer loop
vertex 19.7953 12.01299 10
vertex 0.05131 8.98832 10
vertex 0.2047 7.98701 10
endloop
endfacet
facet normal 0 0 1
outer loop
vertex 19.7953 12.01299 10
vertex 0.2047 7.98701 10
vertex 0.45861 7.00637 10
endloop
endfacet
facet normal 0 0 1
outer loop
vertex 19.7953 12.01299 10
vertex 0.45861 7.00637 10
vertex 0.81042 6.05644 10
endloop
endfacet
facet normal 0 0 1
outer loop
vertex 19.7953 12.01299 10
vertex 0.81042 6.05644 10
vertex 1.25653 5.14698 10
endloop
endfacet
facet normal 0 0 1
outer loop
vertex 19.7953 12.01299 10
vertex 1.25653 5.14698 10
vertex 1.34815 5 10
endloop
endfacet
facet normal 0 0 1
outer loop
vertex 19.7953 12.01299 10
vertex 1.34815 5 10
vertex 18.65185 5 10
endloop
endfacet
facet normal 0 0 1
outer loop
vertex 19.7953 12.01299 10
vertex 18.65185 5 10
vertex 18.74347 5.14698 10
endloop
endfacet
facet normal 0 0 1
outer loop
vertex 19.7953 12.01299 10
vertex 18.74347 5.14698 10
vertex 19.18958 6.05644 10
endloop
endfacet
facet normal 0 0 1
outer loop
vertex 19.7953 12.01299 10
vertex 19.18958 6.05644 10
vertex 19.54139 7.00637 10
endloop
endfacet
facet normal 0 0 1
outer loop
vertex 19.7953 12.01299 10
vertex 19.54139 7.00637 10
vertex 19.7953 7.98701 10
endloop
endfacet
facet normal 0 0 1
outer loop
vertex 19.7953 12.01299 10
vertex 19.7953 7.98701 10
vertex 19.94869 8.98832 10
endloop
endfacet
facet normal 0 0 1
outer loop
vertex 19.7953 12.01299 10
vertex 19.94869 8.98832 10
vertex 20 10 10
endloop
endfacet
facet normal 0 0 1
outer loop
vertex 19.7953 12.01299 10
vertex 20 10 10
vertex 19.94869 11.01168 10
endloop
endfacet
facet normal 0 0 -1
outer loop
vertex 18.65185 5 0
vertex 18.20763 4.28732 0
vertex 17.58758 3.48628 0
endloop
endfacet
facet normal 0 0 -1
outer loop
vertex 18.65185 5 0
vertex 17.58758 3.48628 0
vertex 16.88967 2.75207 0
endloop
endfacet
facet normal 0 0 -1
outer loop
vertex 18.65185 5 0
vertex 16.88967 2.75207 0
vertex 16.12106 2.09224 0
endloop
endfacet
facet normal 0 0 -1
outer loop
vertex 18.65185 5 0
vertex 16.12106 2.09224 0
vertex 15.28964 1.51356 0
endloop
endfacet
facet normal 0 0 -1
outer loop
vertex 18.65185 5 0
vertex 15.28964 1.51356 0
vertex 14.40394 1.02195 0
endloop
endfacet
facet normal 0 0 -1
outer loop
vertex 18.65185 5 0
vertex 14.40394 1.02195 0
vertex 13.47305 0.62248 0
endloop
endfacet
facet normal 0 0 -1
outer loop
vertex 18.65185 5 0
vertex 13.47305 0.62248 0
vertex 12.50653 0.31923 0
endloop
endfacet
facet normal 0 0 -1
outer loop
vertex 18.65185 5 0
vertex 12.50653 0.31923 0
vertex 11.51428 0.11532 0
endloop
endfacet
facet normal 0 0 -1
outer loop
vertex 18.65185 5 0
vertex 11.51428 0.11532 0
vertex 10.50649 0.01283 0
endloop
endfacet
facet normal 0 0 -1
outer loop
vertex 18.65185 5 0
vertex 10.50649 0.01283 0
vertex 9.49351 0.01283 0
endloop
endfacet
facet normal 0 0 -1
outer loop
vertex 18.65185 5 0
vertex 9.49351 0.01283 0
vertex 8.48572 0.11532 0
endloop
endfacet
facet normal 0 0 -1
outer loop
vertex 18.65185 5 0
vertex 8.48572 0.11532 0
vertex 7.49347 0.31923 0
endloop
endfacet
facet normal 0 0 -1
outer loop
vertex 18.65185 5 0
vertex 7.49347 0.31923 0
vertex 6.52695 0.62248 0
endloop
endfacet
facet normal 0 0 -1
outer loop
vertex 18.65185 5 0
vertex 6.52695 0.62248 0
vertex 5.59606 1.02195 0
endloop
endfacet
facet normal 0 0 -1
outer loop
vertex 18.65185 5 0
vertex 5.59606 1.02195 0
vertex 4.71036 1.51356 0
endloop
endfacet
facet normal 0 0 -1
outer loop
vertex 18.65185 5 0
vertex 4.71036 1.51356 0
vertex 3.87894 2.09224 0
endloop
endfacet
facet normal 0 0 -1
outer loop
vertex 18.65185 5 0
vertex 3.87894 2.09224 0
vertex 3.11033 2.75207 0
endloop
endfacet
facet normal 0 0 -1
outer loop
vertex 18.65185 5 0
vertex 3.11033 2.75207 0
vertex 2.41242 3.48628 0
endloop
endfacet
facet normal 0 0 -1
outer loop
vertex 18.65185 5 0
vertex 2.41242 3.48628 0
vertex 1.79237 4.28732 0
endloop
endfacet
facet normal 0 0 -1
outer loop
vertex 18.65185 5 0
vertex 1.79237 4.28732 0
vertex 1.34815 5 0
endloop
endfacet
facet normal 0 0 -1
outer loop
vertex 1.34815 15 0
vertex 1.79237 15.71268 0
vertex 2.41242 16.51372 0
endloop
endfacet
facet normal 0 0 -1
outer loop
vertex 1.34815 15 0
vertex 2.41242 16.51372 0
vertex 3.11033 17.24793 0
endloop
endfacet
facet normal 0 0 -1
outer loop
vertex 1.34815 15 0
vertex 3.11033 17.24793 0
vertex 3.87894 17.90776 0
endloop
endfacet
facet normal 0 0 -1
outer loop
vertex 1.34815 15 0
vertex 3.87894 17.90776 0
vertex 4.71036 18.48644 0
endloop
endfacet
facet normal 0 0 -1
outer loop
vertex 1.34815 15 0
vertex 4.71036 18.48644 0
vertex 5.59606 18.97805 0
endloop
endfacet
facet normal 0 0 -1
outer loop
vertex 1.34815 15 0
vertex 5.59606 18.97805 0
vertex 6.52695 19.37752 0
endloop
endfacet
facet normal 0 0 -1
outer loop
vertex 1.34815 15 0
vertex 6.52695 19.37752 0
vertex 7.49347 19.68077 0
endloop
endfacet
facet normal 0 0 -1
outer loop
vertex 1.34815 15 0
vertex 7.49347 19.68077 0
vertex 8.48572 19.88468 0
endloop
endfacet
facet normal 0 0 -1
outer loop
vertex 1.34815 15 0
vertex 8.48572 19.88468 0
vertex 9.49351 19.98717 0
endloop
endfacet
facet normal 0 0 -1
outer loop
vertex 1.34815 15 0
vertex 9.49351 19.98717 0
vertex 10.50649 19.98717 0
endloop
endfacet
facet normal 0 0 -1
outer loop
vertex 1.34815 15 0
vertex 10.50649 19.98717 0
vertex 11.51428 19.88468 0
endloop
endfacet
facet normal 0 0 -1
outer loop
vertex 1.34815 15 0
vertex 11.51428 19.88468 0
vertex 12.50653 19.68077 0
endloop
endfacet
facet normal 0 0 -1
outer loop
vertex 1.34815 15 0
vertex 12.50653 19.68077 0
vertex 13.47305 19.37752 0
endloop
endfacet
facet normal 0 0 -1
outer loop
vertex 1.34815 15 0
vertex 13.47305 19.37752 0
vertex 14.40394 18.97805 0
endloop
endfacet
facet normal 0 0 -1
outer loop
vertex 1.34815 15 0
vertex 14.40394 18.97805 0
vertex 15.28964 18.48644 0
endloop
endfacet
facet normal 0 0 -1
outer loop
vertex 1.34815 15 0
vertex 15.28964 18.48644 0
vertex 16.12106 17.90776 0
endloop
endfacet
facet normal 0 0 -1
outer loop
vertex 1.34815 15 0
vertex 16.12106 17.90776 0
vertex 16.88967 17.24793 0
endloop
endfacet
facet normal 0 0 -1
outer loop
vertex 1.34815 15 0
vertex 16.88967 17.24793 0
vertex 17.58758 16.51372 0
endloop
endfacet
facet normal 0 0 -1
outer loop
vertex 1.34815 15 0
vertex 17.58758 16.51372 0
vertex 18.20763 15.71268 0
endloop
endfacet
facet normal 0 0 -1
outer loop
vertex 1.34815 15 0
vertex 18.20763 15.71268 0
vertex 18.65185 15 0
endloop
endfacet
facet normal 0 0 -1
outer loop
vertex 19.54139 7.00637 0
vertex 19.18958 6.05644 0
vertex 18.74347 5.14698 0
endloop
endfacet
facet normal 0 0 -1
outer loop
vertex 19.54139 7.00637 0
vertex 18.74347 5.14698 0
vertex 18.65185 5 0
endloop
endfacet
facet normal 0 0 -1
outer loop
vertex 19.54139 7.00637 0
vertex 18.65185 5 0
vertex 1.34815 5 0
endloop
endfacet
facet normal 0 0 -1
outer loop
vertex 19.54139 7.00637 0
vertex 1.34815 5 0
vertex 1.25653 5.14698 0
endloop
endfacet
facet normal 0 0 -1
outer loop
vertex 19.54139 7.00637 0
vertex 1.25653 5.14698 0
vertex 0.81042 6.05644 0
endloop
endfacet
facet normal 0 0 -1
outer loop
vertex 19.54139 7.00637 0
vertex 0.81042 6.05644 0
vertex 0.45861 7.00637 0
endloop
endfacet
facet normal 0 0 -1
outer loop
vertex 19.54139 7.00637 0
vertex 0.45861 7.00637 0
vertex 0.2047 7.98701 0
endloop
endfacet
facet normal 0 0 -1
outer loop
vertex 19.54139 7.00637 0
vertex 0.2047 7.98701 0
vertex 0.05131 8.98832 0
endloop
endfacet
facet normal 0 0 -1
outer loop
vertex 19.54139 7.00637 0
vertex 0.05131 8.98832 0
vertex 0 10 0
endloop
endfacet
facet normal 0 0 -1
outer loop
vertex 19.54139 7.00637 0
vertex 0 10 0
vertex 0.05131 11.01168 0
endloop
endfacet
facet normal 0 0 -1
outer loop
vertex 19.54139 7.00637 0
vertex 0.05131 11.01168 0
vertex 0.2047 12.01299 0
endloop
endfacet
facet normal 0 0 -1
outer loop
vertex 19.54139 7.00637 0
vertex 0.2047 12.01299 0
vertex 0.45861 12.99363 0
endloop
endfacet
facet normal 0 0 -1
outer loop
vertex 19.54139 7.00637 0
vertex 0.45861 12.99363 0
vertex 0.81042 13.94356 0
endloop
endfacet
facet normal 0 0 -1
outer loop
vertex 19.54139 7.00637 0
vertex 0.81042 13.94356 0
vertex 1.25653 14.85302 0
endloop
endfacet
facet normal 0 0 -1
outer loop
vertex 19.54139 7.00637 0
vertex 1.25653 14.85302 0
vertex 1.34815 15 0
endloop
endfacet
facet normal 0 0 -1
outer loop
vertex 19.54139 7.00637 0
vertex 1.34815 15 0
vertex 18.65185 15 0
endloop
endfacet
facet normal 0 0 -1
outer loop
vertex 19.54139 7.00637 0
vertex 18.65185 15 0
vertex 18.74347 14.85302 0
endloop
endfacet
facet normal 0 0 -1
outer loop
vertex 19.54139 7.00637 0
vertex 18.74347 14.85302 0
vertex 19.18958 13.94356 0
endloop
endfacet
facet normal 0 0 -1
outer loop
vertex 19.54139 7.00637 0
vertex 19.18958 13.94356 0
vertex 19.54139 12.99363 0
endloop
endfacet
facet normal 0 0 -1
outer loop
vertex 19.54139 7.00637 0
vertex 19.54139 12.99363 0
vertex 19.7953 12.01299 0
endloop
endfacet
facet normal 0 0 -1
outer loop
vertex 19.54139 7.00637 0
vertex 19.7953 12.01299 0
vertex 19.94869 11.01168 0
endloop
endfacet
facet normal 0 0 -1
outer loop
vertex 19.54139 7.00637 0
vertex 19.94869 11.01168 0
vertex 20 10 0
endloop
endfacet
facet normal 0 0 -1
outer loop
vertex 19.54139 7.00637 0
vertex 20 10 0
vertex 19.94869 8.98832 0
endloop
endfacet
facet normal 0 0 -1
outer loop
vertex 19.54139 7.00637 0
vertex 19.94869 8.98832 0
vertex 19.7953 7.98701 0
endloop
endfacet
facet normal 0 -1 0
outer loop
vertex 10.50649 0.01283 0
vertex 10.50649 0.01283 10
vertex 9.49351 0.01283 0
endloop
endfacet
facet normal 0 -1 0
outer loop
vertex 9.49351 0.01283 0
vertex 10.50649 0.01283 10
vertex 9.49351 0.01283 10
endloop
endfacet
facet normal 0.8978050968886252 -0.44039301538603715 0
outer loop
vertex 19.18958 6.05644 0
vertex 19.18958 6.05644 10
vertex 18.74347 5.14698 0
endloop
endfacet
facet normal 0.8978050968886252 -0.44039301538603715 0
outer loop
vertex 18.74347 5.14698 0
vertex 19.18958 6.05644 10
vertex 18.74347 5.14698 10
endloop
endfacet
facet normal 0.6513724588664773 -0.7587581431722754 0
outer loop
vertex 16.88967 2.75207 0
vertex 16.88967 2.75207 10
vertex 16.12106 2.09224 0
endloop
endfacet
facet normal 0.6513724588664773 -0.7587581431722754 0
outer loop
vertex 16.12106 2.09224 0
vertex 16.88967 2.75207 10
vertex 16.12106 2.09224 10
endloop
endfacet
facet normal -0.20129609662326514 -0.979530439284169 0
outer loop
vertex 8.48572 0.11532 0
vertex 8.48572 0.11532 10
vertex 7.49347 0.31923 0
endloop
endfacet
facet normal -0.20129609662326514 -0.979530439284169 0
outer loop
vertex 7.49347 0.31923 0
vertex 8.48572 0.11532 10
vertex 7.49347 0.31923 10
endloop
endfacet
facet normal 0.48530678896428336 -0.874343937238188 0
outer loop
vertex 15.28964 1.51356 0
vertex 15.28964 1.51356 10
vertex 14.40394 1.02195 0
endloop
endfacet
facet normal 0.48530678896428336 -0.874343937238188 0
outer loop
vertex 14.40394 1.02195 0
vertex 15.28964 1.51356 10
vertex 14.40394 1.02195 10
endloop
endfacet
facet normal -0.6513724588664768 -0.758758143172276 0
outer loop
vertex 3.87894 2.09224 0
vertex 3.87894 2.09224 10
vertex 3.11033 2.75207 0
endloop
endfacet
facet normal -0.6513724588664768 -0.758758143172276 0
outer loop
vertex 3.11033 2.75207 0
vertex 3.87894 2.09224 10
vertex 3.11033 2.75207 10
endloop
endfacet
facet normal -0.48530678896428336 -0.874343937238188 0
outer loop
vertex 5.59606 1.02195 0
vertex 5.59606 1.02195 10
vertex 4.71036 1.51356 0
endloop
endfacet
facet normal -0.48530678896428336 -0.874343937238188 0
outer loop
vertex 4.71036 1.51356 0
vertex 5.59606 1.02195 10
vertex 4.71036 1.51356 10
endloop
endfacet
facet normal -0.3943505526725248 0.9189600870586678 0
outer loop
vertex 5.59606 18.97805 0
vertex 5.59606 18.97805 10
vertex 6.52695 19.37752 0
endloop
endfacet
facet normal -0.3943505526725248 0.9189600870586678 0
outer loop
vertex 6.52695 19.37752 0
vertex 5.59606 18.97805 10
vertex 6.52695 19.37752 10
endloop
endfacet
facet normal 0.7247970499683982 -0.6889624346487312 0
outer loop
vertex 17.58758 3.48628 0
vertex 17.58758 3.48628 10
vertex 16.88967 2.75207 0
endloop
endfacet
facet normal 0.7247970499683982 -0.6889624346487312 0
outer loop
vertex 16.88967 2.75207 0
vertex 17.58758 3.48628 10
vertex 16.88967 2.75207 10
endloop
endfacet
facet normal -0.7247970499683988 0.6889624346487305 0
outer loop
vertex 2.41242 16.51372 0
vertex 2.41242 16.51372 10
vertex 3.11033 17.24793 0
endloop
endfacet
facet normal -0.7247970499683988 0.6889624346487305 0
outer loop
vertex 3.11033 17.24793 0
vertex 2.41242 16.51372 10
vertex 3.11033 17.24793 10
endloop
endfacet
facet normal -0.8486425686715844 0.5289667197834805 0
outer loop
vertex 1.34815 15 8.29025
vertex 1.79237 15.71268 0
vertex 1.34815 15 0
endloop
endfacet
facet normal -0.8486425686715844 0.5289667197834805 0
outer loop
vertex 1.34815 15 8.29025
vertex 1.34815 15 10
vertex 1.79237 15.71268 10
endloop
endfacet
facet normal -0.8486425686715845 0.5289667197834806 0
outer loop
vertex 1.34815 15 8.29025
vertex 1.79237 15.71268 10
vertex 1.79237 15.71268 0
endloop
endfacet
facet normal -0.8486269810585734 0.5289917267967542 0
outer loop
vertex 1.25653 14.85302 10
vertex 1.34815 15 8.29025
vertex 1.34815 15 0
endloop
endfacet
facet normal -0.8486269810585733 0.5289917267967542 0
outer loop
vertex 1.25653 14.85302 10
vertex 1.34815 15 0
vertex 1.25653 14.85302 0
endloop
endfacet
facet normal -0.8486269810585733 0.5289917267967542 0
outer loop
vertex 1.34815 15 8.29025
vertex 1.25653 14.85302 10
vertex 1.34815 15 10
endloop
endfacet
facet normal -0.6513724588664765 0.7587581431722763 0
outer loop
vertex 3.11033 17.24793 0
vertex 3.11033 17.24793 10
vertex 3.87894 17.90776 0
endloop
endfacet
facet normal -0.6513724588664765 0.7587581431722763 0
outer loop
vertex 3.87894 17.90776 0
vertex 3.11033 17.24793 10
vertex 3.87894 17.90776 10
endloop
endfacet
facet normal 0.5712646246981289 0.8207659401854503 0
outer loop
vertex 15.28964 18.48644 0
vertex 15.28964 18.48644 10
vertex 16.12106 17.90776 0
endloop
endfacet
facet normal 0.5712646246981289 0.8207659401854503 0
outer loop
vertex 16.12106 17.90776 0
vertex 15.28964 18.48644 10
vertex 16.12106 17.90776 10
endloop
endfacet
facet normal 0.9884690704933202 0.15142290671517164 0
outer loop
vertex 19.7953 12.01299 0
vertex 19.7953 12.01299 10
vertex 19.94869 11.01168 0
endloop
endfacet
facet normal 0.9884690704933202 0.15142290671517164 0
outer loop
vertex 19.94869 11.01168 0
vertex 19.7953 12.01299 10
vertex 19.94869 11.01168 10
endloop
endfacet
facet normal -0.8978050968886256 0.4403930153860359 0
outer loop
vertex 0.81042 13.94356 0
vertex 0.81042 13.94356 10
vertex 1.25653 14.85302 0
endloop
endfacet
facet normal -0.8978050968886256 0.4403930153860359 0
outer loop
vertex 1.25653 14.85302 0
vertex 0.81042 13.94356 10
vertex 1.25653 14.85302 10
endloop
endfacet
facet normal 0.8486425686715854 0.5289667197834786 0
outer loop
vertex 18.20763 15.71268 10
vertex 18.65185 15 1.70975
vertex 18.65185 15 0
endloop
endfacet
facet normal 0.8486425686715856 0.5289667197834786 0
outer loop
vertex 18.20763 15.71268 10
vertex 18.65185 15 0
vertex 18.20763 15.71268 0
endloop
endfacet
facet normal 0.8486425686715856 0.5289667197834786 0
outer loop
vertex 18.65185 15 1.70975
vertex 18.20763 15.71268 10
vertex 18.65185 15 10
endloop
endfacet
facet normal 0.8486269810585761 0.5289917267967496 0
outer loop
vertex 18.65185 15 1.70975
vertex 18.74347 14.85302 0
vertex 18.65185 15 0
endloop
endfacet
facet normal 0.8486269810585763 0.5289917267967497 0
outer loop
vertex 18.65185 15 1.70975
vertex 18.65185 15 10
vertex 18.74347 14.85302 10
endloop
endfacet
facet normal 0.8486269810585761 0.5289917267967496 0
outer loop
vertex 18.65185 15 1.70975
vertex 18.74347 14.85302 10
vertex 18.74347 14.85302 0
endloop
endfacet
facet normal -0.7247970499683984 -0.688962434648731 0
outer loop
vertex 3.11033 2.75207 0
vertex 3.11033 2.75207 10
vertex 2.41242 3.48628 0
endloop
endfacet
facet normal -0.7247970499683984 -0.688962434648731 0
outer loop
vertex 2.41242 3.48628 0
vertex 3.11033 2.75207 10
vertex 2.41242 3.48628 10
endloop
endfacet
facet normal 0.7247970499683987 0.6889624346487309 0
outer loop
vertex 16.88967 17.24793 0
vertex 16.88967 17.24793 10
vertex 17.58758 16.51372 0
endloop
endfacet
facet normal 0.7247970499683987 0.6889624346487309 0
outer loop
vertex 17.58758 16.51372 0
vertex 16.88967 17.24793 10
vertex 17.58758 16.51372 10
endloop
endfacet
facet normal 0 1 0
outer loop
vertex 9.49351 19.98717 0
vertex 9.49351 19.98717 10
vertex 10.50649 19.98717 0
endloop
endfacet
facet normal 0 1 0
outer loop
vertex 10.50649 19.98717 0
vertex 9.49351 19.98717 10
vertex 10.50649 19.98717 10
endloop
endfacet
facet normal -0.79077626903439 -0.6121052951347914 0
outer loop
vertex 2.41242 3.48628 0
vertex 2.41242 3.48628 10
vertex 1.79237 4.28732 0
endloop
endfacet
facet normal -0.79077626903439 -0.6121052951347914 0
outer loop
vertex 1.79237 4.28732 0
vertex 2.41242 3.48628 10
vertex 1.79237 4.28732 10
endloop
endfacet
facet normal -0.8978050968886255 -0.4403930153860363 0
outer loop
vertex 1.25653 5.14698 0
vertex 1.25653 5.14698 10
vertex 0.81042 6.05644 0
endloop
endfacet
facet normal -0.8978050968886255 -0.4403930153860363 0
outer loop
vertex 0.81042 6.05644 0
vertex 1.25653 5.14698 10
vertex 0.81042 6.05644 10
endloop
endfacet
facet normal 0.20129609662326559 0.9795304392841688 0
outer loop
vertex 11.51428 19.88468 0
vertex 11.51428 19.88468 10
vertex 12.50653 19.68077 0
endloop
endfacet
facet normal 0.20129609662326559 0.9795304392841688 0
outer loop
vertex 12.50653 19.68077 0
vertex 11.51428 19.88468 10
vertex 12.50653 19.68077 10
endloop
endfacet
facet normal 0.9680759900255808 0.2506568920576323 0
outer loop
vertex 19.54139 12.99363 0
vertex 19.54139 12.99363 10
vertex 19.7953 12.01299 0
endloop
endfacet
facet normal 0.9680759900255808 0.2506568920576323 0
outer loop
vertex 19.7953 12.01299 0
vertex 19.54139 12.99363 10
vertex 19.7953 12.01299 10
endloop
endfacet
facet normal -0.29936527420340453 0.9541385814446035 0
outer loop
vertex 6.52695 19.37752 0
vertex 6.52695 19.37752 10
vertex 7.49347 19.68077 0
endloop
endfacet
facet normal -0.29936527420340453 0.9541385814446035 0
outer loop
vertex 7.49347 19.68077 0
vertex 6.52695 19.37752 10
vertex 7.49347 19.68077 10
endloop
endfacet
facet normal -0.9884690704933199 -0.15142290671517344 0
outer loop
vertex 0.2047 7.98701 0
vertex 0.2047 7.98701 10
vertex 0.05131 8.98832 0
endloop
endfacet
facet normal -0.9884690704933199 -0.15142290671517344 0
outer loop
vertex 0.05131 8.98832 0
vertex 0.2047 7.98701 10
vertex 0.05131 8.98832 10
endloop
endfacet
facet normal 0.6513724588664771 0.7587581431722756 0
outer loop
vertex 16.12106 17.90776 0
vertex 16.12106 17.90776 10
vertex 16.88967 17.24793 0
endloop
endfacet
facet normal 0.6513724588664771 0.7587581431722756 0
outer loop
vertex 16.88967 17.24793 0
vertex 16.12106 17.90776 10
vertex 16.88967 17.24793 10
endloop
endfacet
facet normal -0.937753881107893 0.3473005304733694 0
outer loop
vertex 0.45861 12.99363 0
vertex 0.45861 12.99363 10
vertex 0.81042 13.94356 0
endloop
endfacet
facet normal -0.937753881107893 0.3473005304733694 0
outer loop
vertex 0.81042 13.94356 0
vertex 0.45861 12.99363 10
vertex 0.81042 13.94356 10
endloop
endfacet
facet normal 0.9377538811078928 0.34730053047336973 0
outer loop
vertex 19.18958 13.94356 0
vertex 19.18958 13.94356 10
vertex 19.54139 12.99363 0
endloop
endfacet
facet normal 0.9377538811078928 0.34730053047336973 0
outer loop
vertex 19.54139 12.99363 0
vertex 19.18958 13.94356 10
vertex 19.54139 12.99363 10
endloop
endfacet
facet normal -0.9680759900255811 0.25065689205763125 0
outer loop
vertex 0.2047 12.01299 0
vertex 0.2047 12.01299 10
vertex 0.45861 12.99363 0
endloop
endfacet
facet normal -0.9680759900255811 0.25065689205763125 0
outer loop
vertex 0.45861 12.99363 0
vertex 0.2047 12.01299 10
vertex 0.45861 12.99363 10
endloop
endfacet
facet normal -0.4853067889642817 0.874343937238189 0
outer loop
vertex 4.71036 18.48644 0
vertex 4.71036 18.48644 10
vertex 5.59606 18.97805 0
endloop
endfacet
facet normal -0.4853067889642817 0.874343937238189 0
outer loop
vertex 5.59606 18.97805 0
vertex 4.71036 18.48644 10
vertex 5.59606 18.97805 10
endloop
endfacet
facet normal -0.7907762690343894 0.6121052951347923 0
outer loop
vertex 1.79237 15.71268 0
vertex 1.79237 15.71268 10
vertex 2.41242 16.51372 0
endloop
endfacet
facet normal -0.7907762690343894 0.6121052951347923 0
outer loop
vertex 2.41242 16.51372 0
vertex 1.79237 15.71268 10
vertex 2.41242 16.51372 10
endloop
endfacet
facet normal 0.1011759173939785 0.994868550985248 0
outer loop
vertex 10.50649 19.98717 0
vertex 10.50649 19.98717 10
vertex 11.51428 19.88468 0
endloop
endfacet
facet normal 0.1011759173939785 0.994868550985248 0
outer loop
vertex 11.51428 19.88468 0
vertex 10.50649 19.98717 10
vertex 11.51428 19.88468 10
endloop
endfacet
facet normal 0.7907762690343888 -0.6121052951347931 0
outer loop
vertex 18.20763 4.28732 0
vertex 18.20763 4.28732 10
vertex 17.58758 3.48628 0
endloop
endfacet
facet normal 0.7907762690343888 -0.6121052951347931 0
outer loop
vertex 17.58758 3.48628 0
vertex 18.20763 4.28732 10
vertex 17.58758 3.48628 10
endloop
endfacet
facet normal -0.5712646246981289 0.8207659401854503 0
outer loop
vertex 3.87894 17.90776 0
vertex 3.87894 17.90776 10
vertex 4.71036 18.48644 0
endloop
endfacet
facet normal -0.5712646246981289 0.8207659401854503 0
outer loop
vertex 4.71036 18.48644 0
vertex 3.87894 17.90776 10
vertex 4.71036 18.48644 10
endloop
endfacet
facet normal 0.4853067889642817 0.874343937238189 0
outer loop
vertex 14.40394 18.97805 0
vertex 14.40394 18.97805 10
vertex 15.28964 18.48644 0
endloop
endfacet
facet normal 0.4853067889642817 0.874343937238189 0
outer loop
vertex 15.28964 18.48644 0
vertex 14.40394 18.97805 10
vertex 15.28964 18.48644 10
endloop
endfacet
facet normal 0.20129609662326514 -0.979530439284169 0
outer loop
vertex 12.50653 0.31923 0
vertex 12.50653 0.31923 10
vertex 11.51428 0.11532 0
endloop
endfacet
facet normal 0.20129609662326514 -0.979530439284169 0
outer loop
vertex 11.51428 0.11532 0
vertex 12.50653 0.31923 10
vertex 11.51428 0.11532 10
endloop
endfacet
facet normal 0.5712646246981274 -0.8207659401854513 0
outer loop
vertex 16.12106 2.09224 0
vertex 16.12106 2.09224 10
vertex 15.28964 1.51356 0
endloop
endfacet
facet normal 0.5712646246981274 -0.8207659401854513 0
outer loop
vertex 15.28964 1.51356 0
vertex 16.12106 2.09224 10
vertex 15.28964 1.51356 10
endloop
endfacet
facet normal -0.3943505526725239 -0.918960087058668 0
outer loop
vertex 6.52695 0.62248 0
vertex 6.52695 0.62248 10
vertex 5.59606 1.02195 0
endloop
endfacet
facet normal -0.3943505526725239 -0.918960087058668 0
outer loop
vertex 5.59606 1.02195 0
vertex 6.52695 0.62248 10
vertex 5.59606 1.02195 10
endloop
endfacet
facet normal 0.8486425686715853 -0.5289667197834791 0
outer loop
vertex 18.65185 5 8.29025
vertex 18.20763 4.28732 0
vertex 18.65185 5 0
endloop
endfacet
facet normal 0.8486425686715853 -0.5289667197834791 0
outer loop
vertex 18.65185 5 8.29025
vertex 18.65185 5 10
vertex 18.20763 4.28732 10
endloop
endfacet
facet normal 0.8486425686715853 -0.5289667197834791 0
outer loop
vertex 18.65185 5 8.29025
vertex 18.20763 4.28732 10
vertex 18.20763 4.28732 0
endloop
endfacet
facet normal 0.8486269810585778 -0.5289917267967472 0
outer loop
vertex 18.74347 5.14698 10
vertex 18.65185 5 8.29025
vertex 18.65185 5 0
endloop
endfacet
facet normal 0.8486269810585777 -0.5289917267967473 0
outer loop
vertex 18.74347 5.14698 10
vertex 18.65185 5 0
vertex 18.74347 5.14698 0
endloop
endfacet
facet normal 0.8486269810585776 -0.5289917267967472 0
outer loop
vertex 18.65185 5 8.29025
vertex 18.74347 5.14698 10
vertex 18.65185 5 10
endloop
endfacet
facet normal 0.10117591739397898 -0.994868550985248 0
outer loop
vertex 11.51428 0.11532 0
vertex 11.51428 0.11532 10
vertex 10.50649 0.01283 0
endloop
endfacet
facet normal 0.10117591739397898 -0.994868550985248 0
outer loop
vertex 10.50649 0.01283 0
vertex 11.51428 0.11532 10
vertex 10.50649 0.01283 10
endloop
endfacet
facet normal 0.9884690704933202 -0.15142290671517164 0
outer loop
vertex 19.94869 8.98832 0
vertex 19.94869 8.98832 10
vertex 19.7953 7.98701 0
endloop
endfacet
facet normal 0.9884690704933202 -0.15142290671517164 0
outer loop
vertex 19.7953 7.98701 0
vertex 19.94869 8.98832 10
vertex 19.7953 7.98701 10
endloop
endfacet
facet normal 0.2993652742034057 -0.9541385814446032 0
outer loop
vertex 13.47305 0.62248 0
vertex 13.47305 0.62248 10
vertex 12.50653 0.31923 0
endloop
endfacet
facet normal 0.2993652742034057 -0.9541385814446032 0
outer loop
vertex 12.50653 0.31923 0
vertex 13.47305 0.62248 10
vertex 12.50653 0.31923 10
endloop
endfacet
facet normal -0.9987163375223299 0.050652513915734956 0
outer loop
vertex 0 10 0
vertex 0 10 10
vertex 0.05131 11.01168 0
endloop
endfacet
facet normal -0.9987163375223299 0.050652513915734956 0
outer loop
vertex 0.05131 11.01168 0
vertex 0 10 10
vertex 0.05131 11.01168 10
endloop
endfacet
facet normal -0.1011759173939785 0.994868550985248 0
outer loop
vertex 8.48572 19.88468 0
vertex 8.48572 19.88468 10
vertex 9.49351 19.98717 0
endloop
endfacet
facet normal -0.1011759173939785 0.994868550985248 0
outer loop
vertex 9.49351 19.98717 0
vertex 8.48572 19.88468 10
vertex 9.49351 19.98717 10
endloop
endfacet
facet normal -0.9680759900255811 -0.25065689205763125 0
outer loop
vertex 0.45861 7.00637 0
vertex 0.45861 7.00637 10
vertex 0.2047 7.98701 0
endloop
endfacet
facet normal -0.9680759900255811 -0.25065689205763125 0
outer loop
vertex 0.2047 7.98701 0
vertex 0.45861 7.00637 10
vertex 0.2047 7.98701 10
endloop
endfacet
facet normal 0.2993652742034043 0.9541385814446037 0
outer loop
vertex 12.50653 19.68077 0
vertex 12.50653 19.68077 10
vertex 13.47305 19.37752 0
endloop
endfacet
facet normal 0.2993652742034043 0.9541385814446037 0
outer loop
vertex 13.47305 19.37752 0
vertex 12.50653 19.68077 10
vertex 13.47305 19.37752 10
endloop
endfacet
facet normal 0.39435055267252506 0.9189600870586676 0
outer loop
vertex 13.47305 19.37752 0
vertex 13.47305 19.37752 10
vertex 14.40394 18.97805 0
endloop
endfacet
facet normal 0.39435055267252506 0.9189600870586676 0
outer loop
vertex 14.40394 18.97805 0
vertex 13.47305 19.37752 10
vertex 14.40394 18.97805 10
endloop
endfacet
facet normal 0.8978050968886253 0.44039301538603676 0
outer loop
vertex 18.74347 14.85302 0
vertex 18.74347 14.85302 10
vertex 19.18958 13.94356 0
endloop
endfacet
facet normal 0.8978050968886253 0.44039301538603676 0
outer loop
vertex 19.18958 13.94356 0
vertex 18.74347 14.85302 10
vertex 19.18958 13.94356 10
endloop
endfacet
facet normal -0.9987163375223299 -0.050652513915734956 0
outer loop
vertex 0.05131 8.98832 0
vertex 0.05131 8.98832 10
vertex 0 10 0
endloop
endfacet
facet normal -0.9987163375223299 -0.050652513915734956 0
outer loop
vertex 0 10 0
vertex 0.05131 8.98832 10
vertex 0 10 10
endloop
endfacet
facet normal 0.9987163375223299 0.0506525139157358 0
outer loop
vertex 19.94869 11.01168 0
vertex 19.94869 11.01168 10
vertex 20 10 0
endloop
endfacet
facet normal 0.9987163375223299 0.0506525139157358 0
outer loop
vertex 20 10 0
vertex 19.94869 11.01168 10
vertex 20 10 10
endloop
endfacet
facet normal -0.848642568671584 -0.5289667197834811 0
outer loop
vertex 1.79237 4.28732 10
vertex 1.34815 5 1.70975
vertex 1.34815 5 0
endloop
endfacet
facet normal -0.8486425686715839 -0.528966719783481 0
outer loop
vertex 1.79237 4.28732 10
vertex 1.34815 5 0
vertex 1.79237 4.28732 0
endloop
endfacet
facet normal -0.848642568671584 -0.528966719783481 0
outer loop
vertex 1.34815 5 1.70975
vertex 1.79237 4.28732 10
vertex 1.34815 5 10
endloop
endfacet
facet normal -0.8486269810585748 -0.5289917267967519 0
outer loop
vertex 1.34815 5 1.70975
vertex 1.25653 5.14698 0
vertex 1.34815 5 0
endloop
endfacet
facet normal -0.8486269810585748 -0.5289917267967518 0
outer loop
vertex 1.34815 5 1.70975
vertex 1.34815 5 10
vertex 1.25653 5.14698 10
endloop
endfacet
facet normal -0.8486269810585747 -0.5289917267967518 0
outer loop
vertex 1.34815 5 1.70975
vertex 1.25653 5.14698 10
vertex 1.25653 5.14698 0
endloop
endfacet
facet normal 0.7907762690343881 0.612105295134794 0
outer loop
vertex 17.58758 16.51372 0
vertex 17.58758 16.51372 10
vertex 18.20763 15.71268 0
endloop
endfacet
facet normal 0.7907762690343881 0.612105295134794 0
outer loop
vertex 18.20763 15.71268 0
vertex 17.58758 16.51372 10
vertex 18.20763 15.71268 10
endloop
endfacet
facet normal 0.9987163375223299 -0.0506525139157358 0
outer loop
vertex 20 10 0
vertex 20 10 10
vertex 19.94869 8.98832 0
endloop
endfacet
facet normal 0.9987163375223299 -0.0506525139157358 0
outer loop
vertex 19.94869 8.98832 0
vertex 20 10 10
vertex 19.94869 8.98832 10
endloop
endfacet
facet normal -0.20129609662326559 0.9795304392841688 0
outer loop
vertex 7.49347 19.68077 0
vertex 7.49347 19.68077 10
vertex 8.48572 19.88468 0
endloop
endfacet
facet normal -0.20129609662326559 0.9795304392841688 0
outer loop
vertex 8.48572 19.88468 0
vertex 7.49347 19.68077 10
vertex 8.48572 19.88468 10
endloop
endfacet
facet normal -0.937753881107893 -0.3473005304733694 0
outer loop
vertex 0.81042 6.05644 0
vertex 0.81042 6.05644 10
vertex 0.45861 7.00637 0
endloop
endfacet
facet normal -0.937753881107893 -0.3473005304733694 0
outer loop
vertex 0.45861 7.00637 0
vertex 0.81042 6.05644 10
vertex 0.45861 7.00637 10
endloop
endfacet
facet normal 0.9377538811078928 -0.34730053047336973 0
outer loop
vertex 19.54139 7.00637 0
vertex 19.54139 7.00637 10
vertex 19.18958 6.05644 0
endloop
endfacet
facet normal 0.9377538811078928 -0.34730053047336973 0
outer loop
vertex 19.18958 6.05644 0
vertex 19.54139 7.00637 10
vertex 19.18958 6.05644 10
endloop
endfacet
facet normal -0.5712646246981274 -0.8207659401854513 0
outer loop
vertex 4.71036 1.51356 0
vertex 4.71036 1.51356 10
vertex 3.87894 2.09224 0
endloop
endfacet
facet normal -0.5712646246981274 -0.8207659401854513 0
outer loop
vertex 3.87894 2.09224 0
vertex 4.71036 1.51356 10
vertex 3.87894 2.09224 10
endloop
endfacet
facet normal -0.2993652742034059 -0.9541385814446032 0
outer loop
vertex 7.49347 0.31923 0
vertex 7.49347 0.31923 10
vertex 6.52695 0.62248 0
endloop
endfacet
facet normal -0.2993652742034059 -0.9541385814446032 0
outer loop
vertex 6.52695 0.62248 0
vertex 7.49347 0.31923 10
vertex 6.52695 0.62248 10
endloop
endfacet
facet normal 0.9680759900255808 -0.2506568920576323 0
outer loop
vertex 19.7953 7.98701 0
vertex 19.7953 7.98701 10
vertex 19.54139 7.00637 0
endloop
endfacet
facet normal 0.9680759900255808 -0.2506568920576323 0
outer loop
vertex 19.54139 7.00637 0
vertex 19.7953 7.98701 10
vertex 19.54139 7.00637 10
endloop
endfacet
facet normal -0.9884690704933199 0.15142290671517344 0
outer loop
vertex 0.05131 11.01168 0
vertex 0.05131 11.01168 10
vertex 0.2047 12.01299 0
endloop
endfacet
facet normal -0.9884690704933199 0.15142290671517344 0
outer loop
vertex 0.2047 12.01299 0
vertex 0.05131 11.01168 10
vertex 0.2047 12.01299 10
endloop
endfacet
facet normal 0.3943505526725242 -0.9189600870586679 0
outer loop
vertex 14.40394 1.02195 0
vertex 14.40394 1.02195 10
vertex 13.47305 0.62248 0
endloop
endfacet
facet normal 0.3943505526725242 -0.9189600870586679 0
outer loop
vertex 13.47305 0.62248 0
vertex 14.40394 1.02195 10
vertex 13.47305 0.62248 10
endloop
endfacet
facet normal -0.10117591739397898 -0.994868550985248 0
outer loop
vertex 9.49351 0.01283 0
vertex 9.49351 0.01283 10
vertex 8.48572 0.11532 0
endloop
endfacet
facet normal -0.10117591739397898 -0.994868550985248 0
outer loop
vertex 8.48572 0.11532 0
vertex 9.49351 0.01283 10
vertex 8.48572 0.11532 10
endloop
endfacet
facet normal 0 -1 0
outer loop
vertex 0.49181 5 5.49181
vertex -5 5 0
vertex 0.49181 5 0
endloop
endfacet
facet normal 0 -1 0
outer loop
vertex 0.49181 5 5.49181
vertex 0.49181 5 10
vertex -5 5 10
endloop
endfacet
facet normal 0 -1 0
outer loop
vertex 0.49181 5 5.49181
vertex -5 5 10
vertex -5 5 0
endloop
endfacet
facet normal 0 -1 0
outer loop
vertex 0.97352 5 5.97352
vertex 0.49181 5 5.49181
vertex 0.49181 5 0
endloop
endfacet
facet normal 0 -1 0
outer loop
vertex 0.97352 5 5.97352
vertex 0.49181 5 0
vertex 0.97352 5 0
endloop
endfacet
facet normal 0 -1 0
outer loop
vertex 0.97352 5 10
vertex 0.49181 5 10
vertex 0.49181 5 5.49181
endloop
endfacet
facet normal 0 -1 0
outer loop
vertex 0.97352 5 10
vertex 0.49181 5 5.49181
vertex 0.97352 5 5.97352
endloop
endfacet
facet normal 0 -1 0
outer loop
vertex 0.97352 5 5.97352
vertex 0.97352 5 0
vertex 1.24071 5 0
endloop
endfacet
facet normal 0 -1 0
outer loop
vertex 0.97352 5 5.97352
vertex 1.24071 5 0
vertex 1.24071 5 6.24071
endloop
endfacet
facet normal 0 -1 0
outer loop
vertex 1.24071 5 10
vertex 0.97352 5 10
vertex 0.97352 5 5.97352
endloop
endfacet
facet normal 0 -1 0
outer loop
vertex 1.24071 5 10
vertex 0.97352 5 5.97352
vertex 1.24071 5 6.24071
endloop
endfacet
facet normal 0 -1 0
outer loop
vertex 1.24071 5 0
vertex 1.32863 5 0
vertex 1.32863 5 6.32863
endloop
endfacet
facet normal 0 -1 0
outer loop
vertex 1.24071 5 0
vertex 1.32863 5 6.32863
vertex 1.24071 5 6.24071
endloop
endfacet
facet normal 0 -1 0
outer loop
vertex 1.32863 5 6.32863
vertex 1.32863 5 10
vertex 1.24071 5 10
endloop
endfacet
facet normal 0 -1 0
outer loop
vertex 1.32863 5 6.32863
vertex 1.24071 5 10
vertex 1.24071 5 6.24071
endloop
endfacet
facet normal 0 -1 0
outer loop
vertex 1.34815 5 0
vertex 1.34815 5 6.34815
vertex 1.32863 5 6.32863
endloop
endfacet
facet normal 0 -1 0
outer loop
vertex 1.34815 5 0
vertex 1.32863 5 6.32863
vertex 1.32863 5 0
endloop
endfacet
facet normal 0 -1 0
outer loop
vertex 1.34815 5 6.34815
vertex 1.34815 5 10
vertex 1.32863 5 10
endloop
endfacet
facet normal 0 -1 0
outer loop
vertex 1.34815 5 6.34815
vertex 1.32863 5 10
vertex 1.32863 5 6.32863
endloop
endfacet
facet normal -1 0 0
outer loop
vertex -5 5 10
vertex -5 9.71456 5.28544
vertex -5 9.71456 0
endloop
endfacet
facet normal -1 0 0
outer loop
vertex -5 5 10
vertex -5 9.71456 0
vertex -5 5 0
endloop
endfacet
facet normal -1 0 0
outer loop
vertex -5 9.71456 5.28544
vertex -5 5 10
vertex -5 9.71456 10
endloop
endfacet
facet normal -1 0 0
outer loop
vertex -5 14.43092 0.56908
vertex -5 15 0
vertex -5 14.43092 0
endloop
endfacet
facet normal -1 0 0
outer loop
vertex -5 14.43092 10
vertex -5 15 10
vertex -5 15 0
endloop
endfacet
facet normal -1 0 0
outer loop
vertex -5 14.43092 10
vertex -5 15 0
vertex -5 14.43092 0.56908
endloop
endfacet
facet normal -1 0 0
outer loop
vertex -5 14.43092 0.56908
vertex -5 14.43092 0
vertex -5 9.71456 0
endloop
endfacet
facet normal -1 0 0
outer loop
vertex -5 14.43092 0.56908
vertex -5 9.71456 0
vertex -5 9.71456 5.28544
endloop
endfacet
facet normal -1 0 0
outer loop
vertex -5 9.71456 10
vertex -5 14.43092 10
vertex -5 14.43092 0.56908
endloop
endfacet
facet normal -1 0 0
outer loop
vertex -5 9.71456 10
vertex -5 14.43092 0.56908
vertex -5 9.71456 5.28544
endloop
endfacet
facet normal 0 1 0
outer loop
vertex -5 15 10
vertex -3.67388 15 8.67388
vertex -3.67388 15 0
endloop
endfacet
facet normal 0 1 0
outer loop
vertex -5 15 10
vertex -3.67388 15 0
vertex -5 15 0
endloop
endfacet
facet normal 0 1 0
outer loop
vertex -3.67388 15 8.67388
vertex -5 15 10
vertex -3.67388 15 10
endloop
endfacet
facet normal 0 1 0
outer loop
vertex 0.97352 15 4.02648
vertex 0.97352 15 0
vertex -3.67388 15 0
endloop
endfacet
facet normal 0 1 0
outer loop
vertex 0.97352 15 4.02648
vertex -3.67388 15 0
vertex -3.67388 15 8.67388
endloop
endfacet
facet normal 0 1 0
outer loop
vertex -3.67388 15 10
vertex 0.97352 15 10
vertex 0.97352 15 4.02648
endloop
endfacet
facet normal 0 1 0
outer loop
vertex -3.67388 15 10
vertex 0.97352 15 4.02648
vertex -3.67388 15 8.67388
endloop
endfacet
facet normal 0 1 0
outer loop
vertex 1.32863 15 3.67137
vertex 1.32863 15 0
vertex 0.97352 15 0
endloop
endfacet
facet normal 0 1 0
outer loop
vertex 1.32863 15 3.67137
vertex 0.97352 15 0
vertex 0.97352 15 4.02648
endloop
endfacet
facet normal 0 1 0
outer loop
vertex 1.32863 15 10
vertex 1.32863 15 3.67137
vertex 0.97352 15 4.02648
endloop
endfacet
facet normal 0 1 0
outer loop
vertex 1.32863 15 10
vertex 0.97352 15 4.02648
vertex 0.97352 15 10
endloop
endfacet
facet normal 0 1 0
outer loop
vertex 1.34815 15 3.65185
vertex 1.34815 15 0
vertex 1.32863 15 0
endloop
endfacet
facet normal 0 1 0
outer loop
vertex 1.34815 15 3.65185
vertex 1.32863 15 0
vertex 1.32863 15 3.67137
endloop
endfacet
facet normal 0 1 0
outer loop
vertex 1.34815 15 10
vertex 1.34815 15 3.65185
vertex 1.32863 15 3.67137
endloop
endfacet
facet normal 0 1 0
outer loop
vertex 1.34815 15 10
vertex 1.32863 15 3.67137
vertex 1.32863 15 10
endloop
endfacet
facet normal 0 0 1
outer loop
vertex -5 9.71456 10
vertex -5 5 10
vertex 0.49181 5 10
endloop
endfacet
facet normal 0 0 1
outer loop
vertex -5 14.43092 10
vertex -3.67388 15 10
vertex -5 15 10
endloop
endfacet
facet normal 0 0 1
outer loop
vertex -5 9.71456 10
vertex -4.47725 9.2658 10
vertex 0.97352 15 10
endloop
endfacet
facet normal 0 0 1
outer loop
vertex -5 9.71456 10
vertex 0.97352 15 10
vertex -3.67388 15 10
endloop
endfacet
facet normal 0 0 1
outer loop
vertex -5 9.71456 10
vertex -3.67388 15 10
vertex -5 14.43092 10
endloop
endfacet
facet normal 0 0 1
outer loop
vertex -1.708 8.80941 10
vertex -3.14562 10.66667 10
vertex -4.47725 9.2658 10
endloop
endfacet
facet normal 0 0 1
outer loop
vertex -1.708 8.80941 10
vertex -4.47725 9.2658 10
vertex -2.37105 7.45768 10
endloop
endfacet
facet normal 0 0 1
outer loop
vertex 1.32863 15 10
vertex 0.97352 15 10
vertex -3.14562 10.66667 10
endloop
endfacet
facet normal 0 0 1
outer loop
vertex 1.32863 15 10
vertex -3.14562 10.66667 10
vertex -1.708 8.80941 10
endloop
endfacet
facet normal 0 0 1
outer loop
vertex -2.02782 8.15741 10
vertex -2.37105 7.45768 10
vertex 0.49181 5 10
endloop
endfacet
facet normal 0 0 1
outer loop
vertex -2.02782 8.15741 10
vertex 0.49181 5 10
vertex 0.97352 5 10
endloop
endfacet
facet normal 0 0 1
outer loop
vertex -1.708 8.80941 10
vertex -2.02782 8.15741 10
vertex 0.97352 5 10
endloop
endfacet
facet normal 0 0 1
outer loop
vertex -1.708 8.80941 10
vertex 0.97352 5 10
vertex 1.24071 5 10
endloop
endfacet
facet normal 0 0 1
outer loop
vertex -1.12399 10 10
vertex -1.708 8.80941 10
vertex 0.51957 5.93163 10
endloop
endfacet
facet normal 0 0 1
outer loop
vertex -1.12399 10 10
vertex 0.51957 5.93163 10
vertex 0.35968 6.97533 10
endloop
endfacet
facet normal 0 0 1
outer loop
vertex 0.35968 6.97533 10
vertex 0.51957 5.93163 10
vertex 1.24071 5 10
endloop
endfacet
facet normal 0 0 1
outer loop
vertex 0.35968 6.97533 10
vertex 1.24071 5 10
vertex 1.32863 5 10
endloop
endfacet
facet normal 0 0 1
outer loop
vertex -1.12399 10 10
vertex 0.35968 6.97533 10
vertex -0.34649 11.58502 10
endloop
endfacet
facet normal 0 0 1
outer loop
vertex 0.81042 13.94356 10
vertex -0.34649 11.58502 10
vertex -0.26357 11.0437 10
endloop
endfacet
facet normal 0 0 1
outer loop
vertex 0.45861 12.99363 10
vertex -0.26357 11.0437 10
vertex -0.18279 10.51641 10
endloop
endfacet
facet normal 0 0 1
outer loop
vertex 1.25653 14.85302 10
vertex 1.34815 15 10
vertex 1.32863 15 10
endloop
endfacet
facet normal 0 0 1
outer loop
vertex 0.07709 11.52013 10
vertex -0.18279 10.51641 10
vertex -0.02579 9.49155 10
endloop
endfacet
facet normal 0 0 1
outer loop
vertex 0.2047 7.98701 10
vertex 0.35968 6.97533 10
vertex 0.58622 6.51352 10
endloop
endfacet
facet normal 0 0 1
outer loop
vertex 0.05131 8.98832 10
vertex 0 10 10
vertex -0.02579 9.49155 10
endloop
endfacet
facet normal 0 0 1
outer loop
vertex 0.45861 7.00637 10
vertex 0.58622 6.51352 10
vertex 0.81042 6.05644 10
endloop
endfacet
facet normal 0 0 1
outer loop
vertex 0.2047 12.01299 10
vertex 0.07709 11.52013 10
vertex 0.05131 11.01168 10
endloop
endfacet
facet normal 0 0 1
outer loop
vertex 1.25653 5.14698 10
vertex 1.32863 5 10
vertex 1.34815 5 10
endloop
endfacet
facet normal 0 0 -1
outer loop
vertex 0.49181 5 0
vertex -5 5 0
vertex -5 9.71456 0
endloop
endfacet
facet normal 0 0 -1
outer loop
vertex -5 14.43092 0
vertex -5 15 0
vertex -3.67388 15 0
endloop
endfacet
facet normal 0 0 -1
outer loop
vertex -5 14.43092 0
vertex -3.67388 15 0
vertex 0.97352 15 0
endloop
endfacet
facet normal 0 0 -1
outer loop
vertex -5 14.43092 0
vertex 0.97352 15 0
vertex -4.47725 9.2658 0
endloop
endfacet
facet normal 0 0 -1
outer loop
vertex -5 14.43092 0
vertex -4.47725 9.2658 0
vertex -5 9.71456 0
endloop
endfacet
facet normal 0 0 -1
outer loop
vertex -2.37105 7.45768 0
vertex -4.47725 9.2658 0
vertex -3.14562 10.66667 0
endloop
endfacet
facet normal 0 0 -1
outer loop
vertex -2.37105 7.45768 0
vertex -3.14562 10.66667 0
vertex -1.708 8.80941 0
endloop
endfacet
facet normal 0 0 -1
outer loop
vertex -1.708 8.80941 0
vertex -3.14562 10.66667 0
vertex 0.97352 15 0
endloop
endfacet
facet normal 0 0 -1
outer loop
vertex -1.708 8.80941 0
vertex 0.97352 15 0
vertex 1.32863 15 0
endloop
endfacet
facet normal 0 0 -1
outer loop
vertex -2.37105 7.45768 0
vertex -2.02782 8.15741 0
vertex 0.97352 5 0
endloop
endfacet
facet normal 0 0 -1
outer loop
vertex -2.37105 7.45768 0
vertex 0.97352 5 0
vertex 0.49181 5 0
endloop
endfacet
facet normal 0 0 -1
outer loop
vertex -2.02782 8.15741 0
vertex -1.708 8.80941 0
vertex 1.24071 5 0
endloop
endfacet
facet normal 0 0 -1
outer loop
vertex -2.02782 8.15741 0
vertex 1.24071 5 0
vertex 0.97352 5 0
endloop
endfacet
facet normal 0 0 -1
outer loop
vertex -1.708 8.80941 0
vertex -1.12399 10 0
vertex 0.35968 6.97533 0
endloop
endfacet
facet normal 0 0 -1
outer loop
vertex -1.708 8.80941 0
vertex 0.35968 6.97533 0
vertex 0.51957 5.93163 0
endloop
endfacet
facet normal 0 0 -1
outer loop
vertex 0.51957 5.93163 0
vertex 0.35968 6.97533 0
vertex 1.32863 5 0
endloop
endfacet
facet normal 0 0 -1
outer loop
vertex 0.51957 5.93163 0
vertex 1.32863 5 0
vertex 1.24071 5 0
endloop
endfacet
facet normal 0 0 -1
outer loop
vertex -1.12399 10 0
vertex -0.34649 11.58502 0
vertex 0.35968 6.97533 0
endloop
endfacet
facet normal 0 0 -1
outer loop
vertex 0.81042 13.94356 0
vertex -0.26357 11.0437 0
vertex -0.34649 11.58502 0
endloop
endfacet
facet normal 0 0 -1
outer loop
vertex -0.18279 10.51641 0
vertex -0.26357 11.0437 0
vertex 0.45861 12.99363 0
endloop
endfacet
facet normal 0 0 -1
outer loop
vertex 1.25653 14.85302 0
vertex 1.32863 15 0
vertex 1.34815 15 0
endloop
endfacet
facet normal 0 0 -1
outer loop
vertex -0.02579 9.49155 0
vertex -0.18279 10.51641 0
vertex 0.07709 11.52013 0
endloop
endfacet
facet normal 0 0 -1
outer loop
vertex 0.58622 6.51352 0
vertex 0.35968 6.97533 0
vertex 0.2047 7.98701 0
endloop
endfacet
facet normal 0 0 -1
outer loop
vertex 0.05131 8.98832 0
vertex -0.02579 9.49155 0
vertex 0 10 0
endloop
endfacet
facet normal 0 0 -1
outer loop
vertex 0.81042 6.05644 0
vertex 0.58622 6.51352 0
vertex 0.45861 7.00637 0
endloop
endfacet
facet normal 0 0 -1
outer loop
vertex 0.05131 11.01168 0
vertex 0.07709 11.52013 0
vertex 0.2047 12.01299 0
endloop
endfacet
facet normal 0 0 -1
outer loop
vertex 1.34815 5 0
vertex 1.32863 5 0
vertex 1.25653 5.14698 0
endloop
endfacet
facet normal 0.8978050968886256 -0.4403930153860359 0
outer loop
vertex 1.25653 14.85302 0
vertex 0.81042 13.94356 10
vertex 0.81042 13.94356 0
endloop
endfacet
facet normal 0.8978050968886256 -0.4403930153860359 0
outer loop
vertex 1.25653 14.85302 10
vertex 0.81042 13.94356 10
vertex 1.25653 14.85302 0
endloop
endfacet
facet normal 0.8978050968886255 0.4403930153860363 0
outer loop
vertex 0.81042 6.05644 0
vertex 1.25653 5.14698 10
vertex 1.25653 5.14698 0
endloop
endfacet
facet normal 0.8978050968886255 0.4403930153860363 0
outer loop
vertex 0.81042 6.05644 10
vertex 1.25653 5.14698 10
vertex 0.81042 6.05644 0
endloop
endfacet
facet normal 0.9884690704933199 0.15142290671517344 0
outer loop
vertex 0.05131 8.98832 0
vertex 0.2047 7.98701 10
vertex 0.2047 7.98701 0
endloop
endfacet
facet normal 0.9884690704933199 0.15142290671517344 0
outer loop
vertex 0.05131 8.98832 10
vertex 0.2047 7.98701 10
vertex 0.05131 8.98832 0
endloop
endfacet
facet normal 0.937753881107893 -0.3473005304733694 0
outer loop
vertex 0.81042 13.94356 0
vertex 0.45861 12.99363 10
vertex 0.45861 12.99363 0
endloop
endfacet
facet normal 0.937753881107893 -0.3473005304733694 0
outer loop
vertex 0.81042 13.94356 10
vertex 0.45861 12.99363 10
vertex 0.81042 13.94356 0
endloop
endfacet
facet normal 0.9680759900255811 -0.25065689205763125 0
outer loop
vertex 0.45861 12.99363 0
vertex 0.2047 12.01299 10
vertex 0.2047 12.01299 0
endloop
endfacet
facet normal 0.9680759900255811 -0.25065689205763125 0
outer loop
vertex 0.45861 12.99363 10
vertex 0.2047 12.01299 10
vertex 0.45861 12.99363 0
endloop
endfacet
facet normal 0.9987163375223299 -0.050652513915734956 0
outer loop
vertex 0.05131 11.01168 0
vertex 0 10 10
vertex 0 10 0
endloop
endfacet
facet normal 0.9987163375223299 -0.050652513915734956 0
outer loop
vertex 0.05131 11.01168 10
vertex 0 10 10
vertex 0.05131 11.01168 0
endloop
endfacet
facet normal 0.9680759900255811 0.25065689205763125 0
outer loop
vertex 0.2047 7.98701 0
vertex 0.45861 7.00637 10
vertex 0.45861 7.00637 0
endloop
endfacet
facet normal 0.9680759900255811 0.25065689205763125 0
outer loop
vertex 0.2047 7.98701 10
vertex 0.45861 7.00637 10
vertex 0.2047 7.98701 0
endloop
endfacet
facet normal 0.9987163375223299 0.050652513915734956 0
outer loop
vertex 0 10 0
vertex 0.05131 8.98832 10
vertex 0.05131 8.98832 0
endloop
endfacet
facet normal 0.9987163375223299 0.050652513915734956 0
outer loop
vertex 0 10 10
vertex 0.05131 8.98832 10
vertex 0 10 0
endloop
endfacet
facet normal 0.937753881107893 0.3473005304733694 0
outer loop
vertex 0.45861 7.00637 0
vertex 0.81042 6.05644 10
vertex 0.81042 6.05644 0
endloop
endfacet
facet normal 0.937753881107893 0.3473005304733694 0
outer loop
vertex 0.45861 7.00637 10
vertex 0.81042 6.05644 10
vertex 0.45861 7.00637 0
endloop
endfacet
facet normal 0.9884690704933199 -0.15142290671517344 0
outer loop
vertex 0.2047 12.01299 0
vertex 0.05131 11.01168 10
vertex 0.05131 11.01168 0
endloop
endfacet
facet normal 0.9884690704933199 -0.15142290671517344 0
outer loop
vertex 0.2047 12.01299 10
vertex 0.05131 11.01168 10
vertex 0.2047 12.01299 0
endloop
endfacet
facet normal 0.8486269810585733 -0.5289917267967542 0
outer loop
vertex 1.34815 15 8.29025
vertex 1.25653 14.85302 10
vertex 1.25653 14.85302 0
endloop
endfacet
facet normal 0.8486269810585735 -0.5289917267967542 0
outer loop
vertex 1.34815 15 8.29025
vertex 1.25653 14.85302 0
vertex 1.34815 15 0
endloop
endfacet
facet normal 0.8486269810585733 -0.5289917267967542 0
outer loop
vertex 1.34815 15 10
vertex 1.25653 14.85302 10
vertex 1.34815 15 8.29025
endloop
endfacet
facet normal 0.8486269810585748 0.5289917267967519 0
outer loop
vertex 1.34815 5 1.70975
vertex 1.34815 5 0
vertex 1.25653 5.14698 0
endloop
endfacet
facet normal 0.8486269810585748 0.5289917267967518 0
outer loop
vertex 1.34815 5 10
vertex 1.34815 5 1.70975
vertex 1.25653 5.14698 0
endloop
endfacet
facet normal 0.8486269810585747 0.5289917267967519 0
outer loop
vertex 1.34815 5 10
vertex 1.25653 5.14698 0
vertex 1.25653 5.14698 10
endloop
endfacet
endsolid JSxCAD
