<svg viewBox="-250 -250 500 500" width="500" height="500" xmlns="http://www.w3.org/2000/svg"><path d="M22.944809818966057,-122.4056738698794L-19.343711171592755,-107.81456213198588L-30.33572732390612,-103.30063715939906zM22.944809818966057,-122.4056738698794L-8.254661138459744,-112.06733893808111L-19.343711171592755,-107.81456213198588zM22.944809818966057,-122.4056738698794L-30.33572732390612,-103.30063715939906L-41.17164492450708,-98.54981123123616zM22.944809818966057,-122.4056738698794L2.871758415206512,-116.0354441611571L-8.254661138459744,-112.06733893808111zM22.944809818966057,-122.4056738698794L-41.17164492450708,-98.54981123123616L-51.79237997970724,-93.58699337624925zM22.944809818966057,-122.4056738698794L13.975397299112865,-119.69559580428006L2.871758415206512,-116.0354441611571zM22.944809818966057,-122.4056738698794L-51.79237997970724,-93.58699337624925L-62.13887875380133,-88.43792871935031zM22.944809818966057,-122.4056738698794L-62.13887875380133,-88.43792871935031L-72.15169812470555,-83.12922741452745zM22.944809818966057,-122.4056738698794L-72.15169812470555,-83.12922741452745L-81.77096059746908,-77.6887394752663zM56.91898689932894,-130.80951089826863L24.995003259365763,-123.02514877239766L22.944809818966057,-122.4056738698794zM22.944809818966057,-122.4056738698794L-81.77096059746908,-77.6887394752663L-90.93611798222388,-72.14554527603181zM56.91898689932894,-130.80951089826863L35.868232160590516,-126.00183369179827L24.995003259365763,-123.02514877239766zM22.944809818966057,-122.4056738698794L-90.93611798222388,-72.14554527603181L-99.58601175323224,-66.53005018859363zM56.91898689932894,-130.80951089826863L46.53132249685802,-128.60371050800867L35.868232160590516,-126.00183369179827zM22.944809818966057,-122.4056738698794L-99.58601175323224,-66.53005018859363L-107.65876892113758,-60.87439872295878zM22.944809818966057,-122.4056738698794L-107.65876892113758,-60.87439872295878L-115.09197330511218,-55.21235649755881zM56.91898689932894,-130.80951089826863L76.59779194566632,-133.95019861277774L66.96406265549624,-132.598375849919zM22.944809818966057,-122.4056738698794L-115.09197330511218,-55.21235649755881L-121.82276808221444,-49.57951996108573zM56.91898689932894,-130.80951089826863L85.74962008727778,-134.84592535483293L76.59779194566632,-133.95019861277774zM22.944809818966057,-122.4056738698794L-121.82276808221444,-49.57951996108573L-127.78838420637953,-44.01347147741264zM56.91898689932894,-130.80951089826863L94.34729625585533,-135.26751763931506L85.74962008727778,-134.84592535483293zM22.944809818966057,-122.4056738698794L-127.78838420637953,-44.01347147741264L-132.9261800515474,-38.55365566469082zM56.91898689932894,-130.80951089826863L102.31733701114915,-135.19859688379574L94.34729625585533,-135.26751763931506zM22.944809818966057,-122.4056738698794L-132.9261800515474,-38.55365566469082L-137.17482650022464,-33.24154384034886zM56.91898689932894,-130.80951089826863L109.58511148813412,-134.624671440505L102.31733701114915,-135.19859688379574zM22.944809818966057,-122.4056738698794L-137.17482650022464,-33.24154384034886L-140.47455287174273,-28.120433198524072zM56.91898689932894,-130.80951089826863L22.944809818966057,-122.4056738698794L-139.8417455824741,-6.062723669618189zM56.91898689932894,-130.80951089826863L116.07572002214332,-133.53345706613416L109.58511148813412,-134.624671440505zM22.944809818966057,-122.4056738698794L-140.47455287174273,-28.120433198524072L-142.76828647208984,-23.235227572516983zM56.91898689932894,-130.80951089826863L117.11185465140221,-133.2361804718843L116.07572002214332,-133.53345706613416zM22.944809818966057,-122.4056738698794L-142.76828647208984,-23.235227572516983L-144.00276467134907,-18.63234403743405zM22.944809818966057,-122.4056738698794L-144.00276467134907,-18.63234403743405L-144.12970184147258,-14.359176024157312zM22.944809818966057,-122.4056738698794L-144.12970184147258,-14.359176024157312L-143.10738906066655,-10.463739866474745zM22.944809818966057,-122.4056738698794L-143.10738906066655,-10.463739866474745L-140.9019682664165,-6.993881610282118zM22.944809818966057,-122.4056738698794L-140.9019682664165,-6.993881610282118L-139.8417455824741,-6.062723669618189z" style="fill:rgb(82,237,172)"/><path d="M-102.80269059527237,74.11277555572707L-87.87119403899264,107.73641395416216L-86.66721536642227,109.04008533235385z" style="fill:rgb(17,70,157)"/><path d="M56.91898689932894,-130.80951089826863L-139.8417455824741,-6.062723669618189L-137.48940754419564,-3.9966695153071314z" style="fill:rgb(82,237,172)"/><path d="M-87.87119403899264,107.73641395416216L-140.9019682664165,-6.993881610282118L-90.59302435896655,103.09160732725292z" style="fill:rgb(13,73,147)"/><path d="M174.9258855099644,-0.5648329303438194L134.3239088299975,-120.12519381482299L175.72754214383946,4.8842735943981195z" style="fill:rgb(246,164,156)"/><path d="M56.91898689932894,-130.80951089826863L-137.48940754419564,-3.9966695153071314L-132.85701093207487,-1.517555506747575z" style="fill:rgb(82,237,172)"/><path d="M-102.80269059527237,74.11277555572707L-140.9019682664165,-6.993881610282118L-87.87119403899264,107.73641395416216z" style="fill:rgb(17,70,157)"/><path d="M56.91898689932894,-130.80951089826863L-46.000793845205436,-6.693830007715382L117.11185465140221,-133.2361804718843z" style="fill:rgb(82,237,172)"/><path d="M-90.59302435896655,103.09160732725292L-140.9019682664165,-6.993881610282118L-143.10738906066655,-10.463739866474745z" style="fill:rgb(13,73,147)"/><path d="M-137.48940754419564,-3.9966695153071314L-86.66721536642227,109.04008533235385L-83.99713361223169,111.93108813229135z" style="fill:rgb(17,70,157)"/><path d="M56.91898689932894,-130.80951089826863L-132.85701093207487,-1.517555506747575L-127.00527488248613,0.40090573709097865z" style="fill:rgb(82,237,172)"/><path d="M-137.48940754419564,-3.9966695153071314L-102.80269059527237,74.11277555572707L-86.66721536642227,109.04008533235385z" style="fill:rgb(17,70,157)"/><path d="M175.72754214383946,4.8842735943981195L134.66828114985375,-115.87614666717279L175.35444291817262,10.78986600040295z" style="fill:rgb(244,159,166)"/><path d="M56.91898689932894,-130.80951089826863L-127.00527488248613,0.40090573709097865L-119.94933139974057,1.7197002488663418z" style="fill:rgb(82,237,172)"/><path d="M-78.96625397178025,115.62079065849468L-132.85701093207487,-1.517555506747575L-83.99713361223169,111.93108813229135z" style="fill:rgb(22,67,168)"/><path d="M175.72754214383946,4.8842735943981195L134.3239088299975,-120.12519381482299L134.66828114985375,-115.87614666717279z" style="fill:rgb(246,164,156)"/><path d="M-102.80269059527237,74.11277555572707L-139.8417455824741,-6.062723669618189L-140.9019682664165,-6.993881610282118z" style="fill:rgb(17,70,157)"/><path d="M175.35444291817262,10.78986600040295L133.78386239712228,-111.13823243954857L173.76939891911093,17.111513011229782z" style="fill:rgb(242,154,176)"/><path d="M56.91898689932894,-130.80951089826863L-119.94933139974057,1.7197002488663418L-111.72060677222565,2.405106985613924z" style="fill:rgb(82,237,172)"/><path d="M-102.80269059527237,74.11277555572707L-137.48940754419564,-3.9966695153071314L-139.8417455824741,-6.062723669618189z" style="fill:rgb(17,70,157)"/><path d="M-46.000793845205436,-6.693830007715382L121.71449151582254,-131.9157141791696L117.11185465140221,-133.2361804718843z" style="fill:rgb(82,237,172)"/><path d="M-72.78678971778564,118.75278139666013L-127.00527488248613,0.40090573709097865L-78.96625397178025,115.62079065849468z" style="fill:rgb(27,66,178)"/><path d="M-83.99713361223169,111.93108813229135L-132.85701093207487,-1.517555506747575L-137.48940754419564,-3.9966695153071314z" style="fill:rgb(22,67,168)"/><path d="M175.35444291817262,10.78986600040295L134.66828114985375,-115.87614666717279L133.78386239712228,-111.13823243954857z" style="fill:rgb(244,159,166)"/><path d="M56.91898689932894,-130.80951089826863L-111.72060677222565,2.405106985613924L-102.3677382069748,2.429305075765533zM-139.8417455824741,-6.062723669618189L-140.16382057083013,-5.832512069595997L-139.77411354236298,-5.219412669046052zM-140.16382057083013,-5.832512069595997L-140.4874987647643,-5.601209515950912L-139.77411354236298,-5.219412669046052z" style="fill:rgb(82,237,172)"/><path d="M173.76939891911093,17.111513011229782L131.6344408096288,-105.93910817578991L170.94690087357876,23.80131696421452z" style="fill:rgb(238,148,186)"/><path d="M-46.000793845205436,-6.693830007715382L126.42783610613562,-129.76550511691497L121.71449151582254,-131.9157141791696zM-139.8417455824741,-6.062723669618189L-139.77411354236298,-5.219412669046052L-137.48940754419564,-3.9966695153071314zM56.91898689932894,-130.80951089826863L-102.3677382069748,2.429305075765533L-91.95761020477116,1.7719453585958276z" style="fill:rgb(82,237,172)"/><path d="M-65.48111533071935,121.27747001401654L-119.94933139974057,1.7197002488663418L-72.78678971778564,118.75278139666013z" style="fill:rgb(34,64,187)"/><path d="M-78.96625397178025,115.62079065849468L-127.00527488248613,0.40090573709097865L-132.85701093207487,-1.517555506747575z" style="fill:rgb(27,66,178)"/><path d="M-130.48913362678118,-0.25029823983412536L-140.4874987647643,-5.601209515950912L-144.3496338126765,-2.8409419743161597z" style="fill:rgb(82,237,172)"/><path d="M173.76939891911093,17.111513011229782L133.78386239712228,-111.13823243954857L131.6344408096288,-105.93910817578991z" style="fill:rgb(242,154,176)"/><path d="M-46.000793845205436,-6.693830007715382L130.14470312837724,-127.08088520264468L126.42783610613562,-129.76550511691497zM56.91898689932894,-130.80951089826863L-91.95761020477116,1.7719453585958276L-80.57572586299212,0.4212639041864156z" style="fill:rgb(82,237,172)"/><path d="M170.94690087357876,23.80131696421452L128.19631001992116,-100.31374548430671L166.87524047431307,30.803619160680462z" style="fill:rgb(234,143,195)"/><path d="M-144.3496338126765,-2.8409419743161597L-147.51809326814106,-0.5764565697892167L-119.94933139974057,1.7197002488663418zM56.91898689932894,-130.80951089826863L-80.57572586299212,0.4212639041864156L-68.32585888303042,-1.6253519426408478z" style="fill:rgb(82,237,172)"/><path d="M-57.08680268766063,123.14944969580078L-111.72060677222565,2.405106985613924L-65.48111533071935,121.27747001401654z" style="fill:rgb(41,64,197)"/><path d="M-46.000793845205436,-6.693830007715382L132.7975112092362,-123.86479746901855L130.14470312837724,-127.08088520264468zM-149.1599142673915,0.5969142027559029L-119.94933139974057,1.7197002488663418L-147.51809326814106,-0.5764565697892167z" style="fill:rgb(82,237,172)"/><path d="M-72.78678971778564,118.75278139666013L-119.94933139974057,1.7197002488663418L-127.00527488248613,0.40090573709097865z" style="fill:rgb(34,64,187)"/><path d="M170.94690087357876,23.80131696421452L131.6344408096288,-105.93910817578991L128.19631001992116,-100.31374548430671z" style="fill:rgb(238,148,186)"/><path d="M166.87524047431307,30.803619160680462L123.46052390340702,-94.30497538470647L161.55766858252,38.05546565948459z" style="fill:rgb(228,137,204)"/><path d="M56.91898689932894,-130.80951089826863L-68.32585888303042,-1.6253519426408478L-55.32905479595311,-4.359974303056626zM-132.85701093207487,-1.517555506747575L-130.48913362678118,-0.25029823983412536L-127.00527488248613,0.40090573709097865zM-46.000793845205436,-6.693830007715382L134.3239088299975,-120.12519381482299L132.7975112092362,-123.86479746901855zM56.91898689932894,-130.80951089826863L-55.32905479595311,-4.359974303056626L-46.000793845205436,-6.693830007715382zM-149.1599142673915,0.5969142027559029L-150.46589059847108,5.46631451191459L-112.67200069566061,3.0799071841375536z" style="fill:rgb(82,237,172)"/><path d="M-121.86182686258093,108.17738709799379L-134.46128916662502,149.6855711188933L-99.33349275995784,155.48371258753212zM-47.65796182554431,124.32920133968L-102.3677382069748,2.429305075765533L-57.08680268766063,123.14944969580078z" style="fill:rgb(49,63,205)"/><path d="M-65.48111533071935,121.27747001401654L-111.72060677222565,2.405106985613924L-119.94933139974057,1.7197002488663418z" style="fill:rgb(41,64,197)"/><path d="M166.87524047431307,30.803619160680462L128.19631001992116,-100.31374548430671L123.46052390340702,-94.30497538470647z" style="fill:rgb(234,143,195)"/><path d="M161.55766858252,38.05546565948459L117.43421932134507,-87.96327294279682L155.01436526768632,45.48708902188296z" style="fill:rgb(222,131,212)"/><path d="M-151.36587681084035,8.822142400408794L-112.67200069566061,3.0799071841375536L-150.46589059847108,5.46631451191459zM-46.000793845205436,-6.693830007715382L134.66828114985375,-115.87614666717279L134.3239088299975,-120.12519381482299zM-149.1599142673915,0.5969142027559029L-112.67200069566061,3.0799071841375536L-119.94933139974057,1.7197002488663418z" style="fill:rgb(82,237,172)"/><path d="M-37.26530659028379,124.78411913458993L-91.95761020477116,1.7719453585958276L-47.65796182554431,124.32920133968z" style="fill:rgb(57,64,213)"/><path d="M-57.08680268766063,123.14944969580078L-102.3677382069748,2.429305075765533L-111.72060677222565,2.405106985613924z" style="fill:rgb(49,63,205)"/><path d="M155.01436526768632,45.48708902188296L110.14259818163119,-81.34652903326779L147.28332288994832,53.02240754220998z" style="fill:rgb(215,126,219)"/><path d="M-157.78266494068498,32.74829162782118L-192.35310462875128,31.4669492949275L-134.46128916662502,149.6855711188933z" style="fill:rgb(49,63,205)"/><path d="M-46.000793845205436,-6.693830007715382L133.78386239712228,-111.13823243954857L134.66828114985375,-115.87614666717279z" style="fill:rgb(82,237,172)"/><path d="M161.55766858252,38.05546565948459L123.46052390340702,-94.30497538470647L117.43421932134507,-87.96327294279682z" style="fill:rgb(228,137,204)"/><path d="M-157.78266494068498,32.74829162782118L-134.46128916662502,149.6855711188933L-121.86182686258093,108.17738709799379z" style="fill:rgb(49,63,205)"/><path d="M-157.78266494068498,32.74829162782118L-149.1599142673915,0.5969142027559029L-192.35310462875128,31.4669492949275z" style="fill:rgb(82,237,172)"/><path d="M-25.99674483267219,124.48972418584269L-80.57572586299212,0.4212639041864156L-37.26530659028379,124.78411913458993z" style="fill:rgb(67,64,220)"/><path d="M-151.36587681084035,8.822142400408794L-108.90788010742538,3.783528825497057L-112.67200069566061,3.0799071841375536z" style="fill:rgb(82,237,172)"/><path d="M147.28332288994832,53.02240754220998L101.62992000497489,-74.51987872224987L138.42104231728533,60.58031511822541z" style="fill:rgb(208,120,225)"/><path d="M-46.000793845205436,-6.693830007715382L131.6344408096288,-105.93910817578991L133.78386239712228,-111.13823243954857z" style="fill:rgb(82,237,172)"/><path d="M-47.65796182554431,124.32920133968L-91.95761020477116,1.7719453585958276L-102.3677382069748,2.429305075765533z" style="fill:rgb(57,64,213)"/><path d="M155.01436526768632,45.48708902188296L117.43421932134507,-87.96327294279682L110.14259818163119,-81.34652903326779z" style="fill:rgb(222,131,212)"/><path d="M-112.67200069566061,3.0799071841375536L-107.5223101928711,2.7547295451092966L-119.94933139974057,1.7197002488663418z" style="fill:rgb(82,237,172)"/><path d="M-13.956457946568214,123.43127141416932L-68.32585888303042,-1.6253519426408478L-25.99674483267219,124.48972418584269z" style="fill:rgb(76,66,227)"/><path d="M138.42104231728533,60.58031511822541L91.96025803981085,-67.55465264826574L128.50268396152933,68.07589332037479z" style="fill:rgb(199,114,231)"/><path d="M-46.000793845205436,-6.693830007715382L128.19631001992116,-100.31374548430671L131.6344408096288,-105.93910817578991z" style="fill:rgb(82,237,172)"/><path d="M7.496859967276342,120.10673585274677L7.792627445505081,119.82919752167803L-19.56849068865687,55.47540438501067zM7.496859967276342,120.10673585274677L-20.45228060708565,60.100140363248265L5.805885315385623,121.69394332434773z" style="fill:rgb(217,127,217)"/><path d="M-28.556364938041273,34.33574120463521L-1.264425235260957,121.60422411202016L7.792627445505081,119.82919752167803z" style="fill:rgb(97,70,237)"/><path d="M-102.3677382069748,2.429305075765533L-111.72060677222565,2.405106985613924L-107.5223101928711,2.7547295451092966z" style="fill:rgb(82,237,172)"/><path d="M-121.86182686258093,108.17738709799379L-99.33349275995784,155.48371258753212L-44.625034478721616,164.5138096289119z" style="fill:rgb(49,63,205)"/><path d="M-37.26530659028379,124.78411913458993L-80.57572586299212,0.4212639041864156L-91.95761020477116,1.7719453585958276z" style="fill:rgb(67,64,220)"/><path d="M5.805885315385623,121.69394332434773L-21.408107173724236,65.1018766410129L3.652317511722952,123.71525354039771z" style="fill:rgb(217,127,217)"/><path d="M-1.264425235260957,121.60422411202016L-55.32905479595311,-4.359974303056626L-13.956457946568214,123.43127141416932z" style="fill:rgb(86,67,232)"/><path d="M147.28332288994832,53.02240754220998L110.14259818163119,-81.34652903326779L101.62992000497489,-74.51987872224987z" style="fill:rgb(215,126,219)"/><path d="M-108.90788010742538,3.783528825497057L-91.95761020477116,1.7719453585958276L-112.67200069566061,3.0799071841375536z" style="fill:rgb(82,237,172)"/><path d="M128.50268396152933,68.07589332037479L81.21757466102693,-60.52744700875236L117.62209294912424,75.42182845739185z" style="fill:rgb(190,108,236)"/><path d="M-46.000793845205436,-6.693830007715382L123.46052390340702,-94.30497538470647L128.19631001992116,-100.31374548430671z" style="fill:rgb(82,237,172)"/><path d="M7.496859967276342,120.10673585274677L-19.56849068865687,55.47540438501067L-19.70016418029151,56.16449385779652zM7.496859967276342,120.10673585274677L-19.70016418029151,56.16449385779652L-20.45228060708565,60.100140363248265z" style="fill:rgb(217,127,217)"/><path d="M-41.722517577638406,-7.764241048148672L7.792627445505081,119.82919752167803L11.945415723889516,119.01528679515532z" style="fill:rgb(97,70,237)"/><path d="M5.805885315385623,121.69394332434773L-20.45228060708565,60.100140363248265L-21.408107173724236,65.1018766410129z" style="fill:rgb(217,127,217)"/><path d="M-25.99674483267219,124.48972418584269L-68.32585888303042,-1.6253519426408478L-80.57572586299212,0.4212639041864156z" style="fill:rgb(76,66,227)"/><path d="M117.62209294912424,75.42182845739185L69.50537959368305,-53.51892954215665L105.89033631501798,82.53036107845872z" style="fill:rgb(181,103,240)"/><path d="M138.42104231728533,60.58031511822541L101.62992000497489,-74.51987872224987L91.96025803981085,-67.55465264826574z" style="fill:rgb(208,120,225)"/><path d="M25.52712887021885,115.68297300119173L-27.657293049786237,-11.808669908825086L11.945415723889516,119.01528679515532z" style="fill:rgb(107,73,241)"/><path d="M-46.000793845205436,-6.693830007715382L117.43421932134507,-87.96327294279682L123.46052390340702,-94.30497538470647z" style="fill:rgb(82,237,172)"/><path d="M105.89033631501798,82.53036107845872L56.945719783364275,-46.61207246253304L93.43437013578564,89.31487817211536z" style="fill:rgb(171,98,243)"/><path d="M-21.408107173724236,65.1018766410129L-33.16493974840575,158.2717230708633L3.652317511722952,123.71525354039771z" style="fill:rgb(217,127,217)"/><path d="M39.32545270835641,111.63745585344061L-13.29555813866048,-16.453113234493298L25.52712887021885,115.68297300119173z" style="fill:rgb(118,76,243)"/><path d="M93.43437013578564,89.31487817211536L43.67698989647432,-39.890653846334615L80.39480655519607,95.69234946055225z" style="fill:rgb(161,93,245)"/><path d="M-28.556364938041273,34.33574120463521L-55.32905479595311,-4.359974303056626L-1.264425235260957,121.60422411202016z" style="fill:rgb(97,70,237)"/><path d="M-13.956457946568214,123.43127141416932L-55.32905479595311,-4.359974303056626L-68.32585888303042,-1.6253519426408478z" style="fill:rgb(86,67,232)"/><path d="M53.17889860723752,106.92042446020217L1.192668708820708,-21.647238056750385L39.32545270835641,111.63745585344061z" style="fill:rgb(129,79,245)"/><path d="M128.50268396152933,68.07589332037479L91.96025803981085,-67.55465264826574L81.21757466102693,-60.52744700875236z" style="fill:rgb(199,114,231)"/><path d="M80.39480655519607,95.69234946055225L29.851744108664015,-33.437241973004156L66.92322426190253,101.58455216124729z" style="fill:rgb(150,88,246)"/><path d="M66.92322426190253,101.58455216124729L15.633341703616358,-27.331238495964907L53.17889860723752,106.92042446020217z" style="fill:rgb(140,83,246)"/><path d="M-41.722517577638406,-7.764241048148672L-28.556364938041273,34.33574120463521L7.792627445505081,119.82919752167803z" style="fill:rgb(97,70,237)"/><path d="M-46.000793845205436,-6.693830007715382L110.14259818163119,-81.34652903326779L117.43421932134507,-87.96327294279682z" style="fill:rgb(82,237,172)"/><path d="M117.62209294912424,75.42182845739185L81.21757466102693,-60.52744700875236L69.50537959368305,-53.51892954215665z" style="fill:rgb(190,108,236)"/><path d="M-46.32815316488393,-6.439837052190027L-19.70016418029151,56.16449385779652L-19.56849068865687,55.47540438501067zM-46.32815316488393,-6.439837052190027L-20.45228060708565,60.100140363248265L-19.70016418029151,56.16449385779652z" style="fill:rgb(217,127,217)"/><path d="M-46.000793845205436,-6.693830007715382L101.62992000497489,-74.51987872224987L110.14259818163119,-81.34652903326779z" style="fill:rgb(82,237,172)"/><path d="M-48.199950639043095,-4.987727264108196L-21.408107173724236,65.1018766410129L-20.45228060708565,60.100140363248265zM-21.408107173724236,65.1018766410129L-37.40762491992204,148.82504413877152L-33.16493974840575,158.2717230708633z" style="fill:rgb(217,127,217)"/><path d="M11.945415723889516,119.01528679515532L-27.657293049786237,-11.808669908825086L-41.722517577638406,-7.764241048148672z" style="fill:rgb(107,73,241)"/><path d="M-103.67830202938922,34.7536576980357L-151.36587681084035,8.822142400408794L-157.78266494068498,32.74829162782118z" style="fill:rgb(82,237,172)"/><path d="M105.89033631501798,82.53036107845872L69.50537959368305,-53.51892954215665L56.945719783364275,-46.61207246253304z" style="fill:rgb(181,103,240)"/><path d="M-80.57572586299212,0.4212639041864156L-68.90202432471627,-0.9640933277211592L-62.10559055830406,-2.6645601745677263zM-46.000793845205436,-6.693830007715382L91.96025803981085,-67.55465264826574L101.62992000497489,-74.51987872224987z" style="fill:rgb(82,237,172)"/><path d="M25.52712887021885,115.68297300119173L-13.29555813866048,-16.453113234493298L-27.657293049786237,-11.808669908825086z" style="fill:rgb(118,76,243)"/><path d="M93.43437013578564,89.31487817211536L56.945719783364275,-46.61207246253304L43.67698989647432,-39.890653846334615z" style="fill:rgb(171,98,243)"/><path d="M-37.40762491992204,148.82504413877152L-40.534736083170394,165.18894882015735L-33.16493974840575,158.2717230708633zM-46.32815316488393,-6.439837052190027L-19.56849068865687,55.47540438501067L-46.000793845205436,-6.693830007715382z" style="fill:rgb(217,127,217)"/><path d="M39.32545270835641,111.63745585344061L1.192668708820708,-21.647238056750385L-13.29555813866048,-16.453113234493298z" style="fill:rgb(129,79,245)"/><path d="M-46.32815316488393,-6.439837052190027L-48.199950639043095,-4.987727264108196L-20.45228060708565,60.100140363248265z" style="fill:rgb(217,127,217)"/><path d="M80.39480655519607,95.69234946055225L43.67698989647432,-39.890653846334615L29.851744108664015,-33.437241973004156z" style="fill:rgb(161,93,245)"/><path d="M-68.32585888303042,-1.6253519426408478L-62.10559055830406,-2.6645601745677263L-55.32905479595311,-4.359974303056626zM-103.67830202938922,34.7536576980357L-50.58427051574044,-3.137920000066269L-151.36587681084035,8.822142400408794z" style="fill:rgb(82,237,172)"/><path d="M-28.556364938041273,34.33574120463521L-46.000793845205436,-6.693830007715382L-55.32905479595311,-4.359974303056626z" style="fill:rgb(97,70,237)"/><path d="M53.17889860723752,106.92042446020217L15.633341703616358,-27.331238495964907L1.192668708820708,-21.647238056750385z" style="fill:rgb(140,83,246)"/><path d="M66.92322426190253,101.58455216124729L29.851744108664015,-33.437241973004156L15.633341703616358,-27.331238495964907z" style="fill:rgb(150,88,246)"/><path d="M-48.199950639043095,-4.987727264108196L-50.58427051574044,-3.137920000066269L-21.408107173724236,65.1018766410129z" style="fill:rgb(217,127,217)"/><path d="M-46.000793845205436,-6.693830007715382L81.21757466102693,-60.52744700875236L91.96025803981085,-67.55465264826574z" style="fill:rgb(82,237,172)"/><path d="M-103.67830202938922,34.7536576980357L-157.78266494068498,32.74829162782118L-121.86182686258093,108.17738709799379z" style="fill:rgb(49,63,205)"/><path d="M-28.556364938041273,34.33574120463521L-41.722517577638406,-7.764241048148672L-46.000793845205436,-6.693830007715382z" style="fill:rgb(97,70,237)"/><path d="M-121.86182686258093,108.17738709799379L-44.625034478721616,164.5138096289119L-101.21655405742275,40.163003127206366z" style="fill:rgb(49,63,205)"/><path d="M-62.10559055830406,-2.6645601745677263L-68.90202432471627,-0.9640933277211592L-50.58427051574044,-3.137920000066269zM-55.7854569515043,-3.720437151375757L-46.000793845205436,-6.693830007715382L-62.10559055830406,-2.6645601745677263zM-46.000793845205436,-6.693830007715382L69.50537959368305,-53.51892954215665L81.21757466102693,-60.52744700875236zM-55.7854569515043,-3.720437151375757L-46.32815316488393,-6.439837052190027L-46.000793845205436,-6.693830007715382zM-55.7854569515043,-3.720437151375757L-48.199950639043095,-4.987727264108196L-46.32815316488393,-6.439837052190027zM-62.10559055830406,-2.6645601745677263L-50.58427051574044,-3.137920000066269L-48.199950639043095,-4.987727264108196zM-46.000793845205436,-6.693830007715382L56.945719783364275,-46.61207246253304L69.50537959368305,-53.51892954215665zM-46.000793845205436,-6.693830007715382L-41.722517577638406,-7.764241048148672L-27.657293049786237,-11.808669908825086z" style="fill:rgb(82,237,172)"/><path d="M-21.408107173724236,65.1018766410129L-91.42645613006897,28.547346042534308L-37.40762491992204,148.82504413877152z" style="fill:rgb(217,127,217)"/><path d="M-46.000793845205436,-6.693830007715382L43.67698989647432,-39.890653846334615L56.945719783364275,-46.61207246253304zM-46.000793845205436,-6.693830007715382L-27.657293049786237,-11.808669908825086L-13.29555813866048,-16.453113234493298zM-46.000793845205436,-6.693830007715382L29.851744108664015,-33.437241973004156L43.67698989647432,-39.890653846334615zM-46.000793845205436,-6.693830007715382L-13.29555813866048,-16.453113234493298L1.192668708820708,-21.647238056750385zM-46.000793845205436,-6.693830007715382L15.633341703616358,-27.331238495964907L29.851744108664015,-33.437241973004156zM-46.000793845205436,-6.693830007715382L1.192668708820708,-21.647238056750385L15.633341703616358,-27.331238495964907z" style="fill:rgb(82,237,172)"/><path d="M-21.408107173724236,65.1018766410129L-50.58427051574044,-3.137920000066269L-91.42645613006897,28.547346042534308z" style="fill:rgb(217,127,217)"/><path d="M-99.62027450927509,34.904070684706184L-44.625034478721616,164.5138096289119L-40.534736083170394,165.18894882015735z" style="fill:rgb(49,63,205)"/><path d="M-37.40762491992204,148.82504413877152L-99.62027450927509,34.904070684706184L-40.534736083170394,165.18894882015735z" style="fill:rgb(217,127,217)"/><path d="M-103.67830202938922,34.7536576980357L-121.86182686258093,108.17738709799379L-101.21655405742275,40.163003127206366zM-99.62027450927509,34.904070684706184L-101.21655405742275,40.163003127206366L-44.625034478721616,164.5138096289119z" style="fill:rgb(49,63,205)"/><path d="M-37.40762491992204,148.82504413877152L-91.42645613006897,28.547346042534308L-99.62027450927509,34.904070684706184z" style="fill:rgb(217,127,217)"/><path d="M-103.67830202938922,34.7536576980357L-91.42645613006897,28.547346042534308L-50.58427051574044,-3.137920000066269zM-103.67830202938922,34.7536576980357L-99.62027450927509,34.904070684706184L-91.42645613006897,28.547346042534308z" style="fill:rgb(82,237,172)"/><path d="M-101.21655405742275,40.163003127206366L-99.62027450927509,34.904070684706184L-103.67830202938922,34.7536576980357z" style="fill:rgb(49,63,205)"/></svg>